<?xml version="1.0" encoding="utf-8"?>
<!-- Generator: Adobe Illustrator 27.6.1, SVG Export Plug-In . SVG Version: 6.00 Build 0)  -->
<svg version="1.1" id="_圖層_1" xmlns="http://www.w3.org/2000/svg" xmlns:xlink="http://www.w3.org/1999/xlink" x="0px" y="0px"
	 viewBox="0 0 595.3 595.3" style="enable-background:new 0 0 595.3 595.3;" xml:space="preserve">
<style type="text/css">
	.st0{fill:#FFE0B2;}
	.st1{fill:#FFFFFF;}
	.st2{fill:#FF9900;}
	.st3{fill:#FFFAF2;}
</style>
<g>
	<g id="_x32_87_x2C__Chemistry_x2C__Lab_x2C__Tube_x2C__Acid_x2C__Lab">
		<g>
			<path class="st0" d="M470.1,453.2c16.7,28-3.8,63.6-36.3,63.6H161.2c-32.5,0-53-35.6-36.3-63.6l56.8-96.1c0,0,56.8-27.2,68.9-1.5
				s76.5-25.7,85.5,0c9.1,25.7,77.2,0,77.2,0L470.1,453.2z"/>
			<path class="st1" d="M335.3,223.8l77.2,131.7c0,0-68.9,25.7-77.2,0c-8.3-25.7-72.7,26.5-85.5,0c-12.9-26.5-68.9,1.5-68.9,1.5
				l78.7-133.2v-76.5h75.7V223.8z"/>
			<rect x="259.6" y="81.5" class="st1" width="75.7" height="37.8"/>
			<path class="st1" d="M288.4,289.7c5.3,0,9.8,4.5,9.8,9.8s-4.5,9.8-9.8,9.8s-9.8-4.5-9.8-9.8S283.1,289.7,288.4,289.7z"/>
			<path class="st2" d="M486.7,109.5c5.3,0,9.8,4.5,9.8,9.8s-4.5,9.8-9.8,9.8s-9.8-4.5-9.8-9.8C477.6,114.1,481.4,109.5,486.7,109.5
				z"/>
			<path class="st2" d="M477.6,298.8c5.3,0,9.8,4.5,9.8,9.8s-4.5,9.8-9.8,9.8s-9.8-4.5-9.8-9.8C467.8,303.3,472.3,298.8,477.6,298.8
				z"/>
			<path class="st2" d="M430,460c5.3,0,9.8,4.5,9.8,9.8s-4.5,9.8-9.8,9.8s-9.8-4.5-9.8-9.8C420.9,463.8,424.7,460,430,460z"/>
			<path class="st2" d="M402,157.2c5.3,0,9.8,4.5,9.8,9.8s-4.5,9.8-9.8,9.8s-9.8-4.5-9.8-9.8C392.1,161.8,396.6,157.2,402,157.2z"/>
			<path class="st2" d="M202.9,185.2c5.3,0,9.8,4.5,9.8,9.8s-4.5,9.8-9.8,9.8s-9.8-4.5-9.8-9.8C193.8,189.8,197.6,185.2,202.9,185.2
				z"/>
			<path class="st2" d="M137,232.9c5.3,0,9.8,4.5,9.8,9.8s-4.5,9.8-9.8,9.8s-9.8-4.5-9.8-9.8C127.2,236.7,131.7,232.9,137,232.9z"/>
			<path class="st2" d="M108.2,393.4c5.3,0,9.8,4.5,9.8,9.8s-4.5,9.8-9.8,9.8s-9.8-4.5-9.8-9.8C99.2,397.9,103,393.4,108.2,393.4z"
				/>
			<path class="st2" d="M433.7,525.9H161.2c-18.9,0-35.6-9.8-44.7-25.7c-9.1-15.9-9.1-35.6,0-51.5l56.8-96.9l77.2-130.2v-74.2
				c0-5.3,4.5-9.8,9.8-9.8s9.8,4.5,9.8,9.8v76.5c0,1.5-0.8,3-1.5,4.5l-79.5,133.2l-56.8,96.1c-6,10.6-6,22.7,0,32.5
				c6.1,10.6,16.7,16.7,28,16.7h273.3c12.1,0,22.7-6.1,28-16.7c6.1-10.6,6.1-22.7,0-32.5L327,229.1c-0.8-1.5-1.5-3-1.5-4.5v-77.2
				c0-5.3,4.5-9.8,9.8-9.8s9.8,4.5,9.8,9.8v74.2l134,227.1c9.8,15.9,9.8,35.6,0,51.5C469.3,516,452.7,525.9,433.7,525.9z"/>
			<path class="st2" d="M339.9,157.2h-84.8c-12.9,0-23.5-10.6-23.5-23.5c0-6.1,2.3-12.1,6.8-16.7c4.5-4.5,10.6-6.8,16.7-6.8h4.5
				c5.3,0,9.8,4.5,9.8,9.8s-4.5,9.8-9.8,9.8h-4.5c-1.5,0-3,0.8-3,1.5c-0.8,0.8-1.5,1.5-1.5,3c0,2.3,2.3,4.5,4.5,4.5h85.5
				c1.5,0,3-0.8,3-1.5c0.8-0.8,1.5-2.3,1.5-3c0-2.3-2.3-4.5-4.5-4.5h-5.3c-5.3,0-9.8-4.5-9.8-9.8s4.5-9.8,9.8-9.8h4.5
				c12.9,0,23.5,10.6,23.5,23.5c0,6.1-2.3,12.1-6.8,16.7C352,154.2,346.7,157.2,339.9,157.2z"/>
			<path class="st2" d="M335.3,128.5h-75.7c-5.3,0-9.8-4.5-9.8-9.8V80.8c0-5.3,4.5-9.8,9.8-9.8h75.7c5.3,0,9.8,4.5,9.8,9.8v37.8
				C345.2,123.9,340.6,128.5,335.3,128.5z M269.5,109.5h56.8V90.6h-56.8V109.5z"/>
			<path class="st2" d="M359.6,376c-7.6,0-14.4-0.8-20.4-3.8c-6.1-3-10.6-7.6-12.9-14.4V357c0,0-2.3-0.8-8.3,0
				c-6.1,1.5-12.1,3.8-19.7,6.1c-9.8,3.8-20.4,6.8-29.5,8.3c-16.7,3-24.2-5.3-27.3-12.1c-0.8-2.3-3-3.8-5.3-4.5
				c-13.6-4.5-41.6,6.1-50.7,10.6c-4.5,2.3-10.6,0-12.9-4.5c-2.3-4.5,0-10.6,4.5-12.9s41.6-19.7,65.1-11.4
				c7.6,2.3,12.9,7.6,16.7,14.4c2.3,5.3,21.2-0.8,33.3-5.3c15.9-5.3,31.8-10.6,42.4-5.3c4.5,2.3,8.3,6,9.8,11.4c0,0.8,0.8,2.3,3,3
				c12.1,6.1,44.7-2.3,62.1-9.1c4.5-1.5,10.6,0.8,12.1,5.3s-0.8,10.6-5.3,12.1C411.8,366.1,383,376,359.6,376z"/>
			<path class="st2" d="M402,478.9H211.2c-11.4,0-21.2-6.1-27.3-15.1c-6.1-9.8-6.8-21.2-1.5-31.8l21.2-42.4
				c2.3-4.5,8.3-6.8,12.9-4.5c4.5,2.3,6.8,8.3,4.5,12.9l-21.2,42.4c-2.3,4.5-2.3,9.1,0.8,12.9c2.3,3.8,6.8,6.1,11.4,6.1h190
				c5.3,0,9.8,4.5,9.8,9.8C411,474.4,406.5,478.9,402,478.9z"/>
			<path class="st2" d="M321,441.1c-12.9,0-23.5-10.6-23.5-23.5s10.6-23.5,23.5-23.5s23.5,10.6,23.5,23.5
				C345.2,429.7,333.8,441.1,321,441.1z"/>
			<path class="st2" d="M127.2,355.5c-15.9,0-28.8-12.9-28.8-28.8s12.9-28.8,28.8-28.8s28.8,12.9,28.8,28.8
				C155.9,342.7,143.1,355.5,127.2,355.5z M127.2,312.7c-8,0-14.8,6.8-14.8,14.8s6.8,14.8,14.8,14.8s14.8-6.8,14.8-14.8
				S135.2,312.7,127.2,312.7z"/>
			<path class="st2" d="M160.5,166.3c-12.9,0-23.5-10.6-23.5-23.5s10.6-23.5,23.5-23.5s23.5,10.6,23.5,23.5
				C183.9,155.7,173.3,166.3,160.5,166.3z M160.5,131.9c-5.5,0-10.9,5.5-10.9,10.9c0,5.5,5.5,10.9,10.9,10.9
				c5.5,0,10.9-5.5,10.9-10.9S165.9,131.9,160.5,131.9z"/>
			<path class="st2" d="M448.9,242c-15.9,0-28.8-12.9-28.8-28.8s12.9-28,28.8-28s28.8,12.9,28.8,28.8
				C477.6,229.9,464.8,242,448.9,242z M448.9,199c-8.2,0-15.1,6.9-15.1,15.1s6.9,14,15.1,14S464,221.2,464,213
				C464,204.8,457.1,199,448.9,199z"/>
			<path class="st2" d="M288.4,317.7c-10.6,0-18.9-8.3-18.9-18.9s8.3-18.9,18.9-18.9s18.9,8.3,18.9,18.9
				C307.3,309.4,298.2,317.7,288.4,317.7z"/>
			<circle class="st0" cx="320.8" cy="417.9" r="14.1"/>
		</g>
	</g>
	<g id="Layer_1_00000053508998077989571520000002032985324621314748_">
	</g>
</g>
<path class="st1" d="M127.2,311.2c9.2,0,16.3,7.2,16.3,16.3s-7.2,16.3-16.3,16.3s-16.3-7.9-16.3-16.3
	C110.8,319,118,311.2,127.2,311.2z"/>
<path class="st1" d="M448.9,201.4c7.1,0,12.6,5.5,12.6,12.6c0,7.1-5.5,12.6-12.6,12.6s-12.6-5.5-12.6-12.6
	C436.3,206.9,441.8,201.4,448.9,201.4z"/>
<path class="st3" d="M321,403.2c7.6,0,14.4,6.1,14.4,14.4c0,7.6-6.1,14.4-14.4,14.4s-14.4-6.1-14.4-14.4
	C307.3,409.3,313.4,403.2,321,403.2z"/>
<path class="st1" d="M337.1,145.9c-15.9,0-60,0-78,0c-6.9,0-13.1-5.1-13.1-12.2c0-6.4,5.5-12.2,13.1-12.2c17.3,0,61.4,0,78,0
	c6.9,0,13.1,5.1,13.1,12.2C350.2,140.8,344.7,145.9,337.1,145.9z"/>
<path class="st1" d="M160.5,128.5c7.6,0,14.4,6,14.4,14.4c0,8.3-6,14.4-14.4,14.4c-8.3,0-14.4-6.8-14.4-14.4
	S152.2,128.5,160.5,128.5z"/>
</svg>
