<?xml version="1.0" encoding="utf-8"?>
<!-- Generator: Adobe Illustrator 28.0.0, SVG Export Plug-In . SVG Version: 6.00 Build 0)  -->
<svg version="1.1" id="_圖層_1" xmlns="http://www.w3.org/2000/svg" xmlns:xlink="http://www.w3.org/1999/xlink" x="0px" y="0px"
	 viewBox="0 0 595.3 595.3" style="enable-background:new 0 0 595.3 595.3;" xml:space="preserve">
<style type="text/css">
	.st0{fill:#FFFFFF;}
	.st1{fill:#FFCC80;}
	.st2{fill:#FFE0B2;}
	.st3{fill:#FF9900;}
</style>
<g id="Layer_1_11_">
</g>
<g id="_x33_96_x2C__Astronomy_x2C__Moon_x2C__Space">
	<g id="XMLID_14236_">
		<g id="XMLID_14237_">
			<g id="XMLID_30614_">
				<g id="XMLID_14247_">
					<path id="XMLID_14248_" class="st0" d="M275.1,424.2c31.1,0,56.1,24.9,56.1,56.1c0,2.7,0,5.3-0.9,8
						c-10.7,1.8-21.4,2.7-32.9,2.7c-27.6,0-54.3-6.2-77.4-16.9C222.6,445.6,246.6,424.2,275.1,424.2z"/>
				</g>
				<g id="XMLID_14249_">
					<path id="XMLID_14250_" class="st0" d="M397.9,179.5c0-11.6,3.6-22.2,9.8-31.1c29.4,20.5,52.5,49.8,65.8,83.7
						c-6.2,2.7-12.5,3.6-19.6,3.6C421.9,234.7,397.9,209.8,397.9,179.5z"/>
				</g>
				<g id="XMLID_14251_">
					<path id="XMLID_14252_" class="st1" d="M219.9,190.2c0,31.1-24.9,56.1-56.1,56.1c-16,0-30.3-7.1-40.9-17.8
						c14.2-34.7,39.2-64.1,70.3-84.5C209.2,152.8,219.9,170.6,219.9,190.2z"/>
				</g>
				<g id="XMLID_14253_">
					<path id="XMLID_14254_" class="st2" d="M163.8,246.2c31.1,0,56.1-24.9,56.1-56.1c0-19.6-10.7-37.4-25.8-47.2
						c29.4-19.6,65-31.1,103.2-31.1c40.9,0,79.2,13.3,110.3,35.6c-6.2,8.9-9.8,19.6-9.8,31.1c0,31.1,24.9,56.1,56.1,56.1
						c7.1,0,13.3-0.9,19.6-3.6c8.9,21.4,13.3,45.4,13.3,70.3c0,93.4-67.6,170.9-156.6,186c0-2.7,0.9-5.3,0.9-8
						c0-31.1-24.9-56.1-56.1-56.1c-28.5,0-52.5,22.2-55.2,49.8c-65.9-28.5-111.2-95.2-111.2-171.7c0-25.8,5.3-50.7,15.1-73.9
						C133.6,239.1,147.8,246.2,163.8,246.2z M430.8,313c0-12.5-9.8-22.2-22.2-22.2s-22.2,9.8-22.2,22.2s9.8,22.2,22.2,22.2
						S430.8,324.5,430.8,313z M331.1,190.2c0-12.5-9.8-22.2-22.2-22.2s-22.2,9.8-22.2,22.2c0,12.5,9.8,22.2,22.2,22.2
						S331.1,202.6,331.1,190.2z M319.6,301.4c0-12.5-9.8-22.2-22.2-22.2c-12.5,0-22.2,9.8-22.2,22.2c0,12.5,9.8,22.2,22.2,22.2
						C309.8,323.7,319.6,313.9,319.6,301.4z M230.6,368.2c0-12.5-9.8-22.2-22.2-22.2c-12.5,0-22.2,9.8-22.2,22.2s9.8,22.2,22.2,22.2
						C220.8,390.4,230.6,380.6,230.6,368.2z"/>
				</g>
			</g>
			<g id="XMLID_14238_">
				<g id="XMLID_14268_">
					<path id="XMLID_14269_" class="st3" d="M308.9,224c-18.7,0-33.8-15.1-33.8-33.8s15.1-33.8,33.8-33.8s33.8,15.1,33.8,33.8
						S326.7,224,308.9,224z M308.9,179.5c-6.2,0-11.6,5.3-11.6,11.6c0,6.2,5.3,11.6,11.6,11.6s11.6-5.3,11.6-11.6
						C320.5,184.8,314.2,179.5,308.9,179.5z"/>
				</g>
				<g id="XMLID_14272_">
					<path id="XMLID_14273_" class="st3" d="M408.6,345.9c-18.7,0-33.8-15.1-33.8-33.8c0-18.7,15.1-33.8,33.8-33.8
						c18.7,0,33.8,15.1,33.8,33.8C442.4,330.8,427.3,345.9,408.6,345.9z M408.6,301.4c-6.2,0-11.6,5.3-11.6,11.6
						c0,6.2,5.3,11.6,11.6,11.6c6.2,0,11.6-5.3,11.6-11.6C420.1,306.8,414.8,301.4,408.6,301.4z"/>
				</g>
				<g id="XMLID_14276_">
					<path id="XMLID_14277_" class="st3" d="M297.3,335.2c-18.7,0-33.8-15.1-33.8-33.8c0-18.7,15.1-33.8,33.8-33.8
						c18.7,0,33.8,15.1,33.8,33.8C331.1,320.1,316,335.2,297.3,335.2z M297.3,290.7c-6.2,0-11.6,5.3-11.6,11.6
						c0,6.2,5.3,11.6,11.6,11.6c6.2,0,11.6-5.3,11.6-11.6C308.9,296.1,303.6,290.7,297.3,290.7z"/>
				</g>
				<g id="XMLID_14280_">
					<path id="XMLID_14281_" class="st3" d="M208.3,402c-18.7,0-33.8-15.1-33.8-33.8c0-18.7,15.1-33.8,33.8-33.8
						s33.8,15.1,33.8,33.8C242.2,386.8,227,402,208.3,402z M208.3,357.5c-6.2,0-11.6,5.3-11.6,11.6c0,6.2,5.3,11.6,11.6,11.6
						c6.2,0,11.6-5.3,11.6-11.6C219.9,362.8,214.6,357.5,208.3,357.5z"/>
				</g>
				<g id="XMLID_14284_">
					<path id="XMLID_14285_" class="st3" d="M330.3,499c-5.3,0-9.8-3.6-10.7-8.9c-0.9-6.2,2.7-11.6,8.9-12.5
						c84.5-16,146.8-89.9,146.8-176.2c0-23.1-4.4-45.4-12.5-65.9c-2.7-5.3,0.9-12.5,6.2-14.2c5.3-2.7,12.5,0.9,14.2,6.2
						c9.8,24,14.2,48.9,14.2,74.7c0,47.2-16.9,93.4-47.2,129.9c-30.3,35.6-72.1,59.6-118.4,67.6C331.1,499,330.3,499,330.3,499z"/>
				</g>
				<g id="XMLID_14286_">
					<path id="XMLID_14287_" class="st3" d="M219.9,484.7c-1.8,0-2.7,0-4.5-0.9c-72.1-32-118.4-104.1-118.4-182.4
						c0-26.7,5.3-53.4,16-77.4c2.7-5.3,8.9-8,14.2-6.2c5.3,2.7,8,8.9,6.2,14.2c-8.9,22.2-14.2,45.4-14.2,69.4
						c0,70.3,40.9,133.5,105,162c5.3,2.7,8,8.9,5.3,15.1C227.9,482.9,224.4,484.7,219.9,484.7z"/>
				</g>
				<g id="XMLID_14288_">
					<path id="XMLID_14289_" class="st3" d="M407.7,159c-2.7,0-4.5-0.9-6.2-1.8c-31.1-22.2-66.7-33.8-104.1-33.8
						c-34.7,0-68.5,9.8-97.9,29.4c-5.3,3.6-12.5,1.8-15.1-3.6c-3.6-5.3-1.8-12.5,3.6-15.1c32.9-21.4,70.3-32.9,109.5-32.9
						c41.8,0,81.9,12.5,116.6,37.4c5.3,3.6,6.2,10.7,2.7,15.1C413.9,157.2,410.3,159,407.7,159z"/>
				</g>
				<g id="XMLID_14290_">
					<path id="XMLID_14291_" class="st3" d="M297.3,501.6c-28.5,0-56.1-6.2-81.9-17.8c-4.4-1.8-7.1-6.2-6.2-11.6
						c3.6-34.7,32-60.5,66.7-60.5c36.5,0,66.7,30.3,66.7,66.7c0,3.6,0,7.1-0.9,9.8c-0.9,4.5-4.5,8.9-8.9,8.9
						C320.5,500.7,308.9,501.6,297.3,501.6z M232.4,466.9c20.5,8,42.7,12.5,65,12.5c7.1,0,15.1-0.9,22.2-1.8
						c-0.9-24-20.5-42.7-44.5-42.7C254.6,434.9,237.7,448.2,232.4,466.9z"/>
				</g>
				<g id="XMLID_14294_">
					<path id="XMLID_14295_" class="st3" d="M163.8,256.9c-18.7,0-36.5-8-48.9-21.4c-2.7-3.6-3.6-8-1.8-11.6
						c15.1-36.5,40.9-67.6,74.7-89.9c3.6-2.7,8-2.7,12.5,0c19.6,12.5,31.1,33.8,31.1,56.1C230.6,226.7,200.3,256.9,163.8,256.9z
						 M136.3,224.9c8,6.2,17.8,9.8,27.6,9.8c24.9,0,44.5-19.6,44.5-44.5c0-12.5-5.3-24.9-15.1-32.9
						C169.2,174.2,149.6,198.2,136.3,224.9z"/>
				</g>
				<g id="XMLID_14298_">
					<path id="XMLID_14299_" class="st3" d="M453.1,246.2c-36.5,0-66.7-30.3-66.7-66.7c0-13.3,4.4-26.7,11.6-38.3
						c1.8-2.7,4.5-4.5,7.1-4.5c2.7-0.9,6.2,0,8,1.8c31.1,22.2,55.2,52.5,69.4,88.1c0.9,2.7,0.9,6.2,0,8.9c-0.9,2.7-3.6,4.4-6.2,6.2
						C469.1,244.5,461.1,246.2,453.1,246.2z M411.2,164.4c-1.8,4.5-2.7,9.8-2.7,14.2c0,24.9,19.6,44.5,44.5,44.5c1.8,0,2.7,0,4.5,0
						C445.9,200.9,430.8,180.4,411.2,164.4z"/>
				</g>
			</g>
		</g>
	</g>
</g>
<g id="XMLID_14239_">
	<path id="XMLID_14240_" class="st0" d="M208.3,345.9c12.5,0,22.2,9.8,22.2,22.2s-9.8,22.2-22.2,22.2c-12.5,0-22.2-9.8-22.2-22.2
		S195.9,345.9,208.3,345.9z"/>
</g>
<g id="XMLID_14241_">
	<path id="XMLID_14242_" class="st1" d="M297.3,279.2c12.5,0,22.2,9.8,22.2,22.2c0,12.5-9.8,22.2-22.2,22.2
		c-12.5,0-22.2-9.8-22.2-22.2C275.1,289,284.9,279.2,297.3,279.2z"/>
</g>
<g id="XMLID_14243_">
	<path id="XMLID_14244_" class="st1" d="M408.6,290.7c12.5,0,22.2,9.8,22.2,22.2s-9.8,22.2-22.2,22.2s-22.2-10.7-22.2-22.2
		C386.3,301.4,396.1,290.7,408.6,290.7z"/>
</g>
<g id="XMLID_14245_">
	<path id="XMLID_14246_" class="st0" d="M308.9,167.9c12.5,0,22.2,9.8,22.2,22.2c0,12.5-9.8,22.2-22.2,22.2s-22.2-9.8-22.2-22.2
		C286.7,177.7,296.4,167.9,308.9,167.9z"/>
</g>
<path class="st3" d="M164,92.1c7.7,0,13.7,6.1,13.7,13.7c0,7.5-6.1,13.7-13.7,13.7c-7.7,0-13.7-6.1-13.7-13.7S156.5,92.1,164,92.1z"
	/>
<path class="st3" d="M498,150.7c5.2,0,9.3,4.1,9.3,9.3c0,5.1-4.1,9.3-9.3,9.3s-9.3-4.1-9.3-9.3C488.8,154.8,493,150.7,498,150.7z"/>
<path class="st3" d="M59.6,215.4c5.2,0,9.3,4.1,9.3,9.3c0,5.1-4.1,9.3-9.3,9.3c-5.2,0-9.3-4.1-9.3-9.3S54.3,215.4,59.6,215.4z"/>
<path class="st3" d="M215.4,504.2c5.2,0,9.3,4.1,9.3,9.3c0,5.1-4.1,9.3-9.3,9.3c-5.2,0-9.3-4.1-9.3-9.3
	C206.1,508.3,210.2,504.2,215.4,504.2z"/>
<path class="st3" d="M536.4,260.9c4.2,0,7.5,3.3,7.5,7.5c0,4.1-3.3,7.5-7.5,7.5s-7.5-3.3-7.5-7.5
	C528.9,264.2,532.2,260.9,536.4,260.9z"/>
<path class="st3" d="M92.1,160c-13.2,0-23.6-10.4-23.6-23.6s10.4-23.6,23.6-23.6c13.2,0,23.6,10.4,23.6,23.6
	C115.7,149.6,104.8,160,92.1,160z M92.1,120.3c-9,0-16.2,7.2-16.2,16.2s7.2,16.2,16.2,16.2s16.2-7.2,16.2-16.2
	C108.3,127.6,100.7,120.3,92.1,120.3z"/>
<path class="st3" d="M70,437c-3.6-4.4-3-10.8,1.4-14.5c4.3-3.5,10.8-3,14.5,1.4c3.6,4.4,3,10.8-1.4,14.5C80.1,442,73.6,441.3,70,437
	z"/>
<path class="st3" d="M145.7,473.8c8.3,10.1,6.9,24.6-3.2,32.9c-10.1,8.3-24.6,6.9-32.9-3.3c-8.3-10.1-6.8-24.6,3.3-32.9
	C123,462.2,137.8,464.1,145.7,473.8z M115.4,498.6c5.6,6.9,15.7,7.9,22.6,2.3c6.9-5.6,7.9-15.7,2.3-22.6s-15.7-7.9-22.6-2.3
	C110.8,481.7,110,492.1,115.4,498.6z"/>
<path class="st3" d="M536.4,218.3c-10.7,0-19.2-8.4-19.2-19.2c0-10.7,8.4-19.2,19.2-19.2c10.7,0,19.2,8.4,19.2,19.2
	C555.6,209.9,546.7,218.3,536.4,218.3z M536.4,186c-7.3,0-13.2,5.9-13.2,13.2s5.9,13.2,13.2,13.2c7.3,0,13.2-5.9,13.2-13.2
	C549.6,192,543.4,186,536.4,186z"/>
</svg>
