<?xml version="1.0" encoding="utf-8"?>
<!-- Generator: Adobe Illustrator 27.6.1, SVG Export Plug-In . SVG Version: 6.00 Build 0)  -->
<svg version="1.1" id="_圖層_1" xmlns="http://www.w3.org/2000/svg" xmlns:xlink="http://www.w3.org/1999/xlink" x="0px" y="0px"
	 viewBox="0 0 595.3 595.3" style="enable-background:new 0 0 595.3 595.3;" xml:space="preserve">
<style type="text/css">
	.st0{fill:#FFFFFF;}
	.st1{fill:#FFE0B2;}
	.st2{fill:#FF9900;}
	.st3{fill:#FF9900;stroke:#FF9900;stroke-width:4;stroke-miterlimit:10;}
	.st4{fill:#FF9900;stroke:#FF9900;stroke-width:6;stroke-miterlimit:10;}
</style>
<g>
	<g>
		<g id="_x37_06_x2C__Flag_x2C__Hand_x2C__Leader_x2C__Winner">
			<g>
				<path class="st0" d="M122.3,140.9c18.3,0,33.2,14.9,33.2,33.2s-14.9,33.2-33.2,33.2s-33.2-14.9-33.2-33.2
					S103.9,140.9,122.3,140.9z"/>
				<path class="st0" d="M485.4,240.6c12.8,0,23.4,10.6,23.4,23.4s-10.6,23.4-23.4,23.4S462,276.8,462,264
					C462,251.2,472.6,240.6,485.4,240.6z"/>
				<polygon class="st1" points="462,330.4 485.4,490.5 447.7,490.5 424.3,330.4 				"/>
				<path class="st0" d="M240,330.4v-47.6h44.5c16.6,0,32.5,6.8,43.8,19.6l7.6,8.3c11.3,12.1,27.2,19.6,43.8,19.6h44.5l23.4,160.8
					h-77.8c-14.3,0-27.9,5.3-38.5,14.3c-10.6,9.1-24.2,14.4-38.5,14.4c-21.1,0-68,0-114.8,0c-12.8,0-23.4-10.6-23.4-23.4
					S165.2,473,178,473h-37.8c-12.8,0-23.4-10.6-23.4-23.4s10.6-23.4,23.4-23.4c-12.8,0-23.4-10.6-23.4-23.4s10.6-23.4,23.4-23.4
					c-12.8,0-23.4-10.6-23.4-23.4s10.6-23.4,23.4-23.4C162.3,330.4,219.7,330.4,240,330.4z"/>
				<path class="st0" d="M211.3,282.9v47.6h-9.8c-12.8,0-24.9-5.3-33.2-13.6c-8.3-8.3-13.6-20.4-13.6-33.2L211.3,282.9L211.3,282.9z
					"/>
				<path class="st1" d="M240,330.4h-28.7c0-11.3,0-225.7,0-236.3c0-7.6,6-14.3,14.3-14.3c7.6,0,14.3,6,14.3,14.3
					C240,97.9,240,325.9,240,330.4z"/>
				<polygon class="st1" points="240,221.7 240,108.5 419,108.5 376.7,165.1 419,221.7 				"/>
				<path class="st2" d="M497.5,387.1c3.8,0,6.8,3,6.8,6.8c0,3.7-3,6.8-6.8,6.8s-6.8-3-6.8-6.8S493.7,387.1,497.5,387.1z"/>
				<path class="st2" d="M487.7,99.4c3.8,0,6.8,3,6.8,6.8s-3,6.8-6.8,6.8s-6.8-3-6.8-6.8C480.9,102.4,483.9,99.4,487.7,99.4z"/>
				<path class="st2" d="M449.9,174.9c3.8,0,6.8,3,6.8,6.8s-3,6.8-6.8,6.8s-6.8-3-6.8-6.8S446.2,174.9,449.9,174.9z"/>
				<path class="st2" d="M397.8,269.3c3.8,0,6.8,3,6.8,6.8s-3,6.8-6.8,6.8s-6.8-3-6.8-6.8S394.1,269.3,397.8,269.3z"/>
				<path class="st2" d="M171.3,94.9c3.8,0,6.8,3,6.8,6.8c0,3.7-3,6.8-6.8,6.8s-6.8-3-6.8-6.8S167.6,94.9,171.3,94.9z"/>
				<path class="st2" d="M105.6,491.2c3.8,0,6.8,3,6.8,6.8s-3,6.8-6.8,6.8s-6.8-3-6.8-6.8C98.9,494.3,101.9,491.2,105.6,491.2z"/>
				<path class="st2" d="M103.4,259.5c3.8,0,6.8,3,6.8,6.8c0,3.7-3,6.8-6.8,6.8s-6.8-3-6.8-6.8S99.6,259.5,103.4,259.5z"/>
				<path class="st3" d="M141.1,380.9c-7.6,0-14.3-3-20.4-8.2c-5.3-5.2-8.3-11.9-8.3-20.1c0-15.6,12.8-28.3,28.7-28.3h71
					c2.3,0,4.5,2.2,4.5,4.5s-2.3,4.5-4.5,4.5h-71c-10.6,0-18.9,8.2-18.9,18.6c0,5.2,2.3,9.7,5.3,13.4c3.8,3.7,8.3,5.2,13.6,5.2
					c2.3,0,4.5,2.2,4.5,4.5C145.7,377.2,143.4,380.9,141.1,380.9z"/>
				<path class="st3" d="M141.1,429.3c-7.6,0-14.3-3-20.4-8.3c-5.3-5.3-8.3-12.1-8.3-20.4c0-15.8,12.8-28.7,28.7-28.7h117.8
					c2.3,0,4.5,2.3,4.5,4.5c0,2.3-2.3,4.5-4.5,4.5H141.1c-10.6,0-18.9,8.3-18.9,18.9c0,5.3,2.3,9.8,5.3,13.6
					c3.8,3.8,8.3,5.3,13.6,5.3c2.3,0,4.5,2.3,4.5,4.5C145.7,425.5,143.4,429.3,141.1,429.3z"/>
				<path class="st3" d="M178.9,476.2h-37.8c-7.6,0-14.3-3-20.4-8.3c-5.3-5.3-8.3-12.1-8.3-20.4c0-15.9,12.8-28.7,28.7-28.7h104.2
					c2.3,0,4.5,2.3,4.5,4.5c0,2.3-2.3,4.5-4.5,4.5H141.1c-10.6,0-18.9,8.3-18.9,18.9c0,5.3,2.3,9.8,5.3,13.6
					c3.8,3.8,8.3,5.3,13.6,5.3h37.8c2.3,0,4.5,2.3,4.5,4.5S181.1,476.2,178.9,476.2z"/>
				<path class="st3" d="M249.1,523.7h-71c-7.6,0-14.3-3-20.4-8.3c-5.3-5.3-8.3-12.1-8.3-20.4c0-15.9,12.8-28.7,27.9-28.7h52.1
					c2.3,0,4.5,2.3,4.5,4.5c0,2.3-2.3,4.5-4.5,4.5h-52.1c-10.6,0-18.9,8.3-18.9,18.9c0,5.3,2.3,9.8,5.3,13.6
					c3.8,3.8,8.3,5.3,13.6,5.3h71c2.3,0,4.5,2.3,4.5,4.5S252.1,523.7,249.1,523.7z"/>
				<path class="st3" d="M202.3,331.9c-13.6,0-27.2-5-37-14.3s-15.1-21.4-15.1-35c0-2.1,2.3-4.3,4.5-4.3h56.6c2.3,0,4.5,2.1,4.5,4.3
					c0,2.1-2.3,4.3-4.5,4.3H160c0.8,9.3,5.3,17.1,12.1,24.3c8.3,7.9,18.9,11.4,30.2,11.4c2.3,0,4.5,2.1,4.5,4.3
					S204.6,331.9,202.3,331.9z"/>
				<path class="st4" d="M293.6,523.7h-44.5c-2.3,0-4.5-2.3-4.5-4.5s2.3-4.5,4.5-4.5h44.5c12.8,0,25.7-4.5,35.5-12.8
					c6-5.3,12.1-9.1,19.6-11.3c6.8-2.3,14.3-3.8,21.9-3.8h109.5l-21.9-151h-78.5c-18.1,0-35.5-7.5-47.6-21.1l-7.6-8.3
					c-10.6-11.3-24.9-18.1-40-18.1H240c-2.3,0-4.5-2.3-4.5-4.5s2.3-4.5,4.5-4.5h44.5c18.1,0,35.5,7.6,47.6,21.1l7.6,8.3
					c10.6,11.3,24.9,18.1,40,18.1H462c2.3,0,4.5,1.5,4.5,3.8l23.4,160.1c0,1.5,0,3-0.8,3.8s-2.3,1.5-3.8,1.5H369.9
					c-6.8,0-12.8,0.8-18.9,3c-6,2.3-11.3,5.3-16.6,9.8C323.8,518.4,308.7,523.7,293.6,523.7z"/>
				<path class="st4" d="M447.7,495c-2.3,0-4.5-1.5-4.5-3.7l-23.4-158.5c-0.8-2.2,1.5-5.2,3.8-5.2s5.3,1.5,5.3,3.7l23.4,157.8
					C452.9,492.8,450.7,495,447.7,495L447.7,495z"/>
				<path class="st3" d="M240,333.4h-28.7c-2.3,0-4.5-2.3-4.5-4.5V94c0-5.3,2.3-9.8,5.3-13.5c3.8-3.8,8.3-5.3,13.6-5.3
					c10.6,0,18.9,8.3,18.9,18.8v14.3c0,2.3-2.3,4.5-4.5,4.5c-2.3,0-4.5-2.2-4.5-4.5V94c0-5.3-4.5-9.8-9.8-9.8c-2.3,0-4.5,0.8-6.8,3
					c-1.5,1.5-3,4.5-3,6.8v229.6h18.9V220.8c0-2.3,2.3-4.5,4.5-4.5c2.3,0,4.5,2.3,4.5,4.5v108.1C244.6,331.1,242.3,333.4,240,333.4z
					"/>
				<path class="st3" d="M419,226.2L419,226.2H240c-2.3,0-4.5-2.3-4.5-4.5V108.5c0-2.3,2.3-4.5,4.5-4.5h179c1.5,0,3.8,0.8,4.5,2.3
					c0.8,1.5,0.8,3.8-0.8,5.3l-40,53.6l40,53.6c0.8,0.8,1.5,2.3,1.5,3C424.3,224,422,226.2,419,226.2z M244.6,217.2h165.3l-37-49.1
					c-1.5-1.5-1.5-3.8,0-6l37-49.1H244.6V217.2z"/>
				<path class="st2" d="M485.4,292.7c-15.9,0-28.7-12.8-28.7-28.7c0-15.9,12.8-28.7,28.7-28.7c15.9,0,28.7,12.8,28.7,28.7
					C513.3,279.9,501.3,292.7,485.4,292.7z M485.4,245.1c-10.6,0-18.9,8.3-18.9,18.9c0,10.6,8.3,18.9,18.9,18.9s18.9-8.3,18.9-18.9
					S496,245.1,485.4,245.1z"/>
				<path class="st2" d="M122.3,211.9c-21.1,0-37.8-16.6-37.8-37.7s16.6-37.8,37.8-37.8c21.1,0,37.7,16.6,37.7,37.8
					C160,195.3,142.6,211.9,122.3,211.9z M122.3,146.2c-15.9,0-28.7,12.8-28.7,28.7s12.8,28.7,28.7,28.7s28.7-12.8,28.7-28.7
					C150.9,159.1,137.4,146.2,122.3,146.2z"/>
			</g>
		</g>
		<g id="Layer_1_9_">
		</g>
	</g>
	<polygon class="st2" points="285.3,146.3 278.2,153.2 279.9,162.9 271.1,158.3 262.4,162.9 264.1,153.2 257,146.3 266.8,144.8 
		271.2,136 275.5,144.9 	"/>
	<g>
		<polygon class="st2" points="304.8,136.9 301.9,139.7 302.6,143.6 299.1,141.7 295.6,143.6 296.2,139.7 293.4,136.9 297.3,136.3 
			299.1,132.8 300.8,136.4 		"/>
		<polygon class="st2" points="292.1,127.4 289.2,130.2 289.9,134.1 286.4,132.2 282.9,134.1 283.6,130.2 280.7,127.4 284.7,126.8 
			286.4,123.3 288.2,126.8 		"/>
		<polygon class="st2" points="305.6,153.1 302.7,155.9 303.4,159.8 299.9,157.9 296.4,159.8 297.1,155.9 294.2,153.1 298.2,152.5 
			299.9,149 301.7,152.5 		"/>
		<polygon class="st2" points="300.3,168.3 297.5,171.1 298.2,175 294.7,173.2 291.1,175 291.8,171.1 289,168.3 292.9,167.8 
			294.7,164.2 296.4,167.8 		"/>
	</g>
</g>
</svg>
