<?xml version="1.0" encoding="utf-8"?>
<!-- Generator: Adobe Illustrator 27.6.1, SVG Export Plug-In . SVG Version: 6.00 Build 0)  -->
<svg version="1.1" id="_圖層_1" xmlns="http://www.w3.org/2000/svg" xmlns:xlink="http://www.w3.org/1999/xlink" x="0px" y="0px"
	 viewBox="0 0 595.3 595.3" style="enable-background:new 0 0 595.3 595.3;" xml:space="preserve">
<style type="text/css">
	.st0{fill:#FF9900;}
	.st1{fill:#FFCC80;}
	.st2{opacity:0.5;fill:#FFCC80;}
	.st3{opacity:0.5;fill:#FEB546;}
	.st4{opacity:0.3;fill:#FEB546;}
	.st5{fill:#FFD18C;}
	.st6{opacity:0.3;fill:#FFEFD6;}
	.st7{fill:#CFCFD1;}
	.st8{opacity:0.3;fill:url(#SVGID_1_);}
	.st9{fill:#FFFFFF;}
	.st10{opacity:0.25;fill:url(#SVGID_00000075857031877430066750000013777336002066791069_);}
	.st11{opacity:0.25;fill:url(#SVGID_00000033351707761598636180000011947368835787288483_);}
	.st12{opacity:0.25;fill:url(#SVGID_00000032630845033601008260000000105215109830716807_);}
	.st13{opacity:0.25;fill:url(#SVGID_00000042713231548943929540000003898135151779765431_);}
	.st14{opacity:0.3;fill:url(#SVGID_00000114073296050376367760000013312147942824833707_);}
	.st15{fill:#EF4723;}
	.st16{fill:#D9D9DA;}
	.st17{opacity:0.3;fill:url(#SVGID_00000050657578352054039490000011012063850850484896_);}
	.st18{opacity:0.5;fill:url(#SVGID_00000176744699447619181210000000797459988698635437_);}
	.st19{opacity:0.25;fill:url(#SVGID_00000119083797944210110220000015948130330723805067_);}
	.st20{opacity:0.3;fill:url(#SVGID_00000046331915360736676120000008320177852660161931_);}
	.st21{opacity:0.3;fill:url(#SVGID_00000114757954581307746020000013177622320478154629_);}
	.st22{opacity:0.2;fill:#FFFFFF;}
	.st23{fill:#9B9B9D;}
	.st24{opacity:0.3;fill:url(#SVGID_00000179627526102682965650000004157836772466105764_);}
	.st25{opacity:0.1;}
	.st26{clip-path:url(#SVGID_00000043415189973013374150000007339926409184400807_);}
	.st27{fill:#CECECF;}
	.st28{opacity:0.3;fill:url(#SVGID_00000034808019028938709290000006648937305970989223_);}
	.st29{opacity:0.3;fill:url(#SVGID_00000124163806418320097070000014227911091820521112_);}
	.st30{fill:#FFCD82;}
	.st31{opacity:0.3;fill:url(#SVGID_00000163054717088870692280000013009999012083949696_);}
	.st32{opacity:0.3;fill:#FF9900;}
	.st33{opacity:0.25;fill:url(#SVGID_00000105404463226807178450000012371610931141582734_);}
	.st34{opacity:0.3;fill:url(#SVGID_00000167364042280486866980000001252492320795574939_);}
	.st35{opacity:0.3;fill:url(#SVGID_00000131364505011940563360000014202415522824729263_);}
	.st36{opacity:0.3;fill:url(#SVGID_00000156581766720093532040000007535508925595034261_);}
	.st37{opacity:0.3;fill:url(#SVGID_00000116231825326255014750000001224644474153057158_);}
	.st38{fill:#575759;}
	.st39{clip-path:url(#SVGID_00000011018909547228638770000002213050390418777731_);}
	.st40{fill:#747476;}
	.st41{opacity:0.2;fill:#FF9900;}
	.st42{opacity:0.25;fill:url(#SVGID_00000173119875162471781160000011674609483035130245_);}
	.st43{opacity:0.3;fill:url(#SVGID_00000089562040682973388970000018007934882753584286_);}
	.st44{opacity:0.3;fill:url(#SVGID_00000111900893261427588320000012119142392187916733_);}
	.st45{opacity:0.3;fill:url(#SVGID_00000176749742297361931140000009635081179667048877_);}
	.st46{opacity:0.3;fill:url(#SVGID_00000107575155391983941320000016152377381861192854_);}
	.st47{opacity:0.3;fill:url(#SVGID_00000074419344656586220280000003765037617190473121_);}
	.st48{opacity:0.3;fill:url(#SVGID_00000037683305119747416460000005017426819484468110_);}
	.st49{opacity:0.25;fill:url(#SVGID_00000003825295472313684850000012108705635879331257_);}
	.st50{opacity:0.3;fill:url(#SVGID_00000085211117457622452670000007266174597557663638_);}
	.st51{opacity:0.3;fill:url(#SVGID_00000101798361299289844670000003079073622777364409_);}
	.st52{opacity:0.3;fill:url(#SVGID_00000170996918015604085920000007518551884419080834_);}
	.st53{opacity:0.3;fill:url(#SVGID_00000173120936817350963700000011436680935186303620_);}
	.st54{opacity:0.3;fill:url(#SVGID_00000043434833207574543300000006451977515747614393_);}
	.st55{opacity:0.25;fill:url(#SVGID_00000070819079975356194060000000728383135889988517_);}
	.st56{opacity:0.25;fill:url(#SVGID_00000134943747267331893790000004149452427645045157_);}
	.st57{opacity:0.3;fill:url(#SVGID_00000056427049334262796080000003446149731605898914_);}
	.st58{opacity:0.3;fill:url(#SVGID_00000150062741327900378110000016699474122975114157_);}
	.st59{opacity:0.3;fill:url(#SVGID_00000070817096192783546170000006260440148251262855_);}
	.st60{opacity:0.3;fill:url(#SVGID_00000158023625419910726820000012812604822223323295_);}
	.st61{opacity:0.25;fill:url(#SVGID_00000047034747911538416340000001672620007780439706_);}
	.st62{fill:#E8E8E9;}
	.st63{opacity:0.3;fill:url(#SVGID_00000073713891133887525650000009050910732923042986_);}
	.st64{opacity:0.25;fill:url(#SVGID_00000125569291186324580810000002758227855806978713_);}
	.st65{opacity:0.3;fill:url(#SVGID_00000096033812285906436650000007285721913952279732_);}
	.st66{opacity:0.3;fill:url(#SVGID_00000012430358777361469780000012747277415307034811_);}
	.st67{opacity:0.3;fill:url(#SVGID_00000029013583639497392500000007521788444066494911_);}
	.st68{opacity:0.3;fill:url(#SVGID_00000049191062276565850400000014127670911344382095_);}
	.st69{opacity:0.3;fill:url(#SVGID_00000137837820612017392730000011199231515973409978_);}
	.st70{opacity:0.25;fill:url(#SVGID_00000114067345383629216680000004682852928069143996_);}
	.st71{opacity:0.25;fill:url(#SVGID_00000163043640124392640980000006059606002347176624_);}
	.st72{clip-path:url(#SVGID_00000167354758591243631100000002051058111698334884_);}
	.st73{fill:#C0C0C2;}
	.st74{opacity:0.3;fill:url(#SVGID_00000099628817010731621300000010867015130516700345_);}
	.st75{opacity:0.3;fill:url(#SVGID_00000040568267051505962600000017914780268491543474_);}
	.st76{clip-path:url(#SVGID_00000071522043904380957640000010120884780942974382_);}
	.st77{opacity:0.3;fill:url(#SVGID_00000042711595501468741520000011600518209729971612_);}
	.st78{opacity:0.3;fill:url(#SVGID_00000075843724734161696660000002269461051471686802_);}
	.st79{clip-path:url(#SVGID_00000103973487943947247830000005886736342524477091_);}
	.st80{opacity:0.3;fill:url(#SVGID_00000010275202038105089010000002746427796359691915_);}
	.st81{opacity:0.3;fill:url(#SVGID_00000065765921647153190880000000821888841767494572_);}
	.st82{opacity:0.5;fill:url(#SVGID_00000160888208200581873840000008402477604366920863_);}
	.st83{opacity:0.5;fill:url(#SVGID_00000016061481612724490270000015238039921534782614_);}
	.st84{opacity:0.3;fill:url(#SVGID_00000022519024216490644290000007874395953548931720_);}
	.st85{opacity:0.3;fill:url(#SVGID_00000156554952538425564160000002256351780077008539_);}
	.st86{opacity:0.3;fill:url(#SVGID_00000048485537838723437060000003501460403586315698_);}
	.st87{opacity:0.25;fill:#FF9900;}
	.st88{fill:#4DB748;}
	.st89{opacity:0.25;fill:url(#SVGID_00000166633835576291073950000011520364545229820317_);}
	.st90{fill:#2F998F;}
	.st91{fill:#FFBD59;}
	.st92{opacity:0.3;fill:url(#SVGID_00000142879101957286539440000005055392593906911918_);}
	.st93{opacity:0.3;fill:url(#SVGID_00000140001150843720093730000003140396188594691209_);}
	.st94{opacity:0.5;fill:url(#SVGID_00000019673545281777751230000016313464442235875981_);}
	.st95{opacity:0.3;fill:url(#SVGID_00000076600784377955722780000004297078983460083079_);}
	.st96{opacity:0.3;fill:url(#SVGID_00000028314980581821470170000008619252708244073387_);}
	.st97{opacity:0.5;fill:url(#SVGID_00000067942954772112716400000013583525025276734645_);}
	.st98{opacity:0.5;fill:url(#SVGID_00000092423790105809568670000015074438783416115898_);}
	.st99{opacity:0.5;fill:url(#SVGID_00000006689706674509846830000001714127797675698364_);}
	.st100{opacity:0.5;fill:url(#SVGID_00000006707224312677295500000003473595369810393493_);}
	.st101{opacity:0.3;fill:url(#SVGID_00000089573752160515221540000008284599259709659825_);}
	.st102{opacity:0.3;fill:url(#SVGID_00000023960251591311570510000003840664357711444910_);}
	.st103{opacity:0.3;fill:url(#SVGID_00000080165290831198034960000001121904900181821343_);}
</style>
<g id="Layer_1_11_">
</g>
<g>
	<g>
		<path class="st0" d="M428.3,211.6c-3.2-4-7.9-6.4-13-6.6l-40.2-1.8c0.3-14.2-0.5-23.6-0.5-23.6l-92.1-1l-92.1-1c0,0-1,9.4-1,23.6
			l-40.1,0.8c-5.1,0.1-9.9,2.4-13.1,6.3c-3.3,3.9-4.7,9-3.9,14c2.2,13.8,8.3,40.3,24.9,63.1c9.3,12.8,20.7,22.9,33.8,29.9
			c14.2,7.6,30.7,11.8,48.9,12.4c11.1,6.8,24.5,11.3,40.8,12.3c16.3-0.7,29.9-4.8,41.1-11.4c18.2-0.2,34.8-4,49.2-11.3
			c13.3-6.8,24.9-16.6,34.5-29.2c17.1-22.5,23.8-48.8,26.3-62.6C432.8,220.7,431.5,215.6,428.3,211.6z M148.8,219.7
			c0-0.1-0.1-0.4,0.2-0.7c0.3-0.3,0.5-0.3,0.6-0.3l40.3-0.9c1.7,27.8,8.1,64.2,28.1,90.1C166.6,294.7,152.6,243.6,148.8,219.7z
			 M415.4,222.7c-4.3,23.7-19.5,74.6-71.3,86.7c20.6-25.4,27.8-61.7,30.1-89.4l40.3,1.8c0.1,0,0.4,0,0.6,0.3
			C415.4,222.3,415.4,222.6,415.4,222.7z"/>
		<polygon class="st0" points="302.1,484.8 287.5,324.8 280.7,340.6 280.7,340.2 274.3,324.3 256.1,483.9 		"/>
		<path class="st0" d="M296.6,340.4c-0.1,8.7-7.3,15.8-16,15.7c-8.7-0.1-15.8-7.3-15.7-16c0.1-8.7,7.3-15.8,16-15.7
			C289.7,324.5,296.7,331.6,296.6,340.4z"/>
		<path class="st1" d="M297.2,409.3l-34.5-0.4c-3.2,0-5.7-2.7-5.7-5.8l0-1.3c0-3.2,2.7-5.7,5.8-5.7l34.5,0.4c3.2,0,5.7,2.7,5.7,5.8
			l0,1.3C303,406.8,300.4,409.4,297.2,409.3z"/>
		<path class="st1" d="M305.9,495.8l-53.7-0.6c-3.7,0-6.7-3.1-6.7-6.8l0-1.5c0-3.7,3.1-6.7,6.8-6.7l53.7,0.6c3.7,0,6.7,3.1,6.7,6.8
			l0,1.5C312.6,492.9,309.6,495.9,305.9,495.8z"/>
		<polygon class="st2" points="295.2,409.3 264.7,409 263.7,417.5 296,418 		"/>
		<path class="st3" d="M245.8,484.1c-0.2,0.6-0.3,1.2-0.3,1.8l0,3.4c0,3.2,2.5,5.8,5.7,5.9l55.6,0.6c3.2,0,5.8-2.5,5.9-5.7l0-3.4
			c0-0.6-0.1-1.3-0.3-1.8L245.8,484.1z"/>
		<path class="st1" d="M316.8,509.4l-75.9-0.9c-5.1-0.1-9.1-4.2-9.1-9.3l0-2.1c0.1-5.1,4.2-9.1,9.3-9.1L317,489
			c5.1,0.1,9.1,4.2,9.1,9.3l0,2.1C326,505.4,321.8,509.4,316.8,509.4z"/>
		<path class="st4" d="M374.7,179.6l-33.5-0.4c0,0.8-0.1,1.6-0.2,2.5c-51.4,0.3-150.2,0.3-150.2,0.3l147.9,20.7
			c-6.7,45.1-28,100.6-91.5,103.2c-14.6-0.9-26.9-4.6-37.3-10.3c13.4,23.8,35.3,42.4,70.9,44.6C388.3,335.9,374.7,179.6,374.7,179.6
			z"/>
		<path class="st5" d="M376.2,194.7l-187.6-2.1c-6.7-0.1-12-5.5-11.9-12.2l0-2.8c0.1-6.7,5.5-12,12.2-11.9l187.6,2.1
			c6.7,0.1,12,5.5,11.9,12.2l0,2.8C388.3,189.4,382.8,194.7,376.2,194.7z"/>
		<path class="st6" d="M207.4,206.8c0,0-11.8,115.7,80,118C287.5,324.8,221.8,299.3,207.4,206.8z"/>
		<polygon class="st4" points="283.6,214.9 297,243 327.8,247.8 305.3,269.3 310.2,300 282.8,285.2 255.1,299.4 260.7,268.8 
			238.7,246.8 269.5,242.7 		"/>
		<polygon class="st5" points="280.8,210.5 294.2,238.6 325,243.4 302.5,264.8 307.4,295.6 280,280.8 252.3,294.9 257.9,264.3 
			235.9,242.4 266.7,238.2 		"/>
	</g>
</g>
<g>
	<path class="st7" d="M308.8,409.6h-5.9c-1.4,0-2.5-1.1-2.5-2.5v-5.6h11v5.6C311.3,408.4,310.2,409.6,308.8,409.6z"/>
	<linearGradient id="SVGID_1_" gradientUnits="userSpaceOnUse" x1="300.3526" y1="405.5233" x2="311.3365" y2="405.5233">
		<stop  offset="0" style="stop-color:#FF9900"/>
		<stop  offset="1" style="stop-color:#FF9900;stop-opacity:0"/>
	</linearGradient>
	<path class="st8" d="M308.8,409.6h-5.9c-1.4,0-2.5-1.1-2.5-2.5v-5.6h11v5.6C311.3,408.4,310.2,409.6,308.8,409.6z"/>
	<path class="st9" d="M303.4,409.6h-2.2c-1.4,0-2.5-1.1-2.5-2.5v-5.6h7.3v5.6C305.9,408.4,304.8,409.6,303.4,409.6z"/>
	
		<linearGradient id="SVGID_00000005240831612531170390000016659592606075297452_" gradientUnits="userSpaceOnUse" x1="296.6761" y1="410.3524" x2="309.5685" y2="397.46">
		<stop  offset="0" style="stop-color:#FF9900"/>
		<stop  offset="1" style="stop-color:#FF9900;stop-opacity:0"/>
	</linearGradient>
	<path style="opacity:0.25;fill:url(#SVGID_00000005240831612531170390000016659592606075297452_);" d="M303.4,409.6h-2.2
		c-1.4,0-2.5-1.1-2.5-2.5v-5.6h7.3v5.6C305.9,408.4,304.8,409.6,303.4,409.6z"/>
	<path class="st7" d="M367.1,390.5h-5.9c-1.4,0-2.5-1.1-2.5-2.5v-5.6h11v5.6C369.7,389.4,368.5,390.5,367.1,390.5z"/>
	
		<linearGradient id="SVGID_00000103947596978439237370000005617313568966649738_" gradientUnits="userSpaceOnUse" x1="358.9098" y1="390.9939" x2="372.3921" y2="377.5116">
		<stop  offset="0" style="stop-color:#FF9900"/>
		<stop  offset="1" style="stop-color:#FF9900;stop-opacity:0"/>
	</linearGradient>
	<path style="opacity:0.25;fill:url(#SVGID_00000103947596978439237370000005617313568966649738_);" d="M367.1,390.5h-5.9
		c-1.4,0-2.5-1.1-2.5-2.5v-5.6h11v5.6C369.7,389.4,368.5,390.5,367.1,390.5z"/>
	<path class="st9" d="M361.7,390.5h-2.2c-1.4,0-2.5-1.1-2.5-2.5v-5.6h7.3v5.6C364.2,389.4,363.1,390.5,361.7,390.5z"/>
	
		<linearGradient id="SVGID_00000076577265541685095450000007128260916850874256_" gradientUnits="userSpaceOnUse" x1="355.3014" y1="391.0049" x2="365.8132" y2="380.4932">
		<stop  offset="0" style="stop-color:#FF9900"/>
		<stop  offset="1" style="stop-color:#FF9900;stop-opacity:0"/>
	</linearGradient>
	<path style="opacity:0.25;fill:url(#SVGID_00000076577265541685095450000007128260916850874256_);" d="M361.7,390.5h-2.2
		c-1.4,0-2.5-1.1-2.5-2.5v-5.6h7.3v5.6C364.2,389.4,363.1,390.5,361.7,390.5z"/>
	<path class="st0" d="M332.3,374.9c0-1.6-1.3-2.9-2.9-2.9h-19.9v11.7h2.1h15.7h0l0,0l5-0.7V374.9z"/>
	<path class="st9" d="M318.4,383v-8.1c0-1.6-1.3-2.9-2.9-2.9h-6.7c-1.6,0-2.9,1.3-2.9,2.9v3.7h-5.3c-1.6,0-2.9,1.3-2.9,2.9v4.4
		L318.4,383z"/>
	
		<linearGradient id="SVGID_00000047050837908744642630000012082104418119187642_" gradientUnits="userSpaceOnUse" x1="300.4158" y1="389.2731" x2="328.544" y2="361.1449">
		<stop  offset="0" style="stop-color:#FF9900"/>
		<stop  offset="1" style="stop-color:#FF9900;stop-opacity:0"/>
	</linearGradient>
	<path style="opacity:0.25;fill:url(#SVGID_00000047050837908744642630000012082104418119187642_);" d="M318.4,383v-8.1
		c0-1.6-1.3-2.9-2.9-2.9h-6.7c-1.6,0-2.9,1.3-2.9,2.9v3.7h-5.3c-1.6,0-2.9,1.3-2.9,2.9v4.4L318.4,383z"/>
	<rect x="401.2" y="326.4" class="st9" width="2.3" height="26.1"/>
	
		<linearGradient id="SVGID_00000086650156282427199560000004344766541838889393_" gradientUnits="userSpaceOnUse" x1="401.2312" y1="339.494" x2="403.5246" y2="339.494">
		<stop  offset="0" style="stop-color:#FF9900"/>
		<stop  offset="1" style="stop-color:#FF9900;stop-opacity:0"/>
	</linearGradient>
	
		<rect x="401.2" y="326.4" style="opacity:0.3;fill:url(#SVGID_00000086650156282427199560000004344766541838889393_);" width="2.3" height="26.1"/>
	<circle class="st15" cx="402.4" cy="324.8" r="2.4"/>
	<path class="st16" d="M325.6,427.4L325.6,427.4c-3,0-5.4,2.4-5.4,5.4v9.5H331v-9.5C331,429.8,328.6,427.4,325.6,427.4z"/>
	
		<linearGradient id="SVGID_00000088116091349555751440000012035124791259117755_" gradientUnits="userSpaceOnUse" x1="320.1431" y1="434.8531" x2="331.0143" y2="434.8531">
		<stop  offset="0" style="stop-color:#FF9900"/>
		<stop  offset="1" style="stop-color:#FF9900;stop-opacity:0"/>
	</linearGradient>
	<path style="opacity:0.3;fill:url(#SVGID_00000088116091349555751440000012035124791259117755_);" d="M325.6,427.4L325.6,427.4
		c-3,0-5.4,2.4-5.4,5.4v9.5H331v-9.5C331,429.8,328.6,427.4,325.6,427.4z"/>
	<g>
		<path class="st9" d="M322.8,403.2c2.8,0,5,2.3,5,5c0,2.8-2.3,5-5,5h-10.4v-10.1H322.8z"/>
		
			<linearGradient id="SVGID_00000087387898283551844820000008108517803592268167_" gradientUnits="userSpaceOnUse" x1="312.5258" y1="414.1946" x2="329.8991" y2="397.2867">
			<stop  offset="0" style="stop-color:#FF9900"/>
			<stop  offset="1" style="stop-color:#FF9900;stop-opacity:0"/>
		</linearGradient>
		<path style="opacity:0.5;fill:url(#SVGID_00000087387898283551844820000008108517803592268167_);" d="M322.8,403.2
			c2.8,0,5,2.3,5,5c0,2.8-2.3,5-5,5h-10.4v-10.1H322.8z"/>
		<path class="st9" d="M307.4,408.2c0,2.8,2.3,5,5,5c2.8,0,5-2.3,5-5c0-2.8-2.3-5-5-5C309.6,403.2,307.4,405.5,307.4,408.2z"/>
		
			<linearGradient id="SVGID_00000063618883798239273100000006405787314868061611_" gradientUnits="userSpaceOnUse" x1="308.1473" y1="412.5165" x2="320.7157" y2="399.9482">
			<stop  offset="0" style="stop-color:#FF9900"/>
			<stop  offset="1" style="stop-color:#FF9900;stop-opacity:0"/>
		</linearGradient>
		<path style="opacity:0.25;fill:url(#SVGID_00000063618883798239273100000006405787314868061611_);" d="M307.4,408.2
			c0,2.8,2.3,5,5,5c2.8,0,5-2.3,5-5c0-2.8-2.3-5-5-5C309.6,403.2,307.4,405.5,307.4,408.2z"/>
		<path class="st1" d="M310,408.2c0,1.3,1.1,2.4,2.4,2.4c1.3,0,2.4-1.1,2.4-2.4c0-1.3-1.1-2.4-2.4-2.4
			C311.1,405.8,310,406.9,310,408.2z"/>
		<path class="st0" d="M313.6,406.1c-0.7,0.4-1.2,1.2-1.2,2.1c0,0.9,0.5,1.7,1.2,2.1c0.7-0.4,1.2-1.2,1.2-2.1
			C314.9,407.3,314.4,406.6,313.6,406.1z"/>
	</g>
	<path class="st9" d="M478.2,392.6h-38c0,0-0.1,0-0.1,0h0v0c-0.9,0-1.7,0.4-2.4,1l-42.8,42.8l25.8,25.8l34.8-34.8h22.8V392.6z"/>
	
		<linearGradient id="SVGID_00000134217614205582493320000006072562472793967243_" gradientUnits="userSpaceOnUse" x1="429.0642" y1="439.3283" x2="493.7867" y2="374.6058">
		<stop  offset="0" style="stop-color:#FF9900"/>
		<stop  offset="1" style="stop-color:#FF9900;stop-opacity:0"/>
	</linearGradient>
	<path style="opacity:0.3;fill:url(#SVGID_00000134217614205582493320000006072562472793967243_);" d="M478.2,392.6h-38
		c0,0-0.1,0-0.1,0h0v0c-0.9,0-1.7,0.4-2.4,1l-42.8,42.8l25.8,25.8l34.8-34.8h22.8V392.6z"/>
	<g>
		<g>
			<g>
				<path class="st0" d="M436.4,410.3h-10c-1.1,0-1.1-0.9,0-2.1l0,0c1.1-1.1,3-2.1,4.1-2.1h10c1.1,0,1.1,0.9,0,2.1l0,0
					C439.4,409.4,437.6,410.3,436.4,410.3z"/>
				<path class="st0" d="M430.6,416.2h-10c-1.1,0-1.1-0.9,0-2.1l0,0c1.1-1.1,3-2.1,4.1-2.1h10c1.1,0,1.1,0.9,0,2.1h0
					C433.5,415.3,431.7,416.2,430.6,416.2z"/>
				<path class="st0" d="M424.7,422h-10c-1.1,0-1.1-0.9,0-2.1l0,0c1.1-1.1,3-2.1,4.1-2.1h10c1.1,0,1.1,0.9,0,2.1l0,0
					C427.7,421.1,425.8,422,424.7,422z"/>
			</g>
			<g>
				<path class="st0" d="M448.1,398.6h-10c-1.1,0-1.1-0.9,0-2.1l0,0c1.1-1.1,3-2.1,4.1-2.1h10c1.1,0,1.1,0.9,0,2.1l0,0
					C451.1,397.7,449.3,398.6,448.1,398.6z"/>
				<path class="st0" d="M442.3,404.5h-10c-1.1,0-1.1-0.9,0-2.1l0,0c1.1-1.1,3-2.1,4.1-2.1h10c1.1,0,1.1,0.9,0,2.1l0,0
					C445.2,403.5,443.4,404.5,442.3,404.5z"/>
			</g>
		</g>
		<g>
			<g>
				<path class="st0" d="M453.8,410.3h-10c-1.1,0-1.1-0.9,0-2.1l0,0c1.1-1.1,3-2.1,4.1-2.1h10c1.1,0,1.1,0.9,0,2.1l0,0
					C456.7,409.4,454.9,410.3,453.8,410.3z"/>
				<path class="st0" d="M447.9,416.2h-10c-1.1,0-1.1-0.9,0-2.1l0,0c1.1-1.1,3-2.1,4.1-2.1h10c1.1,0,1.1,0.9,0,2.1l0,0
					C450.9,415.3,449,416.2,447.9,416.2z"/>
				<path class="st0" d="M442,422h-10c-1.1,0-1.1-0.9,0-2.1h0c1.1-1.1,3-2.1,4.1-2.1h10c1.1,0,1.1,0.9,0,2.1l0,0
					C445,421.1,443.2,422,442,422z"/>
			</g>
			<g>
				<path class="st0" d="M465.5,398.6h-10c-1.1,0-1.1-0.9,0-2.1l0,0c1.1-1.1,3-2.1,4.1-2.1h10c1.1,0,1.1,0.9,0,2.1l0,0
					C468.5,397.7,466.6,398.6,465.5,398.6z"/>
				<path class="st0" d="M459.6,404.5h-10c-1.1,0-1.1-0.9,0-2.1l0,0c1.1-1.1,3-2.1,4.1-2.1h10c1.1,0,1.1,0.9,0,2.1l0,0
					C462.6,403.5,460.8,404.5,459.6,404.5z"/>
			</g>
		</g>
	</g>
	<path class="st7" d="M501.6,419.4l-42.8,42.8L433,436.4l42.8-42.8c1.4-1.4,3.6-1.4,4.9,0l20.9,20.9
		C502.9,415.8,502.9,418,501.6,419.4z"/>
	
		<linearGradient id="SVGID_00000061438043073448456330000015364203557958781102_" gradientUnits="userSpaceOnUse" x1="459.6223" y1="435.5536" x2="510.7147" y2="384.4612">
		<stop  offset="0" style="stop-color:#FF9900"/>
		<stop  offset="1" style="stop-color:#FF9900;stop-opacity:0"/>
	</linearGradient>
	<path style="opacity:0.3;fill:url(#SVGID_00000061438043073448456330000015364203557958781102_);" d="M501.6,419.4l-42.8,42.8
		L433,436.4l42.8-42.8c1.4-1.4,3.6-1.4,4.9,0l20.9,20.9C502.9,415.8,502.9,418,501.6,419.4z"/>
	<path class="st22" d="M482,394.9l9.8,9.8l-11.1-11.1c-1.4-1.4-3.6-1.4-4.9,0L433,436.4l1.3,1.3l42.8-42.8
		C478.4,393.5,480.6,393.5,482,394.9z"/>
	<path class="st22" d="M501.6,414.5l-20.9-20.9c-0.7-0.7-1.6-1-2.6-1v0h-38c0,0-0.1,0-0.1,0h0v0c-0.9,0-1.7,0.4-2.4,1l-1.3,1.3
		c0.7-0.7,1.5-1,2.4-1v0h0c0,0,0.1,0,0.1,0h38v0c0.9,0,1.9,0.3,2.6,1l20.9,20.9c1.4,1.4,1.4,3.6,0,4.9l1.3-1.3
		C502.9,418,502.9,415.8,501.6,414.5z"/>
	<g>
		<g>
			<g>
				<path class="st0" d="M474.5,416l-7-7c-0.8-0.8-0.8-2.1,0-2.9l0,0c0.8-0.8,2.1-0.8,2.9,0l7,7c0.8,0.8,0.8,2.1,0,2.9l0,0
					C476.6,416.8,475.3,416.8,474.5,416z"/>
				<path class="st0" d="M470.4,420.1l-7-7c-0.8-0.8-0.8-2.1,0-2.9l0,0c0.8-0.8,2.1-0.8,2.9,0l7,7c0.8,0.8,0.8,2.1,0,2.9l0,0
					C472.5,420.9,471.2,420.9,470.4,420.1z"/>
				<path class="st0" d="M466.2,424.2l-7-7c-0.8-0.8-0.8-2.1,0-2.9v0c0.8-0.8,2.1-0.8,2.9,0l7,7c0.8,0.8,0.8,2.1,0,2.9l0,0
					C468.3,425,467,425,466.2,424.2z"/>
			</g>
			<g>
				<path class="st0" d="M482.8,407.7l-7-7c-0.8-0.8-0.8-2.1,0-2.9l0,0c0.8-0.8,2.1-0.8,2.9,0l7,7c0.8,0.8,0.8,2.1,0,2.9l0,0
					C484.9,408.5,483.6,408.5,482.8,407.7z"/>
				<path class="st0" d="M478.7,411.8l-7-7c-0.8-0.8-0.8-2.1,0-2.9l0,0c0.8-0.8,2.1-0.8,2.9,0l7,7c0.8,0.8,0.8,2.1,0,2.9l0,0
					C480.8,412.6,479.5,412.6,478.7,411.8z"/>
			</g>
		</g>
		<g>
			<g>
				<path class="st0" d="M486.8,428.2l-7-7c-0.8-0.8-0.8-2.1,0-2.9l0,0c0.8-0.8,2.1-0.8,2.9,0l7,7c0.8,0.8,0.8,2.1,0,2.9l0,0
					C488.9,429,487.6,429,486.8,428.2z"/>
				<path class="st0" d="M482.6,432.4l-7-7c-0.8-0.8-0.8-2.1,0-2.9h0c0.8-0.8,2.1-0.8,2.9,0l7,7c0.8,0.8,0.8,2.1,0,2.9l0,0
					C484.7,433.2,483.4,433.2,482.6,432.4z"/>
				<path class="st0" d="M478.5,436.5l-7-7c-0.8-0.8-0.8-2.1,0-2.9l0,0c0.8-0.8,2.1-0.8,2.9,0l7,7c0.8,0.8,0.8,2.1,0,2.9l0,0
					C480.6,437.3,479.3,437.3,478.5,436.5z"/>
			</g>
			<g>
				<path class="st0" d="M495.1,419.9l-7-7c-0.8-0.8-0.8-2.1,0-2.9l0,0c0.8-0.8,2.1-0.8,2.9,0l7,7c0.8,0.8,0.8,2.1,0,2.9l0,0
					C497.2,420.7,495.9,420.7,495.1,419.9z"/>
				<path class="st0" d="M490.9,424.1l-7-7c-0.8-0.8-0.8-2.1,0-2.9l0,0c0.8-0.8,2.1-0.8,2.9,0l7,7c0.8,0.8,0.8,2.1,0,2.9l0,0
					C493,424.9,491.7,424.9,490.9,424.1z"/>
			</g>
		</g>
	</g>
	<path class="st23" d="M427.7,424.3h-10.1v-27.2c0-2.8,2.3-5.1,5.1-5.1l0,0c2.8,0,5.1,2.3,5.1,5.1V424.3z"/>
	
		<linearGradient id="SVGID_00000159450746568352365330000008256516769055073455_" gradientUnits="userSpaceOnUse" x1="417.6149" y1="408.1629" x2="427.7462" y2="408.1629">
		<stop  offset="0" style="stop-color:#FF9900"/>
		<stop  offset="1" style="stop-color:#FF9900;stop-opacity:0"/>
	</linearGradient>
	<path style="opacity:0.3;fill:url(#SVGID_00000159450746568352365330000008256516769055073455_);" d="M427.7,424.3h-10.1v-27.2
		c0-2.8,2.3-5.1,5.1-5.1l0,0c2.8,0,5.1,2.3,5.1,5.1V424.3z"/>
	<path class="st22" d="M419.7,420L419.7,420c-0.7,0-1.3-0.6-1.3-1.3v-22.1c0-0.7,0.6-1.3,1.3-1.3l0,0c0.7,0,1.3,0.6,1.3,1.3v22.1
		C421,419.4,420.4,420,419.7,420z"/>
	<rect x="417.6" y="422.6" class="st25" width="10" height="1.7"/>
	<path class="st25" d="M427.7,400.3c-0.8-0.7-1.9-1.1-3-1.1l0,0h-1.6c-2.5,0-4.6,2-4.6,4.6c0,2.5,2,4.6,4.6,4.6h1.6
		c1.2,0,2.2-0.4,3-1.1V400.3z"/>
	<g>
		<path class="st16" d="M290.4,476.2c-11.4,0-20.6,9.2-20.6,20.6s9.2,20.6,20.6,20.6H314v-41.2H290.4z"/>
		<g>
			<defs>
				<path id="SVGID_00000005266538042973856540000009049299637975459969_" d="M290.4,476.2c-11.4,0-20.6,9.2-20.6,20.6
					s9.2,20.6,20.6,20.6H314v-41.2H290.4z"/>
			</defs>
			<clipPath id="SVGID_00000096045570629701765590000006191387715069019838_">
				<use xlink:href="#SVGID_00000005266538042973856540000009049299637975459969_"  style="overflow:visible;"/>
			</clipPath>
			<g style="clip-path:url(#SVGID_00000096045570629701765590000006191387715069019838_);">
				<rect x="268.1" y="482.5" class="st27" width="45.9" height="3.2"/>
				<rect x="268.1" y="488.8" class="st27" width="45.9" height="3.2"/>
				<rect x="268.1" y="476.2" class="st27" width="45.9" height="3.2"/>
				<rect x="268.1" y="495.2" class="st27" width="45.9" height="3.2"/>
				<rect x="268.1" y="501.5" class="st27" width="45.9" height="3.2"/>
				<rect x="268.1" y="507.8" class="st27" width="45.9" height="3.2"/>
				<rect x="268.1" y="514.2" class="st27" width="45.9" height="3.2"/>
			</g>
		</g>
		
			<linearGradient id="SVGID_00000062182881749418160460000016274762419203563445_" gradientUnits="userSpaceOnUse" x1="291.891" y1="517.3491" x2="291.891" y2="476.1778">
			<stop  offset="0" style="stop-color:#FF9900"/>
			<stop  offset="0.5054" style="stop-color:#FF9900;stop-opacity:0.2"/>
			<stop  offset="1" style="stop-color:#FF9900;stop-opacity:0.5108"/>
		</linearGradient>
		<path style="opacity:0.3;fill:url(#SVGID_00000062182881749418160460000016274762419203563445_);" d="M290.4,476.2
			c-11.4,0-20.6,9.2-20.6,20.6s9.2,20.6,20.6,20.6H314v-41.2H290.4z"/>
		<circle class="st16" cx="314" cy="496.8" r="20.6"/>
		<circle class="st9" cx="314" cy="496.8" r="12"/>
		<circle class="st0" cx="314" cy="496.8" r="9.8"/>
		<path class="st1" d="M314,487c-0.4,0-0.7,0-1.1,0.1c4.9,0.5,8.7,4.7,8.7,9.7c0,5-3.8,9.2-8.7,9.7c0.4,0,0.7,0.1,1.1,0.1
			c5.4,0,9.8-4.4,9.8-9.8S319.4,487,314,487z"/>
		
			<linearGradient id="SVGID_00000174569817965588821390000010715728651563588789_" gradientUnits="userSpaceOnUse" x1="288.0394" y1="522.7079" x2="358.1461" y2="452.6012">
			<stop  offset="0" style="stop-color:#FF9900"/>
			<stop  offset="1" style="stop-color:#FF9900;stop-opacity:0"/>
		</linearGradient>
		
			<circle style="opacity:0.3;fill:url(#SVGID_00000174569817965588821390000010715728651563588789_);" cx="314" cy="496.8" r="20.6"/>
	</g>
	<path class="st16" d="M353,450.3c-2.1-1.8-5.3-1.6-7.1,0.5l-36,41.3c-1.8,2.1-1.6,5.3,0.5,7.1h0c1,0.9,2.3,1.3,3.6,1.2v0h3.3
		l-0.3-1.3c0.2-0.1,0.3-0.3,0.5-0.5l36-41.3C355.3,455.3,355.1,452.1,353,450.3z"/>
	<path class="st30" d="M353,450.3c-2.1-1.8-5.3-1.6-7.1,0.5l-36,41.3c-1.8,2.1-1.6,5.3,0.5,7.1h0c1,0.9,2.3,1.3,3.6,1.2v0h3.3
		l-0.3-1.3c0.2-0.1,0.3-0.3,0.5-0.5l36-41.3C355.3,455.3,355.1,452.1,353,450.3z"/>
	
		<linearGradient id="SVGID_00000049209498888250801090000009904938215587925937_" gradientUnits="userSpaceOnUse" x1="308.6185" y1="474.7322" x2="354.7581" y2="474.7322">
		<stop  offset="0" style="stop-color:#FF9900"/>
		<stop  offset="1" style="stop-color:#FF9900;stop-opacity:0"/>
	</linearGradient>
	<path style="opacity:0.3;fill:url(#SVGID_00000049209498888250801090000009904938215587925937_);" d="M353,450.3
		c-2.1-1.8-5.3-1.6-7.1,0.5l-36,41.3c-1.8,2.1-1.6,5.3,0.5,7.1h0c1,0.9,2.3,1.3,3.6,1.2v0h3.3l-0.3-1.3c0.2-0.1,0.3-0.3,0.5-0.5
		l36-41.3C355.3,455.3,355.1,452.1,353,450.3z"/>
	<path class="st32" d="M313.7,499.2L313.7,499.2c-2.1-1.8-2.3-5-0.5-7.1l36-41.3c1.8-2.1,5-2.3,7.1-0.5l0,0c2.1,1.8,2.3,5,0.5,7.1
		l-36,41.3C319,500.8,315.8,501,313.7,499.2z"/>
	<path class="st1" d="M352.1,503.6L352.1,503.6c-2.1-1.8-2.3-5-0.5-7.1l30.5-35c1.8-2.1,5-2.3,7.1-0.5l0,0c2.1,1.8,2.3,5,0.5,7.1
		l-30.5,35C357.4,505.2,354.2,505.4,352.1,503.6z"/>
	<path class="st1" d="M423.6,503.6L423.6,503.6c2.1-1.8,2.3-5,0.5-7.1l-30.5-35c-1.8-2.1-5-2.3-7.1-0.5l0,0c-2.1,1.8-2.3,5-0.5,7.1
		l30.5,35C418.3,505.2,421.5,505.4,423.6,503.6z"/>
	<g>
		<path class="st1" d="M385.5,458.2c-4.2,0-7.7,3.4-7.7,7.7s3.4,7.7,7.7,7.7h6.2v-15.3H385.5z"/>
		<circle class="st1" cx="391.6" cy="465.9" r="7.7"/>
		<path class="st23" d="M395.3,465.9c0,2-1.7,3.7-3.7,3.7c-2,0-3.7-1.7-3.7-3.7c0-2,1.7-3.7,3.7-3.7
			C393.7,462.2,395.3,463.8,395.3,465.9z"/>
	</g>
	<path class="st25" d="M377.8,465.9c0,0.1,0,0.3,0,0.4l-1.8,2.1h23.6l-0.6-0.7c0.1-0.6,0.2-1.2,0.2-1.8c0-4.2-3.4-7.7-7.7-7.7v0
		h-6.2C381.3,458.2,377.8,461.7,377.8,465.9z"/>
	<path class="st25" d="M356.4,450.3L356.4,450.3c-1.4-1.2-3.3-1.5-5-1c-1.9-0.7-4.1-0.2-5.5,1.5l-15.4,17.6h16.8l9.6-11
		C358.7,455.3,358.5,452.1,356.4,450.3z"/>
	<path class="st25" d="M331,432.8c0-2.3-1.4-4.2-3.4-5c-1.1,1.6-2,3.4-2.5,5.3l-1.5,5.4h-3.5v3.8H331V432.8z"/>
	<path class="st9" d="M436.1,424.3h-92c-7.7,0-14.5,5.2-16.6,12.6l-1.5,5.4h-7.5c-2.8,0-5.1,2.3-5.1,5.1v10.7c0,4.3,3.5,7.8,7.8,7.8
		h114.9c4.9,0,8.8-4,8.8-8.8v-23.9C445,428.3,441,424.3,436.1,424.3z"/>
	
		<linearGradient id="SVGID_00000134248286340410528050000005559392983863871886_" gradientUnits="userSpaceOnUse" x1="351.3584" y1="480.8568" x2="422.1202" y2="410.095">
		<stop  offset="0" style="stop-color:#FF9900"/>
		<stop  offset="1" style="stop-color:#FF9900;stop-opacity:0"/>
	</linearGradient>
	<path style="opacity:0.25;fill:url(#SVGID_00000134248286340410528050000005559392983863871886_);" d="M436.1,424.3h-92
		c-7.7,0-14.5,5.2-16.6,12.6l-1.5,5.4h-7.5c-2.8,0-5.1,2.3-5.1,5.1v10.7c0,4.3,3.5,7.8,7.8,7.8h114.9c4.9,0,8.8-4,8.8-8.8v-23.9
		C445,428.3,441,424.3,436.1,424.3z"/>
	<path class="st22" d="M334.9,428L334.9,428c0-0.7,0.6-1.3,1.3-1.3h19.2c0.7,0,1.3,0.6,1.3,1.3l0,0c0,0.7-0.6,1.3-1.3,1.3h-19.2
		C335.4,429.3,334.9,428.7,334.9,428z"/>
	<path class="st22" d="M324.8,445.7L324.8,445.7c0-0.7,0.6-1.3,1.3-1.3h19.2c0.7,0,1.3,0.6,1.3,1.3l0,0c0,0.7-0.6,1.3-1.3,1.3h-19.2
		C325.4,446.9,324.8,446.4,324.8,445.7z"/>
	<g>
		<path class="st7" d="M489.9,465.9h-8.6c-2,0-3.6-1.6-3.6-3.6v-30c0-4.4,3.6-7.9,7.9-7.9l0,0c4.4,0,7.9,3.6,7.9,7.9v30
			C493.5,464.3,491.9,465.9,489.9,465.9z"/>
		
			<linearGradient id="SVGID_00000137122207830804254030000018392585942129152403_" gradientUnits="userSpaceOnUse" x1="477.6259" y1="445.1043" x2="493.515" y2="445.1043">
			<stop  offset="0" style="stop-color:#FF9900;stop-opacity:0"/>
			<stop  offset="1" style="stop-color:#FF9900"/>
		</linearGradient>
		<path style="opacity:0.3;fill:url(#SVGID_00000137122207830804254030000018392585942129152403_);" d="M489.9,465.9h-8.6
			c-2,0-3.6-1.6-3.6-3.6v-30c0-4.4,3.6-7.9,7.9-7.9l0,0c4.4,0,7.9,3.6,7.9,7.9v30C493.5,464.3,491.9,465.9,489.9,465.9z"/>
		<path class="st9" d="M488.7,425.1h-6.3c-0.3,0-0.6-0.3-0.6-0.6v-3.3c0-0.7,0.6-1.3,1.3-1.3h4.8c0.7,0,1.3,0.6,1.3,1.3v3.3
			C489.3,424.8,489,425.1,488.7,425.1z"/>
		
			<linearGradient id="SVGID_00000128487587835904796930000004876709932157824917_" gradientUnits="userSpaceOnUse" x1="481.8294" y1="422.457" x2="489.3115" y2="422.457">
			<stop  offset="0" style="stop-color:#EF4723;stop-opacity:0"/>
			<stop  offset="1" style="stop-color:#EF4723"/>
		</linearGradient>
		<path style="opacity:0.3;fill:url(#SVGID_00000128487587835904796930000004876709932157824917_);" d="M488.7,425.1h-6.3
			c-0.3,0-0.6-0.3-0.6-0.6v-3.3c0-0.7,0.6-1.3,1.3-1.3h4.8c0.7,0,1.3,0.6,1.3,1.3v3.3C489.3,424.8,489,425.1,488.7,425.1z"/>
		<path class="st25" d="M485.3,425.1h-1.8c-0.5,0-0.9-0.4-0.9-0.9v-2.9c0-0.8,0.6-1.5,1.5-1.5h0.8c0.8,0,1.5,0.6,1.5,1.5v2.9
			C486.2,424.7,485.8,425.1,485.3,425.1z"/>
		<path class="st16" d="M493.2,454.6h-15.6v-12.4h15.6c1,0,1.8,0.8,1.8,1.8v8.8C495,453.8,494.2,454.6,493.2,454.6z"/>
		
			<linearGradient id="SVGID_00000018930803940868960840000002096504656899080102_" gradientUnits="userSpaceOnUse" x1="477.6259" y1="448.3618" x2="494.9991" y2="448.3618">
			<stop  offset="0" style="stop-color:#EF4723;stop-opacity:0"/>
			<stop  offset="1" style="stop-color:#EF4723"/>
		</linearGradient>
		<path style="opacity:0.3;fill:url(#SVGID_00000018930803940868960840000002096504656899080102_);" d="M493.2,454.6h-15.6v-12.4
			h15.6c1,0,1.8,0.8,1.8,1.8v8.8C495,453.8,494.2,454.6,493.2,454.6z"/>
	</g>
	<path class="st25" d="M482.5,424.9c-2.9,1.2-4.9,4-4.9,7.3v30c0,1.7,1.2,3.2,2.8,3.6c4.3-0.6,7.6-4.3,7.6-8.7v-23.9
		C488.1,429.4,485.8,426.2,482.5,424.9z"/>
	<path class="st9" d="M475.5,465.9H360.6c-4.3,0-7.8-3.5-7.8-7.8v-18.5c0-8.5,6.9-15.4,15.4-15.4h107.3c4.9,0,8.8,4,8.8,8.8V457
		C484.4,461.9,480.4,465.9,475.5,465.9z"/>
	
		<linearGradient id="SVGID_00000005989540694509806090000008783704483176747659_" gradientUnits="userSpaceOnUse" x1="354.4492" y1="472.5875" x2="539.3499" y2="396.4762">
		<stop  offset="0" style="stop-color:#FF9900"/>
		<stop  offset="1" style="stop-color:#FF9900;stop-opacity:0"/>
	</linearGradient>
	<path style="opacity:0.3;fill:url(#SVGID_00000005989540694509806090000008783704483176747659_);" d="M475.5,465.9H360.6
		c-4.3,0-7.8-3.5-7.8-7.8v-18.5c0-8.5,6.9-15.4,15.4-15.4h107.3c4.9,0,8.8,4,8.8,8.8V457C484.4,461.9,480.4,465.9,475.5,465.9z"/>
	<path class="st22" d="M475.5,424.3h-39.4h-67.9h-24.1c-7.7,0-14.5,5.2-16.6,12.6l-1.5,5.4h-7.5c-2.8,0-5.1,2.3-5.1,5.1v1.8
		c0-2.8,2.3-5.1,5.1-5.1h7.5l1.5-5.4c2.1-7.5,8.8-12.6,16.6-12.6h24.1h67.9h39.4c4.9,0,8.8,4,8.8,8.8v-1.8
		C484.4,428.3,480.4,424.3,475.5,424.3z"/>
	<path class="st25" d="M386.9,445.5l-34-5.7v10.8l29,4.9c0.3,0,0.6,0.1,0.8,0.1l0,0h3.4l0,0c2.4,0,4.5-1.8,4.9-4.2
		C391.5,448.5,389.6,445.9,386.9,445.5z"/>
	<g>
		<g>
			<path class="st38" d="M472.9,440h-14.4c-1.1,0-2.1-0.9-2.1-2.1l0,0c0-1.1,0.9-2.1,2.1-2.1h14.4c1.1,0,2.1,0.9,2.1,2.1l0,0
				C474.9,439.1,474,440,472.9,440z"/>
			<path class="st38" d="M472.9,445.9h-14.4c-1.1,0-2.1-0.9-2.1-2.1l0,0c0-1.1,0.9-2.1,2.1-2.1h14.4c1.1,0,2.1,0.9,2.1,2.1l0,0
				C474.9,444.9,474,445.9,472.9,445.9z"/>
			<path class="st38" d="M472.9,451.7h-14.4c-1.1,0-2.1-0.9-2.1-2.1l0,0c0-1.1,0.9-2.1,2.1-2.1h14.4c1.1,0,2.1,0.9,2.1,2.1l0,0
				C474.9,450.8,474,451.7,472.9,451.7z"/>
		</g>
		<g>
			<circle class="st9" cx="452.8" cy="430.9" r="1.8"/>
			<path class="st9" d="M463.2,430.9c0,1-0.8,1.8-1.8,1.8c-1,0-1.8-0.8-1.8-1.8s0.8-1.8,1.8-1.8
				C462.4,429.1,463.2,429.9,463.2,430.9z"/>
			<circle class="st9" cx="470" cy="430.9" r="1.8"/>
			<circle class="st9" cx="478.6" cy="430.9" r="1.8"/>
			<circle class="st9" cx="452.8" cy="456.7" r="1.8"/>
			<path class="st9" d="M463.2,456.7c0,1-0.8,1.8-1.8,1.8c-1,0-1.8-0.8-1.8-1.8c0-1,0.8-1.8,1.8-1.8
				C462.4,454.9,463.2,455.7,463.2,456.7z"/>
			<circle class="st9" cx="470" cy="456.7" r="1.8"/>
			<circle class="st9" cx="478.6" cy="456.7" r="1.8"/>
			<path class="st9" d="M452.8,441.3c-1,0-1.8-0.8-1.8-1.8c0-1,0.8-1.8,1.8-1.8s1.8,0.8,1.8,1.8
				C454.6,440.5,453.8,441.3,452.8,441.3z"/>
			<circle class="st9" cx="452.8" cy="448.1" r="1.8"/>
			<path class="st9" d="M478.6,441.3c-1,0-1.8-0.8-1.8-1.8c0-1,0.8-1.8,1.8-1.8c1,0,1.8,0.8,1.8,1.8
				C480.4,440.5,479.6,441.3,478.6,441.3z"/>
			<circle class="st9" cx="478.6" cy="448.1" r="1.8"/>
		</g>
	</g>
	<path class="st38" d="M392.9,458.7H374c-1.5,0-2.8-1.2-2.8-2.8V437c0-1.5,1.2-2.8,2.8-2.8h18.8c1.5,0,2.8,1.2,2.8,2.8v18.8
		C395.6,457.4,394.4,458.7,392.9,458.7z"/>
	<g>
		<defs>
			<path id="SVGID_00000076574935176274006680000006601397885443437752_" d="M392.9,458.7H374c-1.5,0-2.8-1.2-2.8-2.8V437
				c0-1.5,1.2-2.8,2.8-2.8h18.8c1.5,0,2.8,1.2,2.8,2.8v18.8C395.6,457.4,394.4,458.7,392.9,458.7z"/>
		</defs>
		<clipPath id="SVGID_00000076583858397301637860000004774789475829114531_">
			<use xlink:href="#SVGID_00000076574935176274006680000006601397885443437752_"  style="overflow:visible;"/>
		</clipPath>
		<g style="clip-path:url(#SVGID_00000076583858397301637860000004774789475829114531_);">
			<path class="st40" d="M381,430.6c-3.7,0-6.7,3-6.7,6.7c0,3.7,3,6.7,6.7,6.7h2.4v-13.5H381z"/>
			
				<ellipse transform="matrix(0.9246 -0.381 0.381 0.9246 -137.6999 179.0376)" class="st23" cx="383.4" cy="437.3" rx="6.7" ry="6.7"/>
			<path class="st40" d="M386.7,437.3c0,1.8-1.5,3.3-3.3,3.3s-3.3-1.5-3.3-3.3c0-1.8,1.5-3.3,3.3-3.3S386.7,435.5,386.7,437.3z"/>
			<path class="st38" d="M382.3,434.3c-1.3,0.4-2.2,1.6-2.2,3.1c0,1.4,0.9,2.6,2.2,3.1c1.3-0.4,2.2-1.6,2.2-3.1
				C384.5,435.9,383.6,434.7,382.3,434.3z"/>
		</g>
		<g style="clip-path:url(#SVGID_00000076583858397301637860000004774789475829114531_);">
			<path class="st40" d="M389.8,447.6c-3.7,0-6.7,3-6.7,6.7c0,3.7,3,6.7,6.7,6.7h2.4v-13.5H389.8z"/>
			
				<ellipse transform="matrix(0.9117 -0.4108 0.4108 0.9117 -152.0358 201.2042)" class="st23" cx="392.2" cy="454.4" rx="6.7" ry="6.7"/>
			<path class="st23" d="M395.4,454.4c0,1.8-1.5,3.3-3.3,3.3c-1.8,0-3.3-1.5-3.3-3.3c0-1.8,1.5-3.3,3.3-3.3
				C394,451.1,395.4,452.6,395.4,454.4z"/>
			<path class="st38" d="M391.1,451.3c-1.3,0.4-2.2,1.6-2.2,3.1c0,1.4,0.9,2.6,2.2,3.1c1.3-0.4,2.2-1.6,2.2-3.1
				C393.3,452.9,392.3,451.7,391.1,451.3z"/>
		</g>
		<g style="clip-path:url(#SVGID_00000076583858397301637860000004774789475829114531_);">
			<path class="st23" d="M371.8,446.9c-3.7,0-6.7,3-6.7,6.7s3,6.7,6.7,6.7h2.4v-13.5H371.8z"/>
			<circle class="st23" cx="374.2" cy="453.6" r="6.7"/>
			<path class="st40" d="M377.4,453.6c0,1.8-1.5,3.3-3.3,3.3c-1.8,0-3.3-1.5-3.3-3.3s1.5-3.3,3.3-3.3
				C376,450.4,377.4,451.8,377.4,453.6z"/>
			<path class="st38" d="M373.1,450.6c-1.3,0.4-2.2,1.6-2.2,3.1c0,1.4,0.9,2.6,2.2,3.1c1.3-0.4,2.2-1.6,2.2-3.1
				C375.3,452.2,374.4,451,373.1,450.6z"/>
		</g>
	</g>
	<path class="st7" d="M392.9,434.3h-4.7c1.5,0,2.8,1.2,2.8,2.8v18.8c0,1.5-1.2,2.8-2.8,2.8h4.7c1.5,0,2.8-1.2,2.8-2.8V437
		C395.6,435.5,394.4,434.3,392.9,434.3z"/>
	<path class="st41" d="M392.9,458.7H374c-1.5,0-2.8-1.2-2.8-2.8V437c0-1.5,1.2-2.8,2.8-2.8h18.8c1.5,0,2.8,1.2,2.8,2.8v18.8
		C395.6,457.4,394.4,458.7,392.9,458.7z"/>
	<path class="st30" d="M334.6,444.4L334.6,444.4c-2.8,0-5.1-2.3-5.1-5.1V416c0-2.8,2.3-5.1,5.1-5.1l0,0c2.8,0,5.1,2.3,5.1,5.1v23.3
		C339.6,442.1,337.4,444.4,334.6,444.4z"/>
	<path class="st9" d="M336.8,444.4L336.8,444.4c-2.8,0-5.1-2.3-5.1-5.1V416c0-2.8,2.3-5.1,5.1-5.1l0,0c2.8,0,5.1,2.3,5.1,5.1v23.3
		C341.9,442.1,339.6,444.4,336.8,444.4z"/>
	
		<linearGradient id="SVGID_00000173859747789732653430000002536523548421205694_" gradientUnits="userSpaceOnUse" x1="327.4381" y1="437.049" x2="364.6831" y2="399.804">
		<stop  offset="0" style="stop-color:#FF9900"/>
		<stop  offset="1" style="stop-color:#FF9900;stop-opacity:0"/>
	</linearGradient>
	<path style="opacity:0.25;fill:url(#SVGID_00000173859747789732653430000002536523548421205694_);" d="M336.8,444.4L336.8,444.4
		c-2.8,0-5.1-2.3-5.1-5.1V416c0-2.8,2.3-5.1,5.1-5.1l0,0c2.8,0,5.1,2.3,5.1,5.1v23.3C341.9,442.1,339.6,444.4,336.8,444.4z"/>
	<path class="st30" d="M383.5,442l-41.2-6.9l-2.2-0.8h-3.4l0,0c-2.4,0.1-4.4,1.8-4.8,4.2c-0.5,2.8,1.4,5.4,4.2,5.8l45.8,7.7
		c0.3,0,0.6,0.1,0.8,0.1l0,0h3.4l-1.3-0.5c1.4-0.7,2.5-2,2.8-3.7C388.1,445.1,386.2,442.5,383.5,442z"/>
	<path class="st16" d="M335.2,438.5L335.2,438.5c0.5-2.8,3.1-4.6,5.8-4.2l45.8,7.7c2.8,0.5,4.6,3.1,4.2,5.8l0,0
		c-0.5,2.8-3.1,4.6-5.8,4.2l-45.8-7.7C336.6,443.8,334.8,441.2,335.2,438.5z"/>
	
		<linearGradient id="SVGID_00000152249713495895791750000007495283733639654029_" gradientUnits="userSpaceOnUse" x1="350.007" y1="456.2632" x2="376.2296" y2="430.0405">
		<stop  offset="0" style="stop-color:#FF9900"/>
		<stop  offset="1" style="stop-color:#FF9900;stop-opacity:0"/>
	</linearGradient>
	<path style="opacity:0.3;fill:url(#SVGID_00000152249713495895791750000007495283733639654029_);" d="M335.2,438.5L335.2,438.5
		c0.5-2.8,3.1-4.6,5.8-4.2l45.8,7.7c2.8,0.5,4.6,3.1,4.2,5.8l0,0c-0.5,2.8-3.1,4.6-5.8,4.2l-45.8-7.7
		C336.6,443.8,334.8,441.2,335.2,438.5z"/>
	<path class="st16" d="M422.7,405L422.7,405c-0.9-1.4-0.6-3.3,0.8-4.2l10-6.7c1.4-0.9,3.3-0.6,4.2,0.8l0,0c0.9,1.4,0.6,3.3-0.8,4.2
		l-10,6.7C425.5,406.8,423.6,406.4,422.7,405z"/>
	
		<linearGradient id="SVGID_00000012442102648337155280000016374100046383132570_" gradientUnits="userSpaceOnUse" x1="422.1754" y1="399.9804" x2="438.2114" y2="399.9804">
		<stop  offset="0" style="stop-color:#FF9900"/>
		<stop  offset="1" style="stop-color:#FF9900;stop-opacity:0"/>
	</linearGradient>
	<path style="opacity:0.3;fill:url(#SVGID_00000012442102648337155280000016374100046383132570_);" d="M422.7,405L422.7,405
		c-0.9-1.4-0.6-3.3,0.8-4.2l10-6.7c1.4-0.9,3.3-0.6,4.2,0.8l0,0c0.9,1.4,0.6,3.3-0.8,4.2l-10,6.7C425.5,406.8,423.6,406.4,422.7,405
		z"/>
	<path class="st25" d="M437.7,395c-0.9-1.4-2.8-1.8-4.2-0.8l-2.4,1.6c0,0.1,0,0.1,0,0.2c0,1.2,0.5,2.4,1.3,3.2v3l4.5-3
		C438.3,398.2,438.6,396.4,437.7,395z"/>
	<path class="st30" d="M370.1,493.5L370.1,493.5c-2.1-1.8-2.3-5-0.5-7.1l33.2-38.1c1.8-2.1,5-2.3,7.1-0.5h0c2.1,1.8,2.3,5,0.5,7.1
		l-33.2,38.1C375.4,495.2,372.2,495.4,370.1,493.5z"/>
	
		<linearGradient id="SVGID_00000147182990937093187650000001061239639453226417_" gradientUnits="userSpaceOnUse" x1="368.377" y1="470.7025" x2="411.6728" y2="470.7025">
		<stop  offset="0" style="stop-color:#FF9900"/>
		<stop  offset="1" style="stop-color:#FF9900;stop-opacity:0"/>
	</linearGradient>
	<path style="opacity:0.3;fill:url(#SVGID_00000147182990937093187650000001061239639453226417_);" d="M370.1,493.5L370.1,493.5
		c-2.1-1.8-2.3-5-0.5-7.1l33.2-38.1c1.8-2.1,5-2.3,7.1-0.5h0c2.1,1.8,2.3,5,0.5,7.1l-33.2,38.1C375.4,495.2,372.2,495.4,370.1,493.5
		z"/>
	<path class="st25" d="M449.5,464.6l-38-12.9c-2.6-0.9-5.5,0.5-6.4,3.2c-0.9,2.6,0.5,5.5,3.2,6.4l13.5,4.6h29.8
		C451,465.3,450.3,464.9,449.5,464.6z"/>
	<path class="st30" d="M456.1,467.8L456.1,467.8c0.9-2.6-0.5-5.5-3.2-6.4l-38-12.9c-2.6-0.9-5.5,0.5-6.4,3.2v0
		c-0.9,2.6,0.5,5.5,3.2,6.4l38,12.9C452.3,471.9,455.2,470.5,456.1,467.8z"/>
	
		<linearGradient id="SVGID_00000060014667283391760480000005892312946047533189_" gradientUnits="userSpaceOnUse" x1="408.2096" y1="459.7659" x2="456.3512" y2="459.7659">
		<stop  offset="0" style="stop-color:#FF9900"/>
		<stop  offset="1" style="stop-color:#FF9900;stop-opacity:0"/>
	</linearGradient>
	<path style="opacity:0.3;fill:url(#SVGID_00000060014667283391760480000005892312946047533189_);" d="M456.1,467.8L456.1,467.8
		c0.9-2.6-0.5-5.5-3.2-6.4l-38-12.9c-2.6-0.9-5.5,0.5-6.4,3.2v0c-0.9,2.6,0.5,5.5,3.2,6.4l38,12.9
		C452.3,471.9,455.2,470.5,456.1,467.8z"/>
	<path class="st30" d="M412.5,504.3L412.5,504.3c-2.1-1.8-2.3-5-0.5-7.1l30.5-35c1.8-2.1,5-2.3,7.1-0.5l0,0c2.1,1.8,2.3,5,0.5,7.1
		l-30.5,35C417.8,505.9,414.6,506.1,412.5,504.3z"/>
	
		<linearGradient id="SVGID_00000054953254734130605820000007031945691988284052_" gradientUnits="userSpaceOnUse" x1="410.7798" y1="482.9284" x2="451.4243" y2="482.9284">
		<stop  offset="0" style="stop-color:#FF9900"/>
		<stop  offset="1" style="stop-color:#FF9900;stop-opacity:0"/>
	</linearGradient>
	<path style="opacity:0.3;fill:url(#SVGID_00000054953254734130605820000007031945691988284052_);" d="M412.5,504.3L412.5,504.3
		c-2.1-1.8-2.3-5-0.5-7.1l30.5-35c1.8-2.1,5-2.3,7.1-0.5l0,0c2.1,1.8,2.3,5,0.5,7.1l-30.5,35C417.8,505.9,414.6,506.1,412.5,504.3z"
		/>
	<path class="st30" d="M484.1,504.3L484.1,504.3c2.1-1.8,2.3-5,0.5-7.1l-30.5-35c-1.8-2.1-5-2.3-7.1-0.5l0,0c-2.1,1.8-2.3,5-0.5,7.1
		l30.5,35C478.8,505.9,482,506.1,484.1,504.3z"/>
	
		<linearGradient id="SVGID_00000176744268104330323070000008365980637095641248_" gradientUnits="userSpaceOnUse" x1="445.1848" y1="482.9284" x2="485.8293" y2="482.9284">
		<stop  offset="0" style="stop-color:#FF9900"/>
		<stop  offset="1" style="stop-color:#FF9900;stop-opacity:0"/>
	</linearGradient>
	<path style="opacity:0.3;fill:url(#SVGID_00000176744268104330323070000008365980637095641248_);" d="M484.1,504.3L484.1,504.3
		c2.1-1.8,2.3-5,0.5-7.1l-30.5-35c-1.8-2.1-5-2.3-7.1-0.5l0,0c-2.1,1.8-2.3,5-0.5,7.1l30.5,35C478.8,505.9,482,506.1,484.1,504.3z"
		/>
	<path class="st16" d="M373.9,492.9L373.9,492.9c-2.1-1.8-2.3-5-0.5-7.1l30.5-35c1.8-2.1,5-2.3,7.1-0.5l0,0c2.1,1.8,2.3,5,0.5,7.1
		l-30.5,35C379.2,494.5,376,494.7,373.9,492.9z"/>
	<path class="st16" d="M459.9,467.2L459.9,467.2c0.9-2.6-0.5-5.5-3.2-6.4l-38-12.9c-2.6-0.9-5.5,0.5-6.4,3.2l0,0
		c-0.9,2.6,0.5,5.5,3.2,6.4l38,12.9C456.1,471.3,459,469.8,459.9,467.2z"/>
	<path class="st16" d="M416.3,503.6L416.3,503.6c-2.1-1.8-2.3-5-0.5-7.1l30.5-35c1.8-2.1,5-2.3,7.1-0.5l0,0c2.1,1.8,2.3,5,0.5,7.1
		l-30.5,35C421.6,505.2,418.4,505.4,416.3,503.6z"/>
	<path class="st16" d="M487.9,503.6L487.9,503.6c2.1-1.8,2.3-5,0.5-7.1l-30.5-35c-1.8-2.1-5-2.3-7.1-0.5l0,0c-2.1,1.8-2.3,5-0.5,7.1
		l30.5,35C482.6,505.2,485.8,505.4,487.9,503.6z"/>
	<path class="st32" d="M373.9,492.9L373.9,492.9c-2.1-1.8-2.3-5-0.5-7.1l30.5-35c1.8-2.1,5-2.3,7.1-0.5l0,0c2.1,1.8,2.3,5,0.5,7.1
		l-30.5,35C379.2,494.5,376,494.7,373.9,492.9z"/>
	<path class="st32" d="M459.9,467.2L459.9,467.2c0.9-2.6-0.5-5.5-3.2-6.4l-38-12.9c-2.6-0.9-5.5,0.5-6.4,3.2l0,0
		c-0.9,2.6,0.5,5.5,3.2,6.4l38,12.9C456.1,471.3,459,469.8,459.9,467.2z"/>
	<path class="st32" d="M416.3,503.6L416.3,503.6c-2.1-1.8-2.3-5-0.5-7.1l30.5-35c1.8-2.1,5-2.3,7.1-0.5l0,0c2.1,1.8,2.3,5,0.5,7.1
		l-30.5,35C421.6,505.2,418.4,505.4,416.3,503.6z"/>
	<path class="st32" d="M487.9,503.6L487.9,503.6c2.1-1.8,2.3-5,0.5-7.1l-30.5-35c-1.8-2.1-5-2.3-7.1-0.5l0,0c-2.1,1.8-2.3,5-0.5,7.1
		l30.5,35C482.6,505.2,485.8,505.4,487.9,503.6z"/>
	<path class="st25" d="M336.8,410.9c-0.4,0-0.8,0-1.1,0.1c-0.4-0.1-0.7-0.1-1.1-0.1h0c-2.8,0-5.1,2.3-5.1,5.1v4.4h9.2
		c1.2,0,2.3-0.3,3.2-0.7V416C341.9,413.2,339.6,410.9,336.8,410.9z"/>
	<g>
		<path class="st30" d="M328,401.9c-4.2,0-7.7,3.4-7.7,7.7c0,4.2,3.4,7.7,7.7,7.7h10.7v-15.3H328z"/>
		
			<ellipse transform="matrix(0.7071 -0.7071 0.7071 0.7071 -190.4251 359.4375)" class="st9" cx="338.7" cy="409.6" rx="7.7" ry="7.7"/>
		
			<linearGradient id="SVGID_00000129180649064992396700000014009096684761609870_" gradientUnits="userSpaceOnUse" x1="332.3322" y1="415.6649" x2="350.5328" y2="398.1882">
			<stop  offset="0" style="stop-color:#FF9900"/>
			<stop  offset="1" style="stop-color:#FF9900;stop-opacity:0"/>
		</linearGradient>
		
			<circle style="opacity:0.25;fill:url(#SVGID_00000129180649064992396700000014009096684761609870_);" cx="338.7" cy="409.6" r="7.7"/>
		<path class="st1" d="M342.4,409.6c0,2-1.7,3.7-3.7,3.7c-2,0-3.7-1.7-3.7-3.7c0-2,1.7-3.7,3.7-3.7
			C340.7,405.9,342.4,407.5,342.4,409.6z"/>
		<path class="st0" d="M336.8,406.4c-1.1,0.6-1.8,1.8-1.8,3.2c0,1.4,0.7,2.6,1.8,3.2c1.1-0.6,1.8-1.8,1.8-3.2
			C338.7,408.2,337.9,407,336.8,406.4z"/>
	</g>
	<g>
		<path class="st7" d="M436.8,390.8c-2.5,0-4.6,2-4.6,4.6c0,2.5,2,4.6,4.6,4.6h1.6v-9.2H436.8z"/>
		<path class="st16" d="M442.9,395.4c0,2.5-2,4.6-4.6,4.6c-2.5,0-4.6-2-4.6-4.6c0-2.5,2-4.6,4.6-4.6
			C440.9,390.8,442.9,392.9,442.9,395.4z"/>
		<path class="st23" d="M436.5,404.8L436.5,404.8c-1.7,0-3-1.3-3-3v-19.4c0-1.7,1.3-3,3-3l0,0c1.7,0,3,1.3,3,3v19.4
			C439.5,403.4,438.2,404.8,436.5,404.8z"/>
		
			<linearGradient id="SVGID_00000007397221091795102990000014766004057690554805_" gradientUnits="userSpaceOnUse" x1="433.4961" y1="392.0694" x2="439.5072" y2="392.0694">
			<stop  offset="0" style="stop-color:#FF9900"/>
			<stop  offset="1" style="stop-color:#FF9900;stop-opacity:0"/>
		</linearGradient>
		<path style="opacity:0.3;fill:url(#SVGID_00000007397221091795102990000014766004057690554805_);" d="M436.5,404.8L436.5,404.8
			c-1.7,0-3-1.3-3-3v-19.4c0-1.7,1.3-3,3-3l0,0c1.7,0,3,1.3,3,3v19.4C439.5,403.4,438.2,404.8,436.5,404.8z"/>
		<path class="st25" d="M439.5,386.7c-2.2-0.9-4.2-2.3-6-4v4.8c1.8,1.8,3.8,3.1,6,4V386.7z"/>
		<path class="st7" d="M436.8,390.8c-2.5,0-4.6,2-4.6,4.6c0,2.5,2,4.6,4.6,4.6h1.6v-9.2H436.8z"/>
		
			<linearGradient id="SVGID_00000103234411833961305990000003527001630615684513_" gradientUnits="userSpaceOnUse" x1="432.1877" y1="395.4028" x2="438.3705" y2="395.4028">
			<stop  offset="0" style="stop-color:#FF9900"/>
			<stop  offset="1" style="stop-color:#FF9900;stop-opacity:0"/>
		</linearGradient>
		<path style="opacity:0.3;fill:url(#SVGID_00000103234411833961305990000003527001630615684513_);" d="M436.8,390.8
			c-2.5,0-4.6,2-4.6,4.6c0,2.5,2,4.6,4.6,4.6h1.6v-9.2H436.8z"/>
		<path class="st9" d="M442.9,395.4c0,2.5-2,4.6-4.6,4.6c-2.5,0-4.6-2-4.6-4.6c0-2.5,2-4.6,4.6-4.6
			C440.9,390.8,442.9,392.9,442.9,395.4z"/>
		
			<linearGradient id="SVGID_00000147937870839476627780000013985665384625118902_" gradientUnits="userSpaceOnUse" x1="435.1337" y1="398.6396" x2="441.6073" y2="392.166">
			<stop  offset="0" style="stop-color:#FF9900"/>
			<stop  offset="1" style="stop-color:#FF9900;stop-opacity:0"/>
		</linearGradient>
		<path style="opacity:0.3;fill:url(#SVGID_00000147937870839476627780000013985665384625118902_);" d="M442.9,395.4
			c0,2.5-2,4.6-4.6,4.6c-2.5,0-4.6-2-4.6-4.6c0-2.5,2-4.6,4.6-4.6C440.9,390.8,442.9,392.9,442.9,395.4z"/>
		<path class="st0" d="M440.6,395.4c0,1.2-1,2.2-2.2,2.2c-1.2,0-2.2-1-2.2-2.2c0-1.2,1-2.2,2.2-2.2
			C439.6,393.2,440.6,394.2,440.6,395.4z"/>
	</g>
	<g>
		<path class="st7" d="M424,398.3c-2.5,0-4.6,2-4.6,4.6c0,2.5,2,4.6,4.6,4.6h1.6v-9.2H424z"/>
		
			<linearGradient id="SVGID_00000138572401122600519800000003961255633827518132_" gradientUnits="userSpaceOnUse" x1="419.433" y1="402.8485" x2="424.0106" y2="402.8485">
			<stop  offset="0" style="stop-color:#FF9900"/>
			<stop  offset="1" style="stop-color:#FF9900;stop-opacity:0"/>
		</linearGradient>
		<path style="opacity:0.3;fill:url(#SVGID_00000138572401122600519800000003961255633827518132_);" d="M424,398.3
			c-2.5,0-4.6,2-4.6,4.6c0,2.5,2,4.6,4.6,4.6"/>
		<path class="st9" d="M430.2,402.8c0,2.5-2,4.6-4.6,4.6c-2.5,0-4.6-2-4.6-4.6c0-2.5,2-4.6,4.6-4.6
			C428.1,398.3,430.2,400.3,430.2,402.8z"/>
		
			<linearGradient id="SVGID_00000103950116342840092010000005346565426394476679_" gradientUnits="userSpaceOnUse" x1="422.379" y1="406.0853" x2="428.8527" y2="399.6117">
			<stop  offset="0" style="stop-color:#FF9900"/>
			<stop  offset="1" style="stop-color:#FF9900;stop-opacity:0"/>
		</linearGradient>
		<path style="opacity:0.3;fill:url(#SVGID_00000103950116342840092010000005346565426394476679_);" d="M430.2,402.8
			c0,2.5-2,4.6-4.6,4.6c-2.5,0-4.6-2-4.6-4.6c0-2.5,2-4.6,4.6-4.6C428.1,398.3,430.2,400.3,430.2,402.8z"/>
		<path class="st0" d="M427.8,402.8c0,1.2-1,2.2-2.2,2.2c-1.2,0-2.2-1-2.2-2.2c0-1.2,1-2.2,2.2-2.2
			C426.8,400.6,427.8,401.6,427.8,402.8z"/>
	</g>
	<g>
		<path class="st30" d="M339.4,435.9c-1.8,0-3.3,1.5-3.3,3.3c0,1.8,1.5,3.3,3.3,3.3h1.2v-6.6H339.4z"/>
		<path class="st9" d="M343.8,439.2c0,1.8-1.5,3.3-3.3,3.3c-1.8,0-3.3-1.5-3.3-3.3c0-1.8,1.5-3.3,3.3-3.3
			C342.3,435.9,343.8,437.4,343.8,439.2z"/>
		
			<linearGradient id="SVGID_00000039095692084519506560000011730184517593305997_" gradientUnits="userSpaceOnUse" x1="338.213" y1="441.5311" x2="342.8581" y2="436.8859">
			<stop  offset="0" style="stop-color:#FF9900"/>
			<stop  offset="1" style="stop-color:#FF9900;stop-opacity:0"/>
		</linearGradient>
		<path style="opacity:0.25;fill:url(#SVGID_00000039095692084519506560000011730184517593305997_);" d="M343.8,439.2
			c0,1.8-1.5,3.3-3.3,3.3c-1.8,0-3.3-1.5-3.3-3.3c0-1.8,1.5-3.3,3.3-3.3C342.3,435.9,343.8,437.4,343.8,439.2z"/>
		<path class="st30" d="M342.1,439.2c0,0.9-0.7,1.6-1.6,1.6c-0.9,0-1.6-0.7-1.6-1.6c0-0.9,0.7-1.6,1.6-1.6
			C341.4,437.6,342.1,438.3,342.1,439.2z"/>
		<path class="st0" d="M340,437.7c-0.6,0.2-1.1,0.8-1.1,1.5c0,0.7,0.4,1.3,1.1,1.5c0.6-0.2,1.1-0.8,1.1-1.5
			C341.1,438.5,340.6,437.9,340,437.7z"/>
	</g>
	<g>
		<path class="st0" d="M317.5,492.3c-1.8,0-3.3,1.5-3.3,3.3c0,1.8,1.5,3.3,3.3,3.3h1.2v-6.6H317.5z"/>
		<path class="st30" d="M321.9,495.6c0,1.8-1.5,3.3-3.3,3.3c-1.8,0-3.3-1.5-3.3-3.3c0-1.8,1.5-3.3,3.3-3.3
			C320.5,492.3,321.9,493.8,321.9,495.6z"/>
		<path class="st0" d="M320.2,495.6c0,0.9-0.7,1.6-1.6,1.6c-0.9,0-1.6-0.7-1.6-1.6c0-0.9,0.7-1.6,1.6-1.6
			C319.5,494,320.2,494.7,320.2,495.6z"/>
		<path class="st0" d="M318.1,494.1c-0.6,0.2-1.1,0.8-1.1,1.5c0,0.7,0.4,1.3,1.1,1.5c0.6-0.2,1.1-0.8,1.1-1.5
			C319.2,494.9,318.7,494.3,318.1,494.1z"/>
	</g>
	<g>
		<path class="st30" d="M385.8,443.9c-1.8,0-3.3,1.5-3.3,3.3c0,1.8,1.5,3.3,3.3,3.3h1.2v-6.6H385.8z"/>
		<circle class="st9" cx="387" cy="447.2" r="3.3"/>
		
			<linearGradient id="SVGID_00000137813350810022389760000002577302194980015287_" gradientUnits="userSpaceOnUse" x1="384.6679" y1="449.4897" x2="389.313" y2="444.8445">
			<stop  offset="0" style="stop-color:#FF9900"/>
			<stop  offset="1" style="stop-color:#FF9900;stop-opacity:0"/>
		</linearGradient>
		
			<circle style="opacity:0.25;fill:url(#SVGID_00000137813350810022389760000002577302194980015287_);" cx="387" cy="447.2" r="3.3"/>
		<circle class="st30" cx="387" cy="447.2" r="1.6"/>
		<path class="st0" d="M386.5,445.7c-0.6,0.2-1.1,0.8-1.1,1.5c0,0.7,0.4,1.3,1.1,1.5c0.6-0.2,1.1-0.8,1.1-1.5
			C387.5,446.5,387.1,445.9,386.5,445.7z"/>
	</g>
	<g>
		<path class="st30" d="M409.4,444.4c-4.2,0-7.7,3.4-7.7,7.7c0,4.2,3.4,7.7,7.7,7.7h6.2v-15.3H409.4z"/>
		<circle class="st9" cx="415.6" cy="452.1" r="7.7"/>
		
			<linearGradient id="SVGID_00000010273944230824894090000003675323320709973937_" gradientUnits="userSpaceOnUse" x1="404.7872" y1="462.8277" x2="427.8391" y2="439.7758">
			<stop  offset="0" style="stop-color:#FF9900"/>
			<stop  offset="1" style="stop-color:#FF9900;stop-opacity:0"/>
		</linearGradient>
		
			<circle style="opacity:0.3;fill:url(#SVGID_00000010273944230824894090000003675323320709973937_);" cx="415.6" cy="452.1" r="7.7"/>
		<path class="st30" d="M419.3,452.1c0,2-1.7,3.7-3.7,3.7c-2,0-3.7-1.7-3.7-3.7c0-2,1.7-3.7,3.7-3.7
			C417.6,448.4,419.3,450,419.3,452.1z"/>
		<path class="st0" d="M413.8,448.8c-1.1,0.6-1.9,1.8-1.9,3.2c0,1.4,0.8,2.6,1.9,3.2c1.1-0.6,1.9-1.8,1.9-3.2
			C415.7,450.7,414.9,449.4,413.8,448.8z"/>
	</g>
	<g>
		<path class="st30" d="M449.8,458.2c-4.2,0-7.7,3.4-7.7,7.7s3.4,7.7,7.7,7.7h6.2v-15.3H449.8z"/>
		<circle class="st9" cx="455.9" cy="465.9" r="7.7"/>
		
			<linearGradient id="SVGID_00000131330551685006274530000018208094785993855935_" gradientUnits="userSpaceOnUse" x1="446.7851" y1="475.0429" x2="471.366" y2="450.4621">
			<stop  offset="0" style="stop-color:#FF9900"/>
			<stop  offset="1" style="stop-color:#FF9900;stop-opacity:0"/>
		</linearGradient>
		
			<circle style="opacity:0.3;fill:url(#SVGID_00000131330551685006274530000018208094785993855935_);" cx="455.9" cy="465.9" r="7.7"/>
		<path class="st30" d="M459.6,465.9c0,2-1.7,3.7-3.7,3.7c-2,0-3.7-1.7-3.7-3.7c0-2,1.7-3.7,3.7-3.7
			C458,462.2,459.6,463.8,459.6,465.9z"/>
		<path class="st0" d="M454.2,462.6c-1.1,0.6-1.9,1.8-1.9,3.2c0,1.4,0.8,2.6,1.9,3.2c1.1-0.6,1.9-1.8,1.9-3.2
			C456.1,464.5,455.3,463.3,454.2,462.6z"/>
	</g>
	<path class="st9" d="M353.1,385.9l-4.1-1.2c-4.7-1.3-9.5-2-14.3-2l0,0H314v4.8c-0.3,0.6-0.5,1.2-0.5,1.9c0,1.6,0.2,3.3,0.5,4.9
		v10.8h21.2l0,0c3.3,0,6.6-0.4,9.9-1l2.5-0.5c3.1-0.6,5.6-2.7,6.7-5.7l0,0c1.1-2.7,1.6-5.6,1.6-8.5
		C355.8,387.8,354.7,386.4,353.1,385.9z"/>
	
		<linearGradient id="SVGID_00000040572966277039829960000000793819267265767351_" gradientUnits="userSpaceOnUse" x1="318.2429" y1="393.9987" x2="360.6419" y2="393.9987">
		<stop  offset="0" style="stop-color:#FF9900"/>
		<stop  offset="1" style="stop-color:#FF9900;stop-opacity:0"/>
	</linearGradient>
	<path style="opacity:0.3;fill:url(#SVGID_00000040572966277039829960000000793819267265767351_);" d="M353.1,385.9l-4.1-1.2
		c-4.7-1.3-9.5-2-14.3-2l0,0H314v4.8c-0.3,0.6-0.5,1.2-0.5,1.9c0,1.6,0.2,3.3,0.5,4.9v10.8h21.2l0,0c3.3,0,6.6-0.4,9.9-1l2.5-0.5
		c3.1-0.6,5.6-2.7,6.7-5.7l0,0c1.1-2.7,1.6-5.6,1.6-8.5C355.8,387.8,354.7,386.4,353.1,385.9z"/>
	<path class="st25" d="M345.6,406.3c-1.2-2.6-3.9-4.3-6.9-4.3H328c-1.6,0-3.1,0.5-4.3,1.3c-0.3,0-0.6-0.1-0.9-0.1h-10.4v0
		c-0.4,0-0.7,0-1.1,0.1v-1.9h-5.4h-5.5h-1.8v3.5c0.8,0.4,1.6,0.7,2.5,0.9l2.5,0.5c3.4,0.7,6.9,1,10.4,1h21.2l0,0
		c3.3,0,6.6-0.4,9.9-1L345.6,406.3z"/>
	<path class="st7" d="M335.2,389.5c0,0,0,0-21.7,0c0,1.6,0.2,3.3,0.5,4.9v10.8h21.2l0,0c3.3,0,6.6-0.4,9.9-1l2.5-0.5
		c3.1-0.6,5.6-2.7,6.7-5.7l0,0c1.1-2.7,1.6-5.6,1.6-8.5H335.2z"/>
	<path class="st32" d="M335.2,389.5c0,0,0,0-21.7,0c0,1.6,0.2,3.3,0.5,4.9v10.8h21.2l0,0c3.3,0,6.6-0.4,9.9-1l2.5-0.5
		c3.1-0.6,5.6-2.7,6.7-5.7l0,0c1.1-2.7,1.6-5.6,1.6-8.5H335.2z"/>
	<path class="st7" d="M417.1,411.3h-59.9c-2.1,0-3.8,1.7-3.8,3.8v9.3h67.4v-9.3C420.9,413,419.2,411.3,417.1,411.3z"/>
	
		<linearGradient id="SVGID_00000100375623458892435860000014598732371522583463_" gradientUnits="userSpaceOnUse" x1="353.4548" y1="417.8035" x2="420.8795" y2="417.8035">
		<stop  offset="0" style="stop-color:#FF9900"/>
		<stop  offset="1" style="stop-color:#FF9900;stop-opacity:0"/>
	</linearGradient>
	<path style="opacity:0.3;fill:url(#SVGID_00000100375623458892435860000014598732371522583463_);" d="M417.1,411.3h-59.9
		c-2.1,0-3.8,1.7-3.8,3.8v9.3h67.4v-9.3C420.9,413,419.2,411.3,417.1,411.3z"/>
	<path class="st9" d="M392.3,411.3h-35.1c-2.1,0-3.8,1.7-3.8,3.8v9.3h42.6v-9.3C396.1,413,394.4,411.3,392.3,411.3z"/>
	
		<linearGradient id="SVGID_00000098907243158613931770000006801037721320336270_" gradientUnits="userSpaceOnUse" x1="359.5401" y1="434.1266" x2="404.2843" y2="389.3824">
		<stop  offset="0" style="stop-color:#FF9900"/>
		<stop  offset="1" style="stop-color:#FF9900;stop-opacity:0"/>
	</linearGradient>
	<path style="opacity:0.25;fill:url(#SVGID_00000098907243158613931770000006801037721320336270_);" d="M392.3,411.3h-35.1
		c-2.1,0-3.8,1.7-3.8,3.8v9.3h42.6v-9.3C396.1,413,394.4,411.3,392.3,411.3z"/>
	<path class="st62" d="M408.7,404.8h-43.1c-1.8,0-3.3,1.5-3.3,3.3v3.2H412v-3.2C412,406.2,410.5,404.8,408.7,404.8z"/>
	
		<linearGradient id="SVGID_00000165954123999323949530000012909593838609980551_" gradientUnits="userSpaceOnUse" x1="362.3482" y1="408.031" x2="411.9861" y2="408.031">
		<stop  offset="0" style="stop-color:#FF9900"/>
		<stop  offset="1" style="stop-color:#FF9900;stop-opacity:0"/>
	</linearGradient>
	<path style="opacity:0.3;fill:url(#SVGID_00000165954123999323949530000012909593838609980551_);" d="M408.7,404.8h-43.1
		c-1.8,0-3.3,1.5-3.3,3.3v3.2H412v-3.2C412,406.2,410.5,404.8,408.7,404.8z"/>
	<path class="st9" d="M384.6,404.8h-18.9c-1.8,0-3.3,1.5-3.3,3.3v3.2h25.5v-3.2C387.8,406.2,386.4,404.8,384.6,404.8z"/>
	
		<linearGradient id="SVGID_00000175310047455731892440000017029850825630704768_" gradientUnits="userSpaceOnUse" x1="367.573" y1="416.5133" x2="382.6142" y2="401.4721">
		<stop  offset="0" style="stop-color:#FF9900"/>
		<stop  offset="1" style="stop-color:#FF9900;stop-opacity:0"/>
	</linearGradient>
	<path style="opacity:0.25;fill:url(#SVGID_00000175310047455731892440000017029850825630704768_);" d="M384.6,404.8h-18.9
		c-1.8,0-3.3,1.5-3.3,3.3v3.2h25.5v-3.2C387.8,406.2,386.4,404.8,384.6,404.8z"/>
	<rect x="376.7" y="389.7" class="st7" width="21" height="15"/>
	
		<linearGradient id="SVGID_00000015337305952461543430000005166009599251584958_" gradientUnits="userSpaceOnUse" x1="376.6708" y1="397.2503" x2="397.6635" y2="397.2503">
		<stop  offset="0" style="stop-color:#FF9900"/>
		<stop  offset="1" style="stop-color:#FF9900;stop-opacity:0"/>
	</linearGradient>
	
		<rect x="376.7" y="389.7" style="opacity:0.3;fill:url(#SVGID_00000015337305952461543430000005166009599251584958_);" width="21" height="15"/>
	<rect x="389" y="389.7" class="st25" width="6.6" height="15"/>
	<rect x="378.2" y="389.7" class="st22" width="3.6" height="15"/>
	<path class="st9" d="M397.7,394.6h-21c-0.9,0-1.6,0.7-1.6,1.6v2.1c0,0.9,0.7,1.6,1.6,1.6h21c0.9,0,1.6-0.7,1.6-1.6v-2.1
		C399.3,395.3,398.5,394.6,397.7,394.6z"/>
	
		<linearGradient id="SVGID_00000156571736626340912540000005363002978731396253_" gradientUnits="userSpaceOnUse" x1="380.2685" y1="404.1489" x2="394.0658" y2="390.3517">
		<stop  offset="0" style="stop-color:#FF9900"/>
		<stop  offset="1" style="stop-color:#FF9900;stop-opacity:0"/>
	</linearGradient>
	<path style="opacity:0.3;fill:url(#SVGID_00000156571736626340912540000005363002978731396253_);" d="M397.7,394.6h-21
		c-0.9,0-1.6,0.7-1.6,1.6v2.1c0,0.9,0.7,1.6,1.6,1.6h21c0.9,0,1.6-0.7,1.6-1.6v-2.1C399.3,395.3,398.5,394.6,397.7,394.6z"/>
	<path class="st25" d="M375.1,397.9v0.4c0,0.9,0.7,1.6,1.6,1.6h21c0.9,0,1.6-0.7,1.6-1.6v-0.4H375.1z"/>
	<path class="st9" d="M404.2,384.5h-34v3.4c0,1,0.9,1.9,1.9,1.9h30.2c1,0,1.9-0.9,1.9-1.9V384.5z"/>
	
		<linearGradient id="SVGID_00000169555672922301448610000004633851191250037149_" gradientUnits="userSpaceOnUse" x1="377.6213" y1="396.0792" x2="396.713" y2="376.9876">
		<stop  offset="0" style="stop-color:#FF9900"/>
		<stop  offset="1" style="stop-color:#FF9900;stop-opacity:0"/>
	</linearGradient>
	<path style="opacity:0.3;fill:url(#SVGID_00000169555672922301448610000004633851191250037149_);" d="M404.2,384.5h-34v3.4
		c0,1,0.9,1.9,1.9,1.9h30.2c1,0,1.9-0.9,1.9-1.9V384.5z"/>
	<path class="st9" d="M412.1,351c-1-1.2-2.5-2-4.1-2h-11.9h-19.4c-1.6,0-3.1,0.7-4.1,2l-11.6,14.3c-0.7,0.9-0.7,2.1,0,2.9l11.6,14.3
		c1,1.2,2.5,2,4.1,2h19.4H408c1.6,0,3.1-0.7,4.1-2l11.6-14.3c0.7-0.9,0.7-2.1,0-2.9L412.1,351z"/>
	
		<linearGradient id="SVGID_00000051363859982430679450000013011620358405181619_" gradientUnits="userSpaceOnUse" x1="373.1262" y1="366.7437" x2="436.9641" y2="366.7437">
		<stop  offset="0" style="stop-color:#FF9900"/>
		<stop  offset="1" style="stop-color:#FF9900;stop-opacity:0"/>
	</linearGradient>
	<path style="opacity:0.3;fill:url(#SVGID_00000051363859982430679450000013011620358405181619_);" d="M412.1,351
		c-1-1.2-2.5-2-4.1-2h-11.9h-19.4c-1.6,0-3.1,0.7-4.1,2l-11.6,14.3c-0.7,0.9-0.7,2.1,0,2.9l11.6,14.3c1,1.2,2.5,2,4.1,2h19.4H408
		c1.6,0,3.1-0.7,4.1-2l11.6-14.3c0.7-0.9,0.7-2.1,0-2.9L412.1,351z"/>
	<path class="st7" d="M374.9,384.2c0.6,0.2,1.1,0.3,1.7,0.3h19.4H408c1.6,0,3.1-0.7,4.1-2l11.6-14.3h-29.5L374.9,384.2z"/>
	
		<linearGradient id="SVGID_00000120523539151586862820000017682202135119872693_" gradientUnits="userSpaceOnUse" x1="374.941" y1="376.3283" x2="423.7259" y2="376.3283">
		<stop  offset="0" style="stop-color:#FF9900"/>
		<stop  offset="1" style="stop-color:#FF9900;stop-opacity:0"/>
	</linearGradient>
	<path style="opacity:0.3;fill:url(#SVGID_00000120523539151586862820000017682202135119872693_);" d="M374.9,384.2
		c0.6,0.2,1.1,0.3,1.7,0.3h19.4H408c1.6,0,3.1-0.7,4.1-2l11.6-14.3h-29.5L374.9,384.2z"/>
	<path class="st9" d="M382.6,351c-1-1.2-2.5-2-4.1-2h-11.9h-11.9c-1.6,0-3.1,0.7-4.1,2L339,365.3c-0.7,0.9-0.7,2.1,0,2.9l11.6,14.3
		c1,1.2,2.5,2,4.1,2h11.9h11.9c1.6,0,3.1-0.7,4.1-2l11.6-14.3c0.7-0.9,0.7-2.1,0-2.9L382.6,351z"/>
	
		<linearGradient id="SVGID_00000124871758611342132680000017283614612870640571_" gradientUnits="userSpaceOnUse" x1="340.3643" y1="393.0274" x2="412.1941" y2="321.1977">
		<stop  offset="0" style="stop-color:#FF9900"/>
		<stop  offset="1" style="stop-color:#FF9900;stop-opacity:0"/>
	</linearGradient>
	<path style="opacity:0.25;fill:url(#SVGID_00000124871758611342132680000017283614612870640571_);" d="M382.6,351
		c-1-1.2-2.5-2-4.1-2h-11.9h-11.9c-1.6,0-3.1,0.7-4.1,2L339,365.3c-0.7,0.9-0.7,2.1,0,2.9l11.6,14.3c1,1.2,2.5,2,4.1,2h11.9h11.9
		c1.6,0,3.1-0.7,4.1-2l11.6-14.3c0.7-0.9,0.7-2.1,0-2.9L382.6,351z"/>
	<path class="st22" d="M423.7,365.3L412.1,351c-1-1.2-2.5-2-4.1-2h-11.9h-17.6h-1.8h-10h-11.9c-1.6,0-3.1,0.7-4.1,2L339,365.3
		c-0.7,0.9-0.7,2.1,0,2.9l0.1,0.1c-0.2-0.7,0-1.5,0.4-2L351,352c1-1.2,2.5-2,4.1-2h11.7h9.9h1.8h17.4h11.7c1.6,0,3.1,0.7,4.1,2
		l11.5,14.3c0.5,0.6,0.6,1.4,0.4,2l0.1-0.1C424.4,367.4,424.4,366.1,423.7,365.3z"/>
	<path class="st9" d="M299.6,384.8l-4.1,1.2c-1.6,0.4-2.7,1.9-2.7,3.6l0,0c0,2.9,0.5,5.8,1.6,8.5l0,0c1.1,2.9,3.7,5,6.7,5.7l2.5,0.5
		c6.9,1.4,13.9,1.4,20.8,0l2.5-0.5c3.1-0.6,5.6-2.7,6.7-5.7l0,0c1.1-2.7,1.6-5.6,1.6-8.5l0,0c0-1.7-1.1-3.1-2.7-3.6l-4.1-1.2
		C318.9,382.2,309,382.2,299.6,384.8z"/>
	
		<linearGradient id="SVGID_00000075147250069170343540000012834863318627321732_" gradientUnits="userSpaceOnUse" x1="302.3011" y1="404.3951" x2="336.3898" y2="370.3065">
		<stop  offset="0" style="stop-color:#FF9900"/>
		<stop  offset="1" style="stop-color:#FF9900;stop-opacity:0"/>
	</linearGradient>
	<path style="opacity:0.25;fill:url(#SVGID_00000075147250069170343540000012834863318627321732_);" d="M299.6,384.8l-4.1,1.2
		c-1.6,0.4-2.7,1.9-2.7,3.6l0,0c0,2.9,0.5,5.8,1.6,8.5l0,0c1.1,2.9,3.7,5,6.7,5.7l2.5,0.5c6.9,1.4,13.9,1.4,20.8,0l2.5-0.5
		c3.1-0.6,5.6-2.7,6.7-5.7l0,0c1.1-2.7,1.6-5.6,1.6-8.5l0,0c0-1.7-1.1-3.1-2.7-3.6l-4.1-1.2C318.9,382.2,309,382.2,299.6,384.8z"/>
	<g>
		<path class="st7" d="M472.1,476.2c-11.4,0-20.6,9.2-20.6,20.6s9.2,20.6,20.6,20.6h23.6v-41.2H472.1z"/>
		<g>
			<defs>
				<path id="SVGID_00000178925825138946351920000013598667786773043133_" d="M472.1,476.2c-11.4,0-20.6,9.2-20.6,20.6
					s9.2,20.6,20.6,20.6h23.6v-41.2H472.1z"/>
			</defs>
			<clipPath id="SVGID_00000105394738075192220130000013133131564232799147_">
				<use xlink:href="#SVGID_00000178925825138946351920000013598667786773043133_"  style="overflow:visible;"/>
			</clipPath>
			<g style="clip-path:url(#SVGID_00000105394738075192220130000013133131564232799147_);">
				<rect x="449.9" y="482.5" class="st73" width="45.9" height="3.2"/>
				<rect x="449.9" y="488.8" class="st73" width="45.9" height="3.2"/>
				<rect x="449.9" y="476.2" class="st73" width="45.9" height="3.2"/>
				<rect x="449.9" y="495.2" class="st73" width="45.9" height="3.2"/>
				<rect x="449.9" y="501.5" class="st73" width="45.9" height="3.2"/>
				<rect x="449.9" y="507.8" class="st73" width="45.9" height="3.2"/>
				<rect x="449.9" y="514.2" class="st73" width="45.9" height="3.2"/>
			</g>
		</g>
		
			<linearGradient id="SVGID_00000086658249965217541740000003768353570144252814_" gradientUnits="userSpaceOnUse" x1="473.6161" y1="517.3491" x2="473.6161" y2="476.1778">
			<stop  offset="0" style="stop-color:#FF9900"/>
			<stop  offset="0.5054" style="stop-color:#FF9900;stop-opacity:0.2"/>
			<stop  offset="1" style="stop-color:#FF9900;stop-opacity:0.5108"/>
		</linearGradient>
		<path style="opacity:0.3;fill:url(#SVGID_00000086658249965217541740000003768353570144252814_);" d="M472.1,476.2
			c-11.4,0-20.6,9.2-20.6,20.6s9.2,20.6,20.6,20.6h23.6v-41.2H472.1z"/>
		<circle class="st9" cx="495.7" cy="496.8" r="20.6"/>
		<circle class="st7" cx="495.7" cy="496.8" r="12"/>
		<circle class="st1" cx="495.7" cy="496.8" r="9.8"/>
		<path class="st0" d="M485.9,496.8c0,3.1,1.4,5.8,3.6,7.6c2.2-1.8,3.6-4.5,3.6-7.6c0-3.1-1.4-5.8-3.6-7.6
			C487.3,490.9,485.9,493.7,485.9,496.8z"/>
		
			<linearGradient id="SVGID_00000116935081661458490940000008125863864625307326_" gradientUnits="userSpaceOnUse" x1="477.3504" y1="515.1221" x2="532.4916" y2="459.9809">
			<stop  offset="0" style="stop-color:#FF9900"/>
			<stop  offset="1" style="stop-color:#FF9900;stop-opacity:0"/>
		</linearGradient>
		
			<circle style="opacity:0.3;fill:url(#SVGID_00000116935081661458490940000008125863864625307326_);" cx="495.7" cy="496.8" r="20.6"/>
	</g>
	<g>
		<path class="st7" d="M412.3,476.2c-11.4,0-20.6,9.2-20.6,20.6s9.2,20.6,20.6,20.6h23.6v-41.2H412.3z"/>
		<g>
			<defs>
				<path id="SVGID_00000069394506273874924630000017597329951540181133_" d="M412.3,476.2c-11.4,0-20.6,9.2-20.6,20.6
					s9.2,20.6,20.6,20.6h23.6v-41.2H412.3z"/>
			</defs>
			<clipPath id="SVGID_00000039849247906323184070000005199728192552470419_">
				<use xlink:href="#SVGID_00000069394506273874924630000017597329951540181133_"  style="overflow:visible;"/>
			</clipPath>
			<g style="clip-path:url(#SVGID_00000039849247906323184070000005199728192552470419_);">
				<rect x="390" y="482.5" class="st73" width="45.9" height="3.2"/>
				<rect x="390" y="488.8" class="st73" width="45.9" height="3.2"/>
				<rect x="390" y="476.2" class="st73" width="45.9" height="3.2"/>
				<rect x="390" y="495.2" class="st73" width="45.9" height="3.2"/>
				<rect x="390" y="501.5" class="st73" width="45.9" height="3.2"/>
				<rect x="390" y="507.8" class="st73" width="45.9" height="3.2"/>
				<rect x="390" y="514.2" class="st73" width="45.9" height="3.2"/>
			</g>
		</g>
		
			<linearGradient id="SVGID_00000067933024675036975760000009203540411014053007_" gradientUnits="userSpaceOnUse" x1="413.79" y1="517.3491" x2="413.79" y2="476.1778">
			<stop  offset="0" style="stop-color:#FF9900"/>
			<stop  offset="0.5054" style="stop-color:#FF9900;stop-opacity:0.2"/>
			<stop  offset="1" style="stop-color:#FF9900;stop-opacity:0.5108"/>
		</linearGradient>
		<path style="opacity:0.3;fill:url(#SVGID_00000067933024675036975760000009203540411014053007_);" d="M412.3,476.2
			c-11.4,0-20.6,9.2-20.6,20.6s9.2,20.6,20.6,20.6h23.6v-41.2H412.3z"/>
		<circle class="st9" cx="435.9" cy="496.8" r="20.6"/>
		<circle class="st7" cx="435.9" cy="496.8" r="12"/>
		<circle class="st1" cx="435.9" cy="496.8" r="9.8"/>
		<path class="st0" d="M426.1,496.8c0,3.1,1.4,5.8,3.6,7.6c2.2-1.8,3.6-4.5,3.6-7.6c0-3.1-1.4-5.8-3.6-7.6
			C427.5,490.9,426.1,493.7,426.1,496.8z"/>
		
			<linearGradient id="SVGID_00000075164631156912237460000001405250618962739102_" gradientUnits="userSpaceOnUse" x1="417.0341" y1="515.6122" x2="474.3337" y2="458.3126">
			<stop  offset="0" style="stop-color:#FF9900"/>
			<stop  offset="1" style="stop-color:#FF9900;stop-opacity:0"/>
		</linearGradient>
		
			<circle style="opacity:0.3;fill:url(#SVGID_00000075164631156912237460000001405250618962739102_);" cx="435.9" cy="496.8" r="20.6"/>
	</g>
	<g>
		<path class="st7" d="M352.8,476.2c-11.4,0-20.6,9.2-20.6,20.6s9.2,20.6,20.6,20.6h23.6v-41.2H352.8z"/>
		<g>
			<defs>
				<path id="SVGID_00000073701396448795197150000013575987996455348415_" d="M352.8,476.2c-11.4,0-20.6,9.2-20.6,20.6
					s9.2,20.6,20.6,20.6h23.6v-41.2H352.8z"/>
			</defs>
			<clipPath id="SVGID_00000172424198448743553230000007208186741521110407_">
				<use xlink:href="#SVGID_00000073701396448795197150000013575987996455348415_"  style="overflow:visible;"/>
			</clipPath>
			<g style="clip-path:url(#SVGID_00000172424198448743553230000007208186741521110407_);">
				<rect x="330.5" y="482.5" class="st73" width="45.9" height="3.2"/>
				<rect x="330.5" y="488.8" class="st73" width="45.9" height="3.2"/>
				<rect x="330.5" y="476.2" class="st73" width="45.9" height="3.2"/>
				<rect x="330.5" y="495.2" class="st73" width="45.9" height="3.2"/>
				<rect x="330.5" y="501.5" class="st73" width="45.9" height="3.2"/>
				<rect x="330.5" y="507.8" class="st73" width="45.9" height="3.2"/>
				<rect x="330.5" y="514.2" class="st73" width="45.9" height="3.2"/>
			</g>
		</g>
		
			<linearGradient id="SVGID_00000031887982015520749780000016238960468706179996_" gradientUnits="userSpaceOnUse" x1="354.2871" y1="517.3491" x2="354.2871" y2="476.1778">
			<stop  offset="0" style="stop-color:#FF9900"/>
			<stop  offset="0.5054" style="stop-color:#FF9900;stop-opacity:0.2"/>
			<stop  offset="1" style="stop-color:#FF9900;stop-opacity:0.5108"/>
		</linearGradient>
		<path style="opacity:0.3;fill:url(#SVGID_00000031887982015520749780000016238960468706179996_);" d="M352.8,476.2
			c-11.4,0-20.6,9.2-20.6,20.6s9.2,20.6,20.6,20.6h23.6v-41.2H352.8z"/>
		<circle class="st9" cx="376.4" cy="496.8" r="20.6"/>
		<circle class="st7" cx="376.4" cy="496.8" r="12"/>
		<circle class="st1" cx="376.4" cy="496.8" r="9.8"/>
		<path class="st0" d="M366.6,496.8c0,3.1,1.4,5.8,3.6,7.6c2.2-1.8,3.6-4.5,3.6-7.6c0-3.1-1.4-5.8-3.6-7.6
			C368,490.9,366.6,493.7,366.6,496.8z"/>
		
			<linearGradient id="SVGID_00000020363375877066123140000012597552301264016809_" gradientUnits="userSpaceOnUse" x1="356.3106" y1="516.8327" x2="409.9959" y2="463.1474">
			<stop  offset="0" style="stop-color:#FF9900"/>
			<stop  offset="1" style="stop-color:#FF9900;stop-opacity:0"/>
		</linearGradient>
		
			<circle style="opacity:0.3;fill:url(#SVGID_00000020363375877066123140000012597552301264016809_);" cx="376.4" cy="496.8" r="20.6"/>
	</g>
	<g>
		<path class="st7" d="M436.2,357l-1.8,1.8c-7.6,7.6-7.6,19.9,0,27.5l0,0c7.6,7.6,19.9,7.6,27.5,0l1.8-1.8L436.2,357z"/>
		
			<linearGradient id="SVGID_00000175312879301544671040000009740765578812383633_" gradientUnits="userSpaceOnUse" x1="419.4304" y1="401.2562" x2="482.3168" y2="338.3698">
			<stop  offset="0" style="stop-color:#FF9900"/>
			<stop  offset="1" style="stop-color:#FF9900;stop-opacity:0"/>
		</linearGradient>
		<path style="opacity:0.5;fill:url(#SVGID_00000175312879301544671040000009740765578812383633_);" d="M436.2,357l-1.8,1.8
			c-7.6,7.6-7.6,19.9,0,27.5l0,0c7.6,7.6,19.9,7.6,27.5,0l1.8-1.8L436.2,357z"/>
		<path class="st25" d="M434.4,381.5L434.4,381.5c-3.2-3.2-5-7.2-5.5-11.3c-0.7,5.7,1.1,11.7,5.5,16.1l0,0c7.6,7.6,19.9,7.6,27.5,0
			l1.8-1.8l-2.4-2.4C453.6,389.1,441.8,388.9,434.4,381.5z"/>
		
			<ellipse transform="matrix(0.7071 -0.7071 0.7071 0.7071 -130.4134 426.7261)" class="st23" cx="449.9" cy="370.8" rx="10.8" ry="19.4"/>
		
			<linearGradient id="SVGID_00000117637166655744577170000018413970672934600603_" gradientUnits="userSpaceOnUse" x1="434.1642" y1="370.7867" x2="465.6356" y2="370.7867">
			<stop  offset="0" style="stop-color:#FF9900"/>
			<stop  offset="1" style="stop-color:#FF9900;stop-opacity:0"/>
		</linearGradient>
		<path style="opacity:0.5;fill:url(#SVGID_00000117637166655744577170000018413970672934600603_);" d="M463.6,384.5
			c-4.2,4.2-13.8,1.5-21.4-6.1c-7.6-7.6-10.3-17.2-6.1-21.4c4.2-4.2,13.8-1.5,21.4,6.1C465.2,370.7,467.9,380.3,463.6,384.5z"/>
		<polygon class="st7" points="456.9,365.9 455.9,364.8 454.8,363.8 440.3,372.9 444,376.7 447.7,380.4 		"/>
		
			<linearGradient id="SVGID_00000134946946652526991010000005965018162273687221_" gradientUnits="userSpaceOnUse" x1="440.2704" y1="372.1123" x2="456.8782" y2="372.1123">
			<stop  offset="0" style="stop-color:#FF9900"/>
			<stop  offset="1" style="stop-color:#FF9900;stop-opacity:0"/>
		</linearGradient>
		<polygon style="opacity:0.3;fill:url(#SVGID_00000134946946652526991010000005965018162273687221_);" points="456.9,365.9 
			455.9,364.8 454.8,363.8 440.3,372.9 444,376.7 447.7,380.4 		"/>
		<path class="st25" d="M448.1,379.8l1.7-2.6c-1.2-0.9-2.3-1.8-3.4-2.9c-1.1-1.1-2-2.2-2.9-3.3l-2.6,1.7c1,1.3,2.1,2.6,3.3,3.9
			C445.5,377.7,446.8,378.8,448.1,379.8z"/>
		<path class="st62" d="M441.6,358.2L441.6,358.2c4,0,9.4,2.8,13.7,7.2c6.6,6.6,8.7,14.4,6.1,17c-0.7,0.7-1.8,1.1-3.3,1.1
			c-4,0-9.4-2.8-13.7-7.2c-3.3-3.3-5.7-7.1-6.7-10.6c-0.8-2.9-0.6-5.2,0.6-6.4C439.1,358.5,440.2,358.2,441.6,358.2 M441.6,355.1
			c-2.2,0-4.1,0.6-5.5,2c-4.2,4.2-1.5,13.8,6.1,21.4c5.2,5.2,11.2,8.1,15.9,8.1c2.2,0,4.1-0.6,5.5-2c4.2-4.2,1.5-13.8-6.1-21.4
			C452.4,358,446.3,355.1,441.6,355.1L441.6,355.1z"/>
		
			<linearGradient id="SVGID_00000061448555311513679070000015007354462222590857_" gradientUnits="userSpaceOnUse" x1="431.2927" y1="390.28" x2="466.0392" y2="353.8788">
			<stop  offset="0" style="stop-color:#FF9900"/>
			<stop  offset="1" style="stop-color:#FF9900;stop-opacity:0"/>
		</linearGradient>
		<path style="opacity:0.3;fill:url(#SVGID_00000061448555311513679070000015007354462222590857_);" d="M441.6,358.2L441.6,358.2
			c4,0,9.4,2.8,13.7,7.2c6.6,6.6,8.7,14.4,6.1,17c-0.7,0.7-1.8,1.1-3.3,1.1c-4,0-9.4-2.8-13.7-7.2c-3.3-3.3-5.7-7.1-6.7-10.6
			c-0.8-2.9-0.6-5.2,0.6-6.4C439.1,358.5,440.2,358.2,441.6,358.2 M441.6,355.1c-2.2,0-4.1,0.6-5.5,2c-4.2,4.2-1.5,13.8,6.1,21.4
			c5.2,5.2,11.2,8.1,15.9,8.1c2.2,0,4.1-0.6,5.5-2c4.2-4.2,1.5-13.8-6.1-21.4C452.4,358,446.3,355.1,441.6,355.1L441.6,355.1z"/>
		<path class="st22" d="M437.6,359.9c-1.2,1.2-1.4,3.5-0.6,6.4c1,3.5,3.4,7.4,6.7,10.6c4.4,4.4,9.7,7.2,13.7,7.2
			c1.4,0,2.5-0.4,3.3-1.1c0.1-0.1,0.2-0.2,0.3-0.4c-0.7,0.5-1.7,0.7-2.8,0.7c-4,0-9.4-2.8-13.7-7.2c-3.3-3.3-5.7-7.1-6.7-10.6
			c-0.7-2.6-0.6-4.8,0.3-6C437.9,359.7,437.8,359.8,437.6,359.9z"/>
		<path class="st22" d="M457.6,363.1c-5.2-5.2-11.2-8.1-15.9-8.1c-2.2,0-4.1,0.6-5.5,2c-0.1,0.1-0.3,0.3-0.4,0.4
			c1.3-1.1,3.1-1.7,5.1-1.7c4.7,0,10.8,2.9,15.9,8.1c7.4,7.4,10.1,16.6,6.5,21c0.1-0.1,0.2-0.2,0.3-0.3
			C467.9,380.3,465.2,370.7,457.6,363.1z"/>
		<path class="st9" d="M461.2,368c-2.3,2.3-6.1,2.3-8.5,0c-2.3-2.3-2.3-6.1,0-8.5c2.3-2.3,6.1-2.3,8.5,0
			C463.5,361.8,463.5,365.6,461.2,368z"/>
		
			<linearGradient id="SVGID_00000049937961267069606390000005509687038997731502_" gradientUnits="userSpaceOnUse" x1="452.7058" y1="367.9808" x2="461.1881" y2="359.4985">
			<stop  offset="0" style="stop-color:#FF9900"/>
			<stop  offset="1" style="stop-color:#FF9900;stop-opacity:0"/>
		</linearGradient>
		<path style="opacity:0.3;fill:url(#SVGID_00000049937961267069606390000005509687038997731502_);" d="M461.2,368
			c-2.3,2.3-6.1,2.3-8.5,0c-2.3-2.3-2.3-6.1,0-8.5c2.3-2.3,6.1-2.3,8.5,0C463.5,361.8,463.5,365.6,461.2,368z"/>
		<path class="st22" d="M461.2,359.5c-2.3-2.3-6.1-2.3-8.5,0c-0.2,0.2-0.3,0.3-0.4,0.5c2.4-1.9,5.8-1.7,8,0.4c2.2,2.2,2.3,5.6,0.4,8
			c0.2-0.1,0.3-0.3,0.5-0.4C463.5,365.6,463.5,361.8,461.2,359.5z"/>
		<path class="st25" d="M454.9,365.8c-2-2-2.3-5-0.9-7.3c-0.4,0.3-0.9,0.6-1.2,0.9c-2.3,2.3-2.3,6.1,0,8.5c2.3,2.3,6.1,2.3,8.5,0
			c0.4-0.4,0.7-0.8,0.9-1.2C459.8,368.1,456.8,367.8,454.9,365.8z"/>
	</g>
	<g>
		<circle class="st7" cx="363" cy="366.7" r="15.8"/>
		<circle class="st87" cx="363" cy="366.7" r="15.8"/>
		<circle class="st1" cx="363" cy="366.7" r="12.4"/>
		<path class="st0" d="M353.2,366.7c0-6.4,4.9-11.7,11.1-12.3c-0.4,0-0.8-0.1-1.3-0.1c-6.8,0-12.4,5.6-12.4,12.4
			c0,6.8,5.6,12.4,12.4,12.4c0.4,0,0.9,0,1.3-0.1C358.1,378.4,353.2,373.2,353.2,366.7z"/>
		<path class="st0" d="M370.3,366.7c0,2.6-2.1,4.7-4.7,4.7s-4.7-2.1-4.7-4.7c0-2.6,2.1-4.7,4.7-4.7S370.3,364.1,370.3,366.7z"/>
		<path class="st9" d="M373.1,365.9c-1.2,1.2-3.6,0.6-5.5-1.2c-1.8-1.8-2.4-4.3-1.2-5.5c1.2-1.2,3.6-0.6,5.5,1.2
			S374.3,364.7,373.1,365.9z"/>
		<path class="st9" d="M364,371.7c-0.6,0.6-1.8,0.3-2.7-0.6c-0.9-0.9-1.2-2.1-0.6-2.7s1.8-0.3,2.7,0.6
			C364.3,369.9,364.5,371.1,364,371.7z"/>
	</g>
	<g>
		<path class="st9" d="M331.8,390.3c0,2.7-2.2,4.9-4.9,4.9c-2.7,0-4.9-2.2-4.9-4.9c0-2.7,2.2-4.9,4.9-4.9
			C329.6,385.4,331.8,387.6,331.8,390.3z"/>
		<path class="st1" d="M330.7,390.3c0,2.1-1.7,3.9-3.9,3.9s-3.9-1.7-3.9-3.9c0-2.1,1.7-3.9,3.9-3.9S330.7,388.2,330.7,390.3z"/>
		<path class="st0" d="M323.8,390.3c0-2,1.5-3.6,3.5-3.8c-0.1,0-0.3,0-0.4,0c-2.1,0-3.9,1.7-3.9,3.9c0,2.1,1.7,3.9,3.9,3.9
			c0.1,0,0.3,0,0.4,0C325.3,394,323.8,392.3,323.8,390.3z"/>
		<path class="st0" d="M329.1,390.3c0,0.8-0.7,1.5-1.5,1.5c-0.8,0-1.5-0.7-1.5-1.5c0-0.8,0.7-1.5,1.5-1.5
			C328.5,388.9,329.1,389.5,329.1,390.3z"/>
		<path class="st9" d="M330,390.1c-0.4,0.4-1.1,0.2-1.7-0.4s-0.7-1.3-0.4-1.7s1.1-0.2,1.7,0.4C330.2,389,330.4,389.7,330,390.1z"/>
		<path class="st9" d="M327.2,391.9c-0.2,0.2-0.6,0.1-0.8-0.2s-0.4-0.7-0.2-0.8c0.2-0.2,0.6-0.1,0.8,0.2
			C327.3,391.3,327.3,391.7,327.2,391.9z"/>
	</g>
	<g>
		<path class="st9" d="M324.5,449c0,2.7-2.2,4.9-4.9,4.9c-2.7,0-4.9-2.2-4.9-4.9c0-2.7,2.2-4.9,4.9-4.9
			C322.3,444.1,324.5,446.3,324.5,449z"/>
		<path class="st1" d="M323.4,449c0,2.1-1.7,3.9-3.9,3.9s-3.9-1.7-3.9-3.9c0-2.1,1.7-3.9,3.9-3.9S323.4,446.9,323.4,449z"/>
		<path class="st0" d="M316.5,449c0-2,1.5-3.6,3.5-3.8c-0.1,0-0.3,0-0.4,0c-2.1,0-3.9,1.7-3.9,3.9c0,2.1,1.7,3.9,3.9,3.9
			c0.1,0,0.3,0,0.4,0C318,452.6,316.5,451,316.5,449z"/>
		<path class="st0" d="M321.8,449c0,0.8-0.7,1.5-1.5,1.5c-0.8,0-1.5-0.7-1.5-1.5s0.7-1.5,1.5-1.5C321.2,447.5,321.8,448.2,321.8,449
			z"/>
		<path class="st9" d="M322.7,448.8c-0.4,0.4-1.1,0.2-1.7-0.4c-0.6-0.6-0.7-1.3-0.4-1.7c0.4-0.4,1.1-0.2,1.7,0.4
			C322.9,447.6,323.1,448.4,322.7,448.8z"/>
		<path class="st9" d="M319.9,450.5c-0.2,0.2-0.6,0.1-0.8-0.2c-0.3-0.3-0.4-0.7-0.2-0.8c0.2-0.2,0.6-0.1,0.8,0.2
			C319.9,450,320,450.4,319.9,450.5z"/>
	</g>
	<circle class="st88" cx="385.8" cy="365.3" r="2.4"/>
	<circle class="st15" cx="381.2" cy="357.4" r="2.4"/>
	<circle class="st15" cx="305.9" cy="386.5" r="1.8"/>
	<path class="st1" d="M303.9,404.2c5.7,1.1,11.6,1.2,17.4,0.4v-10.5c0-2-1.6-3.6-3.6-3.6h-10.1c-2,0-3.6,1.6-3.6,3.6V404.2z"/>
	<path class="st0" d="M305.3,394.1c0-2,1.6-3.6,3.6-3.6h-1.3c-2,0-3.6,1.6-3.6,3.6v10.1c0.4,0.1,0.9,0.2,1.3,0.2V394.1z"/>
	<g>
		<path class="st0" d="M311.6,404h9.7v-9.9c0-0.9-0.4-1.8-0.9-2.4h-8.7V404z"/>
		<circle class="st9" cx="311.6" cy="397.8" r="6.1"/>
		
			<linearGradient id="SVGID_00000116229247312787362800000012034046879875767972_" gradientUnits="userSpaceOnUse" x1="308.0821" y1="401.3862" x2="322.3234" y2="387.145">
			<stop  offset="0" style="stop-color:#FF9900"/>
			<stop  offset="1" style="stop-color:#FF9900;stop-opacity:0"/>
		</linearGradient>
		
			<circle style="opacity:0.25;fill:url(#SVGID_00000116229247312787362800000012034046879875767972_);" cx="311.6" cy="397.8" r="6.1"/>
		<path class="st1" d="M316.4,397.8c0,2.7-2.2,4.8-4.8,4.8c-2.7,0-4.8-2.2-4.8-4.8s2.2-4.8,4.8-4.8
			C314.3,393,316.4,395.2,316.4,397.8z"/>
		<path class="st0" d="M307.8,397.8c0-2.5,1.9-4.5,4.3-4.8c-0.2,0-0.3,0-0.5,0c-2.7,0-4.8,2.2-4.8,4.8s2.2,4.8,4.8,4.8
			c0.2,0,0.3,0,0.5,0C309.7,402.4,307.8,400.3,307.8,397.8z"/>
		<path class="st0" d="M314.5,397.8c0,1-0.8,1.8-1.8,1.8c-1,0-1.8-0.8-1.8-1.8s0.8-1.8,1.8-1.8C313.6,396,314.5,396.8,314.5,397.8z"
			/>
		<path class="st9" d="M315.5,397.5c-0.5,0.5-1.4,0.2-2.1-0.5c-0.7-0.7-0.9-1.7-0.5-2.1s1.4-0.2,2.1,0.5
			C315.8,396.1,316,397.1,315.5,397.5z"/>
		<path class="st9" d="M312,399.8c-0.2,0.2-0.7,0.1-1-0.2s-0.5-0.8-0.2-1c0.2-0.2,0.7-0.1,1,0.2C312.1,399.1,312.2,399.5,312,399.8z
			"/>
	</g>
	<path class="st0" d="M297.7,398.7L297.7,398.7c-0.5,0-0.9-0.4-0.9-0.9v-9.7c0-0.5,0.4-0.9,0.9-0.9l0,0c0.5,0,0.9,0.4,0.9,0.9v9.7
		C298.6,398.3,298.2,398.7,297.7,398.7z"/>
	<path class="st0" d="M300.4,398.7L300.4,398.7c-0.5,0-0.9-0.4-0.9-0.9v-9.7c0-0.5,0.4-0.9,0.9-0.9l0,0c0.5,0,0.9,0.4,0.9,0.9v9.7
		C301.3,398.3,300.9,398.7,300.4,398.7z"/>
	<path class="st90" d="M342.2,458.2h5.6c1.1,0,2.1-0.9,2.1-2.1v-5.1c0-1.1-0.9-2.1-2.1-2.1h-5.6c-1.1,0-2.1,0.9-2.1,2.1v5.1
		C340.1,457.3,341.1,458.2,342.2,458.2z"/>
	<path class="st0" d="M310.2,380.8h3.6c0.7,0,1.3-0.6,1.3-1.3v-3.3c0-0.7-0.6-1.3-1.3-1.3h-3.6c-0.7,0-1.3,0.6-1.3,1.3v3.3
		C308.8,380.2,309.4,380.8,310.2,380.8z"/>
	<path class="st91" d="M315.1,379.5v-3.3c0-0.7-0.6-1.3-1.3-1.3h-2.1c-0.7,0-1.3,0.6-1.3,1.3v3.3c0,0.7,0.6,1.3,1.3,1.3h2.1
		C314.5,380.8,315.1,380.2,315.1,379.5z"/>
	<path class="st38" d="M433.3,437.3h-31.6c-0.9,0-1.6-0.7-1.6-1.6l0,0c0-0.9,0.7-1.6,1.6-1.6h31.6c0.9,0,1.6,0.7,1.6,1.6l0,0
		C434.9,436.7,434.2,437.3,433.3,437.3z"/>
	<path class="st38" d="M433.3,443.2h-31.6c-0.9,0-1.6-0.7-1.6-1.6l0,0c0-0.9,0.7-1.6,1.6-1.6h31.6c0.9,0,1.6,0.7,1.6,1.6l0,0
		C434.9,442.5,434.2,443.2,433.3,443.2z"/>
	<g>
		<path class="st0" d="M472.9,440h-14.4c-1.1,0-2.1-0.9-2.1-2.1l0,0c0-1.1,0.9-2.1,2.1-2.1h14.4c1.1,0,2.1,0.9,2.1,2.1l0,0
			C474.9,439.1,474,440,472.9,440z"/>
		<path class="st0" d="M472.9,445.9h-14.4c-1.1,0-2.1-0.9-2.1-2.1l0,0c0-1.1,0.9-2.1,2.1-2.1h14.4c1.1,0,2.1,0.9,2.1,2.1l0,0
			C474.9,444.9,474,445.9,472.9,445.9z"/>
		<path class="st0" d="M472.9,451.7h-14.4c-1.1,0-2.1-0.9-2.1-2.1l0,0c0-1.1,0.9-2.1,2.1-2.1h14.4c1.1,0,2.1,0.9,2.1,2.1l0,0
			C474.9,450.8,474,451.7,472.9,451.7z"/>
	</g>
	<path class="st0" d="M433.3,437.3h-31.6c-0.9,0-1.6-0.7-1.6-1.6l0,0c0-0.9,0.7-1.6,1.6-1.6h31.6c0.9,0,1.6,0.7,1.6,1.6l0,0
		C434.9,436.7,434.2,437.3,433.3,437.3z"/>
	<path class="st0" d="M433.3,443.2h-31.6c-0.9,0-1.6-0.7-1.6-1.6l0,0c0-0.9,0.7-1.6,1.6-1.6h31.6c0.9,0,1.6,0.7,1.6,1.6l0,0
		C434.9,442.5,434.2,443.2,433.3,443.2z"/>
	<path class="st7" d="M441.2,415.3h-9.4c-1.6,0-2.9,1.3-2.9,2.9v6.1h15.3v-6.1C444.1,416.6,442.8,415.3,441.2,415.3z"/>
	
		<linearGradient id="SVGID_00000141455557110167133780000006473015220266989719_" gradientUnits="userSpaceOnUse" x1="428.875" y1="419.82" x2="444.1283" y2="419.82">
		<stop  offset="0" style="stop-color:#FF9900"/>
		<stop  offset="1" style="stop-color:#FF9900;stop-opacity:0"/>
	</linearGradient>
	<path style="opacity:0.3;fill:url(#SVGID_00000141455557110167133780000006473015220266989719_);" d="M441.2,415.3h-9.4
		c-1.6,0-2.9,1.3-2.9,2.9v6.1h15.3v-6.1C444.1,416.6,442.8,415.3,441.2,415.3z"/>
	<path class="st9" d="M449.7,415.3h-9.4c-1.6,0-2.9,1.3-2.9,2.9v6.1h15.3v-6.1C452.6,416.6,451.3,415.3,449.7,415.3z"/>
	
		<linearGradient id="SVGID_00000166643301739888975050000000964356377490167696_" gradientUnits="userSpaceOnUse" x1="437.3479" y1="419.82" x2="452.6012" y2="419.82">
		<stop  offset="0" style="stop-color:#FF9900"/>
		<stop  offset="1" style="stop-color:#FF9900;stop-opacity:0"/>
	</linearGradient>
	<path style="opacity:0.3;fill:url(#SVGID_00000166643301739888975050000000964356377490167696_);" d="M449.7,415.3h-9.4
		c-1.6,0-2.9,1.3-2.9,2.9v6.1h15.3v-6.1C452.6,416.6,451.3,415.3,449.7,415.3z"/>
	<path class="st7" d="M407.5,352.5H395c-0.8,0-1.3,1-0.7,1.6l4.9,5.9c0.8,1,2,1.6,3.3,1.6h13.2L407.5,352.5z"/>
	
		<linearGradient id="SVGID_00000005952504913264910390000003185106586579253647_" gradientUnits="userSpaceOnUse" x1="405.9862" y1="357.0403" x2="381.6914" y2="357.3634">
		<stop  offset="0" style="stop-color:#FF9900"/>
		<stop  offset="1" style="stop-color:#FF9900;stop-opacity:0"/>
	</linearGradient>
	<path style="opacity:0.5;fill:url(#SVGID_00000005952504913264910390000003185106586579253647_);" d="M407.5,352.5H395
		c-0.8,0-1.3,1-0.7,1.6l4.9,5.9c0.8,1,2,1.6,3.3,1.6h13.2L407.5,352.5z"/>
	<path class="st7" d="M465.7,415.3h-6.4c-1.4,0-2.5,1.1-2.5,2.5v6.5h11.5v-6.5C468.2,416.5,467.1,415.3,465.7,415.3z"/>
	
		<linearGradient id="SVGID_00000080173694696044084830000015596708332648985776_" gradientUnits="userSpaceOnUse" x1="456.7541" y1="419.82" x2="468.2339" y2="419.82">
		<stop  offset="0" style="stop-color:#FF9900"/>
		<stop  offset="1" style="stop-color:#FF9900;stop-opacity:0"/>
	</linearGradient>
	<path style="opacity:0.3;fill:url(#SVGID_00000080173694696044084830000015596708332648985776_);" d="M465.7,415.3h-6.4
		c-1.4,0-2.5,1.1-2.5,2.5v6.5h11.5v-6.5C468.2,416.5,467.1,415.3,465.7,415.3z"/>
	<path class="st9" d="M472.1,415.3h-6.4c-1.4,0-2.5,1.1-2.5,2.5v6.5h11.5v-6.5C474.6,416.5,473.5,415.3,472.1,415.3z"/>
	
		<linearGradient id="SVGID_00000111906860055974433050000014169045964396151955_" gradientUnits="userSpaceOnUse" x1="463.1309" y1="419.82" x2="474.6107" y2="419.82">
		<stop  offset="0" style="stop-color:#FF9900"/>
		<stop  offset="1" style="stop-color:#FF9900;stop-opacity:0"/>
	</linearGradient>
	<path style="opacity:0.3;fill:url(#SVGID_00000111906860055974433050000014169045964396151955_);" d="M472.1,415.3h-6.4
		c-1.4,0-2.5,1.1-2.5,2.5v6.5h11.5v-6.5C474.6,416.5,473.5,415.3,472.1,415.3z"/>
	<g>
		<path class="st9" d="M348.4,393c1.8,0,3.2,1.4,3.2,3.2c0,1.8-1.4,3.2-3.2,3.2h-6.5V393H348.4z"/>
		
			<linearGradient id="SVGID_00000066517314487507871040000000626218412432523656_" gradientUnits="userSpaceOnUse" x1="335.0066" y1="396.1975" x2="369.8973" y2="396.1975">
			<stop  offset="0" style="stop-color:#FF9900"/>
			<stop  offset="1" style="stop-color:#FF9900;stop-opacity:0"/>
		</linearGradient>
		<path style="opacity:0.5;fill:url(#SVGID_00000066517314487507871040000000626218412432523656_);" d="M348.4,393
			c1.8,0,3.2,1.4,3.2,3.2c0,1.8-1.4,3.2-3.2,3.2h-6.5V393H348.4z"/>
		<path class="st9" d="M338.7,396.2c0,1.8,1.4,3.2,3.2,3.2c1.8,0,3.2-1.4,3.2-3.2c0-1.8-1.4-3.2-3.2-3.2
			C340.1,393,338.7,394.4,338.7,396.2z"/>
		
			<linearGradient id="SVGID_00000177449883868279846790000002183679318570345378_" gradientUnits="userSpaceOnUse" x1="334.3584" y1="403.6708" x2="349.3015" y2="388.7277">
			<stop  offset="0" style="stop-color:#FF9900"/>
			<stop  offset="1" style="stop-color:#FF9900;stop-opacity:0"/>
		</linearGradient>
		<path style="opacity:0.5;fill:url(#SVGID_00000177449883868279846790000002183679318570345378_);" d="M338.7,396.2
			c0,1.8,1.4,3.2,3.2,3.2c1.8,0,3.2-1.4,3.2-3.2c0-1.8-1.4-3.2-3.2-3.2C340.1,393,338.7,394.4,338.7,396.2z"/>
		<path class="st0" d="M340.3,396.2c0,0.8,0.7,1.5,1.5,1.5c0.8,0,1.5-0.7,1.5-1.5c0-0.8-0.7-1.5-1.5-1.5
			C341,394.7,340.3,395.4,340.3,396.2z"/>
	</g>
	<g>
		<path class="st9" d="M330.5,376.9c1.8,0,3.2,1.4,3.2,3.2c0,1.8-1.4,3.2-3.2,3.2H324v-6.3H330.5z"/>
		
			<linearGradient id="SVGID_00000111897870575972511130000002431788068205779336_" gradientUnits="userSpaceOnUse" x1="310.3423" y1="380.114" x2="359.5287" y2="380.114">
			<stop  offset="0" style="stop-color:#FF9900"/>
			<stop  offset="1" style="stop-color:#FF9900;stop-opacity:0"/>
		</linearGradient>
		<path style="opacity:0.5;fill:url(#SVGID_00000111897870575972511130000002431788068205779336_);" d="M330.5,376.9
			c1.8,0,3.2,1.4,3.2,3.2c0,1.8-1.4,3.2-3.2,3.2H324v-6.3H330.5z"/>
		<path class="st9" d="M320.8,380.1c0,1.8,1.4,3.2,3.2,3.2c1.8,0,3.2-1.4,3.2-3.2c0-1.8-1.4-3.2-3.2-3.2
			C322.2,376.9,320.8,378.4,320.8,380.1z"/>
		
			<linearGradient id="SVGID_00000007429906947388660660000015577197627628453028_" gradientUnits="userSpaceOnUse" x1="316.6733" y1="387.4335" x2="332.0081" y2="372.0988">
			<stop  offset="0" style="stop-color:#FF9900"/>
			<stop  offset="1" style="stop-color:#FF9900;stop-opacity:0"/>
		</linearGradient>
		<path style="opacity:0.5;fill:url(#SVGID_00000007429906947388660660000015577197627628453028_);" d="M320.8,380.1
			c0,1.8,1.4,3.2,3.2,3.2c1.8,0,3.2-1.4,3.2-3.2c0-1.8-1.4-3.2-3.2-3.2C322.2,376.9,320.8,378.4,320.8,380.1z"/>
		<path class="st0" d="M322.5,380.1c0,0.8,0.7,1.5,1.5,1.5c0.8,0,1.5-0.7,1.5-1.5c0-0.8-0.7-1.5-1.5-1.5
			C323.1,378.6,322.5,379.3,322.5,380.1z"/>
	</g>
	<path class="st62" d="M420.3,361.5h-14.4c-1.3,0-2.4-1.1-2.4-2.4V355c0-1.3,1.1-2.4,2.4-2.4h14.4c1.3,0,2.4,1.1,2.4,2.4v4.2
		C422.7,360.5,421.6,361.5,420.3,361.5z"/>
	
		<linearGradient id="SVGID_00000013171904708148772790000007032163764213597824_" gradientUnits="userSpaceOnUse" x1="403.5246" y1="357.0477" x2="422.6984" y2="357.0477">
		<stop  offset="0" style="stop-color:#FF9900"/>
		<stop  offset="1" style="stop-color:#FF9900;stop-opacity:0"/>
	</linearGradient>
	<path style="opacity:0.3;fill:url(#SVGID_00000013171904708148772790000007032163764213597824_);" d="M420.3,361.5h-14.4
		c-1.3,0-2.4-1.1-2.4-2.4V355c0-1.3,1.1-2.4,2.4-2.4h14.4c1.3,0,2.4,1.1,2.4,2.4v4.2C422.7,360.5,421.6,361.5,420.3,361.5z"/>
	<path class="st22" d="M420.3,352.5h-12.8h-1.6H395c-0.7,0-1.1,0.7-0.9,1.2c0.1-0.4,0.5-0.7,0.9-0.7h10.9h1.6h12.8
		c1.3,0,2.4,1.1,2.4,2.4V355C422.7,353.6,421.6,352.5,420.3,352.5z"/>
	<g>
		<circle class="st9" cx="400.4" cy="356.4" r="2.3"/>
		<path class="st23" d="M402.2,356.4c0,1-0.8,1.8-1.8,1.8c-1,0-1.8-0.8-1.8-1.8c0-1,0.8-1.8,1.8-1.8
			C401.4,354.6,402.2,355.4,402.2,356.4z"/>
		<path class="st0" d="M399,356.4c0-0.9,0.7-1.7,1.6-1.8c-0.1,0-0.1,0-0.2,0c-1,0-1.8,0.8-1.8,1.8c0,1,0.8,1.8,1.8,1.8
			c0.1,0,0.1,0,0.2,0C399.7,358.1,399,357.3,399,356.4z"/>
		<path class="st0" d="M401.4,356.4c0,0.4-0.3,0.7-0.7,0.7c-0.4,0-0.7-0.3-0.7-0.7c0-0.4,0.3-0.7,0.7-0.7
			C401.1,355.7,401.4,356,401.4,356.4z"/>
		<path class="st9" d="M401.8,356.3c-0.2,0.2-0.5,0.1-0.8-0.2c-0.3-0.3-0.3-0.6-0.2-0.8c0.2-0.2,0.5-0.1,0.8,0.2
			C401.9,355.8,402,356.1,401.8,356.3z"/>
		<path class="st9" d="M400.5,357.1c-0.1,0.1-0.3,0-0.4-0.1c-0.1-0.1-0.2-0.3-0.1-0.4s0.3,0,0.4,0.1
			C400.6,356.8,400.6,357,400.5,357.1z"/>
	</g>
	<path class="st90" d="M406.4,357.9h7.8c0.5,0,1-0.4,1-1v-0.2c0-0.5-0.4-1-1-1h-7.8c-0.5,0-1,0.4-1,1v0.2
		C405.4,357.5,405.9,357.9,406.4,357.9z"/>
	<path class="st90" d="M417.6,357.9h2.4c0.6,0,1.1-0.5,1.1-1.1l0,0c0-0.6-0.5-1.1-1.1-1.1h-2.4c-0.6,0-1.1,0.5-1.1,1.1l0,0
		C416.5,357.5,417,357.9,417.6,357.9z"/>
	<path class="st9" d="M369,474h-21.2c-1.4,0-2.5-1.1-2.5-2.5v-5.6h26.2v5.6C371.5,472.9,370.4,474,369,474z"/>
	
		<linearGradient id="SVGID_00000116934349475093584830000008627379993975611555_" gradientUnits="userSpaceOnUse" x1="345.2697" y1="469.9491" x2="371.4952" y2="469.9491">
		<stop  offset="0" style="stop-color:#FF9900"/>
		<stop  offset="1" style="stop-color:#FF9900;stop-opacity:0"/>
	</linearGradient>
	<path style="opacity:0.3;fill:url(#SVGID_00000116934349475093584830000008627379993975611555_);" d="M369,474h-21.2
		c-1.4,0-2.5-1.1-2.5-2.5v-5.6h26.2v5.6C371.5,472.9,370.4,474,369,474z"/>
	<path class="st7" d="M348.3,474H346c-1.4,0-2.5-1.1-2.5-2.5v-5.6h7.3v5.6C350.8,472.9,349.7,474,348.3,474z"/>
	
		<linearGradient id="SVGID_00000131328785210395868760000004406006829302816914_" gradientUnits="userSpaceOnUse" x1="343.5116" y1="469.9491" x2="350.8169" y2="469.9491">
		<stop  offset="0" style="stop-color:#FF9900"/>
		<stop  offset="1" style="stop-color:#FF9900;stop-opacity:0"/>
	</linearGradient>
	<path style="opacity:0.3;fill:url(#SVGID_00000131328785210395868760000004406006829302816914_);" d="M348.3,474H346
		c-1.4,0-2.5-1.1-2.5-2.5v-5.6h7.3v5.6C350.8,472.9,349.7,474,348.3,474z"/>
	<rect x="376.7" y="389.7" class="st25" width="21" height="2.3"/>
	<rect x="370.2" y="384.5" class="st25" width="34" height="2.5"/>
	<rect x="356.9" y="384.5" class="st25" width="12.7" height="2.5"/>
	<rect x="362.3" y="409.1" class="st25" width="49.7" height="2.2"/>
	<rect x="353.5" y="421.6" class="st25" width="67.4" height="2.7"/>
	<rect x="428.9" y="421.6" class="st25" width="23.7" height="2.7"/>
	<rect x="456.8" y="421.6" class="st25" width="17.8" height="2.7"/>
	<rect x="376.7" y="399.9" class="st25" width="21" height="2.3"/>
	<rect x="343.5" y="465.9" class="st25" width="28" height="2.5"/>
	<g>
		<path class="st0" d="M392.8,382.9L392.8,382.9c-0.5,0-0.6-0.4-0.2-0.9l9.3-11.4c0.4-0.5,1.1-0.9,1.6-0.9l0,0
			c0.5,0,0.6,0.4,0.2,0.9l-9.3,11.4C394,382.5,393.3,382.9,392.8,382.9z"/>
		<path class="st0" d="M396.4,382.9L396.4,382.9c-0.5,0-0.6-0.4-0.2-0.9l9.3-11.4c0.4-0.5,1.1-0.9,1.6-0.9l0,0
			c0.5,0,0.6,0.4,0.2,0.9L398,382C397.6,382.5,396.9,382.9,396.4,382.9z"/>
		<path class="st0" d="M400,382.9L400,382.9c-0.5,0-0.6-0.4-0.2-0.9l9.3-11.4c0.4-0.5,1.1-0.9,1.6-0.9l0,0c0.5,0,0.6,0.4,0.2,0.9
			l-9.3,11.4C401.2,382.5,400.5,382.9,400,382.9z"/>
		<path class="st0" d="M403.6,382.9L403.6,382.9c-0.5,0-0.6-0.4-0.2-0.9l9.3-11.4c0.4-0.5,1.1-0.9,1.6-0.9l0,0
			c0.5,0,0.6,0.4,0.2,0.9l-9.3,11.4C404.8,382.5,404.1,382.9,403.6,382.9z"/>
	</g>
	<path class="st22" d="M397.4,413.8L397.4,413.8c0-0.7,0.6-1.3,1.3-1.3h19.2c0.7,0,1.3,0.6,1.3,1.3l0,0c0,0.7-0.6,1.3-1.3,1.3h-19.2
		C398,415,397.4,414.5,397.4,413.8z"/>
	<path class="st22" d="M405.5,382.3L405.5,382.3c-0.1-0.1-0.1-0.2,0-0.3l8.7-10.6c0.1-0.1,0.2-0.1,0.3,0l0,0c0.1,0.1,0.1,0.2,0,0.3
		l-8.7,10.6C405.7,382.3,405.6,382.3,405.5,382.3z"/>
	<path class="st22" d="M401.8,382.3L401.8,382.3c-0.1-0.1-0.1-0.2,0-0.3l8.7-10.6c0.1-0.1,0.2-0.1,0.3,0l0,0c0.1,0.1,0.1,0.2,0,0.3
		l-8.7,10.6C402.1,382.3,401.9,382.3,401.8,382.3z"/>
	<path class="st22" d="M398.2,382.3L398.2,382.3c-0.1-0.1-0.1-0.2,0-0.3l8.7-10.6c0.1-0.1,0.2-0.1,0.3,0l0,0c0.1,0.1,0.1,0.2,0,0.3
		l-8.7,10.6C398.4,382.3,398.3,382.3,398.2,382.3z"/>
	<path class="st22" d="M394.5,382.3L394.5,382.3c-0.1-0.1-0.1-0.2,0-0.3l8.7-10.6c0.1-0.1,0.2-0.1,0.3,0l0,0c0.1,0.1,0.1,0.2,0,0.3
		l-8.7,10.6C394.8,382.3,394.6,382.3,394.5,382.3z"/>
	<path class="st22" d="M355.2,413.8L355.2,413.8c0-0.7,0.6-1.3,1.3-1.3h36.3c0.7,0,1.3,0.6,1.3,1.3l0,0c0,0.7-0.6,1.3-1.3,1.3h-36.3
		C355.7,415,355.2,414.5,355.2,413.8z"/>
	<path class="st22" d="M344.6,436.7L344.6,436.7c0.1-0.7,0.8-1.1,1.5-1l35.8,6.2c0.7,0.1,1.1,0.8,1,1.5l0,0c-0.1,0.7-0.8,1.1-1.5,1
		l-35.8-6.2C344.9,438.1,344.5,437.4,344.6,436.7z"/>
	<path class="st22" d="M424.6,452L424.6,452c0.2-0.7,0.9-1,1.6-0.8l17.4,5.8c0.7,0.2,1,0.9,0.8,1.6l0,0c-0.2,0.7-0.9,1-1.6,0.8
		l-17.4-5.8C424.7,453.4,424.4,452.6,424.6,452z"/>
	<path class="st22" d="M384.8,476.2L384.8,476.2c-0.5-0.5-0.6-1.3-0.1-1.8l15.4-17.4c0.5-0.5,1.3-0.6,1.8-0.1l0,0
		c0.5,0.5,0.6,1.3,0.1,1.8l-15.4,17.4C386.1,476.6,385.3,476.7,384.8,476.2z"/>
	<path class="st22" d="M335.7,391.1L335.7,391.1c0-0.5,0.4-1,1-1h16.8c0.5,0,1,0.4,1,1l0,0c0,0.5-0.4,1-1,1h-16.8
		C336.2,392.1,335.7,391.7,335.7,391.1z"/>
	<path class="st22" d="M319.1,373.9L319.1,373.9c0-0.5,0.4-1,1-1h9.5c0.5,0,1,0.4,1,1l0,0c0,0.5-0.4,1-1,1h-9.5
		C319.5,374.9,319.1,374.4,319.1,373.9z"/>
	<path class="st22" d="M490.7,439.6L490.7,439.6c-1,0-1.8-0.8-1.8-1.8v-6.9c0-1,0.8-1.8,1.8-1.8l0,0c1,0,1.8,0.8,1.8,1.8v6.9
		C492.5,438.8,491.7,439.6,490.7,439.6z"/>
	<path class="st22" d="M493.2,453.4L493.2,453.4c-0.7,0-1.3-0.6-1.3-1.3v-7.9c0-0.7,0.6-1.3,1.3-1.3h0c0.7,0,1.3,0.6,1.3,1.3v7.9
		C494.5,452.8,493.9,453.4,493.2,453.4z"/>
</g>
<path class="st0" d="M122.9,150.2c2.7,11.1,15.6,21,20.1,22.8c-9.8,4-17.2,12.6-19.5,23.2c-2.6-10.4-10.2-19-20.1-22.8
	C113.2,169.5,120.6,160.8,122.9,150.2z"/>
<path class="st0" d="M421.5,158.6c1.9,7.3,10.6,13.8,13.5,14.9c-6.5,2.8-11.3,8.6-12.7,15.6c-1.8-6.9-7-12.5-13.5-14.9
	C415.3,171.4,420.1,165.7,421.5,158.6z"/>
<path class="st0" d="M145.5,153.7c-0.9-4.3-4-7.9-8.1-9.6c4.1-1.6,7.3-5.1,8.4-9.4c0.9,4.3,4,7.9,8.1,9.6
	C149.8,145.9,146.6,149.4,145.5,153.7z"/>
<path class="st0" d="M435,157.3c3.9-0.8,7.2-3.6,8.7-7.3c1.4,3.7,4.6,6.6,8.5,7.6c-3.9,0.8-7.2,3.6-8.7,7.3
	C442.1,161.2,438.9,158.3,435,157.3z"/>
<path class="st0" d="M85.1,189.2c-0.6-2.8-2.6-5.2-5.2-6.2c2.7-1,4.7-3.3,5.4-6.1c0.6,2.8,2.6,5.2,5.2,6.2
	C87.8,184.1,85.7,186.4,85.1,189.2z"/>
<path class="st0" d="M275.6,99.5c-1.7-6.9-6.6-12.6-13.1-15.2c6.6-2.6,11.5-8.2,13.1-15.2c1.7,6.9,6.6,12.6,13.1,15.2
	C282.2,86.8,277.3,92.5,275.6,99.5z"/>
<path class="st0" d="M319.2,138.4c-2.5-10.7-10.2-19.4-20.2-23.4c10-4,17.6-12.7,20.2-23.4c2.5,10.7,10.2,19.4,20.2,23.4
	C329.3,119,321.7,127.8,319.2,138.4z"/>
<path class="st0" d="M274.5,129.9c-0.9-3.9-3.7-7.1-7.4-8.6c3.7-1.5,6.6-4.7,7.4-8.6c0.9,3.9,3.7,7.1,7.4,8.6
	C278.2,122.8,275.5,126,274.5,129.9z"/>
</svg>
