<?xml version="1.0" encoding="utf-8"?>
<!-- Generator: Adobe Illustrator 27.6.1, SVG Export Plug-In . SVG Version: 6.00 Build 0)  -->
<svg version="1.1" id="_圖層_1" xmlns="http://www.w3.org/2000/svg" xmlns:xlink="http://www.w3.org/1999/xlink" x="0px" y="0px"
	 viewBox="0 0 595.3 595.3" style="enable-background:new 0 0 595.3 595.3;" xml:space="preserve">
<style type="text/css">
	.st0{fill:#FFF5E5;}
	.st1{fill:#FF9900;}
	.st2{fill:#FFFFFF;}
</style>
<g id="Layer_1_11_">
</g>
<g>
	<path class="st0" d="M141.6,201.6c0-7.8,6.5-14.2,14.2-14.2h295.4c7.8,0,14.2,6.5,14.2,14.2v198.3c0,7.8-6.5,14.2-14.2,14.2H343.6
		c-4.5,0-8.4,3.9-8.4,8.4v8.4h-64.8v-8.4c0-4.5-3.9-8.4-8.4-8.4H155.7c-7.8,0-14.2-6.5-14.2-14.2V201.6H141.6z"/>
	<path class="st1" d="M165.5,398.6h275.4c4.5,0,8.4-3.9,8.4-8.4V212c0-4.5-3.9-8.4-8.4-8.4H165.5c-4.5,0-8.4,3.9-8.4,8.4v178.2
		C157.8,394.7,161.7,398.6,165.5,398.6z M174,219.7h259.2v162H174V219.7z"/>
	<path class="st1" d="M477.2,416.7c3.2-4.5,4.5-10.4,4.5-16.2V201.6c0-16.8-13.6-30.4-30.4-30.4H155.8c-16.8,0-30.4,13.6-30.4,30.4
		v198.3c0,5.8,1.9,11.7,4.5,16.2c-12.3,4.5-20.7,16.2-20.7,30.4c0,18.1,14.2,32.4,32.4,32.4h324c18.1,0,32.4-14.2,32.4-32.4
		C498,432.9,489.5,421.3,477.2,416.7z M141.6,201.6c0-7.8,6.5-14.2,14.2-14.2h295.4c7.8,0,14.2,6.5,14.2,14.2v198.3
		c0,7.8-6.5,14.2-14.2,14.2H343.6c-4.5,0-8.4,3.9-8.4,8.4v8.4h-64.8v-8.4c0-4.5-3.9-8.4-8.4-8.4H155.7c-7.8,0-14.2-6.5-14.2-14.2
		V201.6H141.6z M465.5,463.4H141.6c-9.1,0-16.2-7.1-16.2-16.2s7.1-16.2,16.2-16.2H255v7.8c0,4.5,3.9,8.4,8.4,8.4h81
		c4.5,0,8.4-3.9,8.4-8.4v-8.4h113.3c9.1,0,16.2,7.1,16.2,16.2C481.7,455.6,474.6,463.4,465.5,463.4z"/>
	<path class="st1" d="M189.5,126.7c10.4,0,18.7-8.3,18.7-18.7s-8.3-18.1-18.7-18.1s-18.7,8.3-18.7,18.7
		C170.8,118.4,179.2,126.7,189.5,126.7z M189.5,97c6.2,0,11.4,5.3,11.4,11.4s-5.3,11.4-11.4,11.4c-6.2,0-11.4-5.3-11.4-11.4
		C178.1,102.3,183.3,97,189.5,97z"/>
	<path class="st1" d="M540.2,342.9c13.6,0,24.6-11,24.6-24.6c0-13.6-11-24-24.6-24s-24.6,11-24.6,24.6
		C515.6,331.9,526.6,342.9,540.2,342.9z M540.2,303.8c8.1,0,15.1,7,15.1,15.1c0,8.2-7,15.1-15.1,15.1c-8.2,0-15.1-7-15.1-15.1
		C525.1,310.8,532,303.8,540.2,303.8z"/>
	<path class="st1" d="M459.9,146c14,0,25.7-11.7,25.7-25.7s-11.7-25.7-25.7-25.7c-14,0-25.7,11.7-25.7,25.7
		C434.3,134.4,446,146,459.9,146z M459.9,105.4c7.9,0,14.9,6.3,14.9,14.9c0,7.9-6.3,14.9-14.9,14.9c-8.6,0-14.9-6.3-14.9-14.9
		C445,112.6,451.3,105.4,459.9,105.4z"/>
	<path class="st1" d="M384.6,139.3c4.3,0,7.8,3.5,7.8,7.8c0,4.3-3.5,7.8-7.8,7.8s-7.8-3.5-7.8-7.8
		C376.8,142.9,380.2,139.3,384.6,139.3z"/>
	<path class="st1" d="M328.9,111.4c4.3,0,7.8,3.5,7.8,7.8c0,4.3-3.5,7.8-7.8,7.8s-7.8-3.5-7.8-7.8
		C321.1,114.8,324.6,111.4,328.9,111.4z"/>
	<path class="st1" d="M265.8,140.4c3.2-3.2,3.2-8.4,0-11.7c-3.2-3.2-8.4-3.2-11.7,0s-3.2,8.4,0,11.7
		C258,143.6,262.6,143.6,265.8,140.4z"/>
	<path class="st1" d="M127,154.2c3.2-3.2,3.2-8.4,0-11.7c-3.2-3.2-8.4-3.2-11.7,0c-3.2,3.2-3.2,8.4,0,11.7
		C118.6,157.5,123.8,157.5,127,154.2z"/>
	<path class="st0" d="M465.5,463.4H141.6c-9.1,0-16.2-7.1-16.2-16.2s7.1-16.2,16.2-16.2H255v7.8c0,4.5,3.9,8.4,8.4,8.4h81
		c4.5,0,8.4-3.9,8.4-8.4v-8.4h113.3c9.1,0,16.2,7.1,16.2,16.2C481.7,455.6,474.6,463.4,465.5,463.4z"/>
	<rect x="172.6" y="219.1" class="st2" width="262.9" height="162"/>
	<g>
		<g>
			<path class="st1" d="M212.2,274.1c3.2-3.2,3.2-8.4,0-11.7l-10.4-10.4l10.4-10.4c3.2-3.2,3.2-8.4,0-11.7s-8.4-3.2-11.7,0
				l-16.2,16.2c-3.2,3.2-3.2,8.4,0,11.7l16.2,16.2C203.7,277.4,208.9,277.4,212.2,274.1z"/>
			<path class="st1" d="M257.5,274.1c3.2,3.2,8.4,3.2,11.7,0l16.2-16.2c3.2-3.2,3.2-8.4,0-11.7l-16.2-16.2c-3.2-3.2-8.4-3.2-11.7,0
				c-3.2,3.2-3.2,8.4,0,11.7l10.4,10.4l-10.4,10.4C254.3,266.4,254.3,270.9,257.5,274.1z"/>
			<path class="st1" d="M238.7,270.9l8.4-32.4c1.3-4.5-1.3-8.4-5.8-9.7c-4.5-1.3-8.4,1.3-9.7,5.8l-8.4,32.4
				c-1.3,5.2,2.6,10.4,7.8,10.4C234.2,276.7,237.4,274.1,238.7,270.9z"/>
		</g>
		<path class="st1" d="M238.7,301.3h16.2c4.5,0,8.4-3.9,8.4-8.4s-3.9-8.4-8.4-8.4h-16.2c-4.5,0-8.4,3.9-8.4,8.4
			C230.3,297.5,234.2,301.3,238.7,301.3z"/>
		<path class="st1" d="M352.2,285.2H279c-4.5,0-8.4,3.9-8.4,8.4s3.9,8.4,8.4,8.4h73.2c4.5,0,8.4-3.9,8.4-8.4
			C359.9,288.4,356.7,285.2,352.2,285.2z"/>
		<path class="st1" d="M238.7,325.3h16.2c4.5,0,8.4-3.9,8.4-8.4c0-4.5-3.9-7.8-8.4-7.8h-16.2c-4.5,0-8.4,3.9-8.4,8.4
			C230.3,322.1,234.2,325.3,238.7,325.3z"/>
		<path class="st1" d="M352.2,309.1H279c-4.5,0-8.4,3.9-8.4,8.4c0,4.5,3.9,8.4,8.4,8.4h73.2c4.5,0,8.4-3.9,8.4-8.4
			C360.6,313,356.7,309.1,352.2,309.1z"/>
		<path class="st1" d="M214.1,333.7h-16.2c-4.5,0-8.4,3.9-8.4,8.4c0,4.5,3.9,8.4,8.4,8.4h16.2c4.5,0,8.4-3.9,8.4-8.4
			C222.5,337.6,218.6,333.7,214.1,333.7z"/>
		<path class="st1" d="M238.7,349.9h48.6c4.5,0,8.4-3.9,8.4-8.4c0-4.5-3.9-8.4-8.4-8.4h-48.6c-4.5,0-8.4,3.9-8.4,8.4
			C230.3,346,234.2,349.9,238.7,349.9z"/>
		<path class="st1" d="M214.1,357.7h-16.2c-4.5,0-8.4,3.9-8.4,8.4c0,4.5,3.9,8.4,8.4,8.4h16.2c4.5,0,8.4-3.9,8.4-8.4
			C222.5,361.7,218.6,357.7,214.1,357.7z"/>
		<path class="st1" d="M327.6,357.7h-88.7c-4.5,0-8.4,3.9-8.4,8.4c0,4.5,3.9,8.4,8.4,8.4h89.4c4.5,0,8.4-3.9,8.4-8.4
			C336.6,361.7,332.1,357.7,327.6,357.7z"/>
		<path class="st1" d="M416.9,228.2h-89.4c-4.5,0-8.4,3.9-8.4,8.4V269c0,4.5,3.9,8.4,8.4,8.4h89.4c4.5,0,8.4-3.9,8.4-8.4v-32.4
			C425.4,232,421.5,228.2,416.9,228.2z M409.2,260.5H336v-16.2h73.2V260.5z"/>
		<path class="st1" d="M416.9,357.7h-40.8c-4.5,0-8.4,3.9-8.4,8.4c0,4.5,3.9,8.4,8.4,8.4h40.8c4.5,0,8.4-3.9,8.4-8.4
			C425.4,361.7,421.5,357.7,416.9,357.7z"/>
		<path class="st1" d="M416.9,333.7h-40.8c-4.5,0-8.4,3.9-8.4,8.4c0,4.5,3.9,8.4,8.4,8.4h40.8c4.5,0,8.4-3.9,8.4-8.4
			C425.4,337.6,421.5,333.7,416.9,333.7z"/>
		<path class="st1" d="M416.9,309.1h-40.8c-4.5,0-8.4,3.9-8.4,8.4c0,4.5,3.9,8.4,8.4,8.4h40.8c4.5,0,8.4-3.9,8.4-8.4
			C425.4,313,421.5,309.1,416.9,309.1z"/>
	</g>
	<path class="st1" d="M537.4,160.4c5.1,0,9.3,4.3,9.3,9.3c0,5-4.3,9.3-9.3,9.3c-5,0-9.3-4.3-9.3-9.3
		C528,164.6,532.3,160.4,537.4,160.4z"/>
	<path class="st1" d="M524.2,221.3c5.1,0,9.3,4.3,9.3,9.3c0,5.1-4.3,9.3-9.3,9.3c-5.1,0-9.3-4.3-9.3-9.3
		C514.8,225.6,519.2,221.3,524.2,221.3z"/>
	<path class="st1" d="M76.7,327.6c5.1,0,9.3,4.3,9.3,9.3s-4.3,9.3-9.3,9.3c-5.1,0-9.3-4.3-9.3-9.3C68.2,331.9,71.7,327.6,76.7,327.6
		z"/>
	<path class="st1" d="M64.5,276.5c-15.1,0-27.4-12.3-27.4-27.4c0-15.1,12.3-27.4,27.4-27.4s27.4,12.3,27.4,27.4
		C91.7,264.3,79.6,276.5,64.5,276.5z M64.5,235.6c-7.7,0-14.2,6.6-14.2,14.2c0,7.7,6.6,14.2,14.2,14.2s14.2-6.6,14.2-14.2
		C78.8,242.2,72.2,235.6,64.5,235.6z"/>
</g>
</svg>
