<?xml version="1.0" encoding="utf-8"?>
<!-- Generator: Adobe Illustrator 27.6.1, SVG Export Plug-In . SVG Version: 6.00 Build 0)  -->
<svg version="1.1" id="_圖層_1" xmlns="http://www.w3.org/2000/svg" xmlns:xlink="http://www.w3.org/1999/xlink" x="0px" y="0px"
	 viewBox="0 0 595.3 595.3" style="enable-background:new 0 0 595.3 595.3;" xml:space="preserve">
<style type="text/css">
	.st0{fill:#FF9900;}
	.st1{fill:#FFFFFF;}
	.st2{fill:#FFFAF2;}
	.st3{fill:#FFE0B2;}
</style>
<path class="st0" d="M174.6,141.5c2.9,0,5.3-1.8,5.3-3.9V78.3c0-2.2-2.4-3.9-5.3-3.9s-5.3,1.8-5.3,3.9v59.3
	C169.3,139.7,171.7,141.5,174.6,141.5z"/>
<path class="st0" d="M405.5,99.7c2.9,0,5.3-1.5,5.3-3.4V45.2c0-1.9-2.4-3.4-5.3-3.4c-2.9,0-5.3,1.5-5.3,3.4v51.1
	C400.2,98.2,402.6,99.7,405.5,99.7z"/>
<path class="st1" d="M138.4,313.5c10.1,0,18,7.9,18,18c0,10.1-7.9,18-18,18c-10.1,0-18-8.6-18-18
	C120.4,322.1,128.3,313.5,138.4,313.5z"/>
<path class="st1" d="M443.6,205.8c10.1,0,18,7.9,18,18s-7.9,18-18,18c-10.1,0-18-7.9-18-18S433.5,205.8,443.6,205.8z"/>
<path class="st2" d="M322.2,403.3c7.2,0,13.6,5.7,13.6,13.6c0,7.2-5.7,13.6-13.6,13.6c-7.9,0-13.6-5.7-13.6-13.6
	C309.3,409,315,403.3,322.2,403.3z"/>
<path class="st1" d="M170,142.6c7.2,0,13.6,5.7,13.6,13.6c0,7.9-5.7,13.6-13.6,13.6c-7.9,0-13.6-6.5-13.6-13.6
	C156.3,149,162.1,142.6,170,142.6z"/>
<g>
	<g id="_x37_16_x2C__Start_Up_x2C__Business_x2C__Launch_x2C__Rocket">
		<g>
			<path class="st1" d="M203.6,448.1c0-9.8,0-244.2,0-250.9c0-55.6,42.8-100.7,95.7-100.7c52.8,0,95.7,45.1,95.7,100.7
				c0,7.5,0,241.9,0,250.9C395.7,448.1,214.3,448.1,203.6,448.1z"/>
			<path class="st3" d="M299.3,194.9c30.7,0,55.7,26.3,55.7,58.6c0,32.3-24.3,58.6-55.7,58.6c-31.4,0-55.7-26.3-55.7-58.6
				C243.6,221.2,268.6,194.9,299.3,194.9z"/>
			<path class="st1" d="M467.1,143.1c12.1,0,22.1,10.5,22.1,23.3c0,12.8-10,23.3-22.1,23.3c-12.1,0-22.1-10.5-22.1-23.3
				C445,153.6,454.3,143.1,467.1,143.1z"/>
			<path class="st1" d="M127.9,194.9c17.4,0,31.4,14.8,31.4,33.1c0,18.3-14.1,33.1-31.4,33.1c-17.4,0-31.4-14.8-31.4-33.1
				C96.5,209.7,110.6,194.9,127.9,194.9z"/>
			<path class="st3" d="M457.9,372.9v131.5H395c0-12.8,0-188.6,0-197.6C430,307.6,457.9,336.9,457.9,372.9z"/>
			<path class="st3" d="M203.6,504.4h-62.8V372.9c0-36.1,27.9-66.1,62.8-66.1C203.6,315.8,203.6,492.4,203.6,504.4z"/>
			<path class="st3" d="M320,476.6v30.8c0,12-9.3,21-20,21c-11.4,0-20-9.8-20-21v-30.8v-28.6v-30.8c0-12,9.3-21,20-21
				c5.7,0,10.7,2.3,14.3,6c3.6,3.8,5.7,9,5.7,15v30.8V476.6L320,476.6z"/>
			<rect x="203.6" y="448.1" class="st1" width="35.7" height="28.6"/>
			<rect x="350.7" y="448.1" class="st1" width="45" height="28.6"/>
			<rect x="320" y="448.1" class="st1" width="31.4" height="28.6"/>
			<rect x="239.3" y="448.1" class="st1" width="40" height="28.6"/>
			<path class="st1" d="M299.3,218.2c18.5,0,33.6,15.8,33.6,35.3c0,19.5-15,35.3-33.6,35.3c-18.5,0-33.6-15.8-33.6-35.3
				C265.8,234,280.8,218.2,299.3,218.2z"/>
			<path class="st0" d="M487.1,424.8c3.6,0,6.4,3,6.4,6.8s-2.9,6.8-6.4,6.8c-3.6,0-6.4-3-6.4-6.8S483.6,424.8,487.1,424.8z"/>
			<path class="st0" d="M465,237c3.6,0,6.4,3,6.4,6.8c0,3.7-2.9,6.8-6.4,6.8c-3.6,0-6.4-3-6.4-6.8C458.6,240,461.4,237,465,237z"/>
			<path class="st0" d="M406.4,113c3.6,0,6.4,3,6.4,6.8c0,3.7-2.9,6.8-6.4,6.8c-3.5,0-6.4-3-6.4-6.8C400,116,402.9,113,406.4,113z"
				/>
			<path class="st0" d="M174.4,157.3c3.6,0,6.4,3,6.4,6.8c0,3.7-2.9,6.8-6.4,6.8c-3.5,0-6.4-3-6.4-6.8
				C167.9,160.4,170.8,157.3,174.4,157.3z"/>
			<path class="st0" d="M130.1,110.7c3.6,0,6.4,3,6.4,6.8c0,3.7-2.9,6.8-6.4,6.8c-3.6,0-6.4-3-6.4-6.8
				C123.7,113.8,126.5,110.7,130.1,110.7z"/>
			<path class="st0" d="M125.8,298.6c3.6,0,6.4,3,6.4,6.8c0,3.7-2.9,6.8-6.4,6.8c-3.6,0-6.4-3-6.4-6.8
				C119.4,301.6,122.2,298.6,125.8,298.6z"/>
			<path class="st0" d="M112.2,457.8c3.6,0,6.4,3,6.4,6.8c0,3.7-2.9,6.8-6.4,6.8c-3.6,0-6.4-3-6.4-6.8
				C105.8,460.9,108.7,457.8,112.2,457.8z"/>
			<path class="st0" d="M395.7,481.1H320c-2.1,0-4.3-2.3-4.3-4.5c0-2.3,2.1-4.5,4.3-4.5h75.7c2.1,0,4.3,2.3,4.3,4.5
				C400,478.9,397.9,481.1,395.7,481.1z"/>
			<path class="st0" d="M279.3,481.1h-75.7c-2.1,0-4.3-2.3-4.3-4.5c0-2.3,2.1-4.5,4.3-4.5h75.7c2.1,0,4.3,2.3,4.3,4.5
				C283.6,478.9,282.2,481.1,279.3,481.1z"/>
			<path class="st0" d="M466.9,504.6V373.7c0-38.1-27.1-69.6-62.1-74.7V196.4c0-29.3-10.9-56.9-30.6-77.6
				c-19.8-20.8-46.1-32.3-74.1-32.3c-28.2,0-54.8,11.5-74.7,32.5c-19.8,20.9-30.8,48.6-30.8,78.2v101.1
				c-35.4,4.7-62.8,36.4-62.8,74.8v132.2c0,4.8,4.3,9.3,9,9.3h62.8c4.9,0,9-4.6,9-10V306.8V196.4c0-24.6,9-47.6,25.4-64.8
				c16.3-17.2,38.1-26.6,61.3-26.6c23.1,0,44.9,9.6,61.5,27.1c16.9,17.8,25.8,40.3,25.8,65.1v107c-0.5,1.1-0.7,2.2-0.7,3.4v197.6
				c0,4.8,4.3,9.3,9,9.3h62.8c3.1,0,5.9-1.4,7.6-3.7C466.8,508.9,467.3,506.7,466.9,504.6z M404.8,495.2V317.5
				c25.1,4.5,44.1,27.9,44.1,55.5v122.2H404.8z M194.6,317.5v177.7h-44.1V372.9C150.5,345.4,169.5,322,194.6,317.5z"/>
			<path class="st0" d="M299.3,533c-13.6,0-24.3-11.3-24.3-25.5V418c0-14.3,10.7-25.5,24.3-25.5c6.4,0,12.8,3,17.1,7.5
				c4.3,4.5,7.1,11.3,7.1,18v89.4C324.3,520.9,312.9,533,299.3,533z M299.3,401.5c-8.6,0-15.7,7.5-15.7,16.5v89.4
				c0,9,7.1,16.5,15.7,16.5c8.6,0,15.7-7.5,15.7-16.5V418c0-4.5-1.4-8.3-4.3-11.3C307.9,403,303.6,401.5,299.3,401.5z"/>
			<path class="st0" d="M279.3,453.3h-75.7c-2.1,0-4.3-2.3-4.3-4.5c0-2.3,2.1-4.5,4.3-4.5h75.7c2.1,0,4.3,2.3,4.3,4.5
				C283.6,451.1,282.2,453.3,279.3,453.3z"/>
			<path class="st0" d="M395.7,453.3H320c-2.1,0-4.3-2.3-4.3-4.5c0-2.3,2.1-4.5,4.3-4.5h75.7c2.1,0,4.3,2.3,4.3,4.5
				C400,451.1,397.9,453.3,395.7,453.3z"/>
			<path class="st0" d="M299.3,316.6c-33.6,0-60-28.6-60-63.1c0-34.6,27.1-63.1,60-63.1c32.8,0,60,28.5,60,63.1
				C359.3,288,332.9,316.6,299.3,316.6z M299.3,199.4c-28.6,0-51.4,24-51.4,54.1s22.8,54.1,51.4,54.1c28.6,0,51.4-24,51.4-54.1
				S327.9,199.4,299.3,199.4z"/>
			<path class="st0" d="M299.3,293.3c-20.7,0-37.8-18-37.8-39.8s17.1-39.8,37.8-39.8s37.8,18,37.8,39.8S320.7,293.3,299.3,293.3z
				 M299.3,222.7c-15.7,0-29.3,13.5-29.3,30.8c0,17.3,12.8,30.8,29.3,30.8c15.7,0,29.3-13.5,29.3-30.8
				C328.6,236.2,315.7,222.7,299.3,222.7z"/>
			<path class="st0" d="M468.7,194.9c-15.8,0-28.7-12.8-28.7-28.6s12.8-28.6,28.7-28.6c15.8,0,28.7,12.8,28.7,28.6
				S483.8,194.9,468.7,194.9z M468.7,147.6c-10.6,0-18.9,8.3-18.9,18.8c0,10.5,8.3,18.8,18.9,18.8c10.6,0,18.9-8.3,18.9-18.8
				C487.5,155.8,479.2,147.6,468.7,147.6z"/>
			<path class="st0" d="M125,265.5c-21.6,0-38.6-16.5-38.6-37.6c0-21,17-37.6,38.6-37.6c21.6,0,38.6,16.5,38.6,37.6
				C163.6,248.2,145.9,265.5,125,265.5z M125,199.4c-16.2,0-29.4,12.8-29.4,28.5c0,15.8,13.1,28.6,29.4,28.6
				c16.2,0,29.4-12.8,29.4-28.6C154.4,212.2,140.5,199.4,125,199.4z"/>
			<path class="st0" d="M350.7,533c-2.1,0-4.3-2.3-4.3-4.5V415.8c0-2.3,2.1-4.5,4.3-4.5c2.1,0,4.3,2.3,4.3,4.5v112.7
				C355.7,530.7,353.6,533,350.7,533z"/>
			<path class="st0" d="M239.3,499.9c-2.1,0-4.3-2.3-4.3-4.5v-84.9c0-2.3,2.1-4.5,4.3-4.5c2.1,0,4.3,2.3,4.3,4.5v84.9
				C243.6,497.7,241.5,499.9,239.3,499.9z"/>
		</g>
	</g>
	<g id="Layer_1_21_">
	</g>
</g>
<path class="st0" d="M520.5,373.3c2.9,0,5.3-2.4,5.3-5.3v-80.1c0-2.9-2.4-5.3-5.3-5.3s-5.3,2.4-5.3,5.3V368
	C515.2,370.9,517.6,373.3,520.5,373.3z"/>
<path class="st0" d="M80.6,425.8c2.9,0,5.3-2.4,5.3-5.3v-80.1c0-2.9-2.4-5.3-5.3-5.3s-5.3,2.4-5.3,5.3v80.1
	C75.3,423.4,77.7,425.8,80.6,425.8z"/>
<path class="st0" d="M487.6,545.8c2.9,0,5.3-2.4,5.3-5.3v-80.1c0-2.9-2.4-5.3-5.3-5.3c-2.9,0-5.3,2.4-5.3,5.3v80.1
	C482.3,543.4,484.7,545.8,487.6,545.8L487.6,545.8z"/>
</svg>
