<?xml version="1.0" encoding="utf-8"?>
<!-- Generator: Adobe Illustrator 28.0.0, SVG Export Plug-In . SVG Version: 6.00 Build 0)  -->
<svg version="1.1" id="_圖層_1" xmlns="http://www.w3.org/2000/svg" xmlns:xlink="http://www.w3.org/1999/xlink" x="0px" y="0px"
	 viewBox="0 0 595.3 595.3" style="enable-background:new 0 0 595.3 595.3;" xml:space="preserve">
<style type="text/css">
	.st0{fill:#FF9900;}
	.st1{fill:#FFFFFF;}
</style>
<g id="Layer_1_11_">
</g>
<g>
	<g id="_x31_83-Atom_x2C__Laboratory_x2C__Science">
		<path class="st0" d="M473.5,389.7c4.9,0,9.2,4.2,9.2,9.2c0,4.9-4.2,9.2-9.2,9.2c-5,0-9.2-4.2-9.2-9.2
			C464.3,394,468.6,389.7,473.5,389.7z"/>
		<path class="st0" d="M419.1,97.9c5,0,9.2,4.2,9.2,9.2c0,5-4.2,9.2-9.2,9.2c-4.9,0-9.2-4.2-9.2-9.2
			C409.9,102.2,414.2,97.9,419.1,97.9z"/>
		<path class="st0" d="M180.7,487c4.9,0,9.2,4.2,9.2,9.2s-4.2,9.2-9.2,9.2c-5,0-9.2-4.2-9.2-9.2C171.5,490.6,175.8,487,180.7,487z"
			/>
		<path class="st0" d="M153.8,97.9c5,0,9.2,4.2,9.2,9.2c0,5-4.2,9.2-9.2,9.2c-4.9,0-9.2-4.2-9.2-9.2
			C144.6,102.2,148.9,97.9,153.8,97.9z"/>
		<path class="st0" d="M110,151c4.9,0,9.2,4.2,9.2,9.2c0,5-4.2,9.2-9.2,9.2c-5,0-9.2-4.2-9.2-9.2C100.8,154.5,105,151,110,151z"/>
		<path class="st0" d="M295.3,497.7c-29.8,0-45.5-49.6-52.9-91c-3.3-17.4-5.8-35.6-6.6-54.6c-0.8-9.1-1.7-19-1.7-29
			c0-7.4,0-14.1,0-21.5c0-7.4,0-14.9,0-21.5c0-9.9,0.8-19.9,1.7-29c1.6-19.9,4.1-38.1,6.6-54.6c7.4-41.4,23.2-91,52.9-91
			c29.8,0,45.5,49.6,52.9,91c3.3,17.4,5.8,35.6,6.6,54.6c0.8,9.1,1.7,19,1.7,29c0,7.4,0,14.1,0,21.5c0,7.4,0,14.9,0,21.5
			c0,9.9-0.8,19.9-1.7,29c-1.7,19.9-4.1,38.1-6.6,54.6C340.8,448.1,325.1,497.7,295.3,497.7z M295.3,125.5
			c-7.4,0-22.3,19.9-33.1,73.6c-3.3,16.5-5,33.9-6.6,52.9c-0.8,9.1-0.8,18.2-1.7,28.1c0,6.6,0,14.1,0,20.7c0,6.6,0,14.1,0,20.7
			c0,9.9,0.8,19,1.7,28.1c1.7,19,3.3,36.4,6.6,52.9c9.9,53.8,25.7,73.6,33.1,73.6c7.4,0,22.3-19.8,33.1-73.6
			c3.3-16.5,5-33.9,6.6-52.9c0.8-9.1,0.8-18.2,1.6-28.1c0-6.6,0-14.1,0-20.7c0-6.6,0-14.1,0-20.7c0-9.9-0.8-19-1.6-28.1
			c-1.7-19-3.3-36.4-6.6-52.9C317.7,145.3,302.8,125.5,295.3,125.5z"/>
		<path class="st0" d="M178.7,448.1c-9.1,0-16.5-2.5-21.5-8.3c-21.5-21.5,2.5-67,26.5-101.8c9.9-14.1,21.5-29,33.9-43.8
			c5.8-7.4,12.4-14.9,19-21.5c5-5,9.9-10.8,14.9-15.7c5-5,9.9-9.9,15.7-14.9c7.4-6.6,14.1-13.2,21.5-19c14.9-12.4,29.8-24,43.8-33.9
			c23.2-15.7,55.4-34.7,80.2-34.7c9.1,0,16.5,2.5,21.5,8.3c21.5,21.5-2.5,67-26.5,101.8c-9.9,14.1-21.5,29-33.9,43.8
			c-5.8,7.4-12.4,14.9-19,21.5c-5,5-9.9,10.8-14.9,15.7c-5,5-9.9,9.9-15.7,14.9c-7.4,6.6-14.1,13.2-21.5,19
			c-14.9,12.4-29.8,24-43.8,33.9C234.9,429.1,202.7,448.1,178.7,448.1z M412,174.3c-14.9,0-39.7,11.6-67.8,31.4
			c-13.2,9.1-28.1,19.9-42.2,32.3c-6.6,5.8-14.1,12.4-20.7,19c-5,5-9.9,9.9-14.9,14.9c-5,5-9.9,9.9-14.9,14.9
			c-6.6,6.6-12.4,14.1-19,20.7c-12.4,14.1-23.2,28.1-32.3,42.2c-31.4,45.5-34.7,70.3-29,75.3c1.7,1.7,5,1.7,7.4,1.7
			c14.9,0,39.7-11.6,67.8-31.4c13.2-9.1,28.1-19.9,42.2-32.3c6.6-5.8,14.1-12.4,20.7-19c5-5,9.9-9.9,14.9-14.9
			c5-5,9.9-9.9,14.9-14.9c6.6-6.6,12.4-14.1,19-20.7c12.4-14.1,23.2-28.1,32.3-42.2c31.4-45.5,34.7-70.3,29-75.3
			C417.8,175.1,414.5,174.3,412,174.3z"/>
		<path class="st0" d="M295.3,362.9c-7.4,0-14.9,0-21.5,0c-9.9,0-19.9-0.8-29-1.6c-19.9-1.7-38.1-4.1-54.6-6.6
			c-41.4-7.4-91-23.2-91-52.9c0-29.8,49.6-45.5,91-52.9c17.4-3.3,35.6-5.8,54.6-6.6c9.1-0.8,19-1.7,29-1.7c14.1-0.8,29-0.8,43,0
			c9.9,0,19.8,0.8,29,1.7c19.8,1.7,38.1,4.1,54.6,6.6c41.4,7.4,91,23.2,91,52.9c0,29.8-49.6,45.5-91,52.9
			c-17.4,3.3-35.6,5.8-54.6,6.6c-9.1,0.8-19,1.6-29,1.6C310.2,362.9,302.8,362.9,295.3,362.9z M295.3,259.5c-7.4,0-14.1,0-20.7,0
			c-9.9,0-19,0.8-28.1,1.7c-19,1.7-36.4,3.3-52.9,6.6c-53.8,9.9-73.6,25.6-73.6,33.1c0,7.4,19.8,22.3,73.6,33.1
			c16.5,3.3,33.9,5,52.9,6.6c9.1,0.8,18.2,0.8,28.1,1.6c14.1,0.8,28.1,0.8,42.2,0c9.9,0,19-0.8,28.1-1.6c19-1.7,36.4-3.3,52.9-6.6
			c53.8-9.9,73.6-25.6,73.6-33.1c0-7.4-19.9-22.3-73.6-33.1c-16.5-3.3-33.9-5-52.9-6.6c-9.1-0.8-18.2-0.8-28.1-1.7
			C309.4,259.5,302.8,259.5,295.3,259.5z"/>
		<path class="st0" d="M412,448.1c-24,0-57.1-19-80.2-34.7c-14.1-9.9-29-21.5-43.8-33.9c-7.4-5.8-14.9-12.4-21.5-19
			c-5-5-10.8-9.9-15.7-14.9c-5-5-9.9-9.9-14.9-15.7c-6.6-7.4-13.2-14.1-19-21.5c-12.4-14.9-24-29.8-33.9-43.8
			c-24-34.7-48-81.1-26.5-101.8c5-5,12.4-8.3,21.5-8.3c24,0,57.1,19,80.2,34.7c14.1,9.9,29,21.5,43.9,33.9
			c7.4,5.8,14.9,12.4,21.5,19c5,5,10.8,9.9,15.7,14.9c5,5,9.9,9.9,14.9,15.7c6.6,7.4,13.2,14.1,19,21.5c12.4,14.9,24,29.8,33.9,43.8
			c24,34.7,48,81.1,26.5,101.8C428.5,444.8,421.9,448.1,412,448.1z M178.7,174.3c-2.5,0-5.8,0-7.4,1.7c-5,5-1.6,30.6,29,75.3
			c9.1,13.2,19.9,28.1,32.3,42.2c5.8,6.6,12.4,14.1,19,20.7c5,5,9.9,9.9,14.9,14.9c5,5,9.9,9.9,14.9,14.9c6.6,6.6,14.1,12.4,20.7,19
			c14.1,12.4,28.1,23.2,42.2,32.3c29,19.9,53.8,31.4,67.8,31.4c2.5,0,5.8,0,7.4-1.7c5-5,1.7-30.6-29-75.3
			c-9.1-13.2-19.8-28.1-32.3-42.2c-5.8-6.6-12.4-14.1-19-20.7c-5-5-9.9-9.9-14.9-14.9c-5-5-9.9-9.9-14.9-14.9
			c-6.6-6.6-14.1-13.2-20.7-19c-14.1-12.4-28.1-23.2-42.2-32.3C217.6,185.9,192.8,174.3,178.7,174.3z"/>
		<path class="st0" d="M80.1,459.4c-14.9,0-26.9-12-26.9-26.9c0-14.9,12-26.2,26.9-26.2c14.9,0,26.9,12,26.9,26.9
			C107,448.1,94.9,459.4,80.1,459.4z M80.1,424c-4.9,0-9.2,4.2-9.2,9.2c0,4.9,4.2,9.2,9.2,9.2c5,0,9.2-4.2,9.2-9.2
			C89.3,428.2,85,424,80.1,424z"/>
		<path class="st0" d="M468,159.5c-12,0-21.9-9.9-21.9-21.9c0-12,9.9-21.9,21.9-21.9s21.9,9.9,21.9,21.9
			C489.9,149.6,480,159.5,468,159.5z M468,133.3c-2.1,0-4.2,2.1-4.2,4.2c0,2.1,2.1,4.2,4.2,4.2c2.1,0,4.2-2.1,4.2-4.2
			C472.2,135.4,470.1,133.3,468,133.3z"/>
	</g>
	<g id="Layer_1_10_">
	</g>
</g>
<path class="st1" d="M80.1,415.5c9.9,0,17.7,7.8,17.7,17.7c0,9.9-7.8,17.7-17.7,17.7c-9.9,0-17.7-7.8-17.7-17.7
	C62.4,423.3,70.2,415.5,80.1,415.5z"/>
<path class="st1" d="M468,124.1c7.1,0,13.4,5.7,13.4,13.4c0,7.8-5.7,13.4-13.4,13.4c-7.8,0-13.4-5.7-13.4-13.4
	C454.5,129.8,460.2,124.1,468,124.1z"/>
<path class="st0" d="M531.4,370.6c-12,0-21.9-9.9-21.9-21.9c0-12,9.9-21.9,21.9-21.9s21.9,9.9,21.9,21.9
	C553.3,360.7,543.4,370.6,531.4,370.6z M531.4,344.5c-2.1,0-4.2,2.1-4.2,4.2c0,2.1,2.1,4.2,4.2,4.2s4.2-2.1,4.2-4.2
	C535.6,346.6,533.5,344.5,531.4,344.5z"/>
<path class="st1" d="M531.4,335.3c7.1,0,13.4,5.7,13.4,13.4s-5.7,13.4-13.4,13.4c-7.8,0-13.4-5.7-13.4-13.4S523.6,335.3,531.4,335.3
	z"/>
<path class="st0" d="M398.5,503.4c-6.6,0-12.1-5.5-12.1-12.1c0-6.6,5.5-12.1,12.1-12.1c6.6,0,12.1,5.5,12.1,12.1
	C410.5,498,405.1,503.4,398.5,503.4z M398.5,489c-1.2,0-2.3,1.2-2.3,2.3c0,1.2,1.2,2.3,2.3,2.3c1.2,0,2.3-1.2,2.3-2.3
	C400.8,490.2,399.6,489,398.5,489z"/>
<path class="st1" d="M398.5,483.9c3.9,0,7.4,3.1,7.4,7.4s-3.1,7.4-7.4,7.4c-4.3,0-7.4-3.1-7.4-7.4S394.2,483.9,398.5,483.9z"/>
</svg>
