<?xml version="1.0" encoding="utf-8"?>
<!-- Generator: Adobe Illustrator 27.6.1, SVG Export Plug-In . SVG Version: 6.00 Build 0)  -->
<svg version="1.1" id="_圖層_1" xmlns="http://www.w3.org/2000/svg" xmlns:xlink="http://www.w3.org/1999/xlink" x="0px" y="0px"
	 viewBox="0 0 595.3 595.3" style="enable-background:new 0 0 595.3 595.3;" xml:space="preserve">
<style type="text/css">
	.st0{fill:#FFF5E5;}
	.st1{fill:#FFF7EB;}
	.st2{fill:#FFFAF2;}
	.st3{fill:#FF9900;}
	.st4{opacity:0.6;fill:#FFFFFF;}
	.st5{opacity:0.3;fill:#FFFFFF;}
	.st6{opacity:0.1;}
	.st7{opacity:0.1;fill:#FFFFFF;}
	.st8{opacity:0;fill:#FFFFFF;}
	.st9{opacity:0.4;fill:#FFFFFF;}
	.st10{opacity:0.2;fill:#FFFFFF;}
	.st11{opacity:0.7;fill:#FFFFFF;}
	.st12{fill:#1A2E35;}
	.st13{opacity:0.5;fill:#FFFFFF;}
	.st14{opacity:0.2;}
	.st15{opacity:0.3;}
	.st16{opacity:0.5;}
	.st17{opacity:0.6;}
	.st18{opacity:0.4;}
	.st19{opacity:0.8;fill:#FFFFFF;}
	.st20{opacity:0.3;fill:#FFD18C;}
	.st21{fill:none;stroke:#FFD699;stroke-width:0.5504;stroke-miterlimit:10;}
</style>
<g id="Layer_1_11_">
</g>
<g>
	<rect x="272.2" y="215.7" class="st0" width="12.3" height="223.2"/>
	<rect x="324.8" y="257.8" class="st1" width="21.5" height="179.8"/>
	<rect x="366.2" y="282" class="st1" width="21.5" height="156.3"/>
	<rect x="411.6" y="243.6" class="st1" width="21.5" height="156.3"/>
	<g>
		<rect x="294.2" y="240.7" class="st1" width="11.3" height="197.6"/>
		<path class="st1" d="M286.2,288.2c0,7.4,6,13.4,13.4,13.4c7.4,0,13.4-6,13.4-13.4c0-7.4-6-13.4-13.4-13.4
			C292.2,274.8,286.2,280.8,286.2,288.2z"/>
	</g>
	<g>
		<rect x="174.6" y="258.1" class="st0" width="11.3" height="136.9"/>
		
			<ellipse transform="matrix(0.6707 -0.7417 0.7417 0.6707 -167.4146 234.1827)" class="st0" cx="180" cy="305.6" rx="13.4" ry="13.4"/>
	</g>
	<circle class="st2" cx="265" cy="157.5" r="34.8"/>
	<g>
		<g>
			<polygon class="st3" points="227.5,333.5 264.3,333.5 264.3,257.4 227.5,220.2 			"/>
			<polygon class="st3" points="232.2,333.7 257.9,333.7 259.6,262.4 232.2,234.7 			"/>
			<polygon class="st3" points="269.3,432.7 222.6,432.7 222.6,335.9 269.3,288.5 			"/>
			<polygon class="st3" points="264.3,391.8 227.5,374.6 227.5,341.2 264.3,303.9 			"/>
			<polygon class="st3" points="264.3,432.4 227.5,432.4 227.5,382.9 264.3,400.4 			"/>
			<polygon class="st4" points="232.2,432.4 230.3,432.4 230.3,384.2 232.2,385.2 			"/>
			<polygon class="st4" points="261.6,432.4 259.6,432.4 259.6,398.2 261.6,399.1 			"/>
			<polygon class="st4" points="246.9,432.4 244.9,432.4 244.9,391.2 246.9,392.2 			"/>
			<polygon class="st4" points="239.6,432.4 237.6,432.4 237.6,387.7 239.6,388.7 			"/>
			<polygon class="st4" points="254.2,432.4 252.2,432.4 252.2,394.7 254.2,395.6 			"/>
			<polygon class="st4" points="232.2,376.8 230.3,375.9 230.3,338.4 232.2,336.3 			"/>
			<polygon class="st4" points="261.6,390.3 259.6,389.6 259.6,308.7 261.6,306.6 			"/>
			<polygon class="st4" points="246.9,383.7 244.9,382.7 244.9,323.5 246.9,321.5 			"/>
			<polygon class="st4" points="239.6,380.2 237.6,379.3 237.6,331 239.6,329 			"/>
			<polygon class="st4" points="254.2,387.1 252.2,386.2 252.2,316.1 254.2,314.1 			"/>
			<polygon class="st4" points="235.3,322.9 233.8,324.5 233.8,236.2 235.3,237.8 			"/>
			<polygon class="st4" points="258,299.9 256.5,301.5 256.5,259.2 258,260.8 			"/>
			<polygon class="st4" points="246.7,311.4 245.1,313 245.1,247.7 246.7,249.3 			"/>
			<polygon class="st4" points="241,317.2 239.5,318.7 239.5,242 241,243.6 			"/>
			<polygon class="st4" points="252.3,305.7 250.8,307.2 250.8,253.5 252.3,255 			"/>
		</g>
		<g>
			<path class="st3" d="M284.7,357.1c0,18.3,1.4,49.5,3.8,81.5h37.4c2.4-32,3.8-63.2,3.8-81.5c0-49.1-22.5-89-22.5-89
				S284.7,308,284.7,357.1z"/>
			<path class="st5" d="M284.7,357.1c0,18.3,1.4,49.5,3.8,81.5h37.4c2.4-32,3.8-63.2,3.8-81.5c0-49.1-22.5-89-22.5-89
				S284.7,308,284.7,357.1z"/>
			<g class="st6">
				<path d="M324.5,314.7c-0.2-1-0.5-2-0.8-3h-33c-0.3,1-0.5,2-0.8,3H324.5z"/>
				<path d="M296,294.2h22.5c-0.4-1-0.7-2.1-1.1-3h-20.3C296.7,292.2,296.3,293.2,296,294.2z"/>
				<path d="M329.7,355.5c0-1,0-2-0.1-3h-44.8c0,1,0,2-0.1,3H329.7z"/>
				<path d="M328.3,335.1c-0.1-1-0.3-2-0.4-3h-41.2c-0.1,1-0.3,2-0.4,3H328.3z"/>
				<path d="M327.4,416.8c0.1-1,0.1-2,0.2-3h-40.8c0.1,1,0.1,2,0.2,3H327.4z"/>
				<path d="M326,437.2c0.1-1,0.1-2,0.2-3h-38.1c0.1,1,0.1,2,0.2,3H326z"/>
				<path d="M328.5,396.4c0-1,0.1-2,0.1-3h-42.9c0,1,0.1,2,0.1,3H328.5z"/>
				<path d="M329.4,375.9c0-1,0.1-2,0.1-3H285c0,1,0.1,2,0.1,3H329.4z"/>
			</g>
			<g>
				<g>
					<rect x="303.8" y="419.5" class="st3" width="6.8" height="10.9"/>
					<rect x="303.8" y="419.5" class="st7" width="6.8" height="10.9"/>
				</g>
				<g>
					<rect x="292.4" y="419.5" class="st3" width="6.8" height="10.9"/>
					<rect x="292.4" y="419.5" class="st7" width="6.8" height="10.9"/>
				</g>
				<g>
					<rect x="315.4" y="419.5" class="st3" width="6.8" height="10.9"/>
					<rect x="315.4" y="419.5" class="st7" width="6.8" height="10.9"/>
				</g>
			</g>
			<g>
				<g>
					<rect x="296" y="400" class="st3" width="6.8" height="10.9"/>
					<rect x="296" y="400" class="st7" width="6.8" height="10.9"/>
				</g>
				<g>
					<rect x="311.7" y="400" class="st3" width="6.8" height="10.9"/>
					<rect x="311.7" y="400" class="st7" width="6.8" height="10.9"/>
				</g>
			</g>
			<g>
				<g>
					<rect x="296" y="358.8" class="st3" width="6.8" height="10.9"/>
					<rect x="296" y="358.8" class="st7" width="6.8" height="10.9"/>
				</g>
				<g>
					<rect x="311.7" y="358.8" class="st3" width="6.8" height="10.9"/>
					<rect x="311.7" y="358.8" class="st7" width="6.8" height="10.9"/>
				</g>
			</g>
			<g>
				<g>
					<rect x="296" y="317.6" class="st3" width="6.8" height="10.9"/>
					<rect x="296" y="317.6" class="st7" width="6.8" height="10.9"/>
				</g>
				<g>
					<rect x="311.7" y="317.6" class="st3" width="6.8" height="10.9"/>
					<rect x="311.7" y="317.6" class="st7" width="6.8" height="10.9"/>
				</g>
			</g>
			<g>
				<rect x="303.8" y="298.1" class="st3" width="6.8" height="10.9"/>
				<rect x="303.8" y="298.1" class="st7" width="6.8" height="10.9"/>
			</g>
			<g>
				<rect x="303.8" y="277.7" class="st3" width="6.8" height="10.9"/>
				<rect x="303.8" y="277.7" class="st7" width="6.8" height="10.9"/>
			</g>
			<g>
				<g>
					<rect x="303.8" y="379.4" class="st3" width="6.8" height="10.9"/>
					<rect x="303.8" y="379.4" class="st7" width="6.8" height="10.9"/>
				</g>
				<g>
					<rect x="292.4" y="379.4" class="st3" width="6.8" height="10.9"/>
					<rect x="292.4" y="379.4" class="st7" width="6.8" height="10.9"/>
				</g>
				<g>
					<rect x="315.4" y="379.4" class="st3" width="6.8" height="10.9"/>
					<rect x="315.4" y="379.4" class="st7" width="6.8" height="10.9"/>
				</g>
			</g>
			<g>
				<g>
					<rect x="303.8" y="338.2" class="st3" width="6.8" height="10.9"/>
					<rect x="303.8" y="338.2" class="st7" width="6.8" height="10.9"/>
				</g>
				<g>
					<rect x="292.4" y="338.2" class="st3" width="6.8" height="10.9"/>
					<rect x="292.4" y="338.2" class="st7" width="6.8" height="10.9"/>
				</g>
				<g>
					<rect x="315.4" y="338.2" class="st3" width="6.8" height="10.9"/>
					<rect x="315.4" y="338.2" class="st7" width="6.8" height="10.9"/>
				</g>
			</g>
		</g>
		<g>
			<g>
				<rect x="347.6" y="190.6" class="st3" width="18.2" height="6.1"/>
				<rect x="347.6" y="190.6" class="st7" width="18.2" height="6.1"/>
			</g>
			<g>
				<path class="st3" d="M356.7,232.7c29.2,0,52.8-6.2,52.8-13.7H303.9C303.9,226.6,327.5,232.7,356.7,232.7z"/>
				<path class="st5" d="M356.7,232.7c29.2,0,52.8-6.2,52.8-13.7H303.9C303.9,226.6,327.5,232.7,356.7,232.7z"/>
			</g>
			<g>
				<path class="st3" d="M356.7,194.2c-29.2,0-52.8,6.2-52.8,13.7h105.6C409.5,200.3,385.8,194.2,356.7,194.2z"/>
				<path class="st5" d="M356.7,194.2c-29.2,0-52.8,6.2-52.8,13.7h105.6C409.5,200.3,385.8,194.2,356.7,194.2z"/>
			</g>
			<g>
				<g>
					<rect x="294.1" y="209.6" class="st3" width="125.1" height="7.7"/>
					<rect x="294.1" y="209.6" class="st7" width="125.1" height="7.7"/>
				</g>
				<g>
					<rect x="294.1" y="207.9" class="st3" width="125.1" height="1.7"/>
					<rect x="294.1" y="207.9" class="st8" width="125.1" height="1.7"/>
				</g>
				<g>
					<rect x="294.1" y="217.3" class="st3" width="125.1" height="1.7"/>
					<rect x="294.1" y="217.3" class="st8" width="125.1" height="1.7"/>
				</g>
				<g>
					<path class="st3" d="M359.6,213.4c0,1.6-1.3,3-3,3c-1.6,0-3-1.3-3-3c0-1.6,1.3-3,3-3C358.3,210.5,359.6,211.8,359.6,213.4z"/>
					<path class="st4" d="M359.6,213.4c0,1.6-1.3,3-3,3c-1.6,0-3-1.3-3-3c0-1.6,1.3-3,3-3C358.3,210.5,359.6,211.8,359.6,213.4z"/>
				</g>
				<g>
					<circle class="st3" cx="413.7" cy="213.4" r="3"/>
					<circle class="st4" cx="413.7" cy="213.4" r="3"/>
				</g>
				<g>
					<path class="st3" d="M301.8,213.4c0,1.6-1.3,3-3,3c-1.6,0-3-1.3-3-3c0-1.6,1.3-3,3-3C300.5,210.5,301.8,211.8,301.8,213.4z"/>
					<path class="st4" d="M301.8,213.4c0,1.6-1.3,3-3,3c-1.6,0-3-1.3-3-3c0-1.6,1.3-3,3-3C300.5,210.5,301.8,211.8,301.8,213.4z"/>
				</g>
				<g>
					<circle class="st3" cx="327.8" cy="213.4" r="3"/>
					<circle class="st4" cx="327.8" cy="213.4" r="3"/>
				</g>
				<g>
					<circle class="st3" cx="385.2" cy="213.4" r="3"/>
					<circle class="st4" cx="385.2" cy="213.4" r="3"/>
				</g>
				<g>
					<path class="st3" d="M373.9,213.4c0,1.6-1.3,3-3,3c-1.6,0-3-1.3-3-3c0-1.6,1.3-3,3-3C372.5,210.5,373.9,211.8,373.9,213.4z"/>
					<path class="st4" d="M373.9,213.4c0,1.6-1.3,3-3,3c-1.6,0-3-1.3-3-3c0-1.6,1.3-3,3-3C372.5,210.5,373.9,211.8,373.9,213.4z"/>
				</g>
				<g>
					<path class="st3" d="M402.4,213.4c0,1.6-1.3,3-3,3c-1.6,0-3-1.3-3-3c0-1.6,1.3-3,3-3C401.1,210.5,402.4,211.8,402.4,213.4z"/>
					<path class="st4" d="M402.4,213.4c0,1.6-1.3,3-3,3c-1.6,0-3-1.3-3-3c0-1.6,1.3-3,3-3C401.1,210.5,402.4,211.8,402.4,213.4z"/>
				</g>
				<g>
					<circle class="st3" cx="342.2" cy="213.4" r="3"/>
					<circle class="st4" cx="342.2" cy="213.4" r="3"/>
				</g>
				<g>
					<path class="st3" d="M316.3,213.4c0,1.6-1.3,3-3,3c-1.6,0-3-1.3-3-3c0-1.6,1.3-3,3-3C315,210.5,316.3,211.8,316.3,213.4z"/>
					<path class="st4" d="M316.3,213.4c0,1.6-1.3,3-3,3c-1.6,0-3-1.3-3-3c0-1.6,1.3-3,3-3C315,210.5,316.3,211.8,316.3,213.4z"/>
				</g>
				<g>
					<path class="st3" d="M291.2,213.4c0,1.6,1.3,3,3,3v-5.9C292.5,210.5,291.2,211.8,291.2,213.4z"/>
					<path class="st4" d="M291.2,213.4c0,1.6,1.3,3,3,3v-5.9C292.5,210.5,291.2,211.8,291.2,213.4z"/>
				</g>
				<g>
					<path class="st3" d="M422.3,213.4c0,1.6-1.3,3-3,3v-5.9C421,210.5,422.3,211.8,422.3,213.4z"/>
					<path class="st4" d="M422.3,213.4c0,1.6-1.3,3-3,3v-5.9C421,210.5,422.3,211.8,422.3,213.4z"/>
				</g>
			</g>
			<g>
				<rect x="348.5" y="240" class="st3" width="16.2" height="203"/>
				<rect x="348.5" y="240" class="st9" width="16.2" height="203"/>
				<rect x="356.7" y="242.1" class="st9" width="7.3" height="7.3"/>
				<rect x="356.7" y="433.6" class="st9" width="7.3" height="7.3"/>
				<rect x="356.7" y="337.9" class="st9" width="7.3" height="7.3"/>
				<rect x="356.7" y="290" class="st9" width="7.3" height="7.3"/>
				<rect x="356.7" y="385.7" class="st9" width="7.3" height="7.3"/>
				<rect x="356.7" y="409.7" class="st9" width="7.3" height="7.3"/>
				<rect x="356.7" y="361.8" class="st9" width="7.3" height="7.3"/>
				<rect x="356.7" y="313.9" class="st9" width="7.3" height="7.3"/>
				<rect x="356.7" y="266" class="st9" width="7.3" height="7.3"/>
				<rect x="356.7" y="254.1" class="st9" width="7.3" height="7.3"/>
				<rect x="356.7" y="278" class="st9" width="7.3" height="7.3"/>
				<rect x="356.7" y="302" class="st9" width="7.3" height="7.3"/>
				<rect x="356.7" y="325.9" class="st9" width="7.3" height="7.3"/>
				<rect x="356.7" y="349.8" class="st9" width="7.3" height="7.3"/>
				<rect x="356.7" y="373.8" class="st9" width="7.3" height="7.3"/>
				<rect x="356.7" y="397.7" class="st9" width="7.3" height="7.3"/>
				<rect x="356.7" y="421.6" class="st9" width="7.3" height="7.3"/>
			</g>
			<g>
				<rect x="332.1" y="230.8" class="st3" width="49" height="9.2"/>
				<rect x="332.1" y="230.8" class="st7" width="49" height="9.2"/>
				<rect x="354" y="232.8" class="st9" width="5.3" height="5.3"/>
				<rect x="373.9" y="232.8" class="st9" width="5.3" height="5.3"/>
				<rect x="333.8" y="232.8" class="st9" width="5.3" height="5.3"/>
				<rect x="343.6" y="232.8" class="st9" width="5.3" height="5.3"/>
				<rect x="363.9" y="232.8" class="st9" width="5.3" height="5.3"/>
			</g>
		</g>
		<g>
			<g>
				<rect x="388.6" y="344.5" class="st3" width="13.4" height="3"/>
				<rect x="388.6" y="344.5" class="st10" width="13.4" height="3"/>
			</g>
			<g>
				<g>
					<g>
						<rect x="376.7" y="379.9" class="st3" width="26.3" height="33"/>
						<rect x="376.7" y="379.9" class="st11" width="26.3" height="33"/>
					</g>
					<g>
						<rect x="376.7" y="410.9" class="st3" width="26.3" height="2"/>
						<rect x="376.7" y="410.9" class="st10" width="26.3" height="2"/>
					</g>
					<g>
						<rect x="376.7" y="403.6" class="st3" width="26.3" height="1.7"/>
						<rect x="376.7" y="403.6" class="st10" width="26.3" height="1.7"/>
					</g>
					<g>
						<rect x="376.7" y="399.4" class="st3" width="26.3" height="1.7"/>
						<rect x="376.7" y="399.4" class="st10" width="26.3" height="1.7"/>
					</g>
					<g>
						<rect x="376.7" y="395.2" class="st3" width="26.3" height="1.7"/>
						<rect x="376.7" y="395.2" class="st10" width="26.3" height="1.7"/>
					</g>
					<g>
						<rect x="376.7" y="391.1" class="st3" width="26.3" height="1.7"/>
						<rect x="376.7" y="391.1" class="st10" width="26.3" height="1.7"/>
					</g>
					<g>
						<rect x="376.7" y="386.8" class="st3" width="26.3" height="1.7"/>
						<rect x="376.7" y="386.8" class="st10" width="26.3" height="1.7"/>
					</g>
					<g>
						<rect x="376.7" y="379.9" class="st3" width="26.3" height="1"/>
						<rect x="376.7" y="379.9" class="st10" width="26.3" height="1"/>
					</g>
				</g>
				<g>
					<g>
						<rect x="376.7" y="347.5" class="st3" width="26.3" height="33"/>
						<rect x="376.7" y="347.5" class="st11" width="26.3" height="33"/>
					</g>
					<g>
						<rect x="376.7" y="378.5" class="st3" width="26.3" height="2"/>
						<rect x="376.7" y="378.5" class="st10" width="26.3" height="2"/>
					</g>
					<g>
						<rect x="376.7" y="371.2" class="st3" width="26.3" height="1.7"/>
						<rect x="376.7" y="371.2" class="st10" width="26.3" height="1.7"/>
					</g>
					<g>
						<rect x="376.7" y="367.1" class="st3" width="26.3" height="1.7"/>
						<rect x="376.7" y="367.1" class="st10" width="26.3" height="1.7"/>
					</g>
					<g>
						<rect x="376.7" y="362.8" class="st3" width="26.3" height="1.7"/>
						<rect x="376.7" y="362.8" class="st10" width="26.3" height="1.7"/>
					</g>
					<g>
						<rect x="376.7" y="358.7" class="st3" width="26.3" height="1.7"/>
						<rect x="376.7" y="358.7" class="st10" width="26.3" height="1.7"/>
					</g>
					<g>
						<rect x="376.7" y="354.4" class="st3" width="26.3" height="1.7"/>
						<rect x="376.7" y="354.4" class="st10" width="26.3" height="1.7"/>
					</g>
					<g>
						<rect x="376.7" y="347.5" class="st3" width="26.3" height="1"/>
						<rect x="376.7" y="347.5" class="st10" width="26.3" height="1"/>
					</g>
				</g>
			</g>
			<g>
				<g>
					<polygon class="st3" points="395.8,282.1 394.7,282.1 395.3,250 					"/>
					<polygon class="st5" points="395.8,282.1 394.7,282.1 395.3,250 					"/>
				</g>
				<rect x="388.6" y="287.9" class="st3" width="13.3" height="59.6"/>
				<g>
					<path class="st12" d="M401.9,287.9h-13.3c0,0,0-6.3,6.7-6.3S401.9,287.9,401.9,287.9z"/>
					<path class="st3" d="M401.9,287.9h-13.3c0,0,0-6.3,6.7-6.3S401.9,287.9,401.9,287.9z"/>
				</g>
				<rect x="388.6" y="287.9" class="st13" width="13.3" height="59.6"/>
				<g>
					<rect x="388.6" y="339.2" class="st3" width="13.4" height="3"/>
					<rect x="388.6" y="339.2" class="st10" width="13.4" height="3"/>
				</g>
				<g>
					<rect x="388.6" y="333.9" class="st3" width="13.4" height="3"/>
					<rect x="388.6" y="333.9" class="st10" width="13.4" height="3"/>
				</g>
				<g>
					<rect x="388.6" y="328.8" class="st3" width="13.4" height="3"/>
					<rect x="388.6" y="328.8" class="st10" width="13.4" height="3"/>
				</g>
				<g>
					<rect x="388.6" y="323.7" class="st3" width="13.4" height="3"/>
					<rect x="388.6" y="323.7" class="st10" width="13.4" height="3"/>
				</g>
				<g>
					<rect x="388.6" y="318.6" class="st3" width="13.4" height="3"/>
					<rect x="388.6" y="318.6" class="st10" width="13.4" height="3"/>
				</g>
				<g>
					<rect x="388.6" y="313.3" class="st3" width="13.4" height="3"/>
					<rect x="388.6" y="313.3" class="st10" width="13.4" height="3"/>
				</g>
				<g>
					<rect x="388.6" y="308" class="st3" width="13.4" height="3"/>
					<rect x="388.6" y="308" class="st10" width="13.4" height="3"/>
				</g>
				<g>
					<rect x="388.6" y="297.4" class="st3" width="13.4" height="1.2"/>
					<rect x="388.6" y="297.4" class="st10" width="13.4" height="1.2"/>
				</g>
			</g>
		</g>
	</g>
	<g>
		<g>
			<g>
				<rect x="203.1" y="260.1" class="st3" width="4.8" height="30.3"/>
				<rect x="203.1" y="260.1" class="st10" width="4.8" height="30.3"/>
			</g>
			<rect x="203.1" y="273.7" class="st14" width="4.8" height="4.8"/>
		</g>
		<g>
			<polygon class="st3" points="214.9,425.5 196.4,425.5 202,325.3 209.2,325.3 			"/>
			<polygon class="st10" points="214.9,425.5 196.4,425.5 202,325.3 209.2,325.3 			"/>
		</g>
		<g>
			<rect x="203.2" y="295" class="st3" width="4.8" height="30.3"/>
			<rect x="203.2" y="295" class="st10" width="4.8" height="30.3"/>
		</g>
		<g>
			<polygon class="st3" points="207,223.3 204.3,223.3 205.3,182.4 			"/>
			<polygon class="st15" points="207,223.3 204.3,223.3 205.3,182.4 			"/>
		</g>
		<g>
			
				<ellipse transform="matrix(0.9701 -0.2426 0.2426 0.9701 -53.5163 57.2336)" class="st3" cx="205.6" cy="245.9" rx="17.9" ry="17.9"/>
			
				<ellipse transform="matrix(0.9701 -0.2426 0.2426 0.9701 -53.5163 57.2336)" class="st7" cx="205.6" cy="245.9" rx="17.9" ry="17.9"/>
		</g>
		<g>
			<rect x="187.6" y="243.5" class="st3" width="36" height="4.8"/>
			<rect x="187.6" y="243.5" class="st15" width="36" height="4.8"/>
		</g>
		<g>
			<rect x="187.6" y="242.9" class="st3" width="36" height="0.7"/>
			<rect x="187.6" y="242.9" class="st5" width="36" height="0.7"/>
		</g>
		<g>
			<rect x="216.1" y="244.4" class="st3" width="0.7" height="3.9"/>
			<rect x="216.1" y="244.4" class="st16" width="0.7" height="3.9"/>
		</g>
		<g>
			<rect x="216.1" y="243.5" class="st3" width="0.7" height="0.8"/>
			<rect x="216.1" y="243.5" class="st17" width="0.7" height="0.8"/>
		</g>
		<g>
			<rect x="187.6" y="248.3" class="st3" width="36" height="0.7"/>
			<rect x="187.6" y="248.3" class="st5" width="36" height="0.7"/>
		</g>
		<g>
			<g>
				<path class="st3" d="M213.1,319.7c0,4.1-3.3,7.5-7.5,7.5c-4.1,0-7.5-3.3-7.5-7.5s3.3-7.5,7.5-7.5
					C209.7,312.2,213.1,315.6,213.1,319.7z"/>
				<path class="st6" d="M213.1,319.7c0,4.1-3.3,7.5-7.5,7.5c-4.1,0-7.5-3.3-7.5-7.5s3.3-7.5,7.5-7.5
					C209.7,312.2,213.1,315.6,213.1,319.7z"/>
			</g>
			<rect x="205" y="318.6" class="st4" width="1.3" height="2.2"/>
			<rect x="207.4" y="318.6" class="st4" width="1.3" height="2.2"/>
			<rect x="209.8" y="318.6" class="st4" width="1.3" height="2.2"/>
			<rect x="202.6" y="318.6" class="st4" width="1.3" height="2.2"/>
			<rect x="200.1" y="318.6" class="st4" width="1.3" height="2.2"/>
			<path class="st4" d="M199,320.8h-0.8c-0.1-0.7-0.1-1.4,0-2.2h0.8V320.8z"/>
			<path class="st4" d="M213,320.8h-0.8v-2.2h0.8C213.1,319.4,213.1,320.1,213,320.8z"/>
			<polygon class="st18" points="212.6,317 198.7,317 198.7,316.8 212.5,316.8 			"/>
			<polygon class="st18" points="212.5,322.6 198.7,322.6 198.6,322.4 212.6,322.4 			"/>
		</g>
		<g>
			<g>
				<rect x="201" y="288.2" class="st3" width="9.3" height="6.7"/>
				<rect x="201" y="288.2" class="st6" width="9.3" height="6.7"/>
			</g>
			<rect x="201" y="289.1" class="st15" width="9.3" height="0.2"/>
			<rect x="201" y="293.9" class="st15" width="9.3" height="0.2"/>
			<rect x="201" y="290.6" class="st6" width="9.3" height="2.1"/>
		</g>
		<g>
			<rect x="199.7" y="219.4" class="st3" width="11.8" height="9.5"/>
			<rect x="199.7" y="219.4" class="st5" width="11.8" height="9.5"/>
		</g>
		<g>
			<g>
				<rect x="194" y="425.5" class="st3" width="23.2" height="6.3"/>
				<rect x="194" y="425.5" class="st6" width="23.2" height="6.3"/>
			</g>
			<rect x="194" y="429.8" class="st6" width="23.2" height="0.8"/>
			<rect x="194" y="427.5" class="st6" width="23.2" height="0.4"/>
		</g>
		<rect x="204.9" y="327.2" class="st14" width="1.3" height="98.4"/>
	</g>
	<path class="st3" d="M299.3,103.1c-100.7,0-182.4,81.7-182.4,182.4S198.5,468,299.3,468s182.4-81.7,182.4-182.4
		S400,103.1,299.3,103.1z M299.3,434.2c-82.1,0-148.7-66.6-148.7-148.7s66.6-148.7,148.7-148.7c82.1,0,148.7,66.6,148.7,148.7
		S381.4,434.2,299.3,434.2z"/>
	<rect x="189.2" y="456.9" class="st3" width="220.5" height="50.8"/>
	<rect x="153.8" y="482.3" class="st3" width="287.3" height="25.4"/>
	<g>
		<path class="st3" d="M299.3,129c-86.4,0-156.5,70.1-156.5,156.5s70.1,156.5,156.5,156.5S455.8,372,455.8,285.6
			S385.7,129,299.3,129z M419.5,312.5c-8.7,13.8-2.4,35.5-15.7,44.9c-9.8,6.9-24.4,1.9-34.8,8.1c-12.2,7.3-12.5,26.4-24.2,34.5
			c-15.5,10.7-37.4-5.2-55.2,1.1c-13.7,4.9-23.1,22.5-37.5,20.1c-17.3-2.9-20.4-32.2-37.9-34c-4.7-0.5-9.5,1.3-14.2,0.6
			c-9.7-1.5-14.5-12.6-15.5-22.3c-1-9.7-0.2-20.3-5.6-28.5c-2.1-3.2-5-5.7-8.1-8.2c-9.2-1.7-17.2-9.3-19.1-18.6
			c-0.5-2.6-0.6-5.2-0.2-7.9l7.2-14.3c1.4-1.4,3-2.6,4.7-3.5c7.2-4.1,18.4-6.9,17.7-15.2c-0.4-5.2-5.8-8.6-7.4-13.5
			c-2.2-6.9,3.5-13.7,9.1-18.3c5.6-4.6,12.2-9.8,12.3-17.1c0.1-6.1-4.5-11.4-4.8-17.5c-0.4-8.9,8.5-15.5,17-18.1
			c8.5-2.6,18-3.2,25.3-8.4c10.8-7.7,16.2-24.8,29.5-25c11.8-0.2,19.7,14.1,31.5,14.6c12,0.4,20.5-13.7,32.5-14.4
			c16.9-0.9,27.3,24.6,44,21.8c5.4-0.9,10.4-4.8,15.7-3.5c5.4,1.3,8.1,7.4,8.6,12.9c0.5,5.5-0.5,11.2,1,16.5
			c4.1,14.4,22.7,18.4,32.7,29.6c6.8,7.6,9,18.2,11,28.2c2.5,12.4,4.7,26.4-2.3,37C432,301.1,423.9,305.3,419.5,312.5z"/>
		<path class="st19" d="M299.3,129c-86.4,0-156.5,70.1-156.5,156.5s70.1,156.5,156.5,156.5S455.8,372,455.8,285.6
			S385.7,129,299.3,129z M419.5,312.5c-8.7,13.8-2.4,35.5-15.7,44.9c-9.8,6.9-24.4,1.9-34.8,8.1c-12.2,7.3-12.5,26.4-24.2,34.5
			c-15.5,10.7-37.4-5.2-55.2,1.1c-13.7,4.9-23.1,22.5-37.5,20.1c-17.3-2.9-20.4-32.2-37.9-34c-4.7-0.5-9.5,1.3-14.2,0.6
			c-9.7-1.5-14.5-12.6-15.5-22.3c-1-9.7-0.2-20.3-5.6-28.5c-2.1-3.2-5-5.7-8.1-8.2c-9.2-1.7-17.2-9.3-19.1-18.6
			c-0.5-2.6-0.6-5.2-0.2-7.9l7.2-14.3c1.4-1.4,3-2.6,4.7-3.5c7.2-4.1,18.4-6.9,17.7-15.2c-0.4-5.2-5.8-8.6-7.4-13.5
			c-2.2-6.9,3.5-13.7,9.1-18.3c5.6-4.6,12.2-9.8,12.3-17.1c0.1-6.1-4.5-11.4-4.8-17.5c-0.4-8.9,8.5-15.5,17-18.1
			c8.5-2.6,18-3.2,25.3-8.4c10.8-7.7,16.2-24.8,29.5-25c11.8-0.2,19.7,14.1,31.5,14.6c12,0.4,20.5-13.7,32.5-14.4
			c16.9-0.9,27.3,24.6,44,21.8c5.4-0.9,10.4-4.8,15.7-3.5c5.4,1.3,8.1,7.4,8.6,12.9c0.5,5.5-0.5,11.2,1,16.5
			c4.1,14.4,22.7,18.4,32.7,29.6c6.8,7.6,9,18.2,11,28.2c2.5,12.4,4.7,26.4-2.3,37C432,301.1,423.9,305.3,419.5,312.5z"/>
	</g>
	<rect x="189.2" y="475.7" class="st20" width="221" height="6.6"/>
	<path class="st21" d="M271.9,452.8c-80.6-13.1-142.1-83-142.1-167.3c0-93.6,75.9-169.5,169.5-169.5S468.7,192,468.7,285.6
		c0,84.4-61.8,154.5-142.6,167.3"/>
	<polygon class="st3" points="307.7,111 290.5,111 285.9,82.5 311.8,82.5 	"/>
	<polygon class="st3" points="121.3,279.8 121.3,297 92.7,301.6 92.7,275.7 	"/>
	<polygon class="st3" points="472.9,297.5 472.9,280.3 501.4,275.7 501.4,301.6 	"/>
</g>
<polyline class="st20" points="364,456.9 371.6,453.2 227.5,453.2 236.2,456.9 "/>
</svg>
