<?xml version="1.0" encoding="utf-8"?>
<!-- Generator: Adobe Illustrator 28.0.0, SVG Export Plug-In . SVG Version: 6.00 Build 0)  -->
<svg version="1.1" id="_圖層_1" xmlns="http://www.w3.org/2000/svg" xmlns:xlink="http://www.w3.org/1999/xlink" x="0px" y="0px"
	 viewBox="0 0 595.3 595.3" style="enable-background:new 0 0 595.3 595.3;" xml:space="preserve">
<style type="text/css">
	.st0{fill:#FF9900;}
	.st1{fill:#FFCC80;}
	.st2{fill:#FFFFFF;}
</style>
<g id="Layer_1_11_">
</g>
<g>
	<g id="_x31_85_x2C__Building_x2C__Observatory_x2C__Planetarium">
		<g>
			<g>
				<rect x="247" y="428" class="st0" width="68.8" height="77.2"/>
				<path class="st1" d="M90.7,466.6h146.9v-43.3c0-2.3,2.3-4.6,4.7-4.6h78.1c2.3,0,4.7,2.3,4.7,4.6v43.3h146.1v-77.2H90.7V466.6z"
					/>
				<rect x="325.1" y="476.7" class="st0" width="146.9" height="29.3"/>
				<rect x="90.7" y="476.7" class="st0" width="146.9" height="29.3"/>
				<path class="st0" d="M454.8,210.2h69.5l-27.4-34c-1.6-1.5-1.6-4.6,0-6.2l27.4-34H472v54.1c0,2.3-2.3,4.6-4.7,4.6h-11.7v15.4
					H454.8z"/>
				<path class="st0" d="M405.6,265.8c-0.8,0-1.6-0.8-1.6-1.5H157.1L93.8,380.1h374.3L405.6,265.8z M168.8,355.4
					c0,2.3-2.3,4.6-4.7,4.6c-2.3,0-4.7-2.3-4.7-4.6v-19.3c0-2.3,2.3-4.6,4.7-4.6c2.3,0,4.7,2.3,4.7,4.6V355.4z M197.7,355.4
					c0,2.3-2.3,4.6-4.7,4.6s-4.7-2.3-4.7-4.6v-19.3c0-2.3,2.3-4.6,4.7-4.6s4.7,2.3,4.7,4.6V355.4z M227.4,355.4
					c0,2.3-2.3,4.6-4.7,4.6c-2.3,0-4.7-2.3-4.7-4.6v-19.3c0-2.3,2.3-4.6,4.7-4.6c2.3,0,4.7,2.3,4.7,4.6V355.4z M222,316.8
					c-5.5,0-10.2-4.6-10.2-10c0-5.4,4.7-10,10.2-10c5.5,0,10.2,4.6,10.2,10C232.1,312.1,227.4,316.8,222,316.8z M256.3,355.4
					c0,2.3-2.3,4.6-4.7,4.6s-4.7-2.3-4.7-4.6v-19.3c0-2.3,2.3-4.6,4.7-4.6s4.7,2.3,4.7,4.6V355.4z M251.7,316.8
					c-5.5,0-10.2-4.6-10.2-10c0-5.4,4.7-10,10.2-10c5.5,0,10.2,4.6,10.2,10C261.8,312.1,257.1,316.8,251.7,316.8z M286,355.4
					c0,2.3-2.3,4.6-4.7,4.6c-2.3,0-4.7-2.3-4.7-4.6v-19.3c0-2.3,2.3-4.6,4.7-4.6c2.3,0,4.7,2.3,4.7,4.6V355.4z M280.6,316.8
					c-5.5,0-10.2-4.6-10.2-10c0-5.4,4.7-10,10.2-10c5.5,0,10.2,4.6,10.2,10C290.7,312.1,286,316.8,280.6,316.8z M314.9,355.4
					c0,2.3-2.3,4.6-4.7,4.6c-2.3,0-4.7-2.3-4.7-4.6v-19.3c0-2.3,2.3-4.6,4.7-4.6c2.3,0,4.7,2.3,4.7,4.6V355.4z M310.3,316.8
					c-5.5,0-10.2-4.6-10.2-10c0-5.4,4.7-10,10.2-10c5.5,0,10.2,4.6,10.2,10C320.4,312.1,315.7,316.8,310.3,316.8z M344.6,355.4
					c0,2.3-2.3,4.6-4.7,4.6s-4.7-2.3-4.7-4.6v-19.3c0-2.3,2.3-4.6,4.7-4.6s4.7,2.3,4.7,4.6V355.4z M339.2,316.8
					c-5.5,0-10.2-4.6-10.2-10c0-5.4,4.7-10,10.2-10c5.5,0,10.2,4.6,10.2,10C349.3,312.1,344.6,316.8,339.2,316.8z M373.6,355.4
					c0,2.3-2.3,4.6-4.7,4.6c-2.3,0-4.7-2.3-4.7-4.6v-19.3c0-2.3,2.3-4.6,4.7-4.6c2.3,0,4.7,2.3,4.7,4.6V355.4z M403.2,355.4
					c0,2.3-2.3,4.6-4.7,4.6c-2.3,0-4.7-2.3-4.7-4.6v-19.3c0-2.3,2.3-4.6,4.7-4.6c2.3,0,4.7,2.3,4.7,4.6V355.4z"/>
				<path class="st0" d="M525.1,355.4c5.6,0,10.2,4.5,10.2,10c0,5.5-4.5,10-10.2,10c-5.6,0-10.2-4.5-10.2-10
					C515,359.9,519.5,355.4,525.1,355.4z"/>
				<path class="st0" d="M114.9,220.2c5.6,0,10.2,4.5,10.2,10c0,5.5-4.5,10-10.2,10s-10.2-4.5-10.2-10
					C104.8,224.7,109.3,220.2,114.9,220.2z"/>
				<path class="st0" d="M378.2,85c5.6,0,10.2,4.5,10.2,10c0,5.5-4.5,10-10.2,10c-5.6,0-10.2-4.5-10.2-10
					C368.1,89.5,372.6,85,378.2,85z"/>
				<path class="st0" d="M182.9,75c5.6,0,10.2,4.5,10.2,10c0,5.5-4.5,10-10.2,10c-5.6,0-10.2-4.5-10.2-10
					C172.7,79.5,177.3,75,182.9,75z"/>
				<path class="st0" d="M373.6,254.2c-1.6-30.1-18-57.2-43-72.6c-3.9,0.8-7.8-1.5-10.2-5.4c-10.2-4.6-20.3-7.7-32-8.5
					c-3.9,6.2-12.5,6.2-16.4,0c-10.9,0.8-21.9,3.9-32,8.5c-1.6,3.9-5.5,6.2-10.2,5.4c-24.2,15.4-41.4,41.7-43,72.6H373.6z"/>
				<rect x="417.3" y="119" class="st0" width="44.5" height="65.7"/>
				<path class="st0" d="M407.9,261.2c2.3,0,4.7-2.3,4.7-4.6V109.8c0-2.3-2.3-4.6-4.7-4.6c-2.3,0-4.7,2.3-4.7,4.6v146.8
					C403.2,258.8,404.8,261.2,407.9,261.2z"/>
				<path class="st1" d="M280.6,167.7c2.3,0,4.7-2.3,4.7-4.6v-48.7c0-2.3-2.3-4.6-4.7-4.6c-2.3,0-4.7,2.3-4.7,4.6v48.7
					C275.9,165.4,278.2,167.7,280.6,167.7z"/>
				<path class="st1" d="M329.8,177c2.3,0,4.7-2.3,4.7-4.6V85c0-2.3-2.3-4.6-4.7-4.6c-2.3,0-4.7,2.3-4.7,4.6v87.3
					C325.1,174.6,326.7,177,329.8,177z"/>
				<path class="st1" d="M232.1,177c2.3,0,4.7-2.3,4.7-4.6v-68c0-2.3-2.3-4.6-4.7-4.6s-4.7,2.3-4.7,4.6v68
					C227.4,174.6,229,177,232.1,177z"/>
			</g>
		</g>
	</g>
	<g id="Layer_1_8_">
	</g>
	<path class="st0" d="M145.1,174.4c-14.9,0-26.9-12-26.9-26.9s12-26.2,26.9-26.2c14.9,0,26.9,12,26.9,26.9
		C172,163.1,159.9,174.4,145.1,174.4z M145.1,139c-4.9,0-9.2,4.2-9.2,9.2c0,4.9,4.2,9.2,9.2,9.2s9.2-4.2,9.2-9.2
		C154.3,143.2,150,139,145.1,139z"/>
	<path class="st2" d="M145.1,130.5c9.9,0,17.7,7.8,17.7,17.7c0,9.9-7.8,17.7-17.7,17.7s-17.7-7.8-17.7-17.7
		C127.4,138.3,135.2,130.5,145.1,130.5z"/>
	<path class="st0" d="M479.1,298.4c-12.7,0-22.9-10.2-22.9-22.9s10.2-22.3,22.9-22.3s22.9,10.2,22.9,22.9
		C502,288.8,491.7,298.4,479.1,298.4z M479.1,268.3c-4.2,0-7.8,3.6-7.8,7.8c0,4.2,3.6,7.8,7.8,7.8s7.8-3.6,7.8-7.8
		S483.3,268.3,479.1,268.3z"/>
	<path class="st2" d="M479.1,261c8.4,0,15.1,6.6,15.1,15.1s-6.6,15.1-15.1,15.1s-15.1-6.6-15.1-15.1C464,267.7,470.7,261,479.1,261z
		"/>
</g>
</svg>
