<?xml version="1.0" encoding="utf-8"?>
<!-- Generator: Adobe Illustrator 27.6.1, SVG Export Plug-In . SVG Version: 6.00 Build 0)  -->
<svg version="1.1" id="_圖層_1" xmlns="http://www.w3.org/2000/svg" xmlns:xlink="http://www.w3.org/1999/xlink" x="0px" y="0px"
	 viewBox="0 0 595.3 595.3" style="enable-background:new 0 0 595.3 595.3;" xml:space="preserve">
<style type="text/css">
	.st0{fill:#FF9900;stroke:#FF9900;stroke-width:1.1032;stroke-miterlimit:10;}
	.st1{fill:#FF9900;stroke:#FF9900;stroke-width:3;stroke-miterlimit:10;}
	.st2{fill:#FF9900;stroke:#FF9900;stroke-width:2;stroke-miterlimit:10;}
	.st3{fill:#FF9900;}
	.st4{fill:#FFE0B2;stroke:#FF9900;stroke-width:11;stroke-linecap:round;stroke-linejoin:round;stroke-miterlimit:10;}
</style>
<g id="Layer_1_11_">
</g>
<g>
	<path class="st0" d="M458.1,276.6c-18.5,0-33.6-13-33.6-28.9c0-2.4,0.4-4.8,1-7.1h-36.9c-3.6,0-6.6-3-6.6-6.6V177
		c-2.6,0.9-5.3,1.3-8,1.3c-15.9,0-28.9-15.1-28.9-33.6s13-33.6,28.9-33.6c2.7,0,5.4,0.4,8,1.3V47.4c0-1.8,0.7-3.5,2-4.7
		c1.2-1.2,2.9-1.9,4.7-1.9c0,0,0.1,0,0.1,0c46.4,0.4,89.1,18.8,117.2,50.5c24.9,28.1,38.3,66.6,36.7,105.5
		c-0.5,12.7-3.3,25.6-8.6,39.5c-1,2.6-3.4,4.3-6.2,4.3h-37.2c0.7,2.3,1,4.7,1,7.1C491.7,263.6,476.6,276.6,458.1,276.6z
		 M395.3,227.3h41.6c2.6,0,5,1.6,6.1,4c1.1,2.4,0.5,5.3-1.3,7.2c-1.8,1.9-3.9,5-3.9,9.2c0,8.6,9.1,15.7,20.3,15.7s20.3-7,20.3-15.7
		c0-4.2-2.1-7.3-3.9-9.2c-1.8-1.9-2.4-4.7-1.3-7.2c1-2.4,3.4-4,6.1-4h43.9c3.8-10.9,5.8-21.1,6.2-31.1v0
		c1.4-35.6-10.7-70.6-33.4-96.2c-24.2-27.4-60.7-43.9-100.7-45.9v70.2c0,2.7-1.7,5.1-4.2,6.1c-2.4,1-5.4,0.4-7.2-1.6
		c-2-2.1-5.3-4.5-9.8-4.5c-8.6,0-15.7,9.1-15.7,20.3c0,11.2,7,20.3,15.7,20.3c4.5,0,7.8-2.5,9.8-4.5c1.9-2,4.8-2.6,7.2-1.6
		c2.5,1,4.2,3.4,4.2,6.1V227.3z"/>
	<g>
		<g>
			<path class="st1" d="M371.4,439h-84c-2.6,0-4.7-2.1-4.7-4.7v-44.8c0-1.9,1.2-3.7,3-4.4c1.8-0.7,3.9-0.3,5.2,1.1
				c2.2,2.3,6,5.1,11.1,5.1c9.7,0,17.6-10,17.6-22.2c0-12.2-7.9-22.2-17.6-22.2c-5.2,0-8.9,2.8-11.1,5.1c-1.3,1.4-3.4,1.9-5.2,1.1
				c-1.8-0.7-3-2.5-3-4.4v-53.4c0-2.6,2.1-4.7,4.7-4.7h48.2c1.9,0,3.6,1.1,4.4,2.9c0.8,1.7,0.4,3.8-0.9,5.1c-2.9,3-4.4,6.7-4.4,10.5
				c0,9.7,10,17.6,22.2,17.6c12.2,0,22.2-7.9,22.2-17.6c0-3.8-1.5-7.4-4.4-10.5c-1.3-1.4-1.7-3.4-0.9-5.1c0.7-1.7,2.5-2.9,4.4-2.9
				h48.5c1.6,0,3,0.8,3.9,2c0.9,1.3,1.1,2.9,0.5,4.4c-5.4,14.4-12.9,28.2-20.1,41.5l-3.5,6.4c-18.3,34.1-28.3,62.7-31.3,89.9
				C375.8,437.2,373.8,439,371.4,439z M292.1,429.5h75.1c3.7-27.2,13.9-55.6,31.9-89.1l3.5-6.4c6-11,12.1-22.4,17-33.9h-32.9
				c1.2,2.9,1.8,5.9,1.8,9c0,14.9-14.2,27-31.7,27c-17.5,0-31.7-12.1-31.7-27c0-3.1,0.6-6.1,1.8-9h-34.8v39.5
				c3.1-1.4,6.4-2.2,9.8-2.2c14.9,0,27,14.2,27,31.7c0,17.5-12.1,31.7-27,31.7c-3.4,0-6.7-0.7-9.8-2.2V429.5z"/>
			<path class="st1" d="M287.3,300.1h-49.9c-1.9,0-3.6-1.1-4.4-2.9c-0.8-1.7-0.4-3.8,0.9-5.1c2.9-3,4.4-6.6,4.4-10.5
				c0-9.7-10-17.6-22.2-17.6c-12.2,0-22.2,7.9-22.2,17.6c0,3.8,1.5,7.4,4.4,10.5c1.3,1.4,1.7,3.4,0.9,5.1c-0.7,1.7-2.5,2.9-4.4,2.9
				h-50.1c-2,0-3.7-1.2-4.4-3.1c-5.2-13.7-8-26.4-8.4-38.9c-1.6-38.5,11.7-76.4,36.2-104.2c28.2-31.8,70.9-49.9,117.5-49.9
				c0.6,0,1.1,0,1.6,0c2.6,0,4.7,2.1,4.7,4.7v77c0,1.9-1.2,3.7-3,4.4c-1.8,0.7-3.9,0.3-5.2-1.1c-2.2-2.3-6-5.1-11.2-5.1
				c-9.7,0-17.5,10-17.5,22.2s7.9,22.2,17.5,22.2c5.2,0,8.9-2.8,11.2-5.1c1.3-1.4,3.4-1.9,5.2-1.1c1.8,0.7,3,2.5,3,4.4v68.8
				C292.1,297.9,289.9,300.1,287.3,300.1z M246,290.6h36.5v-54.9c-3.1,1.4-6.4,2.2-9.8,2.2c-14.9,0-27-14.2-27-31.7
				s12.1-31.7,27-31.7c3.4,0,6.7,0.7,9.8,2.2v-63.1c-42.7,0.8-81.6,17.7-107.3,46.7c-23,25.9-35.3,61.5-33.9,97.5
				c0.4,10.5,2.6,21.3,6.7,32.9h38.1c-1.2-2.9-1.8-5.9-1.8-9c0-14.9,14.2-27,31.7-27c17.5,0,31.7,12.1,31.7,27
				C247.8,284.7,247.2,287.7,246,290.6z"/>
			<g>
				<path class="st2" d="M285.6,540.5C285.6,540.5,285.6,540.5,285.6,540.5c-25.4,0-57.3-6-70.9-22.8c-2.1-2.6-4.1-5.6-5.8-8.8
					c-1.4-2.6-2.7-5.4-3.8-8.3c-2.7-6.8-4.6-14.9-6-24.4c-0.4-2.3-0.6-4.6-0.9-6.9c-0.7-6-1.2-12.1-1.6-17.9
					c-0.4-4.8-0.7-9.5-1.2-13.9c-0.2-1.3,0.2-3.3,1.1-4.3c0.9-1,2.1-2.2,3.5-2.2h171.3c1.4,0,2.6,0.6,3.5,1.6c0.9,1,1.3,2.4,1.2,3.7
					c0,0-0.1,0.4-0.1,0.5c-0.5,5-0.9,9.7-1.3,14.5c-0.3,4.5-0.7,9-1.1,13.7c-0.2,2.4-0.5,4.9-0.8,7.3c-1.2,9.5-2.9,17.4-5.2,24.3
					c-0.9,2.8-1.9,5.5-3.1,8.2c-2.2,4.8-4.8,9.2-7.8,12.9C343.1,534.5,311.1,540.5,285.6,540.5z M205.3,440.7
					c0.3,3.2,0.6,6.6,0.8,10.1c0.4,5.7,0.9,11.6,1.6,17.5c0.2,2.2,0.5,4.4,0.9,6.5c1.3,8.9,3.1,16.2,5.5,22.5c0.9,2.5,2,4.9,3.2,7.1
					c1.5,2.7,3.1,5.1,4.8,7.3c9.4,11.7,34.4,19.2,63.5,19.2c0,0,0,0,0,0c29.2,0,54.2-7.6,63.6-19.2c2.5-3.1,4.7-6.7,6.6-10.8
					c1.1-2.3,2-4.7,2.8-7.1c2.1-6.3,3.6-13.6,4.8-22.5c0.3-2.3,0.6-4.7,0.8-7.1c0.5-4.6,0.8-9.1,1.1-13.5c0.3-3.5,0.5-6.8,0.8-10.1
					H205.3z"/>
				<path class="st2" d="M374.5,454.8H196.7c-3.9,0-7.1-3.2-7.1-7.1v-6.4c0-3.9,3.2-7.1,7.1-7.1h177.9c3.9,0,7.1,3.2,7.1,7.1v6.4
					C381.7,451.6,378.5,454.8,374.5,454.8z"/>
				<path class="st2" d="M368.9,464.7c-0.2,2.4-0.5,4.8-0.8,7.2c-26.7,6.6-54,10.3-81.6,10.9c-27,0.6-55.8-0.9-82.6-7.2
					c-0.3-2.2-0.6-4.5-0.9-6.7c27.7,4.4,55.1,8,83.5,7.3C314.3,475.4,341.9,471.5,368.9,464.7z"/>
				<path class="st2" d="M363.1,495.3c-0.8,2.6-1.8,5.2-2.9,7.6c-24.2,5.4-48.8,8.5-73.7,9c-23.9,0.5-49.2-0.5-73.4-5.2
					c-1.3-2.5-2.5-5-3.5-7.7c25.5,3.9,50.7,6.9,76.9,6.3C312.3,504.6,338,501.2,363.1,495.3z"/>
			</g>
		</g>
		<g>
			<path class="st3" d="M261,128.7c-2-2.8-4.6-3.5-8-3.5c-2.8,0-5.8,0.6-8.4,1.5c-5.4,1.7-10.5,4.2-15.5,6.8
				c-10.1,5.4-19.6,11.6-28.4,19c-8.5,7.1-16,15.6-21.8,25c-2.8,4.6-5.2,9.6-7.1,14.6c-0.9,2.4-1.7,4.8-2.3,7.3
				c-0.9,3.6-0.8,6.7-0.1,10.3c1,5.7,9.7,6.5,12.2,1.6c1.3-2.6,2.4-4.9,3.1-7.7c0.6-2.5,1.4-4.9,2.3-7.3c1.6-4.1,3.7-8.1,6-11.8
				c5.3-8.5,12.3-15.7,20-22.1c7.7-6.4,16.4-11.9,25.1-16.9c4.5-2.6,9-5.3,13.7-7.6c2.2-1.1,4.9-2.1,6.9-3.6
				C260.2,133.3,262.3,130.5,261,128.7z"/>
			<path class="st3" d="M180.6,226.8c-0.4-1.6-1.3-3-2.4-4.2c-0.6-0.5-1.3-1-1.9-1.5c-1.5-0.9-3.1-1.3-4.8-1.3
				c-1.3,0-2.5,0.2-3.6,0.8c-1.2,0.4-2.2,1-3,1.9c-0.9,0.9-1.6,1.9-1.9,3c-0.6,1.1-0.9,2.3-0.8,3.6c0.1,0.8,0.2,1.7,0.3,2.5
				c0.4,1.6,1.3,3,2.4,4.2c0.6,0.5,1.3,1,1.9,1.5c1.5,0.9,3.1,1.3,4.8,1.3c1.3,0,2.5-0.2,3.6-0.8c1.2-0.4,2.2-1,3-1.9
				c0.9-0.9,1.6-1.9,1.9-3c0.6-1.1,0.9-2.3,0.8-3.6C180.9,228.4,180.8,227.6,180.6,226.8z"/>
		</g>
	</g>
	<path class="st4" d="M259.8,369.1c0,14.9-10,26.9-22.3,26.9c-5.6,0-10.7-2.5-14.6-6.6v44.8h-87.3c-3.7-32.4-16.5-63-31.8-91.6
		c-8.4-15.6-17.2-31-23.3-47.4h50.1c-3.6-3.8-5.7-8.5-5.7-13.7c0-12.3,12.1-22.3,26.9-22.3c14.9,0,26.9,10,26.9,22.3
		c0,5.2-2.1,9.9-5.7,13.7h49.9v53.4c3.9-4.1,9-6.6,14.6-6.6C249.8,342.1,259.8,354.2,259.8,369.1z"/>
	<g>
		<path class="st3" d="M76.9,195.7c-2.5-10.7-10.2-19.5-20.2-23.5c10.1-4,17.7-12.7,20.2-23.5c2.5,10.7,10.2,19.5,20.2,23.5
			C87.1,176.2,79.4,184.9,76.9,195.7z"/>
		<path class="st3" d="M449.1,435.9c-2.5-10.7-10.2-19.5-20.2-23.5c10.1-4,17.7-12.7,20.2-23.5c2.5,10.7,10.2,19.5,20.2,23.5
			C459.3,416.4,451.6,425.1,449.1,435.9z"/>
		<path class="st3" d="M428.5,108.6c-1.7-7.1-6.7-12.9-13.4-15.5c6.7-2.7,11.7-8.4,13.4-15.5c1.7,7.1,6.7,12.9,13.4,15.5
			C435.2,95.7,430.2,101.5,428.5,108.6z"/>
		<path class="st3" d="M473.1,148.4c-2.6-10.9-10.4-19.8-20.6-23.9c10.2-4.1,18-13,20.6-23.9c2.6,10.9,10.4,19.8,20.6,23.9
			C483.4,128.6,475.6,137.5,473.1,148.4z"/>
		<path class="st3" d="M87.4,484.6c-2.6-10.9-10.4-19.8-20.6-23.9c10.2-4.1,18-13,20.6-23.9c2.6,10.9,10.4,19.8,20.6,23.9
			C97.8,464.8,90,473.7,87.4,484.6z"/>
		<path class="st3" d="M100.7,422.5c-1.4-6.1-5.8-11.1-11.6-13.4c5.8-2.3,10.1-7.3,11.6-13.4c1.4,6.1,5.8,11.1,11.6,13.4
			C106.5,411.4,102.1,416.4,100.7,422.5z"/>
		<path class="st3" d="M105,156.4c-0.9-4-3.8-7.3-7.6-8.8c3.8-1.5,6.7-4.8,7.6-8.8c0.9,4,3.8,7.3,7.6,8.8
			C108.9,149.1,106,152.4,105,156.4z"/>
		<path class="st3" d="M89.5,214.4c-0.9-4-3.8-7.3-7.6-8.8c3.8-1.5,6.7-4.8,7.6-8.8c0.9,4,3.8,7.3,7.6,8.8
			C93.3,207.1,90.4,210.3,89.5,214.4z"/>
		<path class="st3" d="M427.4,139.7c-0.9-4-3.8-7.3-7.6-8.8c3.8-1.5,6.7-4.8,7.6-8.8c0.9,4,3.8,7.3,7.6,8.8
			C431.2,132.4,428.4,135.7,427.4,139.7z"/>
	</g>
</g>
</svg>
