<?xml version="1.0" encoding="utf-8"?>
<!-- Generator: Adobe Illustrator 27.6.1, SVG Export Plug-In . SVG Version: 6.00 Build 0)  -->
<svg version="1.1" id="Layer_1" xmlns="http://www.w3.org/2000/svg" xmlns:xlink="http://www.w3.org/1999/xlink" x="0px" y="0px"
	 viewBox="0 0 1005.2 390.2" style="enable-background:new 0 0 1005.2 390.2;" xml:space="preserve">
<style type="text/css">
	.st0{fill:#034F91;}
</style>
<g>
	<g>
		<path class="st0" d="M398,176.1c3.2,0,5.8-2.6,5.8-5.8V41.6c0-3.2,2.6-5.8,5.8-5.8h23.6c3.1,0,7.5-2,9.6-4.4l23.6-27
			c1.2-1.4,1.4-2.7,0.7-3.5c-0.5-0.6-1.4-0.9-2.7-0.9H333.9c-3.2,0-7.5,2-9.6,4.4l-23.7,27c-1.3,1.5-1.4,2.8-0.6,3.6l0,0
			c0,0,0,0,0,0c0.5,0.5,1.4,0.7,2.6,0.7h54.6c3.2,0,5.8,2.6,5.8,5.8v4v124.7c0,1.4,0.5,2.8,1.4,3.8c0,0,0,0.1,0.1,0.1
			c0.1,0.1,0.3,0.3,0.4,0.4c1,0.9,2.4,1.5,3.9,1.5H398z"/>
		<path class="st0" d="M102.8,176.1h29.5c3.2,0,5.8-2.6,5.8-5.8V5.8c0-1.6-0.6-3-1.7-4.1c0,0,0,0,0,0h0c-1-1-2.5-1.7-4.1-1.7h-29.5
			C99.6,0,97,2.6,97,5.8v50.9c0,3.2-2.6,5.8-5.8,5.8h-40h-4.3c-3.2,0-5.8-2.6-5.8-5.8V5.8c0-1.4-0.5-2.7-1.4-3.7
			C38.6,0.8,37,0,35.3,0H5.8C2.6,0,0,2.6,0,5.8v164.6c0,1.5,0.6,2.9,1.6,4c1.1,1.1,2.5,1.8,4.2,1.8h29.4c3.2,0,5.8-2.6,5.8-5.8
			v-62.6c0-3.2,2.6-5.8,5.8-5.8h44.3c3.2,0,5.8,2.6,5.8,5.8v4.3v58.3c0,1.5,0.6,2.9,1.6,4C99.7,175.4,101.1,176.1,102.8,176.1"/>
		<path class="st0" d="M301.6,176.2c2.8,0,4.1-1.7,3.2-3.9c-0.1-0.3-0.3-0.7-0.5-1L250,87.4l-5.5-8.6c-1.7-2.7-1.4-6.8,0.6-9.2
			l56.9-65.2c1-1.1,1.3-2.2,1-3c-0.3-0.9-1.3-1.4-3-1.4h-37.4c-3.2,0-7.5,2-9.5,4.4l-42.3,50l-7,8.3c-2.1,2.4-3.7,1.8-3.7-1.4V5.8
			c0-1.4-0.5-2.6-1.3-3.6c-1.1-1.3-2.7-2.2-4.5-2.2h-28.5c-3.2,0-5.8,2.6-5.8,5.8v164.5c0,1.7,0.7,3.1,1.8,4.2c1.1,1,2.5,1.6,4,1.6
			h28.5c3.2,0,5.8-2.6,5.8-5.8v-43.8c0-3.2,1.8-7.7,3.9-10.1l6-6.6c2.1-2.4,5.3-2.1,7,0.6l5.6,8.8l33,51.9c0.4,0.6,0.9,1.2,1.6,1.8
			c2,1.8,4.9,3.1,7.3,3.1H301.6z"/>
	</g>
	<g>
		<path class="st0" d="M175.2,390.2c9.6,0,21.7-3.3,30-8.1l0.5-0.3l1.8,4.5H229V207.1h-30.5v61l-0.7-0.3c-6.1-2.6-15.8-4.5-22.6-4.5
			c-20.4,0-34.4,5.3-42.8,16.3c-7.7,10-11.2,24.9-11.2,47.2c0,22.1,3.6,37.1,11.2,47.1C140.8,384.9,154.8,390.2,175.2,390.2z
			 M175.6,292.4c10.2,0,19.2,3.2,22.5,4.6l0.3,0.1v59.2l-0.3,0.1c-3.4,1.4-12.3,4.6-22.5,4.6c-20.5,0-23.3-16.5-23.3-34.3
			C152.3,308.9,155.2,292.4,175.6,292.4z"/>
		<path class="st0" d="M303.4,390.2c10.7,0,25.5-4.5,32.5-7.7l0.4-0.2l2,4h21.6V267.2h-31v88.5l-0.3,0.1c-1.4,0.5-13.6,5.3-25.2,5.3
			c-10.7,0-16.5-5.4-16.5-15.1v-78.8h-31V346C255.8,377,270,390.2,303.4,390.2z"/>
		<path class="st0" d="M475.5,299.9v-29.3c-12.9-6-28.3-7.3-38.9-7.3c-36.7,0-53.8,20.2-53.8,63.4s17.1,63.4,53.8,63.4
			c10.7,0,26-1.3,38.9-7.3v-29.3c-14.1,5.1-26.5,7.5-38.9,7.5c-20,0-22.6-18.4-22.6-34.3c0-16,2.6-34.4,22.6-34.4
			C449.1,292.4,461.5,294.8,475.5,299.9z"/>
		<path class="st0" d="M540.9,390.2c8.2,0,19.7-3,28.6-7.4l0.4-0.2l2,3.8h21.6v-79.5c0-21.5-5.6-43.5-47.3-43.5
			c-9.5,0-27.4,0.9-41.8,7.1v29.5c13.4-4.6,29.7-7.5,41.8-7.5c11.5,0,16.6,4,16.6,13v0.4l-21.8,1.5c-37.2,2.4-45,23.3-45,40.4
			C495.9,363.6,501.8,390.2,540.9,390.2z M541.5,334.2L541.5,334.2l21.2-1.7v22.7l-0.3,0.1c-4.7,2.3-14.2,5.8-21.1,5.8
			c-9.6,0-14.4-4.5-14.4-13.4C526.9,342.1,529.4,335.3,541.5,334.2z"/>
		<path class="st0" d="M670.2,390.2l0.5,0c2.3,0,8.2,0.1,17.5-2.1v-28.4c-4.5,0.7-12.3,1.4-16.3,1.4c-5.2,0-12-0.8-12-7.9v-58.4
			h33.1v-27.6h-33.1v-35.6l-30.5,8.4v28.1l-0.3,0.1l-20.6,5.9v20.8h20.9v60.1C629.4,371.2,640.1,390.2,670.2,390.2z"/>
		<g>
			<path class="st0" d="M731.1,209.5c-10.5,0-19,8.6-19,19.2c0,10.5,8.5,19,19,19c10.6,0,19.2-8.5,19.2-19
				C750.3,218.2,741.7,209.5,731.1,209.5z"/>
			<path class="st0" d="M746.5,390.2h8.2v-29.1c-6.1-0.1-8.7-2.2-8.7-7.2v-86.7h-30.5v92C715.5,380.9,724.7,390.2,746.5,390.2z"/>
		</g>
		<path class="st0" d="M826.5,263.4c-20.6,0-34.7,5.8-43.1,17.7c-7.1,10-10.5,24.6-10.5,45.7s3.3,35.7,10.5,45.7
			c8.5,11.9,22.6,17.7,43.1,17.7c47.1,0,53.6-30.5,53.6-63.4S873.5,263.4,826.5,263.4z M826.5,361.1c-21.1,0-22.8-16.2-22.8-34.3
			c0-18.1,1.7-34.4,22.8-34.4c21.1,0,22.8,17,22.8,34.4C849.3,344.2,847.5,361.1,826.5,361.1z"/>
		<path class="st0" d="M974.2,307.6v78.8h31v-78.8c0-31-14.2-44.2-47.6-44.2c-10.7,0-25.4,4.5-32.5,7.6l-0.4,0.2l-2-4h-21.6v119.2
			h31v-88.5l0.3-0.1c1.4-0.5,13.7-5.3,25.1-5.3C968.4,292.4,974.2,297.8,974.2,307.6z"/>
		<path class="st0" d="M102.3,326.7c0-8.4-0.5-16.6-1.6-24.2c-1-7.6-3.3-14.4-6.7-20.1c-3.4-5.7-8.3-10.4-14.6-13.9
			c-6.3-3.5-15-5.2-25.7-5.2c-10.1,0-18.7,1.6-25.6,4.6c-6.9,3.1-12.4,7.4-16.5,12.9c-4.1,5.5-7.1,12.3-8.9,20
			C0.9,308.6,0,317.3,0,326.7c0,9.4,0.9,18.1,2.8,25.8c1.8,7.7,4.8,14.5,8.9,20c4.1,5.5,9.6,9.9,16.5,12.9
			c6.9,3.1,15.5,4.6,25.6,4.6c2.8,0,6.1-0.1,9.7-0.4c3.5-0.2,7.3-0.6,11.1-1.2c3.8-0.6,7.7-1.4,11.5-2.4c3.7-1,7.1-2.3,10.2-3.8
			v-30.2c-7.1,3.1-14.2,5.3-21.2,6.7c-7.1,1.4-14.3,2.2-21.4,2.2c-7.3,0-12.7-1.9-16-5.7c-3.3-3.7-5.1-8.3-5.4-13.5l0-0.5h69.9
			V326.7z M32.1,313.4l0.1-0.6c1-5.8,3-10.7,6.1-14.6c3.1-3.9,8.3-5.9,15.5-5.9c3.3,0,6,0.6,8.2,1.7c2.1,1.2,3.9,2.7,5.1,4.6
			c1.2,1.9,2.1,4.1,2.6,6.5c0.5,2.4,0.8,5,1,7.8l0,0.5H32.1z"/>
	</g>
</g>
</svg>
