<?xml version="1.0" encoding="utf-8"?>
<!-- Generator: Adobe Illustrator 27.6.1, SVG Export Plug-In . SVG Version: 6.00 Build 0)  -->
<svg version="1.1" id="Layer_1" xmlns="http://www.w3.org/2000/svg" xmlns:xlink="http://www.w3.org/1999/xlink" x="0px" y="0px"
	 viewBox="0 0 352.1 142.2" style="enable-background:new 0 0 352.1 142.2;" xml:space="preserve">
<style type="text/css">
	.st0{fill:#00418E;}
	.st1{fill:#00C0F3;}
</style>
<g>
	<g>
		<path class="st0" d="M139,62.8c1.1,0,2-0.9,2-2V16.2c0-1.1,0.9-2,2-2h8.2c1.1,0,2.6-0.7,3.3-1.5l8.2-9.4c0.4-0.5,0.5-0.9,0.2-1.2
			c-0.2-0.2-0.5-0.3-0.9-0.3h-45.3c-1.1,0-2.6,0.7-3.3,1.5l-8.2,9.4c-0.4,0.5-0.5,1-0.2,1.2l0,0c0,0,0,0,0,0
			c0.2,0.2,0.5,0.3,0.9,0.3h18.9c1.1,0,2,0.9,2,2v1.4v43.2c0,0.5,0.2,1,0.5,1.3c0,0,0,0,0,0c0.1,0.1,0.1,0.1,0.1,0.1
			c0.4,0.3,0.8,0.5,1.3,0.5H139z"/>
		<path class="st0" d="M36.6,62.8h10.2c1.1,0,2-0.9,2-2v-57c0-0.6-0.2-1.1-0.6-1.4c0,0,0,0,0,0h0c-0.4-0.4-0.9-0.6-1.4-0.6H36.6
			c-1.1,0-2,0.9-2,2v17.6c0,1.1-0.9,2-2,2H18.7h-1.5c-1.1,0-2-0.9-2-2V3.8c0-0.5-0.2-0.9-0.5-1.3c-0.4-0.4-0.9-0.7-1.5-0.7H3
			c-1.1,0-2,0.9-2,2v57c0,0.5,0.2,1,0.6,1.4c0.4,0.4,0.9,0.6,1.5,0.6h10.2c1.1,0,2-0.9,2-2V39.1c0-1.1,0.9-2,2-2h15.4
			c1.1,0,2,0.9,2,2v1.5v20.2c0,0.5,0.2,1,0.6,1.4C35.5,62.6,36.1,62.8,36.6,62.8"/>
		<path class="st0" d="M105.6,62.8c1,0,1.4-0.6,1.1-1.3c0-0.1-0.1-0.2-0.2-0.3L87.7,32l-1.9-3c-0.6-0.9-0.5-2.4,0.2-3.2l19.7-22.6
			c0.3-0.4,0.4-0.8,0.3-1c-0.1-0.3-0.5-0.5-1-0.5h-13c-1.1,0-2.6,0.7-3.3,1.5L74.1,20.6l-2.4,2.9c-0.7,0.8-1.3,0.6-1.3-0.5V3.8
			c0-0.5-0.2-0.9-0.5-1.3C69.5,2,69,1.8,68.3,1.8h-9.9c-1.1,0-2,0.9-2,2v57c0,0.6,0.2,1.1,0.6,1.5c0.4,0.3,0.9,0.6,1.4,0.6h9.9
			c1.1,0,2-0.9,2-2V45.6c0-1.1,0.6-2.7,1.3-3.5l2.1-2.3c0.7-0.8,1.8-0.7,2.4,0.2l1.9,3.1l11.4,18c0.1,0.2,0.3,0.4,0.5,0.6
			c0.7,0.6,1.7,1.1,2.5,1.1H105.6z"/>
	</g>
	<g>
		<path class="st1" d="M61.7,137c3.3,0,7.5-1.1,10.4-2.8l0.2-0.1l0.6,1.6h7.5V73.5H69.8v21.2l-0.2-0.1c-2.1-0.9-5.5-1.6-7.8-1.6
			c-7.1,0-11.9,1.8-14.8,5.6c-2.7,3.5-3.9,8.6-3.9,16.3c0,7.7,1.2,12.9,3.9,16.3C49.8,135.2,54.7,137,61.7,137z M61.9,103.1
			c3.5,0,6.6,1.1,7.8,1.6l0.1,0v20.5l-0.1,0c-1.2,0.5-4.3,1.6-7.8,1.6c-7.1,0-8.1-5.7-8.1-11.9C53.8,108.8,54.8,103.1,61.9,103.1z"
			/>
		<path class="st1" d="M106.2,137c3.7,0,8.8-1.6,11.3-2.7l0.1-0.1l0.7,1.4h7.5V94.4H115V125l-0.1,0c-0.5,0.2-4.7,1.8-8.7,1.8
			c-3.7,0-5.7-1.9-5.7-5.2V94.4H89.7v27.3C89.7,132.4,94.6,137,106.2,137z"/>
		<path class="st1" d="M165.8,105.7V95.6c-4.5-2.1-9.8-2.5-13.5-2.5c-12.7,0-18.7,7-18.7,22s5.9,22,18.7,22c3.7,0,9-0.4,13.5-2.5
			v-10.2c-4.9,1.8-9.2,2.6-13.5,2.6c-6.9,0-7.8-6.4-7.8-11.9c0-5.5,0.9-11.9,7.8-11.9C156.7,103.1,161,103.9,165.8,105.7z"/>
		<path class="st1" d="M188.5,137c2.8,0,6.8-1,9.9-2.6l0.1-0.1l0.7,1.3h7.5v-27.6c0-7.5-1.9-15.1-16.4-15.1c-3.3,0-9.5,0.3-14.5,2.4
			v10.2c4.7-1.6,10.3-2.6,14.5-2.6c4,0,5.7,1.4,5.7,4.5v0.2l-7.6,0.5c-12.9,0.8-15.6,8.1-15.6,14C172.9,127.8,174.9,137,188.5,137z
			 M188.7,117.6L188.7,117.6l7.3-0.6v7.9l-0.1,0c-1.6,0.8-4.9,2-7.3,2c-3.3,0-5-1.6-5-4.7C183.7,120.3,184.5,118,188.7,117.6z"/>
		<path class="st1" d="M233.3,137l0.2,0c0.8,0,2.9,0,6.1-0.7v-9.8c-1.5,0.2-4.3,0.5-5.7,0.5c-1.8,0-4.2-0.3-4.2-2.7v-20.2h11.5v-9.6
			h-11.5V82l-10.6,2.9v9.7l-0.1,0l-7.1,2v7.2h7.2v20.8C219.2,130.4,222.9,137,233.3,137z"/>
		<g>
			<path class="st1" d="M254.4,74.4c-3.6,0-6.6,3-6.6,6.7c0,3.6,3,6.6,6.6,6.6c3.7,0,6.7-3,6.7-6.6
				C261.1,77.4,258.1,74.4,254.4,74.4z"/>
			<path class="st1" d="M259.8,137h2.8v-10.1c-2.1,0-3-0.8-3-2.5V94.4H249v31.9C249,133.8,252.2,137,259.8,137z"/>
		</g>
		<path class="st1" d="M287.5,93c-7.1,0-12,2-15,6.1c-2.5,3.5-3.6,8.5-3.6,15.9c0,7.3,1.2,12.4,3.6,15.9c2.9,4.1,7.8,6.1,15,6.1
			c16.3,0,18.6-10.6,18.6-22S303.8,93,287.5,93z M287.5,126.9c-7.3,0-7.9-5.6-7.9-11.9c0-6.3,0.6-11.9,7.9-11.9
			c7.3,0,7.9,5.9,7.9,11.9C295.4,121.1,294.8,126.9,287.5,126.9z"/>
		<path class="st1" d="M338.7,108.4v27.3h10.7v-27.3c0-10.7-4.9-15.3-16.5-15.3c-3.7,0-8.8,1.6-11.3,2.7l-0.1,0.1l-0.7-1.4h-7.5
			v41.3h10.8V105l0.1,0c0.5-0.2,4.7-1.8,8.7-1.8C336.7,103.1,338.7,105,338.7,108.4z"/>
		<path class="st1" d="M36.5,115c0-2.9-0.2-5.7-0.5-8.4c-0.4-2.6-1.1-5-2.3-7c-1.2-2-2.9-3.6-5.1-4.8c-2.2-1.2-5.2-1.8-8.9-1.8
			c-3.5,0-6.5,0.5-8.9,1.6c-2.4,1.1-4.3,2.6-5.7,4.5C3.6,101,2.6,103.3,2,106c-0.6,2.7-1,5.7-1,9c0,3.2,0.3,6.3,1,9
			c0.6,2.7,1.7,5,3.1,6.9c1.4,1.9,3.3,3.4,5.7,4.5c2.4,1.1,5.4,1.6,8.9,1.6c1,0,2.1,0,3.4-0.1c1.2-0.1,2.5-0.2,3.9-0.4
			c1.3-0.2,2.7-0.5,4-0.8c1.3-0.3,2.5-0.8,3.5-1.3v-10.5c-2.5,1.1-4.9,1.8-7.3,2.3c-2.5,0.5-5,0.8-7.4,0.8c-2.5,0-4.4-0.7-5.5-2
			c-1.1-1.3-1.8-2.9-1.9-4.7l0-0.2h24.2V115z M12.1,110.4l0-0.2c0.3-2,1-3.7,2.1-5.1c1.1-1.4,2.9-2.1,5.4-2.1c1.1,0,2.1,0.2,2.8,0.6
			c0.7,0.4,1.3,0.9,1.8,1.6c0.4,0.7,0.7,1.4,0.9,2.3c0.2,0.8,0.3,1.7,0.3,2.7l0,0.2H12.1z"/>
	</g>
</g>
</svg>
