<?xml version="1.0" encoding="utf-8"?>
<!-- Generator: Adobe Illustrator 26.3.1, SVG Export Plug-In . SVG Version: 6.00 Build 0)  -->
<svg version="1.1" id="Layer_1" xmlns="http://www.w3.org/2000/svg" xmlns:xlink="http://www.w3.org/1999/xlink" x="0px" y="0px"
	 viewBox="0 0 503.7 117.6" style="enable-background:new 0 0 503.7 117.6;" xml:space="preserve">
<style type="text/css">
	.st0{fill:url(#SVGID_1_);}
	.st1{fill:url(#SVGID_00000023242835168181765470000010728387258891374496_);}
	.st2{fill:url(#SVGID_00000106115062022966873560000013802872818145998012_);}
	.st3{fill:#231F20;}
</style>
<g>
	
		<linearGradient id="SVGID_1_" gradientUnits="userSpaceOnUse" x1="-10.6679" y1="-120.228" x2="54.7338" y2="-52.5025" gradientTransform="matrix(0.9955 -9.522516e-02 9.522516e-02 0.9955 47.5597 106.5919)">
		<stop  offset="0" style="stop-color:#00E1C8"/>
		<stop  offset="0.2403" style="stop-color:#21AFD4"/>
		<stop  offset="0.7857" style="stop-color:#7333F3"/>
		<stop  offset="1" style="stop-color:#9500FF"/>
	</linearGradient>
	<path class="st0" d="M115.4,25.5l-89.1,8.3c-1.3,0.1-2.6-0.3-3.5-1.1L4.3,17.9c-2.5-2.2-0.9-6.1,2.8-6.4l89.1-8.3
		c1.3-0.1,2.6,0.3,3.5,1.1l18.5,14.8C120.7,21.4,119.1,25.2,115.4,25.5z"/>
	
		<linearGradient id="SVGID_00000140733203008372867510000012505513234028559002_" gradientUnits="userSpaceOnUse" x1="-26.1413" y1="42.0644" x2="3.0815" y2="-8.5509" gradientTransform="matrix(0.9997 -2.511228e-02 2.511228e-02 0.9997 69.3594 84.4492)">
		<stop  offset="0" style="stop-color:#00E1C8"/>
		<stop  offset="0.2403" style="stop-color:#21AFD4"/>
		<stop  offset="0.7857" style="stop-color:#7333F3"/>
		<stop  offset="1" style="stop-color:#9500FF"/>
	</linearGradient>
	<path style="fill:url(#SVGID_00000140733203008372867510000012505513234028559002_);" d="M111.7,112.1l-89.5,2.3
		c-1.3,0-2.6-0.5-3.4-1.3l-17.3-16c-2.3-2.4-0.4-6.1,3.2-6.2l89.5-2.3c1.3,0,2.6,0.5,3.4,1.3l17.3,16
		C117.3,108.3,115.4,112,111.7,112.1z"/>
	
		<linearGradient id="SVGID_00000019641786419218782340000015264102130439732878_" gradientUnits="userSpaceOnUse" x1="40.0528" y1="42.3427" x2="97.5584" y2="-15.1629" gradientTransform="matrix(0.9995 -3.088631e-02 3.088631e-02 0.9995 -6.7129 48.389)">
		<stop  offset="0" style="stop-color:#00E1C8"/>
		<stop  offset="0.2403" style="stop-color:#21AFD4"/>
		<stop  offset="0.7857" style="stop-color:#7333F3"/>
		<stop  offset="1" style="stop-color:#9500FF"/>
	</linearGradient>
	<path style="fill:url(#SVGID_00000019641786419218782340000015264102130439732878_);" d="M19.3,73.1l70.3-2.1
		c1.3,0,2.5-0.6,3.3-1.5l16.4-16.9c2.2-2.5,0.1-6.1-3.6-6l-70.3,2.1c-1.3,0-2.5,0.6-3.3,1.5L15.7,67.1
		C13.5,69.6,15.6,73.2,19.3,73.1z"/>
</g>
<g>
	<path class="st3" d="M181.6,45.1c-1.5-1.9-3.5-3.5-6-4.7c-2.9-1.4-6-2.1-9.2-2.1c-3.5,0-6.7,0.6-9.6,1.8c-2.8,1.2-5.3,2.9-7.3,5.1
		c-2,2.1-3.6,4.7-4.7,7.6c-1.1,2.9-1.6,6.1-1.6,9.4c0,3.4,0.5,6.5,1.6,9.4c1.1,2.9,2.7,5.4,4.7,7.6c2,2.2,4.5,3.9,7.3,5.1
		c2.8,1.2,6.1,1.8,9.6,1.8c3.1,0,6.1-0.7,9-2c2.5-1.2,4.6-2.8,6.2-4.7v5.6h9.5V13.5l-9.5,6.5V45.1z M180.6,68.4
		c-0.7,1.8-1.6,3.4-2.8,4.7c-1.2,1.3-2.7,2.3-4.4,3.1c-1.7,0.8-3.7,1.1-5.9,1.1c-2.2,0-4.2-0.4-5.9-1.1c-1.7-0.8-3.2-1.8-4.4-3.1
		c-1.2-1.3-2.1-2.9-2.8-4.7c-0.7-1.8-1-3.9-1-6.1c0-2.2,0.3-4.2,1-6.1c0.7-1.8,1.6-3.4,2.8-4.7c1.2-1.3,2.7-2.3,4.4-3.1
		c1.7-0.8,3.7-1.1,5.9-1.1c2.2,0,4.2,0.4,5.9,1.1c1.7,0.8,3.2,1.8,4.4,3.1c1.2,1.3,2.1,2.9,2.8,4.7c0.7,1.9,1,3.9,1,6.1
		C181.6,64.5,181.3,66.5,180.6,68.4z"/>
	<path class="st3" d="M261.7,45.1c-1.6-2-3.7-3.6-6.2-4.7c-2.9-1.3-5.9-2-9-2c-3.5,0-6.7,0.6-9.6,1.8c-2.8,1.2-5.3,2.9-7.3,5.1
		c-2,2.2-3.6,4.7-4.7,7.6c-1.1,2.9-1.6,6-1.6,9.3c0,3.3,0.6,6.4,1.7,9.3c1.1,2.8,2.8,5.3,4.8,7.4c2,2.1,4.5,3.7,7.4,4.9
		c2.8,1.2,6,1.8,9.3,1.8c3.1,0,6.2-0.7,9-2c2.5-1.2,4.6-2.9,6.2-5.2v5.3c0,1.8-0.2,3.7-0.7,5.5c-0.5,1.8-1.3,3.4-2.5,4.7
		c-1.2,1.4-2.8,2.5-4.8,3.4c-2,0.9-4.6,1.3-7.6,1.3c-3.2,0-6-0.6-8.5-1.8c-2.5-1.2-4.9-3-7-5.3l-0.4-0.4l-6.4,8l0.3,0.3
		c3.2,3,6.7,5.1,10.3,6.3c3.6,1.2,7.6,1.8,11.9,1.8c3.7,0,7.1-0.6,10.2-1.7c3.1-1.1,5.7-2.8,7.9-4.9c2.2-2.1,3.9-4.6,5.1-7.4
		c1.2-2.8,1.8-6,1.8-9.5V39.5h-9.5V45.1z M257.9,72.8c-2.5,2.6-6,3.9-10.4,3.9s-7.8-1.3-10.4-3.9c-2.5-2.6-3.8-6.2-3.8-10.5
		c0-2.2,0.3-4.2,1-6.1c0.7-1.8,1.6-3.4,2.8-4.7c1.2-1.3,2.7-2.3,4.4-3.1c1.7-0.8,3.7-1.1,5.9-1.1c2.2,0,4.2,0.4,5.9,1.1
		c1.7,0.8,3.2,1.8,4.4,3.1c1.2,1.3,2.1,2.9,2.8,4.7c0.7,1.9,1,3.9,1,6.1C261.7,66.6,260.4,70.2,257.9,72.8z"/>
	<polygon class="st3" points="346.1,39.5 334.6,39.5 324.2,54.9 313.6,39.5 301.4,39.5 317.6,60.8 299.2,85.1 310.9,85.1 
		323.8,66.7 336.7,85.1 348.9,85.1 330.5,60.8 	"/>
	<path class="st3" d="M392.4,46c-1.8-2.3-4.1-4.1-6.9-5.5c-2.8-1.4-6.2-2.1-10.2-2.1c-3.4,0-6.5,0.6-9.4,1.8
		c-2.9,1.2-5.4,2.9-7.5,5.1c-2.1,2.1-3.7,4.7-4.9,7.6c-1.2,2.9-1.8,6.1-1.8,9.5c0,3.4,0.5,6.6,1.6,9.4c1.1,2.9,2.7,5.5,4.7,7.6
		c2,2.1,4.5,3.8,7.4,5.1c2.9,1.2,6.2,1.8,9.7,1.8c8.6,0,15.4-3.1,20.2-9.3l0.3-0.4l-7.2-5.5l-0.3,0.4c-1.6,2-3.4,3.5-5.2,4.7
		c-1.9,1.2-4.1,1.8-6.6,1.8c-1.9,0-3.7-0.3-5.5-0.9c-1.8-0.6-3.3-1.5-4.6-2.5c-1.3-1.1-2.4-2.4-3.2-3.9c-0.7-1.4-1.1-2.9-1.2-4.6
		h35.7v-3.5c0-2.9-0.4-5.8-1.2-8.7C395.5,50.9,394.2,48.3,392.4,46z M361.8,58.1c0.1-1.3,0.4-2.6,0.9-3.9c0.6-1.5,1.5-2.8,2.7-4
		c1.1-1.2,2.6-2.2,4.2-2.9c1.7-0.8,3.5-1.1,5.5-1.1c2.1,0,3.9,0.3,5.4,1c1.5,0.6,2.8,1.5,3.8,2.6c1,1.1,1.8,2.4,2.3,3.9
		c0.5,1.4,0.7,2.9,0.8,4.5H361.8z"/>
	<path class="st3" d="M493.8,39.5v23.5c0,2.5-0.3,4.7-0.9,6.5c-0.6,1.8-1.5,3.3-2.5,4.5c-1.1,1.2-2.3,2-3.8,2.6
		c-1.4,0.5-3,0.8-4.7,0.8c-1.3,0-2.5-0.2-3.7-0.6c-1.1-0.4-2.2-1-3.1-1.9c-0.9-0.9-1.6-2-2.1-3.4c-0.5-1.4-0.8-3.1-0.8-5.1V39.5
		h-9.5v29.2c0,3,0.5,5.6,1.4,7.9c0.9,2.2,2.1,4.1,3.7,5.5c1.5,1.4,3.3,2.5,5.3,3.2c2,0.7,4.1,1,6.4,1c3.5,0,6.7-0.8,9.4-2.3
		c2.2-1.2,3.8-2.8,5-4.6v5.7h9.5V39.5H493.8z"/>
	<polygon class="st3" points="203.1,47.5 213.5,40.5 213.5,39.3 203.1,39.3 	"/>
	<polygon class="st3" points="203.1,85.6 213.5,85.6 213.5,42.2 203.1,49.3 	"/>
	<polygon class="st3" points="280.2,47.5 290.6,40.5 290.6,39.3 280.2,39.3 	"/>
	<polygon class="st3" points="280.2,85.6 290.6,85.6 290.6,42.2 280.2,49.3 	"/>
	<path class="st3" d="M443.2,45.1c-1.5-1.9-3.5-3.5-6-4.7c-2.9-1.4-6-2.1-9.2-2.1c-3.5,0-6.7,0.6-9.6,1.8c-2.8,1.2-5.3,2.9-7.3,5.1
		c-2,2.1-3.6,4.7-4.7,7.6c-1.1,2.9-1.6,6.1-1.6,9.4c0,3.4,0.5,6.5,1.6,9.4c1.1,2.9,2.7,5.4,4.7,7.6c2,2.2,4.5,3.9,7.3,5.1
		c2.8,1.2,6.1,1.8,9.6,1.8c3.1,0,6.1-0.7,9-2c2.5-1.2,4.6-2.8,6.2-4.7v5.6h9.5V13.5l-9.5,6.5V45.1z M442.2,68.4
		c-0.7,1.8-1.6,3.4-2.8,4.7c-1.2,1.3-2.7,2.3-4.4,3.1c-1.7,0.8-3.7,1.1-5.9,1.1c-2.2,0-4.2-0.4-5.9-1.1c-1.7-0.8-3.2-1.8-4.4-3.1
		c-1.2-1.3-2.1-2.9-2.8-4.7c-0.7-1.8-1-3.9-1-6.1c0-2.2,0.3-4.2,1-6.1c0.7-1.8,1.6-3.4,2.8-4.7c1.2-1.3,2.7-2.3,4.4-3.1
		c1.7-0.8,3.7-1.1,5.9-1.1c2.2,0,4.2,0.4,5.9,1.1c1.7,0.8,3.2,1.8,4.4,3.1c1.2,1.3,2.1,2.9,2.8,4.7c0.7,1.9,1,3.9,1,6.1
		C443.2,64.5,442.9,66.5,442.2,68.4z"/>
</g>
</svg>
