<?xml version="1.0" encoding="utf-8"?>
<!-- Generator: Adobe Illustrator 26.3.1, SVG Export Plug-In . SVG Version: 6.00 Build 0)  -->
<svg version="1.1" id="Layer_1" xmlns="http://www.w3.org/2000/svg" xmlns:xlink="http://www.w3.org/1999/xlink" x="0px" y="0px"
	 viewBox="0 0 505.9 111.2" style="enable-background:new 0 0 505.9 111.2;" xml:space="preserve">
<style type="text/css">
	.st0{fill:#FFFFFF;}
</style>
<g>
	<path class="st0" d="M114.9,22.3l-89.1,8.3c-1.3,0.1-2.6-0.3-3.5-1.1L3.8,14.7C1.3,12.5,3,8.6,6.6,8.3L95.7,0
		c1.3-0.1,2.6,0.3,3.5,1.1l18.5,14.8C120.2,18.2,118.5,22,114.9,22.3z"/>
	<path class="st0" d="M111.2,108.9l-89.5,2.3c-1.3,0-2.6-0.5-3.4-1.3L1,93.9c-2.3-2.4-0.4-6.1,3.2-6.2l89.5-2.3
		c1.3,0,2.6,0.5,3.4,1.3l17.3,16C116.8,105.1,114.9,108.8,111.2,108.9z"/>
	<path class="st0" d="M18.8,69.9L89,67.8c1.3,0,2.5-0.6,3.3-1.5l16.4-16.9c2.2-2.5,0.1-6.1-3.6-6l-70.3,2.1c-1.3,0-2.5,0.6-3.3,1.5
		L15.2,63.9C13,66.4,15.1,70,18.8,69.9z"/>
</g>
<g>
	<path class="st0" d="M181.1,41.9c-1.5-1.9-3.5-3.5-6-4.7c-2.9-1.4-6-2.1-9.2-2.1c-3.5,0-6.7,0.6-9.6,1.8c-2.8,1.2-5.3,2.9-7.3,5.1
		c-2,2.1-3.6,4.7-4.7,7.6c-1.1,2.9-1.6,6.1-1.6,9.4c0,3.4,0.5,6.5,1.6,9.4c1.1,2.9,2.7,5.4,4.7,7.6c2,2.2,4.5,3.9,7.3,5.1
		c2.8,1.2,6.1,1.8,9.6,1.8c3.1,0,6.1-0.7,9-2c2.5-1.2,4.6-2.8,6.2-4.7v5.6h9.5V10.3l-9.5,6.5V41.9z M180.1,65.2
		c-0.7,1.8-1.6,3.4-2.8,4.7c-1.2,1.3-2.7,2.3-4.4,3.1c-1.7,0.8-3.7,1.1-5.9,1.1c-2.2,0-4.2-0.4-5.9-1.1c-1.7-0.8-3.2-1.8-4.4-3.1
		c-1.2-1.3-2.1-2.9-2.8-4.7c-0.7-1.8-1-3.9-1-6.1c0-2.2,0.3-4.2,1-6.1c0.7-1.8,1.6-3.4,2.8-4.7c1.2-1.3,2.7-2.3,4.4-3.1
		c1.7-0.8,3.7-1.1,5.9-1.1c2.2,0,4.2,0.4,5.9,1.1c1.7,0.8,3.2,1.8,4.4,3.1c1.2,1.3,2.1,2.9,2.8,4.7c0.7,1.9,1,3.9,1,6.1
		C181.1,61.3,180.8,63.3,180.1,65.2z"/>
	<path class="st0" d="M261.2,41.9c-1.6-2-3.7-3.6-6.2-4.7c-2.9-1.3-5.9-2-9-2c-3.5,0-6.7,0.6-9.6,1.8c-2.8,1.2-5.3,2.9-7.3,5.1
		c-2,2.2-3.6,4.7-4.7,7.6c-1.1,2.9-1.6,6-1.6,9.3c0,3.3,0.6,6.4,1.7,9.3c1.1,2.8,2.8,5.3,4.8,7.4c2,2.1,4.5,3.7,7.4,4.9
		c2.8,1.2,6,1.8,9.3,1.8c3.1,0,6.2-0.7,9-2c2.5-1.2,4.6-2.9,6.2-5.2v5.3c0,1.8-0.2,3.7-0.7,5.5c-0.5,1.8-1.3,3.4-2.5,4.7
		c-1.2,1.4-2.8,2.5-4.8,3.4c-2,0.9-4.6,1.3-7.6,1.3c-3.2,0-6-0.6-8.5-1.8c-2.5-1.2-4.9-3-7-5.3l-0.4-0.4l-6.4,8l0.3,0.3
		c3.2,3,6.7,5.1,10.3,6.3c3.6,1.2,7.6,1.8,11.9,1.8c3.7,0,7.1-0.6,10.2-1.7c3.1-1.1,5.7-2.8,7.9-4.9c2.2-2.1,3.9-4.6,5.1-7.4
		c1.2-2.8,1.8-6,1.8-9.5V36.3h-9.5V41.9z M257.4,69.6c-2.5,2.6-6,3.9-10.4,3.9s-7.8-1.3-10.4-3.9c-2.5-2.6-3.8-6.2-3.8-10.5
		c0-2.2,0.3-4.2,1-6.1c0.7-1.8,1.6-3.4,2.8-4.7c1.2-1.3,2.7-2.3,4.4-3.1c1.7-0.8,3.7-1.1,5.9-1.1c2.2,0,4.2,0.4,5.9,1.1
		c1.7,0.8,3.2,1.8,4.4,3.1c1.2,1.3,2.1,2.9,2.8,4.7c0.7,1.9,1,3.9,1,6.1C261.2,63.4,259.9,67,257.4,69.6z"/>
	<polygon class="st0" points="345.6,36.3 334,36.3 323.7,51.7 313.1,36.3 300.9,36.3 317.1,57.6 298.7,81.9 310.4,81.9 323.3,63.5 
		336.2,81.9 348.4,81.9 330,57.6 	"/>
	<path class="st0" d="M391.9,42.8c-1.8-2.3-4.1-4.1-6.9-5.5c-2.8-1.4-6.2-2.1-10.2-2.1c-3.4,0-6.5,0.6-9.4,1.8
		c-2.9,1.2-5.4,2.9-7.5,5.1c-2.1,2.1-3.7,4.7-4.9,7.6c-1.2,2.9-1.8,6.1-1.8,9.5c0,3.4,0.5,6.6,1.6,9.4c1.1,2.9,2.7,5.5,4.7,7.6
		c2,2.1,4.5,3.8,7.4,5.1c2.9,1.2,6.2,1.8,9.7,1.8c8.6,0,15.4-3.1,20.2-9.3l0.3-0.4l-7.2-5.5l-0.3,0.4c-1.6,2-3.4,3.5-5.2,4.7
		c-1.9,1.2-4.1,1.8-6.6,1.8c-1.9,0-3.7-0.3-5.5-0.9c-1.8-0.6-3.3-1.5-4.6-2.5c-1.3-1.1-2.4-2.4-3.2-3.9c-0.7-1.4-1.1-2.9-1.2-4.6
		H397v-3.5c0-2.9-0.4-5.8-1.2-8.7C395,47.7,393.7,45.1,391.9,42.8z M361.3,54.9c0.1-1.3,0.4-2.6,0.9-3.9c0.6-1.5,1.5-2.8,2.7-4
		c1.1-1.2,2.6-2.2,4.2-2.9c1.7-0.8,3.5-1.1,5.5-1.1c2.1,0,3.9,0.3,5.4,1c1.5,0.6,2.8,1.5,3.8,2.6c1,1.1,1.8,2.4,2.3,3.9
		c0.5,1.4,0.7,2.9,0.8,4.5H361.3z"/>
	<path class="st0" d="M493.3,36.3v23.5c0,2.5-0.3,4.7-0.9,6.5c-0.6,1.8-1.5,3.3-2.5,4.5c-1.1,1.2-2.3,2-3.8,2.6
		c-1.4,0.5-3,0.8-4.7,0.8c-1.3,0-2.5-0.2-3.7-0.6c-1.1-0.4-2.2-1-3.1-1.9c-0.9-0.9-1.6-2-2.1-3.4c-0.5-1.4-0.8-3.1-0.8-5.1V36.3
		h-9.5v29.2c0,3,0.5,5.6,1.4,7.9c0.9,2.2,2.1,4.1,3.7,5.5c1.5,1.4,3.3,2.5,5.3,3.2c2,0.7,4.1,1,6.4,1c3.5,0,6.7-0.8,9.4-2.3
		c2.2-1.2,3.8-2.8,5-4.6v5.7h9.5V36.3H493.3z"/>
	<polygon class="st0" points="202.6,44.3 213,37.2 213,36.1 202.6,36.1 	"/>
	<polygon class="st0" points="202.6,82.4 213,82.4 213,39 202.6,46.1 	"/>
	<polygon class="st0" points="279.7,44.3 290.1,37.2 290.1,36.1 279.7,36.1 	"/>
	<polygon class="st0" points="279.7,82.4 290.1,82.4 290.1,39 279.7,46.1 	"/>
	<path class="st0" d="M442.7,41.9c-1.5-1.9-3.5-3.5-6-4.7c-2.9-1.4-6-2.1-9.2-2.1c-3.5,0-6.7,0.6-9.6,1.8c-2.8,1.2-5.3,2.9-7.3,5.1
		c-2,2.1-3.6,4.7-4.7,7.6c-1.1,2.9-1.6,6.1-1.6,9.4c0,3.4,0.5,6.5,1.6,9.4c1.1,2.9,2.7,5.4,4.7,7.6c2,2.2,4.5,3.9,7.3,5.1
		c2.8,1.2,6.1,1.8,9.6,1.8c3.1,0,6.1-0.7,9-2c2.5-1.2,4.6-2.8,6.2-4.7v5.6h9.5V10.3l-9.5,6.5V41.9z M441.7,65.2
		c-0.7,1.8-1.6,3.4-2.8,4.7c-1.2,1.3-2.7,2.3-4.4,3.1c-1.7,0.8-3.7,1.1-5.9,1.1c-2.2,0-4.2-0.4-5.9-1.1c-1.7-0.8-3.2-1.8-4.4-3.1
		c-1.2-1.3-2.1-2.9-2.8-4.7c-0.7-1.8-1-3.9-1-6.1c0-2.2,0.3-4.2,1-6.1c0.7-1.8,1.6-3.4,2.8-4.7c1.2-1.3,2.7-2.3,4.4-3.1
		c1.7-0.8,3.7-1.1,5.9-1.1c2.2,0,4.2,0.4,5.9,1.1c1.7,0.8,3.2,1.8,4.4,3.1c1.2,1.3,2.1,2.9,2.8,4.7c0.7,1.9,1,3.9,1,6.1
		C442.7,61.3,442.4,63.3,441.7,65.2z"/>
</g>
</svg>
