<?xml version="1.0" encoding="utf-8"?>
<!-- Generator: Adobe Illustrator 27.6.1, SVG Export Plug-In . SVG Version: 6.00 Build 0)  -->
<svg version="1.1" id="Layer_1" xmlns="http://www.w3.org/2000/svg" xmlns:xlink="http://www.w3.org/1999/xlink" x="0px" y="0px"
	 viewBox="0 0 184.8 182.7" style="enable-background:new 0 0 184.8 182.7;" xml:space="preserve">
<style type="text/css">
	.st0{fill-rule:evenodd;clip-rule:evenodd;fill:#FFFFFF;}
	.st1{fill:#FFFFFF;}
	.st2{fill-rule:evenodd;clip-rule:evenodd;fill:#404041;}
	.st3{fill-rule:evenodd;clip-rule:evenodd;fill:#5BBA54;}
</style>
<g>
	<g>
		<path class="st0" d="M156.1,106.1c0.6-0.9,1.6-1.5,2.6-1.5c1.1,0,2.1,0.6,2.6,1.5c4.9,8.1,15.6,25.7,20.7,34.1
			c0.6,0.9,0.6,2.1,0,3.1c-0.5,1-1.6,1.6-2.7,1.6H138c-1.1,0-2.1-0.6-2.7-1.6c-0.5-1-0.5-2.1,0-3.1
			C140.5,131.8,151.1,114.2,156.1,106.1z"/>
		<path class="st1" d="M179.3,147.2H138c-2,0-3.8-1.1-4.7-2.8c-1-1.7-0.9-3.8,0.1-5.5l20.7-34.1l0,0c1-1.6,2.8-2.6,4.6-2.6
			c1.9,0,3.7,1,4.6,2.6L184,139c1,1.7,1,3.8,0.1,5.5C183.1,146.2,181.3,147.2,179.3,147.2z M158.1,107.3l-20.7,34.1
			c-0.1,0.2-0.1,0.5,0,0.7c0.1,0.2,0.4,0.4,0.6,0.4h41.3c0.3,0,0.5-0.1,0.6-0.4c0.1-0.2,0.1-0.5,0-0.7l-20.7-34.1
			C159,106.9,158.3,106.9,158.1,107.3L158.1,107.3z"/>
		<path class="st0" d="M23.5,106.1c0.6-0.9,1.5-1.5,2.6-1.5c1.1,0,2.1,0.6,2.6,1.5c4.9,8.1,15.6,25.7,20.7,34.1
			c0.6,0.9,0.6,2.1,0,3.1c-0.5,1-1.6,1.6-2.7,1.6H5.4c-1.1,0-2.1-0.6-2.7-1.6c-0.5-1-0.5-2.1,0-3.1C7.9,131.8,18.5,114.2,23.5,106.1
			z"/>
		<path class="st1" d="M46.8,147.2H5.4c-2,0-3.8-1.1-4.7-2.8c-1-1.7-0.9-3.8,0.1-5.5l20.7-34.1c1-1.6,2.8-2.6,4.6-2.6
			c1.9,0,3.7,1,4.6,2.6L51.4,139c1,1.7,1.1,3.8,0.1,5.5C50.6,146.2,48.7,147.2,46.8,147.2z M26.1,107c-0.2,0-0.5,0.1-0.6,0.3l0,0
			L4.8,141.4c-0.1,0.2-0.1,0.5,0,0.7c0.1,0.2,0.4,0.4,0.6,0.4h41.3c0.3,0,0.5-0.1,0.6-0.4c0.1-0.2,0.1-0.5,0-0.7l-20.7-34.1
			C26.6,107.1,26.3,107,26.1,107z M23.5,106.1L23.5,106.1L23.5,106.1z"/>
		<path class="st0" d="M112,98.7c12.5,0.5,22.4,10.8,22.4,23.4s-10,22.9-22.4,23.4v0h-8.4c-1.1,0-2.2-0.5-3-1.3
			c-0.8-0.8-1.3-1.9-1.3-3v-38.2c0-1.1,0.4-2.2,1.3-3c0.8-0.8,1.9-1.3,3-1.3L112,98.7L112,98.7z"/>
		<path class="st1" d="M112,147.8h-8.4c-1.8,0-3.4-0.7-4.7-1.9c-1.3-1.3-1.9-2.9-1.9-4.7v-38.2c0-1.8,0.7-3.4,1.9-4.7
			c1.3-1.3,2.9-1.9,4.7-1.9h8.4c0.1,0,0.3,0,0.4,0c13.7,0.7,24.4,12,24.4,25.7c0,13.8-10.7,25-24.4,25.7
			C112.3,147.8,112.1,147.8,112,147.8z M112,145.4L112,145.4L112,145.4z M103.6,101c-0.5,0-1,0.2-1.3,0.6c-0.4,0.4-0.6,0.8-0.6,1.3
			v38.2c0,0.5,0.2,1,0.6,1.3c0.4,0.4,0.8,0.6,1.3,0.6h8c0.1,0,0.1,0,0.2,0c11.3-0.5,20.1-9.7,20.1-21c0-11.3-8.8-20.5-20.1-21
			c-0.1,0-0.1,0-0.2,0H103.6z"/>
		<path class="st0" d="M69.7,98.7c12.5,0.5,22.4,10.8,22.4,23.4s-10,22.9-22.4,23.4v0h-8.4c-1.1,0-2.2-0.5-3-1.3
			c-0.8-0.8-1.3-1.9-1.3-3v-38.2c0-1.1,0.5-2.2,1.3-3c0.8-0.8,1.9-1.3,3-1.3L69.7,98.7L69.7,98.7z"/>
		<path class="st1" d="M69.7,147.8h-8.4c-1.8,0-3.4-0.7-4.7-1.9c-1.3-1.3-1.9-2.9-1.9-4.7v-38.2c0-1.8,0.7-3.4,1.9-4.7
			c1.3-1.3,2.9-1.9,4.7-1.9h8.4c0.1,0,0.3,0,0.4,0c13.7,0.7,24.4,12,24.4,25.7c0,13.8-10.7,25-24.4,25.7
			C69.9,147.8,69.8,147.8,69.7,147.8z M69.7,145.4L69.7,145.4L69.7,145.4z M61.3,101c-0.5,0-1,0.2-1.3,0.6c-0.4,0.4-0.6,0.8-0.6,1.3
			v38.2c0,0.5,0.2,1,0.6,1.3c0.4,0.4,0.8,0.6,1.3,0.6h8c0.1,0,0.1,0,0.2,0c11.3-0.5,20.1-9.7,20.1-21c0-11.3-8.8-20.5-20.1-21
			c-0.1,0-0.1,0-0.2,0H61.3z"/>
		<path class="st2" d="M156.3,105.7c0.5-0.8,1.4-1.4,2.4-1.4c1,0,1.9,0.5,2.4,1.4c4.9,8.1,16.1,26.5,21.1,34.9
			c0.5,0.9,0.5,1.9,0,2.8c-0.5,0.9-1.4,1.4-2.4,1.4h-42.3c-1,0-1.9-0.5-2.4-1.4c-0.5-0.9-0.5-2,0-2.8
			C140.2,132.2,151.4,113.8,156.3,105.7z"/>
		<path class="st3" d="M23.7,105.7c0.5-0.8,1.4-1.4,2.4-1.4c1,0,1.9,0.5,2.4,1.4c4.9,8.1,16.1,26.5,21.1,34.9c0.5,0.9,0.5,1.9,0,2.8
			s-1.4,1.4-2.4,1.4H5c-1,0-1.9-0.5-2.4-1.4s-0.5-2,0-2.8C7.6,132.2,18.8,113.8,23.7,105.7z"/>
		<path class="st3" d="M112,98.7c12.5,0.5,22.4,10.8,22.4,23.4s-10,22.9-22.4,23.4v0h-8.7c-2.2,0-3.9-1.8-3.9-3.9v-39
			c0-2.2,1.7-3.9,3.9-3.9L112,98.7L112,98.7z"/>
		<path class="st2" d="M69.7,98.7c12.5,0.5,22.4,10.8,22.4,23.4s-10,22.9-22.4,23.4v0h-8.7c-2.2,0-3.9-1.8-3.9-3.9v-39
			c0-2.2,1.8-3.9,3.9-3.9L69.7,98.7L69.7,98.7z"/>
		<polygon class="st2" points="79.5,156.5 81.3,160.5 82.8,160 81.4,155.7 		"/>
	</g>
	<g>
		<path class="st2" d="M30.7,156.5v17.3c0,2.3-1.9,4.2-4.2,4.2v2.1c3.5,0,6.3-2.8,6.3-6.3v-17.3H30.7z"/>
		<path class="st2" d="M33.5,181.2h2.6c1.8,0,3.2-1.4,3.2-3.2v-14.2c0-1.8-1.4-3.2-3.2-3.2H27v2.1h9.1c0.6,0,1.1,0.5,1.1,1.1V178
			c0,0.6-0.5,1.1-1.1,1.1h-2.6V181.2z"/>
		<path class="st2" d="M48.8,163.9v13.9c0,0.8-0.6,1.4-1.4,1.4h-2.9c-0.8,0-1.4-0.6-1.4-1.4v-13.9c0-0.8,0.6-1.4,1.4-1.4h2.9
			C48.2,162.5,48.8,163.1,48.8,163.9z M50.9,163.9c0-1.9-1.6-3.5-3.5-3.5h-2.9c-1.9,0-3.5,1.6-3.5,3.5v13.9c0,1.9,1.6,3.5,3.5,3.5
			h2.9c1.9,0,3.5-1.6,3.5-3.5V163.9z"/>
		<path class="st2" d="M67.5,159.3v16.3c0,2.3-1.9,4.2-4.2,4.2v2.1c3.5,0,6.3-2.8,6.3-6.3v-16.3H67.5z"/>
		<rect x="60.9" y="158" class="st2" width="11.2" height="2.1"/>
		<path class="st2" d="M61.5,161.5v3c0,2,1.6,3.6,3.6,3.6h6.6v-2.1h-6.6c-0.8,0-1.5-0.7-1.5-1.5v-3H61.5z"/>
		<path class="st2" d="M66.8,167.7c0,0-0.9,2.6-2.5,5.2c-1,1.6-2.2,3.1-3.6,3.8l0.9,1.9c1.8-0.8,3.3-2.7,4.5-4.6
			c1.7-2.7,2.7-5.6,2.7-5.6L66.8,167.7z"/>
		<path class="st2" d="M76.1,156.7c0,0-2.1,6.4-5.3,9.2l1.4,1.6c3.5-3.1,5.9-10.1,5.9-10.1L76.1,156.7z"/>
		<rect x="75.6" y="161.3" class="st2" width="10.8" height="2.1"/>
		<rect x="75.6" y="166.1" class="st2" width="10.8" height="2.1"/>
		<rect x="75.6" y="172.2" class="st2" width="10.8" height="2.1"/>
		<rect x="75.6" y="177.7" class="st2" width="11.8" height="2.1"/>
		<rect x="73.8" y="163.5" class="st2" width="2.1" height="19.1"/>
		<rect x="79.8" y="162.9" class="st2" width="2.1" height="15.6"/>
		<path class="st2" d="M152.7,175.2c0,1.4-0.7,2.7-1.7,3.7c-1.5,1.6-3.7,2.6-5.7,2.6v-2.1c1.5,0,3.1-0.8,4.2-1.9
			c0.7-0.7,1.1-1.5,1.1-2.4c0-0.1,0-0.2,0-0.2l2.6-12l2,0.4L152.7,175.2z"/>
		<path class="st2" d="M152.3,173.8c0.9,1.4,1.7,2.7,2.6,3.6c0.8,0.8,1.6,1.2,2.8,1.2v2.1c-1.7,0-3.1-0.7-4.2-1.8c-1-1-2-2.4-3-4.1
			c0-0.1-0.1-0.1-0.1-0.2l-3.1-9.1l2-0.7L152.3,173.8z"/>
		<rect x="135" y="159.1" class="st2" width="8.4" height="2.1"/>
		<rect x="133.2" y="164.1" class="st2" width="13" height="2.1"/>
		<rect x="138.6" y="156" class="st2" width="2.1" height="10"/>
		<path class="st2" d="M146.1,157.9c0,0-2.2,3.5-5.9,7.5c-2,2.2-4.4,4.5-7.1,6.4l0.9,1.3c2.9-2,5.4-4.3,7.5-6.5
			c3.9-4.1,6.3-7.7,6.3-7.7L146.1,157.9z"/>
		<polygon class="st2" points="142.4,170.7 138.2,170.8 138.1,168.8 145.1,168.6 145.8,170.3 141.8,173.7 141.8,180.4 141.1,181.2 
			137.5,181.5 137.3,180 140.1,179.6 140,173.3 140.3,172.6 		"/>
		<polygon class="st2" points="134.4,177.6 147.2,175.4 146.9,173.9 134.1,175.5 		"/>
		<path class="st2" d="M150.7,156.3c0,0-1.2,3.8-2.6,7.3c-0.7,1.8-1.4,3.5-2.1,4.6l1.4,0.8c0.7-1.1,1.6-2.9,2.4-4.7
			c1.5-3.5,2.9-7.3,2.9-7.3L150.7,156.3z"/>
		<rect x="150.4" y="161.6" class="st2" width="7.9" height="2.1"/>
		
			<rect x="98.6" y="157.4" transform="matrix(0.9806 -0.1959 0.1959 0.9806 -29.035 23.3792)" class="st2" width="10.2" height="2.1"/>
		<rect x="102.9" y="158.5" class="st2" width="2.1" height="22.7"/>
		<rect x="97.9" y="163.7" class="st2" width="11" height="2.1"/>
		<path class="st2" d="M102.6,165.1c0,0-0.6,4.7-5.5,10l1.5,1.4c5.4-5.9,6-11.2,6-11.2L102.6,165.1z"/>
		<path class="st2" d="M106.9,167.5c0,0-1.7,1.2-1.7,1.2c0,0.1,0.1,0.1,0.2,0.2c0.6,0.8,3.2,4.1,3.2,4.1l1.1-0.8
			c0,0-2.1-3.7-2.6-4.5C107,167.6,106.9,167.4,106.9,167.5z"/>
		
			<rect x="109.4" y="172" transform="matrix(0.9831 -0.1833 0.1833 0.9831 -29.7513 24.2658)" class="st2" width="13.9" height="2.1"/>
		<rect x="117.8" y="156.1" class="st2" width="2.1" height="26.1"/>
		<polygon class="st2" points="113.8,164.5 116.5,170.1 111,170.1 		"/>
		<polygon class="st2" points="113.8,158.2 116.5,163.7 111,163.7 		"/>
	</g>
	<g>
		<path class="st0" d="M133.8,39.7C133.7,38.7,133.8,39.7,133.8,39.7L133.8,39.7z M53.2,34.1c-0.5,0.1-0.6,0.3-0.7,0.3
			c-0.2,0.2-1,2.1-0.9,1.5c0,0-1.9,14.1,0.2,26.5c1.1,6.4,3.6,12.3,5.9,16.9c0.1,0.2,0.2,0.4,0.4,0.6c0,0.2,0.1,0.4,0.2,0.5
			c1.5,3,3.2,5.6,3.4,6c0.2,1.2,0,2.4-0.1,2.7c0,0.9,0.4,1.4,0.6,1.5c0.6,0.6,1.2,0.8,1.9,0.7c0,0,1.1-0.3,2.2-1.1
			c0.4-0.3,0.8-0.7,1.2-1.1c0.8,0.1,1.5-0.2,2-0.8c0,0,13.5-17.4,31.4-19.5c11.5-1.3,25.9-10.6,28.8-12.5c1-0.7,1.2-1.3,1.3-1.4
			c1.5-4.2,2.2-9.4,2.6-13.8c0,0,0-0.1,0.1-0.1c0.1-0.2,0.2-0.7,0.2-0.7l-0.1,0c0-0.2,0-0.3,0-0.5v0c0-0.1,0-0.6,0-1.6
			c0.1-2.5,0.1-4.5,0.1-5.5c0-0.2,0-0.5,0-0.7l-0.1,0.1c0.1-0.1,0.1-0.2,0.1-0.2c-0.1-1.9-0.4-1.3-0.4-1.6c-1-12.3-7.8-23.4-26-28.6
			C95.2-1.9,81.5,0.4,69.7,8.2C55,18,53.4,32.8,53.2,34.1z"/>
		<path class="st3" d="M131.3,30.3c0,0.5-27.6,15.9-27.6,15.9l2.3-18c0,0-8.8-6.3-24.8-1c-14,4.6-21.5,7.5-21.5,7.5l-4.3-0.3
			c0,0,1.1-14.8,15.5-24.3c11.3-7.5,24.4-9.7,36-6.4C123.8,8.5,130.3,18.8,131.3,30.3z"/>
		<path class="st2" d="M114.3,17.4c2,0,3.7,1.5,3.7,3.6c0,2-1.5,3.7-3.6,3.7c-2,0-3.7-1.6-3.7-3.6S112.3,17.5,114.3,17.4z
			 M115.2,10.3c-0.7-0.1-1.4,0-2.1,0l-0.3,1.7c-0.7,0.1-1.3,0.3-1.9,0.6l-1.2-1.2c-0.6,0.3-1.2,0.7-1.8,1.1l0.6,1.6
			c-0.5,0.4-1,0.9-1.4,1.5l-1.6-0.5c-0.4,0.6-0.7,1.2-1,1.8l1.3,1.1c-0.2,0.6-0.4,1.3-0.5,2l-1.7,0.4c-0.1,0.7,0,1.4,0,2.1l1.7,0.3
			c0.1,0.7,0.3,1.3,0.6,1.9l-1.2,1.2c0.3,0.6,0.7,1.2,1.1,1.8l1.6-0.6c0.4,0.5,0.9,1,1.5,1.4l-0.5,1.6c0.6,0.4,1.2,0.7,1.8,1
			l1.1-1.3c0.6,0.2,1.3,0.4,2,0.5l0.4,1.7c0.7,0.1,1.4,0,2.1,0l0.3-1.7c0.7-0.1,1.3-0.3,1.9-0.6l1.2,1.2c0.6-0.3,1.2-0.7,1.8-1.1
			l-0.6-1.6c0.5-0.4,1-0.9,1.4-1.5l1.6,0.5c0.4-0.6,0.7-1.2,1-1.8l-1.3-1.1c0.2-0.6,0.4-1.3,0.5-2l1.7-0.4c0.1-0.7,0-1.4,0-2.1
			l-1.7-0.3c-0.1-0.7-0.3-1.3-0.6-1.9l1.2-1.2c-0.3-0.6-0.7-1.2-1.1-1.8l-1.6,0.6c-0.4-0.5-0.9-1-1.5-1.4l0.5-1.6
			c-0.6-0.4-1.2-0.7-1.8-1l-1.1,1.3c-0.6-0.2-1.3-0.4-2-0.5L115.2,10.3z"/>
		<path class="st2" d="M95.6,12.3c1.6-0.1,3,1.1,3.2,2.7c0.1,1.6-1.1,3-2.7,3.2c-1.6,0.1-3-1.1-3.2-2.7C92.8,13.8,94,12.4,95.6,12.3
			z M96,6.5c-0.6,0-1.1,0-1.7,0.1L94.2,8c-0.5,0.1-1,0.3-1.5,0.5l-1-1c-0.5,0.3-1,0.6-1.4,1l0.5,1.3c-0.4,0.4-0.8,0.8-1.1,1.2
			l-1.3-0.3c-0.3,0.5-0.5,1-0.7,1.5l1.1,0.8c-0.2,0.5-0.3,1.1-0.3,1.6l-1.3,0.4c0,0.6,0,1.1,0.1,1.7l1.4,0.2c0.1,0.5,0.3,1,0.5,1.5
			l-1,1c0.3,0.5,0.6,1,1,1.4l1.3-0.5c0.4,0.4,0.8,0.8,1.2,1.1l-0.3,1.3c0.5,0.3,1,0.5,1.5,0.7l0.8-1.1c0.5,0.2,1.1,0.3,1.6,0.3
			l0.4,1.3c0.6,0,1.1,0,1.7-0.1l0.2-1.4c0.5-0.1,1-0.3,1.5-0.5l1,1c0.5-0.3,1-0.6,1.4-1l-0.5-1.3c0.4-0.4,0.8-0.8,1.1-1.2l1.3,0.3
			c0.3-0.5,0.5-1,0.7-1.5l-1.1-0.8c0.2-0.5,0.3-1.1,0.3-1.6l1.3-0.4c0-0.6,0-1.1-0.1-1.7l-1.4-0.2c-0.1-0.5-0.3-1-0.5-1.5l1-1
			c-0.3-0.5-0.6-1-1-1.4l-1.3,0.5c-0.4-0.4-0.8-0.7-1.2-1.1l0.3-1.3c-0.5-0.3-1-0.5-1.5-0.7L98,8.1c-0.5-0.2-1.1-0.3-1.6-0.3L96,6.5
			z"/>
		<path class="st2" d="M59.7,78.3c-2.1-4.4-4.6-10.1-5.7-16.3c-2.1-12.1-0.2-25.8-0.2-25.8s0.2-0.2,2,0c1.8,0.2,4.4,0,4.4,0
			s19.2-7.8,33-9.8c4.4-0.6,11.2,2.7,11.2,2.7s-2,16.3-2.4,18.1c0,0.2-0.7,0.9-1.9,1.9L59.7,78.3z"/>
		<path class="st3" d="M67.9,86.9c0,0,14.2-18.2,32.9-20.4C113.1,65.1,129,54.2,129,54c3.2-8.8,2.6-22.2,2.6-22.2S68.6,74,68.6,74
			C68.7,74,67.9,86.9,67.9,86.9z"/>
		<path class="st2" d="M131.7,31.8L68.7,74l0,1.6l63.1-35.7C131.7,39.9,131.5,41.6,131.7,31.8z"/>
		<path class="st3" d="M67.5,74.8c-0.3,3.7-0.6,7.5-0.4,9.8c0.2,3.1-3.1,4.5-3.2,4.5c-0.1,0,0.3-1.7,0-3.3c-0.1-0.7-1.7-2.8-3.6-6.4
			L67.5,74.8z"/>
	</g>
</g>
</svg>
