<?xml version="1.0" encoding="utf-8"?>
<!-- Generator: Adobe Illustrator 27.6.1, SVG Export Plug-In . SVG Version: 6.00 Build 0)  -->
<svg version="1.1" xmlns="http://www.w3.org/2000/svg" xmlns:xlink="http://www.w3.org/1999/xlink" x="0px" y="0px"
	 viewBox="0 0 744.7 187.1" style="enable-background:new 0 0 744.7 187.1;" xml:space="preserve">
<style type="text/css">
	.st0{display:none;}
	.st1{display:inline;}
	.st2{fill:#30343B;}
	.st3{fill:#FFFFFF;}
	.st4{display:inline;fill:none;}
	.st5{display:inline;fill:#30343B;}
	.st6{font-family:'HelveticaNeueLTPro-Roman';}
	.st7{font-size:34px;}
	.st8{letter-spacing:3;}
	.st9{font-family:'Microsoft-Himalaya';}
	.st10{font-size:48px;}
	.st11{letter-spacing:4;}
	.st12{display:none;fill:#F3F2F1;}
	.st13{fill:#079BAF;}
	.st14{fill:#59AF87;}
	.st15{fill:#3296A8;}
	.st16{fill:#3B3B40;}
	.st17{fill:#5DA886;}
</style>
<g id="test" class="st0">
	<g class="st1">
		<g>
			<path class="st2" d="M130.7,193.5c0-1.8,1.3-2.9,3.1-2.9c1.8,0,3.1,1.2,3.1,2.9c0,1.8-1.3,3-3.1,3
				C132,196.5,130.7,195.3,130.7,193.5z M131.2,199.8h5.4v20.5h-5.4V199.8z"/>
			<path class="st2" d="M146.4,193.1h9.4c5.7,0,10.2,2,10.2,8.2c0,4.1-2,6.6-5.2,7.8l6.3,11.1h-6l-5.6-10.2h-3.8v10.2h-5.4V193.1z
				 M155.3,205.7c3.5,0,5.4-1.5,5.4-4.4c0-2.9-1.9-3.9-5.4-3.9h-3.5v8.3H155.3z"/>
			<path class="st2" d="M175,193.1h16.6v4.5h-11.2v6.3h9.5v4.5h-9.5v7.2H192v4.5h-17V193.1z"/>
			<path class="st2" d="M199.1,210c0-6.7,4.2-10.8,8.6-10.8c2.3,0,3.7,0.9,5.2,2.2l-0.2-3.2V191h5.3v29.2h-4.4l-0.4-2.1h-0.1
				c-1.5,1.5-3.5,2.6-5.7,2.6C202.4,220.8,199.1,216.7,199.1,210z M212.7,214.2v-9c-1.2-1.1-2.6-1.5-3.8-1.5c-2.3,0-4.2,2.2-4.2,6.3
				c0,4.2,1.5,6.4,4.2,6.4C210.3,216.3,211.5,215.7,212.7,214.2z"/>
			<path class="st2" d="M238.1,216.8l3.1-3.7c1.9,1.8,4.5,3,6.9,3c2.8,0,4.3-1.2,4.3-3.1c0-2-1.6-2.6-4.1-3.7l-3.6-1.5
				c-2.7-1.1-5.5-3.3-5.5-7.3c0-4.4,3.9-7.8,9.4-7.8c3.1,0,6.3,1.2,8.5,3.5l-2.7,3.4c-1.7-1.4-3.5-2.2-5.7-2.2
				c-2.4,0-3.9,1.1-3.9,2.9c0,1.9,1.9,2.6,4.2,3.5l3.5,1.5c3.3,1.4,5.5,3.4,5.5,7.4c0,4.4-3.7,8.2-10,8.2
				C244.4,220.8,240.8,219.3,238.1,216.8z"/>
			<path class="st2" d="M264.7,210c0-6.8,4.7-10.8,9.8-10.8c5.1,0,9.8,4,9.8,10.8s-4.7,10.8-9.8,10.8
				C269.4,220.8,264.7,216.8,264.7,210z M278.9,210c0-3.8-1.6-6.4-4.4-6.4c-2.8,0-4.4,2.5-4.4,6.4c0,3.9,1.6,6.4,4.4,6.4
				C277.3,216.4,278.9,213.9,278.9,210z"/>
			<path class="st2" d="M292.5,214.5V191h5.4v23.7c0,1.2,0.5,1.6,1.1,1.6c0.2,0,0.4,0,0.7-0.1l0.7,4c-0.6,0.3-1.5,0.5-2.8,0.5
				C293.9,220.8,292.5,218.3,292.5,214.5z"/>
			<path class="st2" d="M307.5,212.6v-12.8h5.4v12.1c0,3.1,0.9,4.3,2.9,4.3c1.7,0,2.8-0.7,4.2-2.6v-13.8h5.4v20.5h-4.4l-0.4-2.9
				h-0.1c-1.8,2.1-3.7,3.4-6.5,3.4C309.4,220.8,307.5,217.7,307.5,212.6z"/>
			<path class="st2" d="M335.4,213.1V204h-2.9v-4l3.2-0.3l0.6-5.5h4.5v5.5h5v4.2h-5v9.1c0,2.3,1,3.4,2.8,3.4c0.7,0,1.5-0.2,2-0.4
				l0.9,3.9c-1.1,0.4-2.5,0.8-4.3,0.8C337.3,220.8,335.4,217.6,335.4,213.1z"/>
			<path class="st2" d="M353.3,193.5c0-1.8,1.3-2.9,3.1-2.9c1.8,0,3.1,1.2,3.1,2.9c0,1.8-1.3,3-3.1,3
				C354.5,196.5,353.3,195.3,353.3,193.5z M353.7,199.8h5.4v20.5h-5.4V199.8z"/>
			<path class="st2" d="M367.2,210c0-6.8,4.7-10.8,9.8-10.8c5.1,0,9.8,4,9.8,10.8s-4.7,10.8-9.8,10.8
				C371.9,220.8,367.2,216.8,367.2,210z M381.4,210c0-3.8-1.6-6.4-4.4-6.4c-2.8,0-4.4,2.5-4.4,6.4c0,3.9,1.6,6.4,4.4,6.4
				C379.8,216.4,381.4,213.9,381.4,210z"/>
			<path class="st2" d="M395,199.8h4.4l0.4,2.7h0.1c1.8-1.8,3.9-3.2,6.7-3.2c4.4,0,6.3,3.1,6.3,8.2v12.8h-5.4v-12.1
				c0-3.2-0.9-4.3-2.9-4.3c-1.7,0-2.7,0.8-4.2,2.3v14.1H395V199.8z"/>
			<path class="st2" d="M420.2,217.9l2.5-3.4c1.8,1.4,3.6,2.2,5.5,2.2c2,0,3-0.9,3-2.2c0-1.5-2.1-2.2-4.3-3.1c-2.6-1-5.5-2.6-5.5-6
				c0-3.7,3-6.3,7.6-6.3c3,0,5.3,1.2,7,2.5l-2.4,3.3c-1.5-1.1-2.9-1.8-4.4-1.8c-1.9,0-2.7,0.8-2.7,2c0,1.5,1.9,2,4.1,2.9
				c2.7,1,5.7,2.4,5.7,6.2c0,3.6-2.8,6.5-8.2,6.5C425.3,220.8,422.3,219.5,420.2,217.9z"/>
			<path class="st2" d="M456.3,193.1h5.4v22.6h11v4.5h-16.4V193.1z"/>
			<path class="st2" d="M480.3,193.5c0-1.8,1.3-2.9,3.1-2.9c1.8,0,3.1,1.2,3.1,2.9c0,1.8-1.3,3-3.1,3
				C481.5,196.5,480.3,195.3,480.3,193.5z M480.7,199.8h5.4v20.5h-5.4V199.8z"/>
			<path class="st2" d="M495.5,199.8h4.4l0.4,2.7h0.1c1.7-1.8,3.6-3.3,6.3-3.3c2.9,0,4.6,1.3,5.6,3.6c1.9-2,3.8-3.6,6.5-3.6
				c4.4,0,6.4,3.1,6.4,8.2v12.8h-5.4v-12.1c0-3.2-0.9-4.3-2.9-4.3c-1.2,0-2.5,0.8-4,2.3v14.1h-5.3v-12.1c0-3.2-1-4.3-2.9-4.3
				c-1.2,0-2.5,0.8-3.9,2.3v14.1h-5.4V199.8z"/>
			<path class="st2" d="M534,193.5c0-1.8,1.3-2.9,3.1-2.9c1.8,0,3.1,1.2,3.1,2.9c0,1.8-1.3,3-3.1,3C535.2,196.5,534,195.3,534,193.5
				z M534.4,199.8h5.4v20.5h-5.4V199.8z"/>
			<path class="st2" d="M550,213.1V204h-2.9v-4l3.2-0.3l0.6-5.5h4.5v5.5h5v4.2h-5v9.1c0,2.3,1,3.4,2.8,3.4c0.7,0,1.5-0.2,2-0.4
				l0.9,3.9c-1.1,0.4-2.5,0.8-4.3,0.8C551.8,220.8,550,217.6,550,213.1z"/>
			<path class="st2" d="M566.2,210c0-6.6,4.7-10.8,9.5-10.8c5.6,0,8.6,4.1,8.6,9.8c0,1-0.1,2-0.3,2.5h-12.6c0.4,3.4,2.6,5.1,5.7,5.1
				c1.7,0,3.1-0.5,4.6-1.4l1.8,3.3c-2,1.4-4.6,2.3-7.1,2.3C570.7,220.8,566.2,216.8,566.2,210z M579.7,207.9c0-2.7-1.2-4.5-3.9-4.5
				c-2.2,0-4.1,1.5-4.5,4.5H579.7z"/>
			<path class="st2" d="M591.3,210c0-6.7,4.2-10.8,8.6-10.8c2.3,0,3.7,0.9,5.2,2.2l-0.2-3.2V191h5.3v29.2h-4.4l-0.4-2.1h-0.1
				c-1.5,1.5-3.5,2.6-5.7,2.6C594.6,220.8,591.3,216.7,591.3,210z M604.9,214.2v-9c-1.2-1.1-2.6-1.5-3.8-1.5c-2.3,0-4.2,2.2-4.2,6.3
				c0,4.2,1.5,6.4,4.2,6.4C602.5,216.3,603.7,215.7,604.9,214.2z"/>
		</g>
	</g>
	<g class="st1">
		<g>
			<path class="st3" d="M1143.4,183.6c0-1.6,1.2-2.6,2.8-2.6c1.7,0,2.8,1.1,2.8,2.6c0,1.6-1.2,2.7-2.8,2.7
				C1144.5,186.2,1143.4,185.2,1143.4,183.6z M1143.8,189.2h4.9v18.5h-4.9V189.2z"/>
			<path class="st3" d="M1157.5,183.2h8.5c5.1,0,9.2,1.8,9.2,7.4c0,3.7-1.9,6-4.7,7l5.7,10h-5.5l-5-9.3h-3.4v9.3h-4.9V183.2z
				 M1165.6,194.6c3.1,0,4.9-1.3,4.9-3.9c0-2.6-1.8-3.5-4.9-3.5h-3.2v7.5H1165.6z"/>
			<path class="st3" d="M1183.4,183.2h15v4.1h-10.1v5.7h8.6v4.1h-8.6v6.6h10.5v4.1h-15.4V183.2z"/>
			<path class="st3" d="M1205.2,198.5c0-6,3.8-9.7,7.8-9.7c2.1,0,3.4,0.8,4.7,2l-0.2-2.9v-6.5h4.8v26.4h-3.9l-0.4-1.9h-0.1
				c-1.4,1.3-3.2,2.4-5.1,2.4C1208.2,208.2,1205.2,204.6,1205.2,198.5z M1217.5,202.3v-8.1c-1.1-1-2.3-1.4-3.5-1.4
				c-2.1,0-3.8,2-3.8,5.7c0,3.8,1.4,5.8,3.8,5.8C1215.3,204.2,1216.4,203.7,1217.5,202.3z"/>
			<path class="st3" d="M1240.5,204.6l2.8-3.4c1.8,1.6,4.1,2.7,6.2,2.7c2.5,0,3.9-1.1,3.9-2.8c0-1.8-1.5-2.4-3.7-3.3l-3.3-1.4
				c-2.5-1-5-3-5-6.6c0-4,3.5-7.1,8.5-7.1c2.8,0,5.7,1.1,7.7,3.1l-2.5,3.1c-1.6-1.3-3.2-2-5.2-2c-2.2,0-3.5,1-3.5,2.6
				c0,1.8,1.7,2.4,3.8,3.2l3.2,1.4c3,1.2,4.9,3.1,4.9,6.6c0,4-3.3,7.4-9,7.4C1246.1,208.2,1242.9,206.9,1240.5,204.6z"/>
			<path class="st3" d="M1264.5,198.5c0-6.2,4.3-9.7,8.9-9.7c4.6,0,8.9,3.6,8.9,9.7s-4.3,9.7-8.9,9.7
				C1268.8,208.2,1264.5,204.6,1264.5,198.5z M1277.3,198.5c0-3.5-1.4-5.8-3.9-5.8c-2.5,0-3.9,2.3-3.9,5.8c0,3.5,1.4,5.8,3.9,5.8
				C1275.9,204.2,1277.3,202,1277.3,198.5z"/>
			<path class="st3" d="M1289.7,202.6v-21.2h4.9v21.4c0,1.1,0.5,1.5,1,1.5c0.2,0,0.3,0,0.7-0.1l0.6,3.6c-0.6,0.2-1.4,0.4-2.5,0.4
				C1290.9,208.2,1289.7,206,1289.7,202.6z"/>
			<path class="st3" d="M1303.2,200.8v-11.6h4.9v11c0,2.8,0.8,3.9,2.6,3.9c1.5,0,2.5-0.7,3.8-2.3v-12.5h4.9v18.5h-4l-0.4-2.6h-0.1
				c-1.6,1.9-3.4,3.1-5.9,3.1C1304.9,208.2,1303.2,205.4,1303.2,200.8z"/>
			<path class="st3" d="M1328.5,201.3v-8.2h-2.6v-3.6l2.9-0.2l0.6-5h4v5h4.6v3.8h-4.6v8.2c0,2.1,0.9,3.1,2.5,3.1
				c0.6,0,1.3-0.2,1.8-0.4l0.8,3.5c-1,0.3-2.3,0.7-3.9,0.7C1330.2,208.2,1328.5,205.4,1328.5,201.3z"/>
			<path class="st3" d="M1344.6,183.6c0-1.6,1.2-2.6,2.8-2.6c1.7,0,2.8,1.1,2.8,2.6c0,1.6-1.2,2.7-2.8,2.7
				C1345.8,186.2,1344.6,185.2,1344.6,183.6z M1345,189.2h4.9v18.5h-4.9V189.2z"/>
			<path class="st3" d="M1357.2,198.5c0-6.2,4.3-9.7,8.9-9.7c4.6,0,8.9,3.6,8.9,9.7s-4.3,9.7-8.9,9.7
				C1361.5,208.2,1357.2,204.6,1357.2,198.5z M1370,198.5c0-3.5-1.4-5.8-3.9-5.8c-2.5,0-3.9,2.3-3.9,5.8c0,3.5,1.4,5.8,3.9,5.8
				C1368.6,204.2,1370,202,1370,198.5z"/>
			<path class="st3" d="M1382.4,189.2h4l0.4,2.4h0.1c1.6-1.6,3.5-2.9,6-2.9c4,0,5.7,2.8,5.7,7.4v11.5h-4.9v-11
				c0-2.9-0.8-3.9-2.6-3.9c-1.5,0-2.5,0.7-3.8,2.1v12.7h-4.9V189.2z"/>
			<path class="st3" d="M1405.1,205.6l2.2-3c1.7,1.3,3.2,2,5,2c1.9,0,2.7-0.8,2.7-2c0-1.4-1.9-2-3.9-2.8c-2.3-0.9-5-2.3-5-5.4
				c0-3.3,2.7-5.7,6.9-5.7c2.7,0,4.8,1.1,6.3,2.3l-2.2,2.9c-1.3-1-2.6-1.6-4-1.6c-1.7,0-2.5,0.7-2.5,1.8c0,1.4,1.7,1.9,3.7,2.6
				c2.4,0.9,5.2,2.1,5.2,5.6c0,3.2-2.5,5.9-7.4,5.9C1409.7,208.2,1407,207.1,1405.1,205.6z"/>
			<path class="st3" d="M1437.8,183.2h4.9v20.4h10v4.1h-14.9V183.2z"/>
			<path class="st3" d="M1459.4,183.6c0-1.6,1.2-2.6,2.8-2.6c1.7,0,2.8,1.1,2.8,2.6c0,1.6-1.2,2.7-2.8,2.7
				C1460.6,186.2,1459.4,185.2,1459.4,183.6z M1459.8,189.2h4.9v18.5h-4.9V189.2z"/>
			<path class="st3" d="M1473.2,189.2h4l0.4,2.5h0.1c1.6-1.6,3.3-2.9,5.7-2.9c2.6,0,4.2,1.2,5.1,3.2c1.7-1.8,3.5-3.2,5.9-3.2
				c3.9,0,5.8,2.8,5.8,7.4v11.5h-4.9v-11c0-2.9-0.8-3.9-2.6-3.9c-1.1,0-2.2,0.7-3.6,2.1v12.7h-4.8v-11c0-2.9-0.9-3.9-2.6-3.9
				c-1.1,0-2.2,0.7-3.5,2.1v12.7h-4.9V189.2z"/>
			<path class="st3" d="M1508,183.6c0-1.6,1.2-2.6,2.8-2.6c1.7,0,2.8,1.1,2.8,2.6c0,1.6-1.2,2.7-2.8,2.7
				C1509.2,186.2,1508,185.2,1508,183.6z M1508.4,189.2h4.9v18.5h-4.9V189.2z"/>
			<path class="st3" d="M1522.5,201.3v-8.2h-2.6v-3.6l2.9-0.2l0.6-5h4v5h4.6v3.8h-4.6v8.2c0,2.1,0.9,3.1,2.5,3.1
				c0.6,0,1.3-0.2,1.8-0.4l0.8,3.5c-1,0.3-2.3,0.7-3.9,0.7C1524.2,208.2,1522.5,205.4,1522.5,201.3z"/>
			<path class="st3" d="M1537.2,198.5c0-6,4.2-9.7,8.6-9.7c5.1,0,7.7,3.7,7.7,8.8c0,0.9-0.1,1.8-0.2,2.2h-11.4
				c0.4,3,2.4,4.6,5.1,4.6c1.5,0,2.8-0.5,4.2-1.3l1.7,3c-1.8,1.3-4.2,2.1-6.5,2.1C1541.2,208.2,1537.2,204.6,1537.2,198.5z
				 M1549.4,196.6c0-2.5-1.1-4.1-3.5-4.1c-2,0-3.7,1.4-4,4.1H1549.4z"/>
			<path class="st3" d="M1559.8,198.5c0-6,3.8-9.7,7.8-9.7c2.1,0,3.4,0.8,4.7,2l-0.2-2.9v-6.5h4.8v26.4h-3.9l-0.4-1.9h-0.1
				c-1.4,1.3-3.2,2.4-5.1,2.4C1562.8,208.2,1559.8,204.6,1559.8,198.5z M1572.1,202.3v-8.1c-1.1-1-2.3-1.4-3.5-1.4
				c-2.1,0-3.8,2-3.8,5.7c0,3.8,1.4,5.8,3.8,5.8C1569.9,204.2,1571,203.7,1572.1,202.3z"/>
		</g>
	</g>
</g>
<g id="Helvetica_Neue_LT_Pro_55_Roman" class="st0">
	<rect x="142.9" y="179.4" class="st4" width="456.4" height="43.6"/>
	<text transform="matrix(1 0 0 1 177.052 207.8773)" class="st5 st6 st7 st8">iREd Solutions Limited</text>
	<rect x="1133.4" y="179.4" class="st4" width="456" height="43.6"/>
	<text transform="matrix(1 0 0 1 1167.3138 207.8773)" class="st6 st7 st8" style="display:inline;fill:#FFFFFF;">iREd Solutions Limited</text>
</g>
<g id="Microsoft_Himalaya" class="st0">
	<rect x="142.3" y="170.9" class="st4" width="456.4" height="43.6"/>
	<text transform="matrix(1 0 0 1 196.9061 211.0762)" class="st5 st9 st10 st11">iREd Solutions </text>
	<g class="st1">
		<rect x="1132.8" y="170.9" style="fill:none;" width="456" height="43.6"/>
		<text transform="matrix(1 0 0 1 1187.1685 211.0762)" class="st3 st9 st10 st11">iREd Solutions </text>
	</g>
</g>
<g id="Eras" class="st0">
	<g class="st1">
		<g>
			<path class="st2" d="M199.7,177.3v2.1h-2.6v-2.1H199.7z M199.5,183v16.3h-2.1V183H199.5z"/>
			<path class="st2" d="M212.3,177.3c0.8,0,1.5,0.2,2.2,0.5c0.7,0.3,1.3,0.6,1.9,1.1c0.6,0.5,1,1,1.4,1.7c0.3,0.6,0.4,1.4,0.4,2.2
				v0.5c0,0.8-0.1,1.5-0.3,2.1c-0.2,0.6-0.6,1.1-1.1,1.6c-0.5,0.4-0.9,0.8-1.5,1.1c-0.5,0.3-1.1,0.5-1.6,0.7c-0.2,0-0.3,0.1-0.5,0.1
				c-0.1,0-0.3,0.1-0.4,0.1c-0.1,0-0.3,0-0.4,0s-0.3,0-0.4,0c0,0,0,0-0.1,0c0,0,0,0-0.1,0c0,0,0,0-0.1,0c0,0,0,0-0.1,0s0,0-0.1,0
				c0,0-0.1,0-0.1,0c0,0,0,0-0.1,0c0,0,0,0,0,0c0,0-0.1,0-0.1,0s-0.1,0-0.1,0c0,0,0,0-0.1,0s0,0-0.1,0c0,0,0,0-0.1,0c0,0,0,0-0.1,0
				l7.5,10.5h-2.9l-7.8-11.6c0,0,0.1,0.1,0.1,0.1c0,0,0.1,0,0.1,0c0,0,0.1,0,0.2,0c0.1,0,0.1,0,0.2,0c0,0,0,0,0.1,0c0,0,0,0,0.1,0
				s0.1,0,0.1,0c0,0,0.1,0,0.1,0s0.1,0,0.1,0c0,0,0.1,0,0.2,0c0.1,0,0.1,0,0.2,0c1.1,0,2-0.1,2.8-0.3c0.8-0.2,1.5-0.4,2-0.8
				c0.6-0.3,1-0.8,1.3-1.3c0.3-0.6,0.5-1.3,0.5-2.1v-0.5c0-0.6-0.1-1.1-0.3-1.6c-0.2-0.4-0.4-0.8-0.8-1.1s-0.7-0.5-1.1-0.7
				c-0.4-0.2-0.8-0.3-1.2-0.4c0,0-0.1,0-0.2,0c-0.1,0-0.1,0-0.2-0.1c-0.1,0-0.1,0-0.2,0c-0.1,0-0.1,0-0.2,0c0,0-0.1,0-0.2,0
				c-0.1,0-0.1,0-0.2,0c0,0-0.1,0-0.2,0s-0.1,0-0.2,0l-4.7-0.1v20.4h-2.3v-22H212.3z"/>
			<path class="st2" d="M236.6,177.3v1.5h-11.1v8.6h10.1v1.5h-10.1v8.8h10.9v1.5h-13.2v-22H236.6z"/>
			<path class="st2" d="M254.6,177.3h2.1v22h-2.1v-3.1c0,0.1,0,0.1-0.1,0.2c0,0.1,0,0.1-0.1,0.2c0,0.1,0,0.1-0.1,0.2
				c0,0.1-0.1,0.1-0.1,0.2c-0.1,0.1-0.1,0.2-0.2,0.4s-0.2,0.3-0.3,0.4c-0.2,0.3-0.5,0.6-0.8,0.8c-0.3,0.3-0.7,0.5-1.1,0.7
				c-0.4,0.2-0.9,0.3-1.4,0.5c-0.5,0.1-1.1,0.2-1.8,0.2c-1,0-1.9-0.2-2.8-0.5c-0.9-0.3-1.7-0.8-2.4-1.5c-0.7-0.7-1.3-1.5-1.6-2.5
				c-0.4-1-0.5-2.1-0.5-3.3c0,0,0,0,0-0.1c0,0,0,0,0-0.1c0,0,0,0,0-0.1c0,0,0,0,0-0.1c0,0,0,0,0-0.1v0c0,0,0,0,0-0.1c0,0,0,0,0-0.1
				c0,0,0,0,0-0.1c0,0,0,0,0-0.1c0-1.4,0.3-2.6,0.7-3.6c0.4-1,1-1.8,1.7-2.5c0.7-0.6,1.5-1.2,2.2-1.6c0.8-0.4,1.6-0.7,2.4-0.9
				c0.2,0,0.4-0.1,0.6-0.1c0.2,0,0.4,0,0.6-0.1c0.1,0,0.2,0,0.3,0c0.1,0,0.2,0,0.3,0c0.1,0,0.2,0,0.3,0c0.1,0,0.2,0,0.3,0
				c0.3,0,0.7,0,1,0.1c0.3,0,0.7,0.1,1,0.1c0.3,0,0.6,0.1,0.9,0.2c0.3,0.1,0.5,0.1,0.7,0.2V183V177.3z M254.5,184.6
				C254.5,184.6,254.4,184.6,254.5,184.6c-0.1,0-0.1,0-0.1,0c0,0-0.1,0-0.1,0c-0.1,0-0.1,0-0.2-0.1c-0.1,0-0.2,0-0.3-0.1
				c-0.1,0-0.2,0-0.3-0.1c-0.1,0-0.2,0-0.3,0c-0.1,0-0.2,0-0.3-0.1c-0.1,0-0.2,0-0.4-0.1c-0.1,0-0.2,0-0.4,0c-0.1,0-0.3,0-0.4,0
				c-0.1,0-0.2,0-0.4,0c0,0,0,0-0.1,0c0,0,0,0-0.1,0s0,0-0.1,0c-0.1,0-0.2,0-0.2,0c-0.1,0-0.2,0-0.3,0c-0.1,0-0.2,0-0.2,0
				s-0.2,0-0.3,0c-0.2,0-0.3,0-0.5,0.1c-0.2,0-0.3,0-0.5,0.1c-0.7,0.1-1.3,0.3-2,0.6c-0.6,0.3-1.2,0.7-1.8,1.2
				c-0.6,0.5-1,1.1-1.4,1.9c-0.3,0.8-0.5,1.7-0.6,2.8c0,0,0,0,0,0.1c0,0,0,0,0,0.1c0,0,0,0,0,0.1c0,0,0,0,0,0.1c0,0,0,0,0,0.1
				c0,0,0,0,0,0.1c0,0,0,0,0,0.1c0,0,0,0,0,0.1s0,0,0,0.1c0,0,0,0,0,0.1c0,0,0,0,0,0.1c0,0.9,0.1,1.7,0.4,2.5
				c0.2,0.8,0.6,1.6,1.1,2.2c0.5,0.7,1,1.2,1.7,1.5c0.6,0.3,1.4,0.5,2.2,0.5c0.7,0,1.4-0.1,2-0.3s1.2-0.6,1.8-1
				c0.6-0.5,1-1.1,1.4-1.9c0.3-0.8,0.6-1.8,0.7-3v-7.6C254.6,184.5,254.5,184.6,254.5,184.6z"/>
		</g>
		<g>
			<path class="st2" d="M283.4,192.9c-0.3-0.5-0.6-0.9-1.1-1.3c-0.5-0.4-0.9-0.9-1.4-1.3c-0.5-0.4-1-0.9-1.6-1.3c0,0,0,0-0.1-0.1
				c0,0,0,0,0-0.1c0,0,0,0-0.1,0c0,0,0,0-0.1-0.1c0,0-0.1-0.1-0.1-0.1c0,0-0.1-0.1-0.1-0.1c-0.6-0.5-1.2-1-1.8-1.4s-1.1-1-1.6-1.5
				c-0.5-0.5-0.9-1-1.2-1.5c-0.3-0.6-0.4-1.1-0.5-1.7c0,0,0,0,0-0.1c0,0,0,0,0-0.1c0,0,0-0.1,0-0.1s0-0.1,0-0.1c0,0,0,0,0-0.1
				c0,0,0,0,0-0.1c0,0,0,0,0-0.1c0,0,0,0,0-0.1s0,0,0-0.1c0-0.8,0.1-1.5,0.4-2.1c0.3-0.6,0.7-1,1.2-1.3c0.6-0.3,1.1-0.6,1.8-0.8
				c0.6-0.2,1.3-0.3,1.9-0.4c0,0,0.1,0,0.1,0c0,0,0.1,0,0.2,0c0,0,0.1,0,0.1,0c0,0,0.1,0,0.1,0c0,0,0.1,0,0.2,0c0.1,0,0.1,0,0.2,0
				c0,0,0.1,0,0.2,0c0.1,0,0.1,0,0.2,0c0.3,0,0.5,0,0.8,0c0.3,0,0.5,0,0.8,0.1c0.3,0,0.5,0,0.8,0.1c0.2,0,0.5,0,0.7,0.1
				c0.1,0,0.3,0,0.4,0.1c0.1,0,0.3,0,0.4,0.1c0.1,0,0.2,0,0.3,0.1c0.1,0,0.1,0,0.1,0l0.3,1.7c-0.4-0.1-0.9-0.2-1.3-0.3
				s-0.8-0.1-1.2-0.2c-0.4,0-0.8-0.1-1.1-0.1c-0.3,0-0.7,0-1,0c0,0-0.1,0-0.2,0c-0.1,0-0.1,0-0.2,0c0,0-0.1,0-0.2,0
				c-0.1,0-0.1,0-0.2,0c0,0-0.1,0-0.1,0c0,0-0.1,0-0.1,0c0,0-0.1,0-0.1,0c0,0-0.1,0-0.1,0c0,0,0,0-0.1,0c0,0,0,0-0.1,0
				c0,0,0,0-0.1,0c0,0,0,0-0.1,0s-0.1,0-0.1,0s-0.1,0-0.1,0c-0.4,0.1-0.8,0.3-1.2,0.5c-0.3,0.2-0.6,0.5-0.8,0.8
				c-0.2,0.3-0.4,0.6-0.5,0.9s-0.2,0.6-0.2,0.9c0,0.1,0,0.2,0,0.2s0,0.2,0,0.3c0,0.1,0,0.2,0.1,0.3c0,0.1,0,0.2,0.1,0.2
				c0,0,0,0.1,0,0.1c0,0,0,0.1,0.1,0.1c0,0,0,0,0,0.1c0,0,0,0,0.1,0.1c0.2,0.4,0.4,0.8,0.7,1.2c0.3,0.4,0.7,0.8,1.1,1.1
				c0.4,0.4,0.8,0.7,1.3,1.1c0.4,0.4,0.9,0.7,1.3,1c0.1,0.1,0.2,0.1,0.3,0.2c0.1,0.1,0.2,0.1,0.3,0.2c0.1,0.1,0.2,0.1,0.3,0.2
				c0.1,0.1,0.2,0.1,0.3,0.2c0.2,0.2,0.4,0.3,0.6,0.5c0.2,0.2,0.4,0.3,0.6,0.5c0.2,0.2,0.4,0.3,0.5,0.5c0.2,0.2,0.3,0.3,0.5,0.5
				c0.2,0.2,0.4,0.4,0.5,0.6c0.1,0.2,0.3,0.4,0.4,0.6c0.1,0.2,0.2,0.4,0.3,0.6c0.1,0.2,0.2,0.4,0.3,0.6c0.1,0.2,0.1,0.3,0.2,0.5
				c0,0.2,0.1,0.3,0.1,0.5c0,0.2,0.1,0.3,0.1,0.5s0,0.3,0,0.5c0,0.6-0.1,1.2-0.4,1.7s-0.6,1.1-1.1,1.5c-0.5,0.5-1.1,0.8-1.8,1.1
				c-0.7,0.3-1.5,0.4-2.4,0.5c-0.1,0-0.2,0-0.3,0c-0.1,0-0.2,0-0.3,0c-0.1,0-0.2,0-0.3,0c-0.1,0-0.2,0-0.3,0c-0.2,0-0.4,0-0.6-0.1
				c-0.2,0-0.4,0-0.6-0.1c-0.4,0-0.8-0.1-1.1-0.1c-0.4-0.1-0.7-0.1-1-0.2c-0.3,0-0.6-0.1-0.9-0.2c-0.3-0.1-0.6-0.2-0.8-0.3l-0.3-2.1
				c0,0,0.1,0.1,0.1,0.1c0,0,0.1,0.1,0.1,0.1c0,0,0.1,0,0.1,0.1c0,0,0.1,0,0.1,0.1c0.3,0.1,0.5,0.2,0.8,0.3c0.3,0.1,0.6,0.2,0.9,0.3
				c0.3,0.1,0.7,0.2,1,0.3c0.3,0.1,0.7,0.2,1,0.2c0.1,0,0.2,0,0.4,0.1c0.1,0,0.2,0,0.4,0c0.1,0,0.2,0,0.4,0c0.1,0,0.2,0,0.4,0
				c0.6,0,1.1-0.1,1.6-0.2c0.5-0.1,1-0.3,1.4-0.6c0.4-0.3,0.8-0.7,1-1.2c0.2-0.5,0.3-1.1,0.3-1.8v-0.1
				C283.8,193.8,283.7,193.4,283.4,192.9z"/>
			<path class="st2" d="M302.7,183.5c1,0.5,1.8,1.2,2.5,2.1c0.6,0.9,1.1,1.8,1.5,2.8c0.3,1,0.5,2,0.5,3.2c0,0,0,0,0,0.1v0
				c0,1-0.2,2-0.5,2.9c-0.3,0.9-0.8,1.8-1.5,2.6c-0.6,0.8-1.5,1.5-2.4,1.9c-1,0.4-2.1,0.6-3.3,0.6h-0.3c-1.3,0-2.5-0.2-3.5-0.6
				c-1-0.4-1.8-1-2.5-1.9c-0.7-0.9-1.2-1.8-1.5-2.7c-0.3-0.9-0.5-1.9-0.5-3v0c0,0,0,0,0-0.1c0,0,0,0,0-0.1c0,0,0,0,0-0.1
				c0,0,0,0,0-0.1s0,0,0-0.1c0,0,0,0,0-0.1c0-1,0.2-2,0.6-3c0.3-0.9,0.9-1.9,1.5-2.7c0.7-0.9,1.5-1.5,2.5-2c1-0.5,2.1-0.7,3.4-0.7
				v-0.1C300.5,182.7,301.7,183,302.7,183.5z M296.3,184.9c-0.8,0.4-1.4,1-1.9,1.7c-0.5,0.7-0.8,1.5-1.1,2.3
				c-0.2,0.8-0.4,1.7-0.4,2.6c0,0.8,0.2,1.6,0.5,2.4c0.3,0.8,0.7,1.5,1.3,2.2c0.6,0.7,1.2,1.2,2,1.6c0.8,0.3,1.7,0.5,2.6,0.5
				c1.1,0,2-0.2,2.8-0.5c0.8-0.3,1.4-0.8,1.9-1.5c0.5-0.7,0.9-1.4,1.1-2.2c0.3-0.7,0.4-1.5,0.4-2.3c0,0,0-0.1,0-0.2
				c0-0.1,0-0.1,0-0.2c0,0,0,0,0-0.1c0,0,0-0.1,0-0.1c0,0,0,0,0-0.1c0,0,0,0,0-0.1c-0.1-0.8-0.3-1.7-0.6-2.4
				c-0.3-0.8-0.7-1.5-1.3-2.2c-0.5-0.7-1.2-1.2-1.9-1.6c-0.7-0.4-1.6-0.5-2.5-0.5l-0.2-0.1C298,184.3,297.1,184.5,296.3,184.9z"/>
			<path class="st2" d="M314,199.2h-1.8v-22h1.8V199.2z"/>
			<path class="st2" d="M321,193.8c0,0.7,0.1,1.3,0.3,1.8c0.2,0.5,0.5,1,0.9,1.4c0.4,0.4,0.9,0.7,1.3,0.9c0.5,0.2,1,0.3,1.6,0.3
				c0,0,0,0,0.1,0c0,0,0,0,0.1,0s0,0,0.1,0c0,0,0,0,0,0c0,0,0,0,0.1,0s0,0,0.1,0c0,0,0,0,0.1,0c0.8,0,1.6-0.1,2.3-0.4
				c0.7-0.3,1.4-0.8,2.1-1.4c0.6-0.6,1.1-1.2,1.5-1.9c0.3-0.7,0.5-1.4,0.5-2.2v-9.4h2.1v16.3h-2.1v-3.1c-0.1,0.5-0.3,0.9-0.7,1.3
				c-0.4,0.4-0.9,0.8-1.5,1.1c-0.6,0.4-1.2,0.6-1.9,0.8c-0.7,0.2-1.3,0.4-2,0.5c0,0-0.1,0-0.2,0c-0.1,0-0.1,0-0.2,0c0,0-0.1,0-0.1,0
				c0,0-0.1,0-0.1,0c0,0-0.1,0-0.1,0c0,0-0.1,0-0.1,0c0,0-0.1,0-0.1,0c0,0-0.1,0-0.1,0c-0.7,0-1.4-0.1-2.1-0.3
				c-0.6-0.2-1.3-0.5-1.8-0.9c-0.6-0.4-1-1-1.3-1.8s-0.4-1.7-0.4-2.8v-11.2h2.1V193.8z"/>
			<path class="st2" d="M343.1,182.9h4.7v1.5h-4.7v11.4c0,0.5,0.1,0.8,0.2,1.1s0.3,0.5,0.5,0.7c0.2,0.2,0.4,0.3,0.6,0.4
				c0.2,0.1,0.5,0.1,0.8,0.1c0.1,0,0.3,0,0.4,0c0.2,0,0.3,0,0.5-0.1c0.2,0,0.4-0.1,0.6-0.2c0.2-0.1,0.4-0.1,0.5-0.2
				c0.1,0,0.1,0,0.2-0.1c0.1,0,0.1,0,0.2-0.1c0,0,0.1,0,0.1-0.1c0,0,0.1,0,0.1-0.1c0,0,0.1,0,0.1,0c0,0,0.1,0,0.1-0.1v1.2
				c0,0.1-0.2,0.3-0.3,0.4c-0.2,0.1-0.4,0.2-0.7,0.2c-0.3,0.1-0.6,0.1-0.9,0.2c-0.3,0-0.6,0.1-1,0.1c0,0,0,0-0.1,0c0,0,0,0-0.1,0
				c0,0,0,0-0.1,0s0,0-0.1,0c0,0-0.1,0-0.1,0c0,0-0.1,0-0.1,0c0,0,0,0-0.1,0c0,0,0,0-0.1,0c0,0,0,0-0.1,0c0,0,0,0-0.1,0
				c-0.4,0-0.8-0.1-1.1-0.2c-0.4-0.1-0.7-0.2-1.1-0.4c-0.3-0.2-0.6-0.4-0.8-0.7c-0.2-0.3-0.3-0.6-0.4-1v-12.7H339v-1.5h2.1v-3.1
				l2.1-0.3V182.9z"/>
			<path class="st2" d="M355.5,177.2v2.1h-2.6v-2.1H355.5z M355.3,182.9v16.3h-2.1v-16.3H355.3z"/>
			<path class="st2" d="M371.9,183.5c1,0.5,1.8,1.2,2.5,2.1c0.6,0.9,1.1,1.8,1.5,2.8c0.3,1,0.5,2,0.5,3.2c0,0,0,0,0,0.1v0
				c0,1-0.2,2-0.5,2.9c-0.3,0.9-0.8,1.8-1.5,2.6c-0.6,0.8-1.5,1.5-2.4,1.9c-1,0.4-2.1,0.6-3.3,0.6h-0.3c-1.3,0-2.5-0.2-3.5-0.6
				c-1-0.4-1.8-1-2.5-1.9c-0.7-0.9-1.2-1.8-1.5-2.7c-0.3-0.9-0.5-1.9-0.5-3v0c0,0,0,0,0-0.1c0,0,0,0,0-0.1c0,0,0,0,0-0.1
				c0,0,0,0,0-0.1s0,0,0-0.1c0,0,0,0,0-0.1c0-1,0.2-2,0.6-3c0.3-0.9,0.9-1.9,1.5-2.7c0.7-0.9,1.5-1.5,2.5-2c1-0.5,2.1-0.7,3.4-0.7
				v-0.1C369.7,182.7,370.8,183,371.9,183.5z M365.5,184.9c-0.8,0.4-1.4,1-1.9,1.7c-0.5,0.7-0.8,1.5-1.1,2.3
				c-0.2,0.8-0.4,1.7-0.4,2.6c0,0.8,0.2,1.6,0.5,2.4c0.3,0.8,0.7,1.5,1.3,2.2c0.6,0.7,1.2,1.2,2,1.6c0.8,0.3,1.7,0.5,2.6,0.5
				c1.1,0,2-0.2,2.8-0.5c0.8-0.3,1.4-0.8,1.9-1.5c0.5-0.7,0.9-1.4,1.1-2.2c0.3-0.7,0.4-1.5,0.4-2.3c0,0,0-0.1,0-0.2
				c0-0.1,0-0.1,0-0.2c0,0,0,0,0-0.1c0,0,0-0.1,0-0.1c0,0,0,0,0-0.1c0,0,0,0,0-0.1c-0.1-0.8-0.3-1.7-0.6-2.4
				c-0.3-0.8-0.7-1.5-1.3-2.2c-0.5-0.7-1.2-1.2-1.9-1.6c-0.7-0.4-1.6-0.5-2.5-0.5l-0.2-0.1C367.2,184.3,366.3,184.5,365.5,184.9z"/>
			<path class="st2" d="M381,199.2v-16.3h2.1v3.3c0.1-0.5,0.4-1,0.7-1.4c0.4-0.4,0.8-0.8,1.4-1.1c0.6-0.3,1.3-0.6,1.9-0.7
				c0.7-0.2,1.4-0.3,2.1-0.3c0,0,0,0,0.1,0c0,0,0,0,0.1,0c0,0,0.1,0,0.1,0c0,0,0.1,0,0.1,0c0,0,0.1,0,0.1,0c0,0,0,0,0.1,0s0,0,0.1,0
				c0,0,0,0,0.1,0s0,0,0.1,0c0.8,0,1.5,0.1,2.2,0.3c0.7,0.2,1.4,0.5,2,0.8c0.6,0.4,1.1,0.8,1.4,1.4c0.3,0.6,0.5,1.2,0.5,1.9v12.1
				H394v-11.6c0-0.5-0.1-0.9-0.4-1.3c-0.3-0.4-0.7-0.8-1.2-1.1c-0.5-0.3-1.1-0.6-1.7-0.8c-0.6-0.2-1.2-0.3-1.8-0.3c0,0-0.1,0-0.1,0
				c0,0-0.1,0-0.1,0c0,0,0,0-0.1,0c0,0,0,0-0.1,0c0,0,0,0-0.1,0c0,0,0,0-0.1,0c-0.6,0.1-1.3,0.2-1.9,0.5c-0.6,0.3-1.2,0.7-1.7,1.2
				c-0.5,0.5-0.9,1.1-1.2,1.9c-0.3,0.8-0.4,1.7-0.5,2.7v8.7H381z"/>
			<path class="st2" d="M410.3,185c-0.2,0-0.3-0.1-0.5-0.1c-0.2,0-0.4-0.1-0.6-0.1c-0.2,0-0.5-0.1-0.7-0.1c-0.2,0-0.5-0.1-0.7-0.1
				c0,0-0.1,0-0.2,0c-0.1,0-0.1,0-0.2,0c0,0-0.1,0-0.2,0c-0.1,0-0.1,0-0.2,0c0,0-0.1,0-0.1,0c0,0-0.1,0-0.1,0c0,0-0.1,0-0.1,0
				c0,0-0.1,0-0.1,0c-0.4,0-0.8,0-1.2,0.1c-0.4,0.1-0.7,0.2-1.1,0.3c-0.3,0.2-0.6,0.4-0.8,0.6c-0.2,0.3-0.3,0.6-0.3,0.9
				c0,0,0,0,0,0.1c0,0,0,0,0,0.1c0,0,0,0,0,0v0c0,0,0,0.1,0,0.1c0,0,0,0,0,0c0,0,0,0,0,0.1c0.2,0.5,0.4,0.9,0.7,1.3
				c0.3,0.4,0.5,0.7,0.8,1c0.3,0.2,0.6,0.5,0.9,0.7c0.3,0.2,0.6,0.5,1,0.7c0,0,0,0,0.1,0.1c0,0,0,0,0.1,0c0,0,0,0,0,0.1s0,0,0.1,0.1
				c0,0,0,0,0.1,0.1c0,0,0,0,0.1,0c0,0,0,0,0.1,0.1c0,0,0,0,0.1,0.1c0.2,0.1,0.3,0.2,0.5,0.3c0.2,0.1,0.3,0.2,0.5,0.4
				c0.1,0.1,0.3,0.3,0.5,0.4c0.2,0.1,0.3,0.3,0.5,0.4c0.3,0.3,0.6,0.6,0.9,1.1c0.3,0.4,0.5,0.9,0.8,1.5v0.8c0,0.8-0.1,1.4-0.4,2
				c-0.3,0.5-0.7,0.9-1.3,1.2c-0.6,0.2-1.2,0.4-1.8,0.5c-0.6,0.1-1.3,0.2-2,0.2c0,0-0.1,0-0.1,0c0,0-0.1,0-0.1,0c0,0-0.1,0-0.1,0
				c0,0-0.1,0-0.1,0c-0.1,0-0.2,0-0.3,0c-0.1,0-0.2,0-0.2,0c-0.3,0-0.6-0.1-0.9-0.1c-0.3,0-0.6-0.1-0.9-0.1c-0.3,0-0.6,0-0.8-0.1
				c-0.3,0-0.5-0.1-0.7-0.2l-0.3-1.9c0,0,0,0.1,0.1,0.1c0,0,0,0,0.1,0c0,0,0,0,0.1,0c0,0,0,0,0,0c0.1,0,0.2,0.1,0.3,0.1
				s0.2,0.1,0.3,0.1c0.1,0,0.2,0.1,0.4,0.1c0.1,0,0.3,0.1,0.4,0.1c0.3,0.1,0.6,0.1,0.9,0.2s0.6,0.1,0.9,0.1c0,0,0.1,0,0.1,0
				c0,0,0.1,0,0.2,0c0,0,0.1,0,0.1,0c0,0,0.1,0,0.1,0c0.1,0,0.2,0,0.3,0s0.2,0,0.3,0c0.3,0,0.5,0,0.8,0c0.2,0,0.5-0.1,0.7-0.1
				c0.2,0,0.5-0.1,0.6-0.2c0.2-0.1,0.3-0.2,0.4-0.3c0.1,0,0.1-0.1,0.2-0.2c0.1-0.1,0.1-0.1,0.2-0.2c0,0,0-0.1,0.1-0.1
				c0,0,0-0.1,0.1-0.1c0,0,0-0.1,0-0.1s0-0.1,0.1-0.1c0,0,0-0.1,0-0.1c0,0,0-0.1,0.1-0.1c0,0,0-0.1,0-0.1c0,0,0-0.1,0-0.1
				c0,0,0-0.1,0-0.1c0,0,0-0.1,0-0.1c0,0,0-0.1,0-0.1s0-0.1,0-0.1c0,0,0,0,0-0.1c0,0,0,0,0-0.1c0,0,0-0.1,0-0.1
				c-0.1-0.4-0.3-0.8-0.6-1.3c-0.3-0.4-0.8-0.9-1.4-1.3c-0.6-0.5-1.2-1-1.8-1.5c-0.6-0.5-1.3-1.1-2-1.7c0,0,0,0-0.1,0s0,0-0.1-0.1
				c0,0,0,0-0.1-0.1c0,0,0,0,0-0.1c-0.3-0.3-0.5-0.7-0.7-1c-0.2-0.3-0.4-0.6-0.5-0.9c-0.1-0.3-0.2-0.6-0.3-0.8
				c-0.1-0.3-0.1-0.5-0.1-0.8c0-0.6,0.1-1,0.4-1.4c0.3-0.4,0.7-0.7,1.2-1c0.6-0.3,1.1-0.5,1.8-0.6c0.6-0.1,1.3-0.2,2.1-0.2
				c0.1,0,0.1,0,0.2,0c0.1,0,0.2,0,0.3,0c0.1,0,0.1,0,0.2,0c0.1,0,0.2,0,0.2,0c0.1,0,0.1,0,0.2,0s0.2,0,0.3,0c0.1,0,0.1,0,0.2,0
				c0.1,0,0.2,0,0.3,0c0.1,0,0.2,0,0.4,0.1c0.1,0,0.2,0,0.4,0.1c0.1,0,0.2,0,0.4,0.1c0.1,0,0.3,0,0.4,0.1v-0.1L410.3,185z"/>
		</g>
		<g>
			<path class="st2" d="M429.6,177.3v20.4h10.6v1.5h-12.9v-22H429.6z"/>
			<path class="st2" d="M447.5,177.3v2.1h-2.6v-2.1H447.5z M447.3,183v16.3h-2.1V183H447.3z"/>
			<path class="st2" d="M454.1,185.6c0.2-0.4,0.4-0.7,0.7-1.1c0.3-0.3,0.7-0.6,1.2-0.9c0.5-0.3,1-0.5,1.5-0.6
				c0.5-0.1,1.1-0.2,1.7-0.2c0,0,0.1,0,0.1,0s0.1,0,0.1,0c0,0,0,0,0.1,0c0,0,0,0,0.1,0c0,0,0.1,0,0.1,0c0.5,0,1,0.1,1.4,0.3
				c0.5,0.1,0.9,0.3,1.4,0.6c0.4,0.2,0.8,0.5,1.1,0.9s0.6,0.8,0.8,1.3c0.2-0.4,0.5-0.8,0.9-1.2c0.3-0.4,0.8-0.7,1.2-0.9
				c0.5-0.3,0.9-0.5,1.4-0.6c0.5-0.1,1-0.3,1.5-0.3c0,0,0.1,0,0.1,0c0,0,0.1,0,0.1,0c0,0,0.1,0,0.1,0s0.1,0,0.1,0c0,0,0.1,0,0.1,0
				s0.1,0,0.1,0c0,0,0.1,0,0.1,0c0,0,0.1,0,0.1,0c0.6,0,1.2,0.1,1.8,0.3c0.6,0.2,1.1,0.4,1.7,0.8c0.5,0.3,0.9,0.8,1.2,1.3
				c0.3,0.5,0.4,1.1,0.4,1.8v12.3h-2.1v-12.1c0-0.4-0.1-0.7-0.3-1s-0.5-0.6-0.8-0.8s-0.7-0.4-1.2-0.5s-0.9-0.2-1.3-0.2
				c0,0-0.1,0-0.1,0c0,0-0.1,0-0.1,0c0,0-0.1,0-0.1,0s-0.1,0-0.1,0c-0.1,0-0.1,0-0.2,0s-0.1,0-0.2,0c-0.5,0.1-1,0.2-1.5,0.4
				c-0.5,0.2-0.9,0.5-1.4,0.9c-0.4,0.4-0.8,0.8-1,1.3c-0.2,0.5-0.3,1.1-0.3,1.7v10.3h-2.1v-11.9c0-0.4-0.1-0.8-0.3-1.2
				c-0.2-0.3-0.4-0.6-0.8-0.9c-0.4-0.2-0.7-0.4-1.1-0.5c-0.4-0.1-0.8-0.2-1.3-0.2c0,0-0.1,0-0.1,0s-0.1,0-0.1,0c0,0-0.1,0-0.1,0
				c0,0-0.1,0-0.1,0c-0.1,0-0.2,0-0.3,0c-0.1,0-0.2,0-0.2,0.1c-0.5,0.1-1,0.3-1.5,0.5c-0.5,0.2-0.9,0.5-1.3,0.9
				c-0.4,0.4-0.8,0.8-1,1.3s-0.3,1.1-0.3,1.7v10h-2.1V183h2.1V185.6z"/>
			<path class="st2" d="M482.6,177.3v2.1H480v-2.1H482.6z M482.4,183v16.3h-2.1V183H482.4z"/>
			<path class="st2" d="M491.6,183h4.7v1.5h-4.7v11.4c0,0.5,0.1,0.8,0.2,1.1c0.1,0.3,0.3,0.5,0.4,0.7c0.2,0.2,0.4,0.3,0.6,0.4
				c0.2,0.1,0.5,0.1,0.8,0.1c0.1,0,0.3,0,0.4,0c0.2,0,0.3,0,0.5-0.1c0.2,0,0.4-0.1,0.6-0.2c0.2-0.1,0.4-0.1,0.5-0.2
				c0.1,0,0.1,0,0.2-0.1c0.1,0,0.1,0,0.2-0.1c0,0,0.1,0,0.1-0.1c0,0,0.1,0,0.1-0.1c0,0,0.1,0,0.1,0c0,0,0.1,0,0.1-0.1v1.2
				c0,0.1-0.2,0.3-0.3,0.4s-0.4,0.2-0.7,0.2c-0.3,0.1-0.6,0.1-0.9,0.2c-0.3,0-0.6,0.1-1,0.1c0,0,0,0-0.1,0c0,0,0,0-0.1,0
				c0,0,0,0-0.1,0s0,0-0.1,0c0,0-0.1,0-0.1,0s-0.1,0-0.1,0c0,0,0,0-0.1,0s0,0-0.1,0c0,0,0,0-0.1,0c0,0,0,0-0.1,0
				c-0.4,0-0.8-0.1-1.1-0.2s-0.7-0.2-1.1-0.4c-0.3-0.2-0.6-0.4-0.8-0.7c-0.2-0.3-0.3-0.6-0.4-1v-12.7h-2.1V183h2.1v-3.1l2.1-0.3V183
				z"/>
			<path class="st2" d="M502,187.4c0.3-1,0.9-1.9,1.6-2.5c0.7-0.6,1.4-1.2,2.2-1.6c0.8-0.4,1.6-0.6,2.4-0.7c0,0,0.1,0,0.1,0
				c0,0,0.1,0,0.1,0c0,0,0.1,0,0.1,0c0,0,0.1,0,0.1,0s0.1,0,0.1,0c0,0,0.1,0,0.1,0c0,0,0.1,0,0.1,0c0,0,0.1,0,0.1,0
				c1.1,0,2,0.2,2.8,0.5c0.8,0.4,1.5,0.9,2.1,1.6c0.6,0.7,1.1,1.4,1.4,2.2c0.3,0.8,0.5,1.6,0.5,2.5c0,0,0,0.1,0,0.1c0,0,0,0,0,0.1
				c0,0,0,0,0,0.1c0,0,0,0.1,0,0.1s0,0.1,0,0.1c0,0,0,0.1,0,0.1c0,0,0,0,0,0.1c0,0,0,0,0,0.1c0,0,0,0.1,0,0.1s0,0.1,0,0.1l-12.4-0.1
				c0,1.6,0.2,2.9,0.5,4c0.3,1.1,0.8,1.9,1.4,2.4c0.6,0.6,1.3,1,2.1,1.3c0.7,0.3,1.5,0.4,2.3,0.4c0.1,0,0.3,0,0.4,0
				c0.1,0,0.3,0,0.4,0c0.1,0,0.3,0,0.4,0c0.1,0,0.3,0,0.4-0.1c0.3,0,0.5-0.1,0.8-0.2c0.3-0.1,0.5-0.1,0.8-0.2
				c0.3-0.1,0.5-0.1,0.8-0.2c0.2-0.1,0.5-0.1,0.7-0.2c0,0,0,0,0.1,0c0,0,0,0,0.1,0c0,0,0,0,0.1,0c0,0,0,0,0.1-0.1l-0.3,1.7
				c-0.1,0.1-0.2,0.1-0.4,0.2s-0.3,0.1-0.4,0.1c-0.1,0-0.2,0-0.2,0s-0.2,0-0.3,0c0,0-0.1,0-0.1,0c0,0-0.1,0-0.1,0
				c-0.3,0-0.6,0.1-0.9,0.1s-0.6,0.1-0.9,0.1c-0.3,0-0.6,0.1-0.8,0.1c-0.3,0-0.5,0-0.8,0c-1.2,0-2.3-0.2-3.3-0.5
				c-1-0.3-1.9-0.8-2.7-1.5c-0.8-0.7-1.4-1.6-1.8-2.7c-0.4-1.1-0.6-2.4-0.6-4V191C501.5,189.6,501.7,188.4,502,187.4z M513.9,188.4
				c0-0.6-0.1-1.2-0.3-1.7c-0.2-0.5-0.5-1-0.9-1.4c-0.4-0.4-0.8-0.7-1.4-0.9c-0.5-0.2-1.1-0.3-1.8-0.3c-0.9,0-1.7,0.2-2.4,0.3
				c-0.6,0.2-1.2,0.4-1.5,0.8c-0.4,0.3-0.7,0.6-0.9,1c-0.2,0.3-0.4,0.7-0.5,1.1c0,0.2-0.1,0.3-0.1,0.5c0,0.1-0.1,0.3-0.1,0.4
				c0,0.1,0,0.3-0.1,0.4c0,0.1,0,0.3-0.1,0.4l10.1-0.1V188.4z"/>
			<path class="st2" d="M533.7,177.3h2.1v22h-2.1v-3.1c0,0.1,0,0.1-0.1,0.2c0,0.1,0,0.1-0.1,0.2c0,0.1,0,0.1-0.1,0.2
				c0,0.1-0.1,0.1-0.1,0.2c-0.1,0.1-0.1,0.2-0.2,0.4s-0.2,0.3-0.3,0.4c-0.2,0.3-0.5,0.6-0.8,0.8c-0.3,0.3-0.7,0.5-1.1,0.7
				c-0.4,0.2-0.9,0.3-1.4,0.5c-0.5,0.1-1.1,0.2-1.8,0.2c-1,0-1.9-0.2-2.8-0.5s-1.7-0.8-2.4-1.5c-0.7-0.7-1.3-1.5-1.6-2.5
				c-0.4-1-0.5-2.1-0.5-3.3c0,0,0,0,0-0.1c0,0,0,0,0-0.1c0,0,0,0,0-0.1c0,0,0,0,0-0.1c0,0,0,0,0-0.1v0c0,0,0,0,0-0.1c0,0,0,0,0-0.1
				c0,0,0,0,0-0.1c0,0,0,0,0-0.1c0-1.4,0.3-2.6,0.7-3.6c0.4-1,1-1.8,1.7-2.5c0.7-0.6,1.5-1.2,2.2-1.6c0.8-0.4,1.6-0.7,2.4-0.9
				c0.2,0,0.4-0.1,0.6-0.1c0.2,0,0.4,0,0.6-0.1c0.1,0,0.2,0,0.3,0c0.1,0,0.2,0,0.3,0c0.1,0,0.2,0,0.3,0c0.1,0,0.2,0,0.3,0
				c0.3,0,0.7,0,1,0.1c0.3,0,0.7,0.1,1,0.1c0.3,0,0.6,0.1,0.9,0.2c0.3,0.1,0.5,0.1,0.7,0.2V183V177.3z M533.6,184.6
				C533.6,184.6,533.5,184.6,533.6,184.6c-0.1,0-0.1,0-0.1,0c0,0-0.1,0-0.1,0c-0.1,0-0.1,0-0.2-0.1c-0.1,0-0.2,0-0.3-0.1
				s-0.2,0-0.3-0.1c-0.1,0-0.2,0-0.3,0c-0.1,0-0.2,0-0.3-0.1c-0.1,0-0.2,0-0.4-0.1c-0.1,0-0.2,0-0.4,0c-0.1,0-0.3,0-0.4,0
				s-0.2,0-0.4,0c0,0,0,0-0.1,0c0,0,0,0-0.1,0c0,0,0,0-0.1,0c-0.1,0-0.2,0-0.2,0s-0.2,0-0.3,0c-0.1,0-0.2,0-0.2,0s-0.2,0-0.3,0
				c-0.2,0-0.3,0-0.5,0.1c-0.2,0-0.3,0-0.5,0.1c-0.7,0.1-1.3,0.3-2,0.6c-0.6,0.3-1.2,0.7-1.8,1.2c-0.6,0.5-1,1.1-1.4,1.9
				c-0.3,0.8-0.5,1.7-0.6,2.8c0,0,0,0,0,0.1c0,0,0,0,0,0.1c0,0,0,0,0,0.1c0,0,0,0,0,0.1c0,0,0,0,0,0.1c0,0,0,0,0,0.1c0,0,0,0,0,0.1
				c0,0,0,0,0,0.1s0,0,0,0.1c0,0,0,0,0,0.1c0,0,0,0,0,0.1c0,0.9,0.1,1.7,0.4,2.5c0.2,0.8,0.6,1.6,1.1,2.2c0.5,0.7,1,1.2,1.7,1.5
				c0.6,0.3,1.4,0.5,2.2,0.5c0.7,0,1.4-0.1,2-0.3s1.2-0.6,1.8-1s1-1.1,1.4-1.9c0.3-0.8,0.6-1.8,0.7-3v-7.6
				C533.7,184.5,533.6,184.6,533.6,184.6z"/>
		</g>
	</g>
	<g class="st1">
		<g>
			<path class="st3" d="M1188.7,177.3v2.1h-2.6v-2.1H1188.7z M1188.5,183v16.3h-2.1V183H1188.5z"/>
			<path class="st3" d="M1201.3,177.3c0.8,0,1.5,0.2,2.2,0.5c0.7,0.3,1.3,0.6,1.9,1.1c0.6,0.5,1,1,1.4,1.7c0.3,0.6,0.4,1.4,0.4,2.2
				v0.5c0,0.8-0.1,1.5-0.3,2.1c-0.2,0.6-0.6,1.1-1.1,1.6c-0.5,0.4-0.9,0.8-1.5,1.1c-0.5,0.3-1.1,0.5-1.6,0.7c-0.2,0-0.3,0.1-0.5,0.1
				c-0.1,0-0.3,0.1-0.4,0.1c-0.1,0-0.3,0-0.4,0s-0.3,0-0.4,0c0,0,0,0-0.1,0c0,0,0,0-0.1,0c0,0,0,0-0.1,0c0,0,0,0-0.1,0s0,0-0.1,0
				c0,0-0.1,0-0.1,0c0,0,0,0-0.1,0c0,0,0,0,0,0c0,0-0.1,0-0.1,0s-0.1,0-0.1,0c0,0,0,0-0.1,0s0,0-0.1,0c0,0,0,0-0.1,0c0,0,0,0-0.1,0
				l7.5,10.5h-2.9l-7.8-11.6c0,0,0.1,0.1,0.1,0.1c0,0,0.1,0,0.1,0c0,0,0.1,0,0.2,0c0.1,0,0.1,0,0.2,0c0,0,0,0,0.1,0c0,0,0,0,0.1,0
				s0.1,0,0.1,0c0,0,0.1,0,0.1,0s0.1,0,0.1,0c0,0,0.1,0,0.2,0c0.1,0,0.1,0,0.2,0c1.1,0,2-0.1,2.8-0.3c0.8-0.2,1.5-0.4,2-0.8
				c0.6-0.3,1-0.8,1.3-1.3c0.3-0.6,0.5-1.3,0.5-2.1v-0.5c0-0.6-0.1-1.1-0.3-1.6c-0.2-0.4-0.4-0.8-0.8-1.1s-0.7-0.5-1.1-0.7
				c-0.4-0.2-0.8-0.3-1.2-0.4c0,0-0.1,0-0.2,0c-0.1,0-0.1,0-0.2-0.1c-0.1,0-0.1,0-0.2,0c-0.1,0-0.1,0-0.2,0c0,0-0.1,0-0.2,0
				c-0.1,0-0.1,0-0.2,0c0,0-0.1,0-0.2,0s-0.1,0-0.2,0l-4.7-0.1v20.4h-2.3v-22H1201.3z"/>
			<path class="st3" d="M1225.6,177.3v1.5h-11.1v8.6h10.1v1.5h-10.1v8.8h10.9v1.5h-13.2v-22H1225.6z"/>
			<path class="st3" d="M1243.6,177.3h2.1v22h-2.1v-3.1c0,0.1,0,0.1-0.1,0.2c0,0.1,0,0.1-0.1,0.2c0,0.1,0,0.1-0.1,0.2
				c0,0.1-0.1,0.1-0.1,0.2c-0.1,0.1-0.1,0.2-0.2,0.4s-0.2,0.3-0.3,0.4c-0.2,0.3-0.5,0.6-0.8,0.8c-0.3,0.3-0.7,0.5-1.1,0.7
				c-0.4,0.2-0.9,0.3-1.4,0.5c-0.5,0.1-1.1,0.2-1.8,0.2c-1,0-1.9-0.2-2.8-0.5c-0.9-0.3-1.7-0.8-2.4-1.5c-0.7-0.7-1.3-1.5-1.6-2.5
				c-0.4-1-0.5-2.1-0.5-3.3c0,0,0,0,0-0.1c0,0,0,0,0-0.1c0,0,0,0,0-0.1c0,0,0,0,0-0.1c0,0,0,0,0-0.1v0c0,0,0,0,0-0.1c0,0,0,0,0-0.1
				c0,0,0,0,0-0.1c0,0,0,0,0-0.1c0-1.4,0.3-2.6,0.7-3.6c0.4-1,1-1.8,1.7-2.5c0.7-0.6,1.5-1.2,2.2-1.6c0.8-0.4,1.6-0.7,2.4-0.9
				c0.2,0,0.4-0.1,0.6-0.1c0.2,0,0.4,0,0.6-0.1c0.1,0,0.2,0,0.3,0c0.1,0,0.2,0,0.3,0c0.1,0,0.2,0,0.3,0c0.1,0,0.2,0,0.3,0
				c0.3,0,0.7,0,1,0.1c0.3,0,0.7,0.1,1,0.1c0.3,0,0.6,0.1,0.9,0.2c0.3,0.1,0.5,0.1,0.7,0.2V183V177.3z M1243.5,184.6
				C1243.4,184.6,1243.4,184.6,1243.5,184.6c-0.1,0-0.1,0-0.1,0c0,0-0.1,0-0.1,0c-0.1,0-0.1,0-0.2-0.1c-0.1,0-0.2,0-0.3-0.1
				c-0.1,0-0.2,0-0.3-0.1c-0.1,0-0.2,0-0.3,0c-0.1,0-0.2,0-0.3-0.1c-0.1,0-0.2,0-0.4-0.1c-0.1,0-0.2,0-0.4,0c-0.1,0-0.3,0-0.4,0
				c-0.1,0-0.2,0-0.4,0c0,0,0,0-0.1,0c0,0,0,0-0.1,0s0,0-0.1,0c-0.1,0-0.2,0-0.2,0c-0.1,0-0.2,0-0.3,0c-0.1,0-0.2,0-0.2,0
				s-0.2,0-0.3,0c-0.2,0-0.3,0-0.5,0.1c-0.2,0-0.3,0-0.5,0.1c-0.7,0.1-1.3,0.3-2,0.6c-0.6,0.3-1.2,0.7-1.8,1.2
				c-0.6,0.5-1,1.1-1.4,1.9c-0.3,0.8-0.5,1.7-0.6,2.8c0,0,0,0,0,0.1c0,0,0,0,0,0.1c0,0,0,0,0,0.1c0,0,0,0,0,0.1c0,0,0,0,0,0.1
				c0,0,0,0,0,0.1c0,0,0,0,0,0.1c0,0,0,0,0,0.1s0,0,0,0.1c0,0,0,0,0,0.1c0,0,0,0,0,0.1c0,0.9,0.1,1.7,0.4,2.5
				c0.2,0.8,0.6,1.6,1.1,2.2c0.5,0.7,1,1.2,1.7,1.5c0.6,0.3,1.4,0.5,2.2,0.5c0.7,0,1.4-0.1,2-0.3s1.2-0.6,1.8-1
				c0.6-0.5,1-1.1,1.4-1.9c0.3-0.8,0.6-1.8,0.7-3v-7.6C1243.6,184.5,1243.5,184.6,1243.5,184.6z"/>
		</g>
		<g>
			<path class="st3" d="M1272.4,192.9c-0.3-0.5-0.6-0.9-1.1-1.3c-0.5-0.4-0.9-0.9-1.4-1.3c-0.5-0.4-1-0.9-1.6-1.3c0,0,0,0-0.1-0.1
				c0,0,0,0,0-0.1c0,0,0,0-0.1,0c0,0,0,0-0.1-0.1c0,0-0.1-0.1-0.1-0.1c0,0-0.1-0.1-0.1-0.1c-0.6-0.5-1.2-1-1.8-1.4s-1.1-1-1.6-1.5
				c-0.5-0.5-0.9-1-1.2-1.5c-0.3-0.6-0.4-1.1-0.5-1.7c0,0,0,0,0-0.1c0,0,0,0,0-0.1c0,0,0-0.1,0-0.1s0-0.1,0-0.1c0,0,0,0,0-0.1
				c0,0,0,0,0-0.1c0,0,0,0,0-0.1c0,0,0,0,0-0.1s0,0,0-0.1c0-0.8,0.1-1.5,0.4-2.1c0.3-0.6,0.7-1,1.2-1.3c0.6-0.3,1.1-0.6,1.8-0.8
				c0.6-0.2,1.3-0.3,1.9-0.4c0,0,0.1,0,0.1,0c0,0,0.1,0,0.2,0c0,0,0.1,0,0.1,0c0,0,0.1,0,0.1,0c0,0,0.1,0,0.2,0c0.1,0,0.1,0,0.2,0
				c0,0,0.1,0,0.2,0c0.1,0,0.1,0,0.2,0c0.3,0,0.5,0,0.8,0c0.3,0,0.5,0,0.8,0.1c0.3,0,0.5,0,0.8,0.1c0.2,0,0.5,0,0.7,0.1
				c0.1,0,0.3,0,0.4,0.1c0.1,0,0.3,0,0.4,0.1c0.1,0,0.2,0,0.3,0.1c0.1,0,0.1,0,0.1,0l0.3,1.7c-0.4-0.1-0.9-0.2-1.3-0.3
				s-0.8-0.1-1.2-0.2c-0.4,0-0.8-0.1-1.1-0.1c-0.3,0-0.7,0-1,0c0,0-0.1,0-0.2,0c-0.1,0-0.1,0-0.2,0c0,0-0.1,0-0.2,0
				c-0.1,0-0.1,0-0.2,0c0,0-0.1,0-0.1,0c0,0-0.1,0-0.1,0c0,0-0.1,0-0.1,0c0,0-0.1,0-0.1,0c0,0,0,0-0.1,0c0,0,0,0-0.1,0
				c0,0,0,0-0.1,0c0,0,0,0-0.1,0s-0.1,0-0.1,0s-0.1,0-0.1,0c-0.4,0.1-0.8,0.3-1.2,0.5c-0.3,0.2-0.6,0.5-0.8,0.8
				c-0.2,0.3-0.4,0.6-0.5,0.9s-0.2,0.6-0.2,0.9c0,0.1,0,0.2,0,0.2s0,0.2,0,0.3c0,0.1,0,0.2,0.1,0.3c0,0.1,0,0.2,0.1,0.2
				c0,0,0,0.1,0,0.1c0,0,0,0.1,0.1,0.1c0,0,0,0,0,0.1c0,0,0,0,0.1,0.1c0.2,0.4,0.4,0.8,0.7,1.2c0.3,0.4,0.7,0.8,1.1,1.1
				c0.4,0.4,0.8,0.7,1.3,1.1c0.4,0.4,0.9,0.7,1.3,1c0.1,0.1,0.2,0.1,0.3,0.2c0.1,0.1,0.2,0.1,0.3,0.2c0.1,0.1,0.2,0.1,0.3,0.2
				c0.1,0.1,0.2,0.1,0.3,0.2c0.2,0.2,0.4,0.3,0.6,0.5c0.2,0.2,0.4,0.3,0.6,0.5c0.2,0.2,0.4,0.3,0.5,0.5c0.2,0.2,0.3,0.3,0.5,0.5
				c0.2,0.2,0.4,0.4,0.5,0.6c0.1,0.2,0.3,0.4,0.4,0.6c0.1,0.2,0.2,0.4,0.3,0.6c0.1,0.2,0.2,0.4,0.3,0.6c0.1,0.2,0.1,0.3,0.2,0.5
				c0,0.2,0.1,0.3,0.1,0.5c0,0.2,0.1,0.3,0.1,0.5s0,0.3,0,0.5c0,0.6-0.1,1.2-0.4,1.7s-0.6,1.1-1.1,1.5c-0.5,0.5-1.1,0.8-1.8,1.1
				c-0.7,0.3-1.5,0.4-2.4,0.5c-0.1,0-0.2,0-0.3,0c-0.1,0-0.2,0-0.3,0c-0.1,0-0.2,0-0.3,0c-0.1,0-0.2,0-0.3,0c-0.2,0-0.4,0-0.6-0.1
				c-0.2,0-0.4,0-0.6-0.1c-0.4,0-0.8-0.1-1.1-0.1c-0.4-0.1-0.7-0.1-1-0.2c-0.3,0-0.6-0.1-0.9-0.2c-0.3-0.1-0.6-0.2-0.8-0.3l-0.3-2.1
				c0,0,0.1,0.1,0.1,0.1c0,0,0.1,0.1,0.1,0.1c0,0,0.1,0,0.1,0.1c0,0,0.1,0,0.1,0.1c0.3,0.1,0.5,0.2,0.8,0.3c0.3,0.1,0.6,0.2,0.9,0.3
				c0.3,0.1,0.7,0.2,1,0.3c0.3,0.1,0.7,0.2,1,0.2c0.1,0,0.2,0,0.4,0.1c0.1,0,0.2,0,0.4,0c0.1,0,0.2,0,0.4,0c0.1,0,0.2,0,0.4,0
				c0.6,0,1.1-0.1,1.6-0.2c0.5-0.1,1-0.3,1.4-0.6c0.4-0.3,0.8-0.7,1-1.2c0.2-0.5,0.3-1.1,0.3-1.8v-0.1
				C1272.8,193.8,1272.7,193.4,1272.4,192.9z"/>
			<path class="st3" d="M1291.6,183.5c1,0.5,1.8,1.2,2.5,2.1c0.6,0.9,1.1,1.8,1.5,2.8c0.3,1,0.5,2,0.5,3.2c0,0,0,0,0,0.1v0
				c0,1-0.2,2-0.5,2.9c-0.3,0.9-0.8,1.8-1.5,2.6c-0.6,0.8-1.5,1.5-2.4,1.9c-1,0.4-2.1,0.6-3.3,0.6h-0.3c-1.3,0-2.5-0.2-3.5-0.6
				c-1-0.4-1.8-1-2.5-1.9c-0.7-0.9-1.2-1.8-1.5-2.7c-0.3-0.9-0.5-1.9-0.5-3v0c0,0,0,0,0-0.1c0,0,0,0,0-0.1c0,0,0,0,0-0.1
				c0,0,0,0,0-0.1s0,0,0-0.1c0,0,0,0,0-0.1c0-1,0.2-2,0.6-3c0.3-0.9,0.9-1.9,1.5-2.7c0.7-0.9,1.5-1.5,2.5-2c1-0.5,2.1-0.7,3.4-0.7
				v-0.1C1289.5,182.7,1290.6,183,1291.6,183.5z M1285.3,184.9c-0.8,0.4-1.4,1-1.9,1.7c-0.5,0.7-0.8,1.5-1.1,2.3
				c-0.2,0.8-0.4,1.7-0.4,2.6c0,0.8,0.2,1.6,0.5,2.4c0.3,0.8,0.7,1.5,1.3,2.2c0.6,0.7,1.2,1.2,2,1.6c0.8,0.3,1.7,0.5,2.6,0.5
				c1.1,0,2-0.2,2.8-0.5c0.8-0.3,1.4-0.8,1.9-1.5c0.5-0.7,0.9-1.4,1.1-2.2c0.3-0.7,0.4-1.5,0.4-2.3c0,0,0-0.1,0-0.2
				c0-0.1,0-0.1,0-0.2c0,0,0,0,0-0.1c0,0,0-0.1,0-0.1c0,0,0,0,0-0.1c0,0,0,0,0-0.1c-0.1-0.8-0.3-1.7-0.6-2.4
				c-0.3-0.8-0.7-1.5-1.3-2.2c-0.5-0.7-1.2-1.2-1.9-1.6c-0.7-0.4-1.6-0.5-2.5-0.5l-0.2-0.1C1287,184.3,1286.1,184.5,1285.3,184.9z"
				/>
			<path class="st3" d="M1303,199.2h-1.8v-22h1.8V199.2z"/>
			<path class="st3" d="M1310,193.8c0,0.7,0.1,1.3,0.3,1.8c0.2,0.5,0.5,1,0.9,1.4c0.4,0.4,0.9,0.7,1.3,0.9c0.5,0.2,1,0.3,1.6,0.3
				c0,0,0,0,0.1,0c0,0,0,0,0.1,0s0,0,0.1,0c0,0,0,0,0,0c0,0,0,0,0.1,0s0,0,0.1,0c0,0,0,0,0.1,0c0.8,0,1.6-0.1,2.3-0.4
				c0.7-0.3,1.4-0.8,2.1-1.4c0.6-0.6,1.1-1.2,1.5-1.9c0.3-0.7,0.5-1.4,0.5-2.2v-9.4h2.1v16.3h-2.1v-3.1c-0.1,0.5-0.3,0.9-0.7,1.3
				c-0.4,0.4-0.9,0.8-1.5,1.1c-0.6,0.4-1.2,0.6-1.9,0.8c-0.7,0.2-1.3,0.4-2,0.5c0,0-0.1,0-0.2,0c-0.1,0-0.1,0-0.2,0c0,0-0.1,0-0.1,0
				c0,0-0.1,0-0.1,0c0,0-0.1,0-0.1,0c0,0-0.1,0-0.1,0c0,0-0.1,0-0.1,0c0,0-0.1,0-0.1,0c-0.7,0-1.4-0.1-2.1-0.3
				c-0.6-0.2-1.3-0.5-1.8-0.9c-0.6-0.4-1-1-1.3-1.8s-0.4-1.7-0.4-2.8v-11.2h2.1V193.8z"/>
			<path class="st3" d="M1332.1,182.9h4.7v1.5h-4.7v11.4c0,0.5,0.1,0.8,0.2,1.1s0.3,0.5,0.5,0.7c0.2,0.2,0.4,0.3,0.6,0.4
				c0.2,0.1,0.5,0.1,0.8,0.1c0.1,0,0.3,0,0.4,0c0.2,0,0.3,0,0.5-0.1c0.2,0,0.4-0.1,0.6-0.2c0.2-0.1,0.4-0.1,0.5-0.2
				c0.1,0,0.1,0,0.2-0.1c0.1,0,0.1,0,0.2-0.1c0,0,0.1,0,0.1-0.1c0,0,0.1,0,0.1-0.1c0,0,0.1,0,0.1,0c0,0,0.1,0,0.1-0.1v1.2
				c0,0.1-0.2,0.3-0.3,0.4c-0.2,0.1-0.4,0.2-0.7,0.2c-0.3,0.1-0.6,0.1-0.9,0.2c-0.3,0-0.6,0.1-1,0.1c0,0,0,0-0.1,0c0,0,0,0-0.1,0
				c0,0,0,0-0.1,0s0,0-0.1,0c0,0-0.1,0-0.1,0c0,0-0.1,0-0.1,0c0,0,0,0-0.1,0c0,0,0,0-0.1,0c0,0,0,0-0.1,0c0,0,0,0-0.1,0
				c-0.4,0-0.8-0.1-1.1-0.2c-0.4-0.1-0.7-0.2-1.1-0.4c-0.3-0.2-0.6-0.4-0.8-0.7c-0.2-0.3-0.3-0.6-0.4-1v-12.7h-2.1v-1.5h2.1v-3.1
				l2.1-0.3V182.9z"/>
			<path class="st3" d="M1344.5,177.2v2.1h-2.6v-2.1H1344.5z M1344.2,182.9v16.3h-2.1v-16.3H1344.2z"/>
			<path class="st3" d="M1360.8,183.5c1,0.5,1.8,1.2,2.5,2.1c0.6,0.9,1.1,1.8,1.5,2.8c0.3,1,0.5,2,0.5,3.2c0,0,0,0,0,0.1v0
				c0,1-0.2,2-0.5,2.9c-0.3,0.9-0.8,1.8-1.5,2.6c-0.6,0.8-1.5,1.5-2.4,1.9c-1,0.4-2.1,0.6-3.3,0.6h-0.3c-1.3,0-2.5-0.2-3.5-0.6
				c-1-0.4-1.8-1-2.5-1.9c-0.7-0.9-1.2-1.8-1.5-2.7c-0.3-0.9-0.5-1.9-0.5-3v0c0,0,0,0,0-0.1c0,0,0,0,0-0.1c0,0,0,0,0-0.1
				c0,0,0,0,0-0.1s0,0,0-0.1c0,0,0,0,0-0.1c0-1,0.2-2,0.6-3c0.3-0.9,0.9-1.9,1.5-2.7c0.7-0.9,1.5-1.5,2.5-2c1-0.5,2.1-0.7,3.4-0.7
				v-0.1C1358.7,182.7,1359.8,183,1360.8,183.5z M1354.5,184.9c-0.8,0.4-1.4,1-1.9,1.7c-0.5,0.7-0.8,1.5-1.1,2.3
				c-0.2,0.8-0.4,1.7-0.4,2.6c0,0.8,0.2,1.6,0.5,2.4c0.3,0.8,0.7,1.5,1.3,2.2c0.6,0.7,1.2,1.2,2,1.6c0.8,0.3,1.7,0.5,2.6,0.5
				c1.1,0,2-0.2,2.8-0.5c0.8-0.3,1.4-0.8,1.9-1.5c0.5-0.7,0.9-1.4,1.1-2.2c0.3-0.7,0.4-1.5,0.4-2.3c0,0,0-0.1,0-0.2
				c0-0.1,0-0.1,0-0.2c0,0,0,0,0-0.1c0,0,0-0.1,0-0.1c0,0,0,0,0-0.1c0,0,0,0,0-0.1c-0.1-0.8-0.3-1.7-0.6-2.4
				c-0.3-0.8-0.7-1.5-1.3-2.2c-0.5-0.7-1.2-1.2-1.9-1.6c-0.7-0.4-1.6-0.5-2.5-0.5l-0.2-0.1C1356.2,184.3,1355.3,184.5,1354.5,184.9z
				"/>
			<path class="st3" d="M1370,199.2v-16.3h2.1v3.3c0.1-0.5,0.4-1,0.7-1.4c0.4-0.4,0.8-0.8,1.4-1.1c0.6-0.3,1.3-0.6,1.9-0.7
				c0.7-0.2,1.4-0.3,2.1-0.3c0,0,0,0,0.1,0c0,0,0,0,0.1,0c0,0,0.1,0,0.1,0c0,0,0.1,0,0.1,0c0,0,0.1,0,0.1,0c0,0,0,0,0.1,0s0,0,0.1,0
				c0,0,0,0,0.1,0s0,0,0.1,0c0.8,0,1.5,0.1,2.2,0.3c0.7,0.2,1.4,0.5,2,0.8c0.6,0.4,1.1,0.8,1.4,1.4c0.3,0.6,0.5,1.2,0.5,1.9v12.1
				h-2.1v-11.6c0-0.5-0.1-0.9-0.4-1.3c-0.3-0.4-0.7-0.8-1.2-1.1c-0.5-0.3-1.1-0.6-1.7-0.8c-0.6-0.2-1.2-0.3-1.8-0.3c0,0-0.1,0-0.1,0
				c0,0-0.1,0-0.1,0c0,0,0,0-0.1,0c0,0,0,0-0.1,0c0,0,0,0-0.1,0c0,0,0,0-0.1,0c-0.6,0.1-1.3,0.2-1.9,0.5c-0.6,0.3-1.2,0.7-1.7,1.2
				c-0.5,0.5-0.9,1.1-1.2,1.9c-0.3,0.8-0.4,1.7-0.5,2.7v8.7H1370z"/>
			<path class="st3" d="M1399.3,185c-0.2,0-0.3-0.1-0.5-0.1c-0.2,0-0.4-0.1-0.6-0.1c-0.2,0-0.5-0.1-0.7-0.1c-0.2,0-0.5-0.1-0.7-0.1
				c0,0-0.1,0-0.2,0c-0.1,0-0.1,0-0.2,0c0,0-0.1,0-0.2,0c-0.1,0-0.1,0-0.2,0c0,0-0.1,0-0.1,0c0,0-0.1,0-0.1,0c0,0-0.1,0-0.1,0
				c0,0-0.1,0-0.1,0c-0.4,0-0.8,0-1.2,0.1c-0.4,0.1-0.7,0.2-1.1,0.3c-0.3,0.2-0.6,0.4-0.8,0.6c-0.2,0.3-0.3,0.6-0.3,0.9
				c0,0,0,0,0,0.1c0,0,0,0,0,0.1c0,0,0,0,0,0v0c0,0,0,0.1,0,0.1c0,0,0,0,0,0c0,0,0,0,0,0.1c0.2,0.5,0.4,0.9,0.7,1.3
				c0.3,0.4,0.5,0.7,0.8,1c0.3,0.2,0.6,0.5,0.9,0.7c0.3,0.2,0.6,0.5,1,0.7c0,0,0,0,0.1,0.1c0,0,0,0,0.1,0c0,0,0,0,0,0.1s0,0,0.1,0.1
				c0,0,0,0,0.1,0.1c0,0,0,0,0.1,0c0,0,0,0,0.1,0.1c0,0,0,0,0.1,0.1c0.2,0.1,0.3,0.2,0.5,0.3c0.2,0.1,0.3,0.2,0.5,0.4
				c0.1,0.1,0.3,0.3,0.5,0.4c0.2,0.1,0.3,0.3,0.5,0.4c0.3,0.3,0.6,0.6,0.9,1.1c0.3,0.4,0.5,0.9,0.8,1.5v0.8c0,0.8-0.1,1.4-0.4,2
				c-0.3,0.5-0.7,0.9-1.3,1.2c-0.6,0.2-1.2,0.4-1.8,0.5c-0.6,0.1-1.3,0.2-2,0.2c0,0-0.1,0-0.1,0c0,0-0.1,0-0.1,0c0,0-0.1,0-0.1,0
				c0,0-0.1,0-0.1,0c-0.1,0-0.2,0-0.3,0c-0.1,0-0.2,0-0.2,0c-0.3,0-0.6-0.1-0.9-0.1c-0.3,0-0.6-0.1-0.9-0.1c-0.3,0-0.6,0-0.8-0.1
				c-0.3,0-0.5-0.1-0.7-0.2l-0.3-1.9c0,0,0,0.1,0.1,0.1c0,0,0,0,0.1,0c0,0,0,0,0.1,0c0,0,0,0,0,0c0.1,0,0.2,0.1,0.3,0.1
				s0.2,0.1,0.3,0.1c0.1,0,0.2,0.1,0.4,0.1c0.1,0,0.3,0.1,0.4,0.1c0.3,0.1,0.6,0.1,0.9,0.2s0.6,0.1,0.9,0.1c0,0,0.1,0,0.1,0
				c0,0,0.1,0,0.2,0c0,0,0.1,0,0.1,0c0,0,0.1,0,0.1,0c0.1,0,0.2,0,0.3,0s0.2,0,0.3,0c0.3,0,0.5,0,0.8,0c0.2,0,0.5-0.1,0.7-0.1
				c0.2,0,0.5-0.1,0.6-0.2c0.2-0.1,0.3-0.2,0.4-0.3c0.1,0,0.1-0.1,0.2-0.2c0.1-0.1,0.1-0.1,0.2-0.2c0,0,0-0.1,0.1-0.1
				c0,0,0-0.1,0.1-0.1c0,0,0-0.1,0-0.1s0-0.1,0.1-0.1c0,0,0-0.1,0-0.1c0,0,0-0.1,0.1-0.1c0,0,0-0.1,0-0.1c0,0,0-0.1,0-0.1
				c0,0,0-0.1,0-0.1c0,0,0-0.1,0-0.1c0,0,0-0.1,0-0.1s0-0.1,0-0.1c0,0,0,0,0-0.1c0,0,0,0,0-0.1c0,0,0-0.1,0-0.1
				c-0.1-0.4-0.3-0.8-0.6-1.3c-0.3-0.4-0.8-0.9-1.4-1.3c-0.6-0.5-1.2-1-1.8-1.5c-0.6-0.5-1.3-1.1-2-1.7c0,0,0,0-0.1,0s0,0-0.1-0.1
				c0,0,0,0-0.1-0.1c0,0,0,0,0-0.1c-0.3-0.3-0.5-0.7-0.7-1c-0.2-0.3-0.4-0.6-0.5-0.9c-0.1-0.3-0.2-0.6-0.3-0.8
				c-0.1-0.3-0.1-0.5-0.1-0.8c0-0.6,0.1-1,0.4-1.4c0.3-0.4,0.7-0.7,1.2-1c0.6-0.3,1.1-0.5,1.8-0.6c0.6-0.1,1.3-0.2,2.1-0.2
				c0.1,0,0.1,0,0.2,0c0.1,0,0.2,0,0.3,0c0.1,0,0.1,0,0.2,0c0.1,0,0.2,0,0.2,0c0.1,0,0.1,0,0.2,0s0.2,0,0.3,0c0.1,0,0.1,0,0.2,0
				c0.1,0,0.2,0,0.3,0c0.1,0,0.2,0,0.4,0.1c0.1,0,0.2,0,0.4,0.1c0.1,0,0.2,0,0.4,0.1c0.1,0,0.3,0,0.4,0.1v-0.1L1399.3,185z"/>
		</g>
		<g>
			<path class="st3" d="M1418.5,177.3v20.4h10.6v1.5h-12.9v-22H1418.5z"/>
			<path class="st3" d="M1436.5,177.3v2.1h-2.6v-2.1H1436.5z M1436.3,183v16.3h-2.1V183H1436.3z"/>
			<path class="st3" d="M1443.1,185.6c0.2-0.4,0.4-0.7,0.7-1.1c0.3-0.3,0.7-0.6,1.2-0.9c0.5-0.3,1-0.5,1.5-0.6
				c0.5-0.1,1.1-0.2,1.7-0.2c0,0,0.1,0,0.1,0s0.1,0,0.1,0c0,0,0,0,0.1,0c0,0,0,0,0.1,0c0,0,0.1,0,0.1,0c0.5,0,1,0.1,1.4,0.3
				c0.5,0.1,0.9,0.3,1.4,0.6c0.4,0.2,0.8,0.5,1.1,0.9s0.6,0.8,0.8,1.3c0.2-0.4,0.5-0.8,0.9-1.2c0.3-0.4,0.8-0.7,1.2-0.9
				c0.5-0.3,0.9-0.5,1.4-0.6c0.5-0.1,1-0.3,1.5-0.3c0,0,0.1,0,0.1,0c0,0,0.1,0,0.1,0c0,0,0.1,0,0.1,0s0.1,0,0.1,0c0,0,0.1,0,0.1,0
				s0.1,0,0.1,0c0,0,0.1,0,0.1,0c0,0,0.1,0,0.1,0c0.6,0,1.2,0.1,1.8,0.3c0.6,0.2,1.1,0.4,1.7,0.8c0.5,0.3,0.9,0.8,1.2,1.3
				c0.3,0.5,0.4,1.1,0.4,1.8v12.3h-2.1v-12.1c0-0.4-0.1-0.7-0.3-1s-0.5-0.6-0.8-0.8s-0.7-0.4-1.2-0.5s-0.9-0.2-1.3-0.2
				c0,0-0.1,0-0.1,0c0,0-0.1,0-0.1,0c0,0-0.1,0-0.1,0s-0.1,0-0.1,0c-0.1,0-0.1,0-0.2,0s-0.1,0-0.2,0c-0.5,0.1-1,0.2-1.5,0.4
				c-0.5,0.2-0.9,0.5-1.4,0.9c-0.4,0.4-0.8,0.8-1,1.3c-0.2,0.5-0.3,1.1-0.3,1.7v10.3h-2.1v-11.9c0-0.4-0.1-0.8-0.3-1.2
				c-0.2-0.3-0.4-0.6-0.8-0.9c-0.4-0.2-0.7-0.4-1.1-0.5c-0.4-0.1-0.8-0.2-1.3-0.2c0,0-0.1,0-0.1,0s-0.1,0-0.1,0c0,0-0.1,0-0.1,0
				c0,0-0.1,0-0.1,0c-0.1,0-0.2,0-0.3,0c-0.1,0-0.2,0-0.2,0.1c-0.5,0.1-1,0.3-1.5,0.5c-0.5,0.2-0.9,0.5-1.3,0.9
				c-0.4,0.4-0.8,0.8-1,1.3s-0.3,1.1-0.3,1.7v10h-2.1V183h2.1V185.6z"/>
			<path class="st3" d="M1471.6,177.3v2.1h-2.6v-2.1H1471.6z M1471.4,183v16.3h-2.1V183H1471.4z"/>
			<path class="st3" d="M1480.6,183h4.7v1.5h-4.7v11.4c0,0.5,0.1,0.8,0.2,1.1c0.1,0.3,0.3,0.5,0.4,0.7c0.2,0.2,0.4,0.3,0.6,0.4
				c0.2,0.1,0.5,0.1,0.8,0.1c0.1,0,0.3,0,0.4,0c0.2,0,0.3,0,0.5-0.1c0.2,0,0.4-0.1,0.6-0.2c0.2-0.1,0.4-0.1,0.5-0.2
				c0.1,0,0.1,0,0.2-0.1c0.1,0,0.1,0,0.2-0.1c0,0,0.1,0,0.1-0.1c0,0,0.1,0,0.1-0.1c0,0,0.1,0,0.1,0c0,0,0.1,0,0.1-0.1v1.2
				c0,0.1-0.2,0.3-0.3,0.4s-0.4,0.2-0.7,0.2c-0.3,0.1-0.6,0.1-0.9,0.2c-0.3,0-0.6,0.1-1,0.1c0,0,0,0-0.1,0c0,0,0,0-0.1,0
				c0,0,0,0-0.1,0s0,0-0.1,0c0,0-0.1,0-0.1,0s-0.1,0-0.1,0c0,0,0,0-0.1,0s0,0-0.1,0c0,0,0,0-0.1,0c0,0,0,0-0.1,0
				c-0.4,0-0.8-0.1-1.1-0.2s-0.7-0.2-1.1-0.4c-0.3-0.2-0.6-0.4-0.8-0.7c-0.2-0.3-0.3-0.6-0.4-1v-12.7h-2.1V183h2.1v-3.1l2.1-0.3V183
				z"/>
			<path class="st3" d="M1491,187.4c0.3-1,0.9-1.9,1.6-2.5c0.7-0.6,1.4-1.2,2.2-1.6c0.8-0.4,1.6-0.6,2.4-0.7c0,0,0.1,0,0.1,0
				c0,0,0.1,0,0.1,0c0,0,0.1,0,0.1,0c0,0,0.1,0,0.1,0s0.1,0,0.1,0c0,0,0.1,0,0.1,0c0,0,0.1,0,0.1,0c0,0,0.1,0,0.1,0
				c1.1,0,2,0.2,2.8,0.5c0.8,0.4,1.5,0.9,2.1,1.6c0.6,0.7,1.1,1.4,1.4,2.2c0.3,0.8,0.5,1.6,0.5,2.5c0,0,0,0.1,0,0.1c0,0,0,0,0,0.1
				c0,0,0,0,0,0.1c0,0,0,0.1,0,0.1s0,0.1,0,0.1c0,0,0,0.1,0,0.1c0,0,0,0,0,0.1c0,0,0,0,0,0.1c0,0,0,0.1,0,0.1s0,0.1,0,0.1l-12.4-0.1
				c0,1.6,0.2,2.9,0.5,4c0.3,1.1,0.8,1.9,1.4,2.4c0.6,0.6,1.3,1,2.1,1.3c0.7,0.3,1.5,0.4,2.3,0.4c0.1,0,0.3,0,0.4,0
				c0.1,0,0.3,0,0.4,0c0.1,0,0.3,0,0.4,0c0.1,0,0.3,0,0.4-0.1c0.3,0,0.5-0.1,0.8-0.2c0.3-0.1,0.5-0.1,0.8-0.2
				c0.3-0.1,0.5-0.1,0.8-0.2c0.2-0.1,0.5-0.1,0.7-0.2c0,0,0,0,0.1,0c0,0,0,0,0.1,0c0,0,0,0,0.1,0c0,0,0,0,0.1-0.1l-0.3,1.7
				c-0.1,0.1-0.2,0.1-0.4,0.2s-0.3,0.1-0.4,0.1c-0.1,0-0.2,0-0.2,0s-0.2,0-0.3,0c0,0-0.1,0-0.1,0c0,0-0.1,0-0.1,0
				c-0.3,0-0.6,0.1-0.9,0.1s-0.6,0.1-0.9,0.1c-0.3,0-0.6,0.1-0.8,0.1c-0.3,0-0.5,0-0.8,0c-1.2,0-2.3-0.2-3.3-0.5
				c-1-0.3-1.9-0.8-2.7-1.5c-0.8-0.7-1.4-1.6-1.8-2.7c-0.4-1.1-0.6-2.4-0.6-4V191C1490.5,189.6,1490.7,188.4,1491,187.4z
				 M1502.9,188.4c0-0.6-0.1-1.2-0.3-1.7c-0.2-0.5-0.5-1-0.9-1.4c-0.4-0.4-0.8-0.7-1.4-0.9c-0.5-0.2-1.1-0.3-1.8-0.3
				c-0.9,0-1.7,0.2-2.4,0.3c-0.6,0.2-1.2,0.4-1.5,0.8c-0.4,0.3-0.7,0.6-0.9,1c-0.2,0.3-0.4,0.7-0.5,1.1c0,0.2-0.1,0.3-0.1,0.5
				c0,0.1-0.1,0.3-0.1,0.4c0,0.1,0,0.3-0.1,0.4c0,0.1,0,0.3-0.1,0.4l10.1-0.1V188.4z"/>
			<path class="st3" d="M1522.7,177.3h2.1v22h-2.1v-3.1c0,0.1,0,0.1-0.1,0.2c0,0.1,0,0.1-0.1,0.2c0,0.1,0,0.1-0.1,0.2
				c0,0.1-0.1,0.1-0.1,0.2c-0.1,0.1-0.1,0.2-0.2,0.4s-0.2,0.3-0.3,0.4c-0.2,0.3-0.5,0.6-0.8,0.8c-0.3,0.3-0.7,0.5-1.1,0.7
				c-0.4,0.2-0.9,0.3-1.4,0.5c-0.5,0.1-1.1,0.2-1.8,0.2c-1,0-1.9-0.2-2.8-0.5s-1.7-0.8-2.4-1.5c-0.7-0.7-1.3-1.5-1.6-2.5
				c-0.4-1-0.5-2.1-0.5-3.3c0,0,0,0,0-0.1c0,0,0,0,0-0.1c0,0,0,0,0-0.1c0,0,0,0,0-0.1c0,0,0,0,0-0.1v0c0,0,0,0,0-0.1c0,0,0,0,0-0.1
				c0,0,0,0,0-0.1c0,0,0,0,0-0.1c0-1.4,0.3-2.6,0.7-3.6c0.4-1,1-1.8,1.7-2.5c0.7-0.6,1.5-1.2,2.2-1.6c0.8-0.4,1.6-0.7,2.4-0.9
				c0.2,0,0.4-0.1,0.6-0.1c0.2,0,0.4,0,0.6-0.1c0.1,0,0.2,0,0.3,0c0.1,0,0.2,0,0.3,0c0.1,0,0.2,0,0.3,0c0.1,0,0.2,0,0.3,0
				c0.3,0,0.7,0,1,0.1c0.3,0,0.7,0.1,1,0.1c0.3,0,0.6,0.1,0.9,0.2c0.3,0.1,0.5,0.1,0.7,0.2V183V177.3z M1522.6,184.6
				C1522.6,184.6,1522.5,184.6,1522.6,184.6c-0.1,0-0.1,0-0.1,0c0,0-0.1,0-0.1,0c-0.1,0-0.1,0-0.2-0.1c-0.1,0-0.2,0-0.3-0.1
				s-0.2,0-0.3-0.1c-0.1,0-0.2,0-0.3,0c-0.1,0-0.2,0-0.3-0.1c-0.1,0-0.2,0-0.4-0.1c-0.1,0-0.2,0-0.4,0c-0.1,0-0.3,0-0.4,0
				s-0.2,0-0.4,0c0,0,0,0-0.1,0c0,0,0,0-0.1,0c0,0,0,0-0.1,0c-0.1,0-0.2,0-0.2,0s-0.2,0-0.3,0c-0.1,0-0.2,0-0.2,0s-0.2,0-0.3,0
				c-0.2,0-0.3,0-0.5,0.1c-0.2,0-0.3,0-0.5,0.1c-0.7,0.1-1.3,0.3-2,0.6c-0.6,0.3-1.2,0.7-1.8,1.2c-0.6,0.5-1,1.1-1.4,1.9
				c-0.3,0.8-0.5,1.7-0.6,2.8c0,0,0,0,0,0.1c0,0,0,0,0,0.1c0,0,0,0,0,0.1c0,0,0,0,0,0.1c0,0,0,0,0,0.1c0,0,0,0,0,0.1c0,0,0,0,0,0.1
				c0,0,0,0,0,0.1s0,0,0,0.1c0,0,0,0,0,0.1c0,0,0,0,0,0.1c0,0.9,0.1,1.7,0.4,2.5c0.2,0.8,0.6,1.6,1.1,2.2c0.5,0.7,1,1.2,1.7,1.5
				c0.6,0.3,1.4,0.5,2.2,0.5c0.7,0,1.4-0.1,2-0.3s1.2-0.6,1.8-1s1-1.1,1.4-1.9c0.3-0.8,0.6-1.8,0.7-3v-7.6
				C1522.7,184.5,1522.6,184.6,1522.6,184.6z"/>
		</g>
	</g>
	<rect x="1.9" y="637.2" class="st4" width="325.5" height="43.6"/>
	<text transform="matrix(1 0 0 1 1.8573 667.3687)" class="st1"><tspan x="0" y="0" class="st2 st8" style="font-family:'Eras'; font-size:36px;">iREd Solutions </tspan><tspan x="0" y="9" class="st2 st8" style="font-family:'Eras'; font-size:36px;">Limited</tspan></text>
</g>
<g id="poppin">
</g>
<g id="original">
	<rect x="-50.5" y="-181.6" class="st12" width="841.9" height="595.3"/>
	<g>
		<path class="st2" d="M150.5,160.4c0-1,0.8-1.9,1.9-1.9c1,0,1.8,0.8,1.8,1.9c0,1.1-0.8,1.9-1.8,1.9
			C151.3,162.3,150.5,161.5,150.5,160.4z M150.9,164.9h2.7v16.4h-2.7V164.9z"/>
		<path class="st2" d="M171,160.5c4.9,0,7.3,2.7,7.3,6.1c0,2.7-1.5,5.2-5,6l5.2,8.8h-3.3l-5-8.5H167v8.5h-2.7v-20.9H171z M171,162.7
			h-4v7.9h4c3.1,0,4.4-1.7,4.4-4C175.5,164.2,174.1,162.7,171,162.7z"/>
		<path class="st2" d="M199.8,162.7h-8.5v7h7.6v2.2h-7.6v7.2h8.5v2.2h-11.2v-20.9h11.2V162.7z"/>
		<path class="st2" d="M216.7,164.7c2.6,0,4.9,1.3,6.1,3.2v-8.7h2.8v22.2h-2.8v-3.1c-1,1.8-3.1,3.4-6.1,3.4c-4.4,0-7.8-3.4-7.8-8.5
			C208.9,168,212.3,164.7,216.7,164.7z M217.2,167c-3,0-5.5,2.2-5.5,6.1c0,3.9,2.6,6.2,5.5,6.2c3,0,5.6-2.2,5.6-6.1
			C222.8,169.3,220.2,167,217.2,167z"/>
		<path class="st2" d="M256.8,181.6c-4.2,0-7.2-2.3-7.2-5.8h2.9c0.2,1.7,1.4,3.5,4.3,3.5c2.6,0,4.2-1.5,4.2-3.5
			c0-5.6-11.3-2-11.3-9.8c0-3.5,2.8-5.8,6.9-5.8c4,0,6.6,2.2,6.9,5.4h-3c-0.2-1.4-1.5-3-4-3c-2.2-0.1-4,1.1-4,3.4
			c0,5.4,11.3,2,11.3,9.8C263.8,178.6,261.4,181.6,256.8,181.6z"/>
		<path class="st2" d="M281,181.6c-4.6,0-8.2-3.3-8.2-8.5c0-5.2,3.7-8.5,8.3-8.5c4.7,0,8.3,3.3,8.3,8.5
			C289.4,178.3,285.7,181.6,281,181.6z M281,179.2c2.9,0,5.6-2,5.6-6.1c0-4.1-2.7-6.1-5.5-6.1c-2.9,0-5.5,2-5.5,6.1
			C275.6,177.3,278.1,179.2,281,179.2z"/>
		<path class="st2" d="M299,159.2h2.7v22.2H299V159.2z"/>
		<path class="st2" d="M327,181.4h-2.7v-2.4c-1,1.7-3.1,2.7-5.2,2.7c-3.8,0-6.7-2.3-6.7-7v-9.6h2.7v9.3c0,3.3,1.8,5,4.6,5
			c2.8,0,4.7-1.7,4.7-5.3v-9h2.7V181.4z"/>
		<path class="st2" d="M338.2,167.2h-2.1v-2.2h2.1v-4.1h2.7v4.1h4.3v2.2h-4.3v9.7c0,1.6,0.6,2.2,2.3,2.2h2v2.3h-2.5
			c-2.9,0-4.6-1.2-4.6-4.5V167.2z"/>
		<path class="st2" d="M354.1,160.4c0-1,0.8-1.9,1.9-1.9c1,0,1.8,0.8,1.8,1.9c0,1.1-0.8,1.9-1.8,1.9
			C354.9,162.3,354.1,161.5,354.1,160.4z M354.5,164.9h2.7v16.4h-2.7V164.9z"/>
		<path class="st2" d="M375.1,181.6c-4.7,0-8.2-3.3-8.2-8.5c0-5.2,3.7-8.5,8.3-8.5c4.7,0,8.3,3.3,8.3,8.5
			C383.5,178.3,379.7,181.6,375.1,181.6z M375.1,179.2c2.8,0,5.6-2,5.6-6.1c0-4.1-2.7-6.1-5.5-6.1c-2.9,0-5.5,2-5.5,6.1
			C369.7,177.3,372.2,179.2,375.1,179.2z"/>
		<path class="st2" d="M405.1,172.1c0-3.4-1.8-5.1-4.6-5.1c-2.8,0-4.7,1.7-4.7,5.3v9.1h-2.7v-16.4h2.7v2.3c1.1-1.7,3.1-2.6,5.3-2.6
			c3.8,0,6.7,2.3,6.7,7v9.7h-2.7V172.1z"/>
		<path class="st2" d="M424.1,181.6c-3.8,0-6.5-2.1-6.7-5.1h2.8c0.2,1.6,1.6,2.8,3.9,2.8c2.2,0,3.4-1.1,3.4-2.4
			c0-3.7-9.7-1.5-9.7-7.7c0-2.5,2.4-4.6,6-4.6c3.6,0,6,2,6.2,5.2h-2.7c-0.1-1.6-1.4-2.8-3.6-2.8c-2,0-3.2,1-3.2,2.3
			c0,3.9,9.5,1.8,9.7,7.7C430.1,179.6,427.7,181.6,424.1,181.6z"/>
		<path class="st2" d="M456.7,160.5v18.7h7.3v2.2h-10v-20.9H456.7z"/>
		<path class="st2" d="M472.5,160.4c0-1,0.8-1.9,1.9-1.9c1,0,1.8,0.8,1.8,1.9c0,1.1-0.8,1.9-1.8,1.9
			C473.3,162.3,472.5,161.5,472.5,160.4z M472.9,164.9h2.7v16.4h-2.7V164.9z"/>
		<path class="st2" d="M510,172.1c0-3.4-1.8-5.1-4.5-5.1c-2.8,0-4.6,1.8-4.6,5.3v9.1h-2.7v-9.3c0-3.4-1.8-5.1-4.5-5.1
			c-2.8,0-4.6,1.8-4.6,5.3v9.1h-2.7v-16.4h2.7v2.4c1.1-1.7,3-2.7,5.2-2.7c2.7,0,5,1.2,6,3.7c1-2.4,3.3-3.7,5.8-3.7
			c3.8,0,6.7,2.3,6.7,7v9.7H510V172.1z"/>
		<path class="st2" d="M522.7,160.4c0-1,0.8-1.9,1.9-1.9c1,0,1.8,0.8,1.8,1.9c0,1.1-0.8,1.9-1.8,1.9
			C523.6,162.3,522.7,161.5,522.7,160.4z M523.2,164.9h2.7v16.4h-2.7V164.9z"/>
		<path class="st2" d="M537.2,167.2H535v-2.2h2.1v-4.1h2.7v4.1h4.3v2.2h-4.3v9.7c0,1.6,0.6,2.2,2.3,2.2h2v2.3h-2.5
			c-2.9,0-4.6-1.2-4.6-4.5V167.2z"/>
		<path class="st2" d="M560.6,181.6c-4.7,0-8.1-3.3-8.1-8.5c0-5.2,3.3-8.5,8.1-8.5c4.8,0,7.9,3.4,7.9,7.9c0,0.6,0,1.1-0.1,1.6h-13.1
			c0.2,3.3,2.5,5.2,5.3,5.2c2.5,0,4-1.3,4.6-3h2.9C567.3,179.3,564.7,181.6,560.6,181.6z M555.3,172h10.4c0-3.2-2.4-5-5.2-5
			C557.8,167,555.6,168.7,555.3,172z"/>
		<path class="st2" d="M584.9,164.7c2.6,0,4.9,1.3,6.1,3.2v-8.7h2.8v22.2H591v-3.1c-1,1.8-3.1,3.4-6.1,3.4c-4.4,0-7.8-3.4-7.8-8.5
			C577.1,168,580.5,164.7,584.9,164.7z M585.4,167c-3,0-5.5,2.2-5.5,6.1c0,3.9,2.5,6.2,5.5,6.2s5.6-2.2,5.6-6.1
			C591,169.3,588.4,167,585.4,167z"/>
	</g>
	<g>
		<path class="st13" d="M377.2,50v25.2h3.7v2.9h-10.3v-2.9h3.7V50h-3.7v-2.9h10.3V50H377.2z"/>
		<path class="st13" d="M404.1,67.7v10.3h-2.9V67.7c0-4.1-3.3-7.5-7.5-7.5c-4.1,0-7.5,3.3-7.5,7.5v10.3h-2.9V57.4h2.9v3.2
			c1.9-2,4.6-3.2,7.5-3.2C399.4,57.4,404.1,62.1,404.1,67.7z"/>
		<path class="st13" d="M409.4,58.9v8.9c0,4.1,3.3,7.4,7.5,7.5v2.9c-5.7,0-10.3-4.6-10.3-10.3V47.1h2.9V56h7.5v2.9H409.4z"/>
		<path class="st13" d="M440.1,67.7c0,0.5,0,1-0.1,1.4h-17.5c0.5,2.7,2.5,4.9,5.1,5.7c2.6,0.8,5.5,0.1,7.4-1.9
			c0.4-0.4,0.7-0.8,1-1.2h3.2c-1.6,3.8-5.4,6.3-9.5,6.3c-5.7,0-10.3-4.6-10.3-10.3c0-5.7,4.6-10.3,10.3-10.3
			C435.4,57.4,440,62.1,440.1,67.7z M437,66.3c-0.7-3.5-3.8-6-7.3-6c-3.6,0-6.6,2.5-7.3,6H437z"/>
		<path class="st13" d="M442.5,78.1v-31h2.9v31H442.5z"/>
		<path class="st13" d="M447.9,78.1v-31h2.9v31H447.9z"/>
		<path class="st13" d="M456.2,51.3v3.9h-2.9v-3.9H456.2z M453.3,78.3V57.7h2.9v20.6H453.3z"/>
		<path class="st13" d="M479.4,57.4v20.7c0,5.7-4.6,10.3-10.3,10.3c-4.7,0-8.8-3.2-10-7.7h3c0.4,1,1,1.9,1.7,2.7
			c2.1,2.1,5.3,2.8,8.1,1.6c2.8-1.2,4.6-3.9,4.6-6.9v-3.2c-2.9,3-7.4,4-11.3,2.4c-3.9-1.6-6.5-5.4-6.5-9.6c0-4.2,2.6-8,6.5-9.6
			s8.4-0.6,11.3,2.4v-3.2H479.4z M469,75.2c4.1,0,7.5-3.3,7.5-7.5c0-4.1-3.3-7.5-7.5-7.5s-7.5,3.3-7.5,7.5S464.9,75.2,469,75.2
			L469,75.2z"/>
		<path class="st13" d="M502.5,67.7c0,0.5,0,1-0.1,1.4h-17.5c0.5,2.7,2.5,4.9,5.1,5.7c2.6,0.8,5.5,0.1,7.4-1.9
			c0.4-0.4,0.7-0.8,1-1.2h3.2c-1.6,3.8-5.4,6.3-9.5,6.3c-5.7,0-10.3-4.6-10.3-10.3c0-5.7,4.6-10.3,10.3-10.3
			C497.9,57.4,502.5,62.1,502.5,67.7z M499.5,66.3c-0.7-3.5-3.8-6-7.3-6s-6.6,2.5-7.3,6H499.5z"/>
		<path class="st13" d="M525.6,67.7v10.3h-2.9V67.7c0-4.1-3.3-7.5-7.5-7.5s-7.5,3.3-7.5,7.5v10.3H505V57.4h2.9v3.2
			c1.9-2,4.6-3.2,7.5-3.2C521,57.4,525.6,62.1,525.6,67.7z"/>
		<path class="st13" d="M531,58.9v8.9c0,4.1,3.3,7.4,7.5,7.5v2.9c-5.7,0-10.3-4.6-10.3-10.3V47.1h2.9V56h7.5v2.9H531z"/>
		<path class="st2" d="M575.6,78.2H572l-11.3-14.1h0v-2.9h6.5c3.1,0,5.6-2.5,5.6-5.6c0-3.1-2.5-5.6-5.6-5.6h-9.3v28.2h-2.9V47.1
			h12.2c4.7,0,8.5,3.8,8.5,8.5c0,4.7-3.8,8.5-8.5,8.5h-2.8L575.6,78.2z"/>
		<path class="st2" d="M598.8,67.7c0,0.5,0,1-0.1,1.4h-17.5c0.5,2.7,2.5,4.9,5.1,5.7c2.6,0.8,5.5,0.1,7.4-1.9c0.4-0.4,0.7-0.8,1-1.2
			h3.2c-1.6,3.8-5.4,6.3-9.5,6.3c-5.7,0-10.3-4.6-10.3-10.3c0-5.7,4.6-10.3,10.3-10.3C594.2,57.4,598.8,62.1,598.8,67.7z
			 M595.8,66.3c-0.7-3.5-3.8-6-7.3-6s-6.6,2.5-7.3,6H595.8z"/>
		<path class="st2" d="M617.7,72.2c0,3.2-2.6,5.9-5.9,5.9h-4.6c-3,0-5.5-2.2-5.8-5.2h2.9c0.3,1.3,1.5,2.3,2.9,2.3h4.6
			c1.1,0,2.1-0.5,2.7-1.5c0.6-0.9,0.6-2.1,0-3.1c-0.6-0.9-1.6-1.5-2.7-1.5h-4.6c-3.2,0-5.9-2.6-5.9-5.9c0-3.2,2.6-5.9,5.9-5.9h4.6
			c3,0,5.5,2.2,5.8,5.2h-2.9c-0.3-1.3-1.5-2.3-2.9-2.3h-4.6c-1.6,0.1-2.9,1.4-2.9,3c0,1.6,1.3,3,2.9,3h4.6
			C615,66.3,617.7,68.9,617.7,72.2z"/>
		<path class="st2" d="M640.8,67.8c0,5.7-4.6,10.3-10.3,10.3c-5.7,0-10.3-4.6-10.3-10.3c0-5.7,4.6-10.3,10.3-10.3
			C636.2,57.4,640.8,62,640.8,67.8z M637.9,67.8c0-4.1-3.3-7.5-7.5-7.5s-7.5,3.3-7.5,7.5s3.3,7.5,7.5,7.5
			C634.6,75.2,637.9,71.9,637.9,67.8z"/>
		<path class="st2" d="M664,57.4v20.7h-2.9v-3.2c-1.9,2-4.6,3.2-7.5,3.2c-5.7,0-10.3-4.6-10.3-10.3V57.4h2.9v10.3
			c0,4.1,3.3,7.5,7.5,7.5c4.1,0,7.5-3.3,7.5-7.5V57.4H664z"/>
		<path class="st2" d="M676.8,57.4v2.9c-4.1,0-7.5,3.3-7.5,7.5v10.3h-2.9V57.4h2.9v3.2C671.3,58.6,674,57.4,676.8,57.4z"/>
		<path class="st2" d="M696.6,70.3h3c-1.3,5-6.1,8.3-11.3,7.7c-5.2-0.7-9-5-9-10.2c0-5.2,3.9-9.6,9-10.2c5.2-0.7,10,2.6,11.3,7.7h-3
			c-1.3-3.5-5.1-5.6-8.7-4.7c-3.7,0.9-6.1,4.4-5.7,8.1s3.6,6.6,7.4,6.6C692.7,75.2,695.5,73.3,696.6,70.3z"/>
		<path class="st2" d="M722.8,67.7c0,0.5,0,1-0.1,1.4h-17.5c0.5,2.7,2.5,4.9,5.1,5.7c2.6,0.8,5.5,0.1,7.4-1.9c0.4-0.4,0.7-0.8,1-1.2
			h3.2c-1.6,3.8-5.4,6.3-9.5,6.3c-5.7,0-10.3-4.6-10.3-10.3c0-5.7,4.6-10.3,10.3-10.3C718.1,57.4,722.7,62.1,722.8,67.7z
			 M719.7,66.3c-0.7-3.5-3.8-6-7.3-6c-3.6,0-6.6,2.5-7.3,6H719.7z"/>
		<path class="st2" d="M741.6,72.2c0,3.2-2.6,5.9-5.9,5.9h-4.6c-3,0-5.5-2.2-5.8-5.2h2.9c0.3,1.3,1.5,2.3,2.9,2.3h4.6
			c1.1,0,2.1-0.5,2.7-1.5c0.6-0.9,0.6-2.1,0-3.1c-0.6-0.9-1.6-1.5-2.7-1.5h-4.6c-3.2,0-5.9-2.6-5.9-5.9c0-3.2,2.6-5.9,5.9-5.9h4.6
			c3,0,5.5,2.2,5.8,5.2h-2.9c-0.3-1.3-1.5-2.3-2.9-2.3h-4.6c-1.6,0.1-2.9,1.4-2.9,3c0,1.6,1.3,3,2.9,3h4.6
			C739,66.3,741.6,68.9,741.6,72.2z"/>
		<path class="st2" d="M391.2,117.4c0,5.7-4.6,10.3-10.3,10.3c-5.7,0-10.3-4.6-10.3-10.3c0-5.7,4.6-10.3,10.3-10.3
			S391.2,111.7,391.2,117.4z M388.4,117.4c0-4.1-3.3-7.5-7.5-7.5s-7.5,3.3-7.5,7.5c0,4.1,3.3,7.5,7.5,7.5
			C385,124.9,388.4,121.6,388.4,117.4z"/>
		<path class="st2" d="M396.6,107.1v8.9h7.5v2.9h-7.5v8.9h-2.9v-20.7c0-5.7,4.6-10.3,10.3-10.3v2.9c-2,0-3.9,0.8-5.3,2.2
			C397.4,103.2,396.6,105.1,396.6,107.1z"/>
		<path class="st2" d="M424.8,101.1v9h16.3v4.3h-16.3v9h16.3v4.3h-20.7v-31h20.7v4.3H424.8z"/>
		<path class="st2" d="M454,127.8c-4.5,0-8.4-2.9-9.8-7.1c-1.4-4.2,0.1-8.9,3.7-11.5c3.6-2.6,8.5-2.7,12.1-0.1V96.8h4.3v31H460v-1.9
			C458.2,127.1,456.1,127.8,454,127.8L454,127.8z M447.9,117.4c0,3.3,2.7,6,6,6c3.3,0,6-2.7,6-6c0-3.3-2.7-6-6-6
			C450.6,111.4,447.9,114.1,447.9,117.4z"/>
		<path class="st2" d="M487.4,107.1v20.7h-4.3v-2c-1.8,1.3-3.9,2-6,2c-5.7,0-10.3-4.6-10.3-10.3v-10.3h4.3v10.3c0,3.3,2.7,6,6,6
			c3.3,0,6-2.7,6-6v-10.3H487.4z"/>
		<path class="st2" d="M510.2,120c-1.3,5-6.1,8.3-11.3,7.7c-5.2-0.7-9-5-9-10.2c0-5.2,3.9-9.6,9-10.2c5.2-0.7,10,2.6,11.3,7.7h-4.6
			c-1.2-2.5-4-3.9-6.8-3.3c-2.7,0.6-4.7,3.1-4.7,5.9s2,5.3,4.7,5.9c2.7,0.6,5.6-0.8,6.8-3.3H510.2z"/>
		<path class="st2" d="M533.4,107.1v20.7h-4.3v-1.9c-4.3,3.1-10.2,2.4-13.7-1.5c-3.5-3.9-3.5-9.9,0-13.8c3.5-3.9,9.4-4.6,13.7-1.5
			v-1.9H533.4z M523.1,123.5c3.3,0,6-2.7,6-6c0-3.3-2.7-6-6-6c-3.3,0-6,2.7-6,6S519.7,123.5,523.1,123.5L523.1,123.5z"/>
		<path class="st2" d="M540.2,109.3v8.2c0,3.3,2.7,6,6,6v4.3c-5.7,0-10.3-4.6-10.3-10.3V96.8h4.3v8.2h6v4.3H540.2z"/>
		<path class="st2" d="M553,101.1v3.9h-4.3v-3.9H553z M548.7,128.2v-20.6h4.3v20.6H548.7z"/>
		<path class="st2" d="M576.2,117.4c0,5.7-4.6,10.3-10.3,10.3s-10.3-4.6-10.3-10.3c0-5.7,4.6-10.3,10.3-10.3
			S576.2,111.7,576.2,117.4z M559.9,117.4c0,3.3,2.7,6,6,6s6-2.7,6-6c0-3.3-2.7-6-6-6C562.6,111.4,559.9,114.1,559.9,117.4z"/>
		<path class="st2" d="M578.7,127.8v-20.7h4.3v2c1.8-1.3,3.9-2,6-2c5.7,0,10.3,4.6,10.3,10.3v10.3h-4.3v-10.3c0-3.3-2.7-6-6-6
			c-3.3,0-6,2.7-6,6v10.3H578.7z"/>
		<rect x="353.6" y="47.1" class="st2" width="2.8" height="80.2"/>
		<path class="st2" d="M34.7,128.9h-11V58.7H41v63.9C41,126.1,38.2,128.9,34.7,128.9z"/>
		<path class="st13" d="M291.6,39.7c0,3.2-2.3,5.6-5.4,5.6c-3,0-5.7-2.5-5.7-5.5c0-2.9,2.6-5.6,5.5-5.7
			C289.1,34.2,291.6,36.7,291.6,39.7z"/>
		<path class="st13" d="M271.2,24.9c0-2.5,1.8-4.5,4.2-4.5c2.4,0,4.3,2,4.4,4.4c0,2.5-1.8,4.4-4.3,4.4
			C273,29.2,271.2,27.4,271.2,24.9z"/>
		<path class="st13" d="M285.2,6.4c2,0,3.3,1.2,3.4,3.2c0.1,2.1-1.3,3.5-3.3,3.5c-1.9,0-3.3-1.3-3.4-3.3
			C281.8,7.7,283,6.4,285.2,6.4z"/>
		<path class="st13" d="M302.2,86.6c0-0.6,0-1.2-0.1-1.8c-0.1-0.1-0.3-0.1-0.4-0.2c-5.9-2.3-11.5-1.9-16.8,1.5
			c-4.5,2.9-9.3,4.1-14.5,2.7c-1.2-0.3-2.4-0.8-3.7-1.3c0.5,9.4,8.2,16.8,17.7,16.8C294.3,104.4,302.2,96.4,302.2,86.6z"/>
		<g>
			<path class="st2" d="M305.6,121.9c0.2-0.1,0.3-0.2,0.5-0.3C305.9,121.7,305.7,121.8,305.6,121.9z"/>
			<path class="st2" d="M304.2,122.6c0.2-0.1,0.4-0.2,0.6-0.3C304.6,122.4,304.4,122.5,304.2,122.6z"/>
			<path class="st2" d="M306.9,121c0.1-0.1,0.3-0.2,0.4-0.3C307.2,120.9,307.1,121,306.9,121z"/>
			<path class="st2" d="M290.2,127.3c2.1-0.3,4.2-0.7,6.3-1.4c-1.8,0.6-3.7,1-5.6,1.3c0,0-0.1,0-0.1,0
				C290.5,127.2,290.3,127.2,290.2,127.3z"/>
			<path class="st2" d="M308.6,10.9v42.4c-4.7-3.4-10-5.7-15.5-6.8v17.4c9.9,3.7,16.8,13.7,15.7,25.1c-1.1,11.3-10.1,20.4-21.3,21.7
				c-14.6,1.6-27-9.8-27-24.1c0-10.3,6.5-19.1,15.5-22.6V46.6c-5.5,1.2-10.8,3.5-15.5,7c-14.3,10.5-20.3,29-14.8,45.8
				c5.5,16.9,21.2,28.3,39,28.3c0,0,0,0-0.1,0c0,0,0,0,0.1,0v0c1.4,0,2.8-0.1,4.2-0.2c0.6-0.1,1.2-0.1,1.9-0.2c0,0,0.1,0,0.1,0
				c19.7-3,34.8-20.1,34.8-40.7V4.6h-10.8C311.4,4.6,308.6,7.4,308.6,10.9z"/>
			<path class="st2" d="M300.8,124.3c0.5-0.2,0.9-0.4,1.4-0.6C301.8,123.9,301.3,124.1,300.8,124.3z"/>
			<path class="st2" d="M290.1,127.3c-0.4,0.1-0.9,0.1-1.3,0.2C289.3,127.4,289.7,127.3,290.1,127.3z"/>
			<path class="st2" d="M296.8,125.8c0.3-0.1,0.7-0.2,1-0.3C297.4,125.6,297.1,125.7,296.8,125.8z"/>
			<path class="st2" d="M298.1,125.3c0.3-0.1,0.6-0.2,0.9-0.3C298.7,125.1,298.4,125.2,298.1,125.3z"/>
			<path class="st2" d="M299.5,124.8c0.3-0.1,0.6-0.2,0.9-0.3C300.1,124.6,299.8,124.7,299.5,124.8z"/>
			<path class="st2" d="M302.9,123.3c0.2-0.1,0.4-0.2,0.6-0.3C303.3,123.1,303.1,123.2,302.9,123.3z"/>
		</g>
		<g>
			<path class="st2" d="M151.7,57.7v69.9h75.7c3.5,0,6.3-2.8,6.3-6.3v-10.7h-64.9c0,0,0,0,0,0V74.8c0,0,0,0,0,0h37.3
				c3.5,0,6.4-2.9,6.4-6.4V57.7"/>
			<path class="st2" d="M227.4,21.7H158c-3.5,0-6.3-2.8-6.3-6.3v-4.4c0-3.5,2.8-6.3,6.3-6.3h69.3c3.5,0,6.3,2.8,6.3,6.3v4.4
				C233.7,18.8,230.9,21.7,227.4,21.7z"/>
		</g>
		<circle class="st14" cx="31.2" cy="20.7" r="16.1"/>
		<path class="st2" d="M108.4,74.9C108.4,74.9,108.4,74.8,108.4,74.9c18.6-1.2,33-16.6,33.1-35.2c-0.1-19.4-15.8-35.1-35.1-35.1
			H65.6c-3.5,0-6.3,2.8-6.3,6.3v10.8h17.2h6.3h23.1c9.7,0,18.1,7.5,18.5,17.2c0.5,10.3-7.8,18.8-18,18.8H92.6h-4.7H76.4H59.3H3.1
			v10.8c0,3.5,2.8,6.3,6.3,6.3h49.9v38.3v3.6V128H70c3.5,0,6.4-2.9,6.4-6.4v-4.8v-3.6V74.9h11.4h0.4l31.5,50.2c1.2,1.8,3.2,3,5.4,3
			h5.3c5,0,8-5.5,5.4-9.7L108.4,74.9z"/>
	</g>
</g>
<g id="white_strock">
	<g class="st0">
		<g class="st1">
			<rect x="1121.9" y="155.9" style="fill:none;" width="456" height="43.6"/>
			
				<text transform="matrix(1 0 0 1 1135.6007 181.3702)" class="st3" style="font-family:'Poppins-Regular'; font-size:30px; letter-spacing:5;">iREd Solutions Limited</text>
		</g>
		<g class="st1">
			<g>
				<g>
					<path class="st3" d="M1355.3,51.7v22.4h3.3v2.5h-9.2v-2.5h3.3V51.7h-3.3v-2.5h9.2v2.5H1355.3z"/>
					<path class="st3" d="M1358.6,83.5h-9.2c-3.8,0-6.9-3.1-6.9-6.9v-2.5c0-2.5,1.3-4.7,3.3-5.9V57.6c-2-1.2-3.3-3.4-3.3-5.9v-2.5
						c0-3.8,3.1-6.9,6.9-6.9h9.2c3.8,0,6.9,3.1,6.9,6.9v2.5c0,2.5-1.3,4.7-3.3,5.9v10.6c2,1.2,3.3,3.4,3.3,5.9v2.5
						C1365.5,80.5,1362.4,83.5,1358.6,83.5z"/>
				</g>
				<g>
					<path class="st3" d="M1379.2,67.5v9.2h-2.5v-9.2c0-3.7-3-6.6-6.6-6.6c-3.7,0-6.6,3-6.6,6.6v9.2h-2.5V58.3h2.5v2.8
						c1.7-1.8,4.1-2.8,6.6-2.8C1375.1,58.4,1379.2,62.4,1379.2,67.5z"/>
					<path class="st3" d="M1379.2,83.5h-2.5c-3.2,0-5.8-2.1-6.6-5c-0.8,2.9-3.5,5-6.6,5h-2.5c-3.8,0-6.9-3.1-6.9-6.9V58.3
						c0-3.8,3.1-6.9,6.9-6.9h2.5c0.9,0,1.8,0.2,2.6,0.5c1.3-0.3,2.6-0.5,4-0.5c8.8,0,16,7.2,16,16c0,0,0,0,0,0v9.2
						C1386.1,80.5,1383,83.5,1379.2,83.5z"/>
				</g>
				<g>
					<path class="st3" d="M1384,59.6v7.9c0,3.6,3,6.6,6.6,6.6v2.5c-5.1,0-9.1-4.1-9.2-9.2V49.2h2.5v7.9h6.6v2.5H1384z"/>
					<path class="st3" d="M1390.6,83.5C1390.6,83.5,1390.6,83.5,1390.6,83.5c-8.8,0-16-7.2-16-16V49.2c0-3.8,3.1-6.9,6.9-6.9h2.5
						c3.8,0,6.9,3.1,6.9,6.9v1c3.7,0.1,6.6,3.2,6.6,6.9v2.5c0,3.7-2.9,6.7-6.6,6.9v0.8c3.7,0.1,6.6,3.2,6.6,6.9v2.5
						c0,1.8-0.7,3.6-2,4.9C1394.1,82.8,1392.4,83.5,1390.6,83.5z"/>
				</g>
				<g>
					<path class="st3" d="M1411.1,67.5c0,0.4,0,0.9-0.1,1.3h-15.6c0.5,2.4,2.2,4.3,4.6,5c2.3,0.7,4.9,0.1,6.6-1.6
						c0.3-0.3,0.6-0.7,0.9-1.1h2.9c-1.4,3.4-4.8,5.6-8.4,5.6c-5.1,0-9.1-4.1-9.2-9.2c0-5.1,4.1-9.1,9.2-9.2
						C1407,58.4,1411.1,62.4,1411.1,67.5z M1408.5,66.2c-0.6-3.1-3.3-5.3-6.5-5.3s-5.9,2.2-6.5,5.3H1408.5z"/>
					<path class="st3" d="M1402,83.5c-8.8,0-16-7.2-16.1-16c0-8.8,7.2-16,16-16.1c8.8,0,16,7.2,16.1,16c0,0,0,0,0,0
						c0,0.7-0.1,1.5-0.2,2.2c-0.1,0.7-0.3,1.4-0.6,2c-0.1,0.7-0.2,1.4-0.5,2C1414.2,79.7,1408.4,83.5,1402,83.5z"/>
				</g>
				<g>
					<path class="st3" d="M1413.3,76.7V49.2h2.5v27.5H1413.3z"/>
					<path class="st3" d="M1415.9,83.6h-2.5c-3.8,0-6.9-3.1-6.9-6.9V49.2c0-3.8,3.1-6.9,6.9-6.9h2.5c3.8,0,6.9,3.1,6.9,6.9v27.5
						C1422.7,80.5,1419.7,83.6,1415.9,83.6z"/>
				</g>
				<g>
					<path class="st3" d="M1418.1,76.7V49.2h2.5v27.5H1418.1z"/>
					<path class="st3" d="M1420.7,83.6h-2.5c-3.8,0-6.9-3.1-6.9-6.9V49.2c0-3.8,3.1-6.9,6.9-6.9h2.5c3.8,0,6.9,3.1,6.9,6.9v27.5
						C1427.5,80.5,1424.4,83.6,1420.7,83.6z"/>
				</g>
				<g>
					<path class="st3" d="M1425.4,52.9v3.4h-2.5v-3.4H1425.4z M1422.9,76.9V58.6h2.5v18.3H1422.9z"/>
					<path class="st3" d="M1425.4,83.8h-2.5c-3.8,0-6.9-3.1-6.9-6.9V58.6c0-0.4,0-0.8,0.1-1.1c-0.1-0.4-0.1-0.8-0.1-1.1v-3.4
						c0-3.8,3.1-6.9,6.9-6.9h2.5c3.8,0,6.9,3.1,6.9,6.9v3.4c0,0.4,0,0.8-0.1,1.1c0.1,0.4,0.1,0.8,0.1,1.1v18.3
						C1432.3,80.7,1429.2,83.8,1425.4,83.8z"/>
				</g>
				<g>
					<path class="st3" d="M1446,58.3v18.3c0,5.1-4.1,9.1-9.2,9.2c-4.2,0-7.8-2.8-8.9-6.9h2.7c0.3,0.9,0.9,1.7,1.5,2.4
						c1.9,1.9,4.7,2.5,7.2,1.4c2.5-1,4.1-3.4,4.1-6.1v-2.8c-2.6,2.7-6.6,3.6-10,2.2c-3.5-1.4-5.7-4.8-5.7-8.5c0-3.7,2.3-7.1,5.7-8.5
						c3.5-1.4,7.4-0.5,10,2.2v-2.8H1446z M1436.8,74.1c3.7,0,6.6-3,6.6-6.6c0-3.7-3-6.6-6.6-6.6c-3.7,0-6.6,3-6.6,6.6
						C1430.2,71.2,1433.2,74.1,1436.8,74.1L1436.8,74.1z"/>
					<path class="st3" d="M1436.9,92.7c-7.3,0-13.7-5-15.5-12c-0.5-2.1-0.1-4.2,1.2-5.9c-1.1-2.2-1.7-4.7-1.7-7.3
						c0-6.6,3.9-12.4,10.1-14.9c3.3-1.3,6.8-1.5,10-0.7c0.8-0.3,1.7-0.5,2.6-0.5h2.5c3.8,0,6.9,3.1,6.9,6.9v18.3
						C1452.8,85.5,1445.7,92.7,1436.9,92.7z M1436.8,67.2v0.5c0.1,0,0.3-0.1,0.3-0.3S1437,67.2,1436.8,67.2z M1436.8,67.2
						c-0.1,0-0.2,0.1-0.2,0.2c0,0.1,0.1,0.3,0.2,0.3L1436.8,67.2z"/>
				</g>
				<g>
					<path class="st3" d="M1466.5,67.5c0,0.4,0,0.9-0.1,1.3h-15.6c0.5,2.4,2.2,4.3,4.6,5c2.3,0.7,4.9,0.1,6.6-1.6
						c0.3-0.3,0.6-0.7,0.9-1.1h2.9c-1.4,3.4-4.8,5.6-8.4,5.6c-5.1,0-9.1-4.1-9.2-9.2c0-5.1,4.1-9.1,9.2-9.2
						C1462.4,58.4,1466.5,62.4,1466.5,67.5z M1463.9,66.2c-0.6-3.1-3.3-5.3-6.5-5.3s-5.9,2.2-6.5,5.3H1463.9z"/>
					<path class="st3" d="M1457.4,83.5c-8.8,0-16-7.2-16.1-16c0-8.8,7.2-16,16-16.1c8.8,0,16,7.2,16.1,16c0,0,0,0,0,0
						c0,0.7-0.1,1.5-0.2,2.2c-0.1,0.7-0.3,1.4-0.6,2c-0.1,0.7-0.2,1.4-0.5,2C1469.6,79.7,1463.8,83.5,1457.4,83.5z"/>
				</g>
				<g>
					<path class="st3" d="M1487.1,67.5v9.2h-2.5v-9.2c0-3.7-3-6.6-6.6-6.6c-3.7,0-6.6,3-6.6,6.6v9.2h-2.5V58.3h2.5v2.8
						c1.7-1.8,4.1-2.8,6.6-2.8C1483,58.4,1487.1,62.4,1487.1,67.5z"/>
					<path class="st3" d="M1487.1,83.5h-2.5c-3.2,0-5.8-2.1-6.6-5c-0.8,2.9-3.5,5-6.6,5h-2.5c-3.8,0-6.9-3.1-6.9-6.9V58.3
						c0-3.8,3.1-6.9,6.9-6.9h2.5c0.9,0,1.8,0.2,2.6,0.5c1.3-0.3,2.6-0.5,4-0.5c8.8,0,16,7.2,16,16c0,0,0,0,0,0v9.2
						C1493.9,80.5,1490.9,83.5,1487.1,83.5z"/>
				</g>
				<g>
					<path class="st3" d="M1491.8,59.6v7.9c0,3.6,3,6.6,6.6,6.6v2.5c-5.1,0-9.1-4.1-9.2-9.2V49.2h2.5v7.9h6.6v2.5H1491.8z"/>
					<path class="st3" d="M1498.4,83.5C1498.4,83.5,1498.4,83.5,1498.4,83.5c-8.8,0-16-7.2-16-16V49.2c0-3.8,3.1-6.9,6.9-6.9h2.5
						c3.8,0,6.9,3.1,6.9,6.9v1c3.7,0.1,6.6,3.2,6.6,6.9v2.5c0,3.7-2.9,6.7-6.6,6.9v0.8c3.7,0.1,6.6,3.2,6.6,6.9v2.5
						c0,1.8-0.7,3.6-2,4.9C1502,82.8,1500.3,83.5,1498.4,83.5z"/>
				</g>
				<g>
					<path class="st3" d="M1538.3,76.7h-3.3l-10-12.5h0v-2.6h5.7c2.7,0,5-2.2,5-5c0-2.7-2.2-5-5-5h-8.3v25h-2.6V49.2h10.8
						c4.2,0,7.5,3.4,7.5,7.5c0,4.2-3.4,7.5-7.5,7.5h-2.5L1538.3,76.7z"/>
					<path class="st3" d="M1538.3,83.6h-3.3c-2.1,0-4.1-0.9-5.4-2.6l-1-1.3c-1.1,2.3-3.5,3.9-6.2,3.9h-2.6c-3.8,0-6.9-3.1-6.9-6.9
						V49.2c0-3.8,3.1-6.9,6.9-6.9h10.8c7.9,0,14.4,6.5,14.4,14.4c0,4.5-2,8.4-5.2,11.1l3.7,4.7c1.7,2.1,2,4.9,0.8,7.3
						C1543.3,82.1,1540.9,83.6,1538.3,83.6z"/>
				</g>
				<g>
					<path class="st3" d="M1558.9,67.5c0,0.4,0,0.9-0.1,1.3h-15.6c0.5,2.4,2.2,4.3,4.6,5c2.3,0.7,4.9,0.1,6.6-1.6
						c0.3-0.3,0.6-0.7,0.9-1.1h2.9c-1.4,3.4-4.8,5.6-8.4,5.6c-5.1,0-9.1-4.1-9.2-9.2c0-5.1,4.1-9.1,9.2-9.2
						C1554.7,58.4,1558.8,62.4,1558.9,67.5z M1556.2,66.2c-0.6-3.1-3.3-5.3-6.5-5.3s-5.9,2.2-6.5,5.3H1556.2z"/>
					<path class="st3" d="M1549.7,83.5c-8.8,0-16-7.2-16.1-16c0-8.8,7.2-16,16-16.1c8.8,0,16,7.2,16.1,16c0,0,0,0,0,0
						c0,0.7-0.1,1.5-0.2,2.2c-0.1,0.7-0.3,1.4-0.6,2c-0.1,0.7-0.2,1.4-0.5,2C1561.9,79.7,1556.2,83.5,1549.7,83.5z"/>
				</g>
				<g>
					<path class="st3" d="M1575.6,71.4c0,2.9-2.3,5.2-5.2,5.2h-4.1c-2.6,0-4.8-2-5.2-4.6h2.6c0.3,1.2,1.4,2,2.6,2h4.1
						c1,0,1.9-0.5,2.4-1.3c0.5-0.8,0.5-1.9,0-2.7c-0.5-0.8-1.4-1.3-2.4-1.3h-4.1c-2.9,0-5.2-2.3-5.2-5.2c0-2.9,2.3-5.2,5.2-5.2h4.1
						c2.6,0,4.8,2,5.2,4.6h-2.6c-0.3-1.2-1.4-2-2.6-2h-4.1c-1.4,0-2.6,1.2-2.6,2.7c0,1.4,1.1,2.6,2.6,2.7h4.1
						C1573.2,66.2,1575.6,68.6,1575.6,71.4z"/>
					<path class="st3" d="M1570.4,83.5h-4.1c-6.1,0-11.2-4.6-12-10.6c-0.2-1.6,0.1-3.1,1-4.5c-0.7-1.5-1.1-3.2-1.1-4.9
						c0-6.7,5.4-12.1,12.1-12.1h4.1c6.1,0,11.2,4.6,12,10.6c0.2,1.6-0.1,3.1-1,4.4c0.7,1.5,1.1,3.2,1.1,4.9
						C1582.4,78.1,1577,83.5,1570.4,83.5z"/>
				</g>
				<g>
					<path class="st3" d="M1596.1,67.5c0,5.1-4.1,9.2-9.2,9.2c-5.1,0-9.2-4.1-9.2-9.2c0-5.1,4.1-9.2,9.2-9.2
						C1592,58.3,1596.1,62.4,1596.1,67.5z M1593.6,67.5c0-3.7-3-6.6-6.6-6.6c-3.7,0-6.6,3-6.6,6.6c0,3.7,3,6.6,6.6,6.6
						C1590.6,74.1,1593.6,71.2,1593.6,67.5z"/>
					<path class="st3" d="M1586.9,83.5c-4.3,0-8.3-1.7-11.3-4.7c-3-3-4.7-7.1-4.7-11.3c0-8.8,7.2-16,16-16c8.8,0,16,7.2,16,16
						S1595.8,83.5,1586.9,83.5C1587,83.5,1587,83.5,1586.9,83.5z M1586.7,67.5c0,0.3,0.5,0.3,0.5,0H1586.7z M1587,67.2
						c-0.1,0-0.3,0.1-0.3,0.2l0.5,0C1587.2,67.4,1587.1,67.2,1587,67.2z"/>
				</g>
				<g>
					<path class="st3" d="M1616.7,58.3v18.3h-2.5v-2.8c-1.7,1.8-4.1,2.8-6.6,2.8c-5.1,0-9.1-4.1-9.2-9.2v-9.2h2.5v9.2
						c0,3.7,3,6.6,6.6,6.6c3.7,0,6.6-3,6.6-6.6v-9.2H1616.7z"/>
					<path class="st3" d="M1616.7,83.5h-2.5c-0.9,0-1.8-0.2-2.6-0.5c-1.3,0.3-2.6,0.5-4,0.5c-8.8,0-16-7.2-16-16v-9.2
						c0-3.8,3.1-6.9,6.9-6.9h2.5c3.2,0,5.8,2.1,6.6,5c0.8-2.9,3.5-5,6.6-5h2.5c3.8,0,6.9,3.1,6.9,6.9v18.3
						C1623.5,80.5,1620.4,83.5,1616.7,83.5z"/>
				</g>
				<g>
					<path class="st3" d="M1628,58.3v2.5c-3.7,0-6.6,3-6.6,6.6v9.2h-2.5V58.3h2.5v2.8C1623.1,59.4,1625.5,58.3,1628,58.3z"/>
					<path class="st3" d="M1621.4,83.5h-2.5c-3.8,0-6.9-3.1-6.9-6.9V58.3c0-3.8,3.1-6.9,6.9-6.9h2.5c0.9,0,1.8,0.2,2.6,0.5
						c1.3-0.3,2.6-0.5,4-0.5c0,0,0,0,0,0c3.8,0,6.9,3.1,6.9,6.9v2.5c0,3.7-2.9,6.7-6.6,6.9v8.9C1628.3,80.5,1625.2,83.5,1621.4,83.5
						z"/>
				</g>
				<g>
					<path class="st3" d="M1645.6,69.8h2.7c-1.2,4.5-5.4,7.4-10,6.8c-4.6-0.6-8-4.5-8-9.1c0-4.6,3.4-8.5,8-9.1
						c4.6-0.6,8.9,2.3,10,6.8h-2.7c-1.2-3.1-4.5-4.9-7.8-4.1c-3.3,0.8-5.4,3.9-5,7.2c0.4,3.3,3.2,5.8,6.6,5.8
						C1642.2,74.1,1644.7,72.4,1645.6,69.8z"/>
					<path class="st3" d="M1639.4,83.5c-0.7,0-1.3,0-2-0.1c-8-1-14-7.9-14-15.9s6-14.9,14-15.9c8-1,15.5,4.1,17.5,11.9
						c0.3,1.3,0.3,2.7-0.2,4c0.5,1.3,0.5,2.7,0.2,4C1653.1,78.6,1646.6,83.5,1639.4,83.5z"/>
				</g>
				<g>
					<path class="st3" d="M1668.8,67.5c0,0.4,0,0.9-0.1,1.3h-15.6c0.5,2.4,2.2,4.3,4.6,5c2.3,0.7,4.9,0.1,6.6-1.6
						c0.3-0.3,0.6-0.7,0.9-1.1h2.9c-1.4,3.4-4.8,5.6-8.4,5.6c-5.1,0-9.1-4.1-9.2-9.2c0-5.1,4.1-9.1,9.2-9.2
						C1664.7,58.4,1668.8,62.4,1668.8,67.5z M1666.2,66.2c-0.6-3.1-3.3-5.3-6.5-5.3s-5.9,2.2-6.5,5.3H1666.2z"/>
					<path class="st3" d="M1659.7,83.5c-8.8,0-16-7.2-16.1-16c0-8.8,7.2-16,16-16.1c8.8,0,16,7.2,16.1,16c0,0,0,0,0,0
						c0,0.7-0.1,1.5-0.2,2.2c-0.1,0.7-0.3,1.4-0.6,2c-0.1,0.7-0.2,1.4-0.5,2C1671.9,79.7,1666.1,83.5,1659.7,83.5z"/>
				</g>
				<g>
					<path class="st3" d="M1685.5,71.4c0,2.9-2.3,5.2-5.2,5.2h-4.1c-2.6,0-4.8-2-5.2-4.6h2.6c0.3,1.2,1.4,2,2.6,2h4.1
						c1,0,1.9-0.5,2.4-1.3c0.5-0.8,0.5-1.9,0-2.7c-0.5-0.8-1.4-1.3-2.4-1.3h-4.1c-2.9,0-5.2-2.3-5.2-5.2c0-2.9,2.3-5.2,5.2-5.2h4.1
						c2.6,0,4.8,2,5.2,4.6h-2.6c-0.3-1.2-1.4-2-2.6-2h-4.1c-1.4,0-2.6,1.2-2.6,2.7c0,1.4,1.1,2.6,2.6,2.7h4.1
						C1683.2,66.2,1685.5,68.6,1685.5,71.4z"/>
					<path class="st3" d="M1680.3,83.5h-4.1c-6.1,0-11.2-4.6-12-10.6c-0.2-1.6,0.1-3.1,1-4.5c-0.7-1.5-1.1-3.2-1.1-4.9
						c0-6.7,5.4-12.1,12.1-12.1h4.1c6.1,0,11.2,4.6,12,10.6c0.2,1.6-0.1,3.1-1,4.5c0.7,1.5,1.1,3.2,1.1,4.9
						C1692.4,78.1,1687,83.5,1680.3,83.5z"/>
				</g>
				<g>
					<path class="st3" d="M1367.8,111.6c0,5.1-4.1,9.2-9.2,9.2c-5.1,0-9.2-4.1-9.2-9.2c0-5.1,4.1-9.2,9.2-9.2
						S1367.8,106.5,1367.8,111.6z M1365.3,111.6c0-3.7-3-6.6-6.6-6.6s-6.6,3-6.6,6.6c0,3.7,3,6.6,6.6,6.6
						C1362.3,118.2,1365.3,115.2,1365.3,111.6z"/>
					<path class="st3" d="M1358.6,127.6c-8.8,0-16-7.2-16-16s7.2-16,16-16c8.8,0,16,7.2,16,16v0
						C1374.7,120.4,1367.5,127.6,1358.6,127.6z M1358.4,111.6c0,0.3,0.5,0.3,0.5,0H1358.4z M1358.6,111.3c-0.1,0-0.3,0.1-0.3,0.2
						l0.5,0C1358.9,111.4,1358.8,111.3,1358.6,111.3z"/>
				</g>
				<g>
					<path class="st3" d="M1372.6,102.4v7.9h6.6v2.5h-6.6v7.9h-2.5v-18.3c0-5.1,4.1-9.1,9.2-9.2v2.5c-1.8,0-3.4,0.7-4.7,1.9
						C1373.3,99,1372.6,100.7,1372.6,102.4z"/>
					<path class="st3" d="M1372.6,127.6h-2.5c-3.8,0-6.9-3.1-6.9-6.9v-18.3c0-8.8,7.2-16,16-16c1.9,0,3.6,0.7,4.9,2
						c1.3,1.3,2,3,2,4.9v2.5c0,1.8-0.7,3.6-2,4.9c-1.2,1.2-2.9,1.9-4.6,2v0.8c3.7,0.1,6.6,3.2,6.6,6.9v2.5c0,3.7-2.9,6.7-6.6,6.9v1
						C1379.4,124.5,1376.4,127.6,1372.6,127.6z"/>
				</g>
				<g>
					<path class="st3" d="M1404.4,97.1v8h14.5v3.8h-14.5v8h14.5v3.8h-18.3V93.3h18.3v3.8H1404.4z"/>
					<path class="st3" d="M1418.9,127.6h-18.3c-3.8,0-6.9-3.1-6.9-6.9V93.3c0-3.8,3.1-6.9,6.9-6.9h18.3c3.8,0,6.9,3.1,6.9,6.9v3.8
						c0,1.5-0.5,2.9-1.3,4c0.8,1.1,1.3,2.5,1.3,4v3.8c0,1.5-0.5,2.9-1.3,4c0.8,1.1,1.3,2.5,1.3,4v3.8
						C1425.8,124.5,1422.7,127.6,1418.9,127.6z"/>
				</g>
				<g>
					<path class="st3" d="M1430.3,120.8c-4,0-7.5-2.5-8.7-6.3c-1.2-3.8,0.1-7.9,3.3-10.2c3.2-2.3,7.5-2.4,10.8,0V93.3h3.8v27.5h-3.8
						V119C1434.1,120.2,1432.2,120.8,1430.3,120.8L1430.3,120.8z M1425,111.6c0,3,2.4,5.3,5.3,5.3c3,0,5.3-2.4,5.3-5.3
						c0-3-2.4-5.3-5.3-5.3C1427.4,106.2,1425,108.6,1425,111.6z"/>
					<path class="st3" d="M1430.3,127.6c-7,0-13.1-4.4-15.2-11c-2.2-6.6,0.2-13.8,5.8-17.9c2.4-1.8,5.1-2.8,7.9-3v-2.4
						c0-3.8,3.1-6.9,6.9-6.9h3.8c3.8,0,6.9,3.1,6.9,6.9v27.5c0,3.8-3.1,6.9-6.9,6.9h-3.8c-0.7,0-1.4-0.1-2.1-0.3
						C1432.5,127.5,1431.5,127.6,1430.3,127.6L1430.3,127.6z M1428.8,111.6c0,0.8,0.7,1.5,1.5,1.5c0.8,0,1.5-0.7,1.5-1.5
						L1428.8,111.6z M1428.8,111.6h3.1c0-0.8-0.7-1.5-1.5-1.5C1429.5,110.1,1428.8,110.7,1428.8,111.6z"/>
				</g>
				<g>
					<path class="st3" d="M1460,102.4v18.3h-3.8V119c-1.6,1.1-3.4,1.7-5.3,1.7c-5.1,0-9.1-4.1-9.2-9.2v-9.2h3.8v9.2
						c0,3,2.4,5.3,5.3,5.3c3,0,5.3-2.4,5.3-5.3v-9.2H1460z"/>
					<path class="st3" d="M1460,127.6h-3.8c-0.7,0-1.4-0.1-2.1-0.3c-1.1,0.2-2.1,0.3-3.2,0.3c-8.8,0-16-7.2-16-16v-9.2
						c0-3.8,3.1-6.9,6.9-6.9h3.8c2.2,0,4.1,1,5.3,2.6c1.3-1.6,3.2-2.6,5.3-2.6h3.8c3.8,0,6.9,3.1,6.9,6.9v18.3
						C1466.9,124.5,1463.8,127.6,1460,127.6z"/>
				</g>
				<g>
					<path class="st3" d="M1480.3,113.9c-1.2,4.5-5.4,7.4-10,6.8c-4.6-0.6-8-4.5-8-9.1c0-4.6,3.4-8.5,8-9.1c4.6-0.6,8.9,2.3,10,6.8
						h-4c-1.1-2.3-3.6-3.5-6-2.9c-2.4,0.5-4.2,2.7-4.2,5.2s1.7,4.7,4.2,5.2c2.4,0.5,4.9-0.7,6-2.9H1480.3z"/>
					<path class="st3" d="M1471.4,127.6c-0.7,0-1.3,0-2-0.1c-8-1-14-7.9-14-15.9c0-8.1,6-14.9,14-15.9c8-1,15.5,4.1,17.5,11.9
						c0.3,1.3,0.3,2.7-0.2,4c0.5,1.3,0.5,2.7,0.2,4C1485.1,122.7,1478.6,127.6,1471.4,127.6z"/>
				</g>
				<g>
					<path class="st3" d="M1500.8,102.4v18.3h-3.8V119c-3.8,2.7-9,2.2-12.2-1.3c-3.1-3.5-3.1-8.8,0-12.2c3.1-3.5,8.4-4.1,12.2-1.3
						v-1.7H1500.8z M1491.7,116.9c2.9,0,5.3-2.4,5.3-5.3c0-3-2.4-5.3-5.3-5.3c-3,0-5.3,2.4-5.3,5.3
						C1486.3,114.5,1488.7,116.9,1491.7,116.9L1491.7,116.9z"/>
					<path class="st3" d="M1491.6,127.6c-4.4,0-8.8-1.8-11.9-5.3c-5.5-6.1-5.5-15.3,0-21.4c3.9-4.4,9.7-6.1,15.2-5
						c0.7-0.2,1.4-0.3,2.1-0.3h3.8c3.8,0,6.9,3.1,6.9,6.9v18.3c0,3.8-3.1,6.9-6.9,6.9h-3.8c-0.7,0-1.4-0.1-2.1-0.3
						C1493.8,127.5,1492.7,127.6,1491.6,127.6z M1491.6,110.1v3.1c0.8,0,1.5-0.7,1.5-1.5C1493.2,110.7,1492.5,110.1,1491.6,110.1z
						 M1491.6,110.1c-0.8,0-1.5,0.7-1.5,1.5c0,0.8,0.7,1.5,1.5,1.5L1491.6,110.1z"/>
				</g>
				<g>
					<path class="st3" d="M1506.8,104.3v7.3c0,2.9,2.4,5.3,5.3,5.3v3.8c-5.1,0-9.1-4.1-9.2-9.2V93.3h3.8v7.3h5.3v3.8H1506.8z"/>
					<path class="st3" d="M1512.2,127.6C1512.2,127.6,1512.2,127.6,1512.2,127.6c-8.8,0-16-7.2-16-16V93.3c0-3.8,3.1-6.9,6.9-6.9
						h3.8c3.8,0,6.9,3.1,6.9,6.9v0.6c3.1,0.7,5.3,3.4,5.3,6.7v3.8c0,2.8-1.7,5.2-4.1,6.3c2.4,1.1,4.1,3.5,4.1,6.3v3.8
						c0,1.8-0.7,3.6-2,4.9C1515.7,126.9,1514,127.6,1512.2,127.6z"/>
				</g>
				<g>
					<path class="st3" d="M1518.2,97.1v3.4h-3.8v-3.4H1518.2z M1514.4,121.1v-18.3h3.8v18.3H1514.4z"/>
					<path class="st3" d="M1518.2,128h-3.8c-3.8,0-6.9-3.1-6.9-6.9v-18.3c0-0.4,0-0.8,0.1-1.1c-0.1-0.4-0.1-0.8-0.1-1.1v-3.4
						c0-3.8,3.1-6.9,6.9-6.9h3.8c3.8,0,6.9,3.1,6.9,6.9v3.4c0,0.4,0,0.8-0.1,1.1c0.1,0.4,0.1,0.8,0.1,1.1v18.3
						C1525.1,124.9,1522,128,1518.2,128z"/>
				</g>
				<g>
					<path class="st3" d="M1538.8,111.6c0,5.1-4.1,9.2-9.2,9.2c-5.1,0-9.2-4.1-9.2-9.2c0-5.1,4.1-9.2,9.2-9.2
						C1534.7,102.4,1538.8,106.5,1538.8,111.6z M1524.3,111.6c0,3,2.4,5.3,5.3,5.3s5.3-2.4,5.3-5.3c0-3-2.4-5.3-5.3-5.3
						C1526.7,106.2,1524.3,108.6,1524.3,111.6z"/>
					<path class="st3" d="M1529.6,127.6c-8.8,0-16-7.2-16-16c0-8.8,7.2-16,16-16c8.8,0,16,7.2,16,16
						C1545.7,120.4,1538.5,127.6,1529.6,127.6z M1528.1,111.6c0,0.8,0.7,1.5,1.5,1.5c0.8,0,1.5-0.7,1.5-1.5L1528.1,111.6z
						 M1528.1,111.6h3.1c0-0.8-0.7-1.5-1.5-1.5C1528.8,110.1,1528.1,110.7,1528.1,111.6z"/>
				</g>
				<g>
					<path class="st3" d="M1541,120.8v-18.3h3.8v1.7c1.6-1.1,3.4-1.7,5.3-1.7c5.1,0,9.1,4.1,9.2,9.2v9.2h-3.8v-9.2
						c0-3-2.4-5.3-5.3-5.3c-3,0-5.3,2.4-5.3,5.3v9.2H1541z"/>
					<path class="st3" d="M1559.3,127.6h-3.8c-2.2,0-4.1-1-5.3-2.6c-1.3,1.6-3.2,2.6-5.3,2.6h-3.8c-3.8,0-6.9-3.1-6.9-6.9v-18.3
						c0-3.8,3.1-6.9,6.9-6.9h3.8c0.7,0,1.4,0.1,2.1,0.3c1.1-0.2,2.1-0.3,3.2-0.3c8.8,0,16,7.2,16,16v9.2
						C1566.2,124.5,1563.1,127.6,1559.3,127.6z"/>
				</g>
				<g>
					<rect x="1325.3" y="49.2" class="st3" width="2.5" height="71.1"/>
					<path class="st3" d="M1327.8,127.2h-2.5c-3.8,0-6.9-3.1-6.9-6.9V49.2c0-3.8,3.1-6.9,6.9-6.9h2.5c3.8,0,6.9,3.1,6.9,6.9v71.1
						C1334.6,124.1,1331.6,127.2,1327.8,127.2z"/>
				</g>
				<g>
					<path class="st3" d="M1044.3,121h-12.8V58.6h15.4v59.8C1046.9,119.8,1045.7,121,1044.3,121z"/>
					<path class="st3" d="M1032.4,127.8h-0.9c-3.8,0-6.9-3.1-6.9-6.9V58.6c0-3.8,3.1-6.9,6.9-6.9h15.4c3.8,0,6.9,3.1,6.9,6.9v47.8
						C1053.7,118.2,1044.1,127.8,1032.4,127.8z M1038.3,65.5v45.7c1-1.3,1.7-3,1.7-4.8V65.5H1038.3z"/>
				</g>
				<g>
					<path class="st3" d="M1270.3,42.6c0,2.8-2.1,5-4.8,5c-2.7,0-5-2.2-5.1-4.9c0-2.6,2.3-5,4.9-5
						C1268,37.7,1270.3,39.9,1270.3,42.6z"/>
					<path class="st3" d="M1265.4,54.5c-6.4,0-11.8-5.3-11.9-11.7c-0.1-6.4,5.3-11.9,11.7-12c3.2-0.1,6.1,1.2,8.4,3.4
						c2.3,2.2,3.5,5.2,3.6,8.4c0,0,0,0,0,0C1277.2,49.2,1272.1,54.4,1265.4,54.5C1265.5,54.5,1265.5,54.5,1265.4,54.5z M1267.3,42.7
						l-3.9,0c0,0.5,0.2,1,0.6,1.4c0.4,0.4,0.9,0.6,1.4,0.6C1266.6,44.6,1267.3,43.9,1267.3,42.7
						C1267.3,42.7,1267.3,42.7,1267.3,42.7z M1265.4,40.8C1265.4,40.8,1265.4,40.8,1265.4,40.8c-1.1,0-2,0.9-2,1.9l3.9,0
						C1267.2,41.5,1266.5,40.8,1265.4,40.8z"/>
				</g>
				<g>
					<path class="st3" d="M1252.2,29.5c0-2.2,1.6-4,3.7-4c2.1,0,3.8,1.8,3.9,3.9c0,2.2-1.6,3.9-3.8,3.9
						C1253.8,33.3,1252.2,31.7,1252.2,29.5z"/>
					<path class="st3" d="M1256,40.2c-2.9,0-5.5-1.1-7.5-3c-2-2-3.1-4.7-3.2-7.6c0,0,0,0,0,0c0-6,4.6-10.8,10.5-10.9
						c2.7,0,5.5,1,7.5,3c2.1,2,3.2,4.8,3.3,7.7c0,2.9-1.1,5.7-3.1,7.7C1261.6,39,1258.9,40.2,1256,40.2
						C1256,40.2,1256,40.2,1256,40.2z M1252.9,29.5c0,0.8,0.3,1.5,0.9,2c0.6,0.6,1.4,0.9,2.2,0.9c1.7,0,3-1.4,3-2.9L1252.9,29.5z
						 M1256,26.4C1256,26.4,1256,26.4,1256,26.4c-0.8,0-1.6,0.4-2.2,0.9c-0.6,0.6-0.9,1.3-0.9,2.1c0,0,0,0,0,0l6.1,0
						c0-0.7-0.4-1.5-0.9-2.1C1257.5,26.8,1256.7,26.4,1256,26.4z"/>
				</g>
				<g>
					<path class="st3" d="M1264.6,13.1c1.8,0,2.9,1.1,3,2.9c0,1.9-1.1,3.1-3,3.1c-1.7,0-3-1.2-3-2.9
						C1261.5,14.2,1262.7,13.1,1264.6,13.1z"/>
					<path class="st3" d="M1264.6,25.9c-5.4,0-9.7-4.2-9.9-9.6c-0.1-2.8,0.9-5.3,2.7-7.2c1.8-1.9,4.3-2.9,7.1-2.9l0,0
						c0,0,0.1,0,0.1,0c5.5,0,9.7,4.1,9.8,9.6c0.1,2.8-0.9,5.4-2.7,7.3C1269.9,24.9,1267.3,25.9,1264.6,25.9
						C1264.6,25.9,1264.6,25.9,1264.6,25.9z M1264.6,12.2c-0.7,0-1.8,0.3-2.7,1.2c-0.9,0.9-1.2,2-1.2,2.7c0,1.9,2,3.8,3.9,3.8
						c0,0,0,0,0,0c0.7,0,1.8-0.3,2.6-1.3c0.9-0.9,1.2-2,1.2-2.7C1268.4,13.9,1266.6,12.2,1264.6,12.2
						C1264.6,12.2,1264.6,12.2,1264.6,12.2l0,0.9L1264.6,12.2z M1264.6,19.9C1264.6,19.9,1264.6,19.9,1264.6,19.9
						C1264.6,19.9,1264.6,19.9,1264.6,19.9z"/>
				</g>
				<g>
					<path class="st3" d="M1279.7,84.2c0-0.5,0-1.1-0.1-1.6c-0.1-0.1-0.2-0.1-0.4-0.2c-5.2-2-10.2-1.7-14.9,1.4
						c-4,2.6-8.2,3.6-12.9,2.4c-1.1-0.3-2.1-0.7-3.2-1.2c0.4,8.3,7.3,14.9,15.7,14.9C1272.6,100,1279.7,92.9,1279.7,84.2z"/>
					<path class="st3" d="M1264,106.9c-12,0-22-9.4-22.6-21.4c-0.1-2.3,1-4.6,2.9-6c1.9-1.4,4.4-1.6,6.6-0.8
						c0.9,0.4,1.8,0.7,2.4,0.9c1.6,0.4,4,0.7,7.4-1.5c6.4-4.1,13.7-4.8,21.1-2c0.2,0.1,0.4,0.2,0.6,0.3c2.2,1,3.9,3.2,4.1,5.6
						c0.1,0.8,0.1,1.5,0.1,2.3C1286.6,96.7,1276.4,106.9,1264,106.9z M1261.4,92.7c0.8,0.2,1.7,0.4,2.6,0.4c3.5,0,6.5-2,8-5
						c-1.3,0.2-2.6,0.6-3.8,1.5C1265.9,91,1263.7,92.1,1261.4,92.7z"/>
				</g>
				<g>
					<g>
						<path class="st3" d="M1282.6,115.5c0.2-0.1,0.3-0.2,0.5-0.3C1282.9,115.3,1282.8,115.4,1282.6,115.5z"/>
						<path class="st3" d="M1282.7,122.4c-2.3,0-4.6-1.2-5.9-3.3c-2-3.2-0.9-7.4,2.3-9.4c0,0,0,0,0,0l0,0c0,0,0,0,0,0
							c0,0,0.1,0,0.1-0.1l0.3-0.2c3.2-2,7.5-1,9.5,2.3c0.7,1.1,1,2.4,1,3.6c0,2.3-1.2,4.6-3.3,5.9l-0.5,0.3
							C1285.1,122.1,1283.9,122.4,1282.7,122.4z"/>
					</g>
					<g>
						<path class="st3" d="M1281.5,116.2c0.2-0.1,0.3-0.2,0.5-0.3C1281.8,116,1281.6,116.1,1281.5,116.2z"/>
						<path class="st3" d="M1281.5,123.1c-2.4,0-4.8-1.3-6-3.6c-0.6-1-0.8-2.2-0.8-3.3c0-2.4,1.3-4.8,3.6-6l0.4-0.2
							c3.3-1.9,7.5-0.7,9.4,2.6c0.6,1.1,0.9,2.2,0.9,3.4c0,2.4-1.3,4.7-3.5,6l-0.6,0.3C1283.7,122.8,1282.6,123.1,1281.5,123.1z"/>
					</g>
					<g>
						<path class="st3" d="M1283.8,114.8c0.1-0.1,0.2-0.2,0.4-0.2C1284.1,114.6,1284,114.7,1283.8,114.8z"/>
						<path class="st3" d="M1283.9,121.6c-2.3,0-4.5-1.1-5.8-3.1c-0.7-1.2-1.1-2.5-1.1-3.7c0-2.2,1.1-4.4,3.1-5.7
							c0,0,0.1-0.1,0.1-0.1c3.2-2.1,7.5-1.3,9.6,1.8c0.8,1.2,1.2,2.5,1.2,3.9c0,2.2-1,4.3-3,5.6l-0.4,0.2
							C1286.5,121.2,1285.2,121.6,1283.9,121.6z"/>
					</g>
					<g>
						<path class="st3" d="M1269,120.3c1.9-0.3,3.8-0.7,5.6-1.2c-1.6,0.5-3.3,0.9-5,1.1c0,0-0.1,0-0.1,0
							C1269.3,120.3,1269.1,120.3,1269,120.3z"/>
						<path class="st3" d="M1269,127.2c-3.4,0-6.3-2.5-6.8-5.9c-0.5-3.8,2.1-7.2,5.9-7.7l0,0c0,0,0,0,0,0l0.1,0.4l-0.1-0.4
							c0.1,0,0.3,0,0.4-0.1l0,0c1.5-0.2,2.8-0.5,4.1-0.9c3.6-1.1,7.5,1,8.6,4.6c1.1,3.6-1,7.5-4.6,8.6c0,0,0,0,0,0l0,0c0,0,0,0,0,0
							c-2.1,0.6-4.4,1.1-6.6,1.4C1269.6,127.1,1269.3,127.2,1269,127.2z"/>
					</g>
					<g>
						<path class="st3" d="M1285.3,17.1v37.6c-4.2-3-8.9-5-13.7-6.1v15.4c8.8,3.3,14.9,12.1,13.9,22.3c-1,10-9,18.1-18.9,19.2
							c-13,1.4-23.9-8.7-23.9-21.4c0-9.2,5.7-17,13.8-20.1V48.7c-4.9,1.1-9.6,3.1-13.8,6.2c-12.7,9.3-18,25.7-13.1,40.7
							c4.9,15,18.8,25.1,34.6,25.1c0,0,0,0-0.1,0c0,0,0,0,0.1,0v0c1.2,0,2.5-0.1,3.7-0.2c0.6-0.1,1.1-0.1,1.6-0.2c0,0,0.1,0,0.1,0
							c17.5-2.7,30.9-17.8,30.9-36.1V11.5h-9.5C1287.8,11.5,1285.3,14,1285.3,17.1z"/>
						<path class="st3" d="M1264.1,127.5c-18.8,0-35.3-12-41.1-29.8c-5.8-17.8,0.4-37.3,15.6-48.3c4.9-3.6,10.4-6.1,16.4-7.4
							c2-0.4,4.1,0.1,5.8,1.4c1.6,1.3,2.6,3.3,2.6,5.3v15.5c0,2.8-1.8,5.4-4.4,6.4c-5.6,2.2-9.4,7.6-9.4,13.7
							c0,4.2,1.8,8.1,4.9,10.9c3.1,2.8,7.2,4.1,11.4,3.6c6.8-0.8,12.2-6.2,12.9-13.1c0.6-6.6-3.3-12.9-9.5-15.2
							c-2.7-1-4.5-3.6-4.5-6.4V48.7c0-2.1,0.9-4,2.5-5.3c1.6-1.3,3.7-1.8,5.7-1.4c1.9,0.4,3.7,0.9,5.5,1.5V17.1
							c0-6.9,5.6-12.5,12.5-12.5h9.5c3.8,0,6.9,3.1,6.9,6.9v72.7c0,21.6-15.4,39.6-36.7,42.9c-0.8,0.1-1.5,0.2-2.1,0.3
							c-1.4,0.1-2.8,0.2-4.1,0.2c-0.1,0-0.1,0-0.2,0l0,0c0,0,0,0,0,0l0,0C1264.2,127.5,1264.2,127.5,1264.1,127.5L1264.1,127.5
							C1264.2,127.5,1264.2,127.5,1264.1,127.5C1264.1,127.5,1264.1,127.5,1264.1,127.5C1264.1,127.5,1264.1,127.5,1264.1,127.5
							C1264.1,127.5,1264.1,127.5,1264.1,127.5C1264.1,127.5,1264.1,127.5,1264.1,127.5C1264.1,127.5,1264.1,127.5,1264.1,127.5
							C1264.1,127.5,1264.1,127.5,1264.1,127.5C1264.1,127.5,1264.1,127.5,1264.1,127.5z M1249.5,58.6c-1,0.6-1.9,1.2-2.9,1.9
							c-10.3,7.6-14.6,20.8-10.6,33c4,12.1,15.2,20.3,27.9,20.3c0,0,0,0,0,0c0,0,0,0,0,0c0,0,0,0,0,0c0,0,0,0,0,0c0,0,0,0,0,0
							c0,0,0,0,0,0c0,0,0,0,0,0c0,0,0,0,0,0c0,0,0,0,0,0c0,0,0,0,0,0c1,0,2-0.1,3.1-0.2c0.4,0,0.9-0.1,1.3-0.2
							c14.4-2.2,25.2-14.8,25.2-29.3V18.3h-1.4v36.4c0,2.6-1.4,4.9-3.7,6.1c-2.3,1.2-5.1,1-7.1-0.5c-0.9-0.7-1.9-1.3-2.9-1.8v1.3
							c9.4,5.5,15,16.1,13.9,27.2c-1.3,13.3-11.8,23.9-25,25.4c-8.1,0.9-16.1-1.7-22.1-7.1c-6-5.4-9.4-13.1-9.4-21.1
							c0-10,5.4-19.3,13.8-24.3V58.6z"/>
					</g>
					<g>
						<path class="st3" d="M1278.4,117.7c0.4-0.2,0.8-0.4,1.2-0.5C1279.3,117.3,1278.9,117.5,1278.4,117.7z"/>
						<path class="st3" d="M1278.4,124.5c-2.7,0-5.2-1.6-6.3-4.2c-1.5-3.5,0.1-7.5,3.6-9c0.3-0.1,0.7-0.3,1-0.4
							c3.4-1.6,7.5-0.2,9.2,3.2c0.5,1,0.7,2,0.7,2.9c0,2.6-1.4,5-3.9,6.2c-0.5,0.2-1,0.4-1.5,0.7
							C1280.3,124.4,1279.4,124.5,1278.4,124.5z"/>
					</g>
					<g>
						<path class="st3" d="M1268.9,120.3c-0.4,0.1-0.8,0.1-1.2,0.1C1268.2,120.4,1268.6,120.4,1268.9,120.3z"/>
						<path class="st3" d="M1267.8,127.3c-3.5,0-6.5-2.6-6.8-6.2c0-0.2,0-0.5,0-0.7c0-3.5,2.6-6.5,6.2-6.8c0.3,0,0.6-0.1,0.9-0.1
							c3.8-0.5,7.2,2.1,7.7,5.9c0,0.3,0.1,0.6,0.1,0.9c0,3.4-2.5,6.3-6,6.8c-0.5,0.1-0.9,0.1-1.4,0.2
							C1268.2,127.3,1268,127.3,1267.8,127.3z"/>
					</g>
					<g>
						<path class="st3" d="M1274.8,119c0.3-0.1,0.6-0.2,0.9-0.3C1275.4,118.8,1275.1,118.9,1274.8,119z"/>
						<path class="st3" d="M1274.8,125.9c-2.9,0-5.6-1.9-6.6-4.8c-0.2-0.7-0.3-1.4-0.3-2c0-2.9,1.9-5.6,4.8-6.6l0.7-0.2
							c3.6-1.2,7.5,0.7,8.7,4.3c1.2,3.6-0.7,7.5-4.3,8.7c-0.3,0.1-0.7,0.2-1,0.3C1276.2,125.8,1275.5,125.9,1274.8,125.9z"/>
					</g>
					<g>
						<path class="st3" d="M1276,118.6c0.3-0.1,0.5-0.2,0.8-0.3C1276.6,118.4,1276.3,118.5,1276,118.6z"/>
						<path class="st3" d="M1276,125.5c-2.8,0-5.5-1.8-6.5-4.6c-1.2-3.6,0.6-7.5,4.2-8.7l0.7-0.2c3.6-1.3,7.5,0.5,8.8,4
							c0.3,0.8,0.4,1.6,0.4,2.4c0,2.8-1.7,5.4-4.5,6.4c-0.3,0.1-0.6,0.2-1,0.3C1277.6,125.4,1276.8,125.5,1276,125.5z"/>
					</g>
					<g>
						<path class="st3" d="M1277.3,118.2c0.3-0.1,0.5-0.2,0.8-0.3C1277.8,118,1277.5,118.1,1277.3,118.2z"/>
						<path class="st3" d="M1277.3,125c-2.7,0-5.3-1.7-6.4-4.4c-0.3-0.8-0.5-1.7-0.5-2.5c0-2.8,1.7-5.3,4.4-6.4l0.6-0.3
							c3.5-1.4,7.5,0.2,9,3.7c0.4,0.9,0.5,1.7,0.5,2.6c0,2.7-1.6,5.3-4.2,6.4l-0.9,0.4C1278.9,124.9,1278.1,125,1277.3,125z"/>
					</g>
					<g>
						<path class="st3" d="M1280.3,116.8c0.2-0.1,0.4-0.2,0.5-0.3C1280.6,116.6,1280.5,116.7,1280.3,116.8z"/>
						<path class="st3" d="M1280.3,123.7c-2.5,0-5-1.4-6.2-3.8c-0.5-1-0.7-2-0.7-3.1c0-2.5,1.4-5,3.8-6.2l0.3-0.1l3.3,6l3.2,6.1
							l-0.7,0.3C1282.4,123.5,1281.3,123.7,1280.3,123.7z"/>
					</g>
				</g>
				<g>
					<g>
						<path class="st3" d="M1146.1,58.6v62h67.2c3.1,0,5.6-2.5,5.6-5.6v-9.5h-57.6c0,0,0,0,0,0V73.8c0,0,0,0,0,0h33.1
							c3.1,0,5.7-2.5,5.7-5.7v-9.5H1146.1z"/>
						<path class="st3" d="M1213.3,127.5h-67.2c-3.8,0-6.9-3.1-6.9-6.9v-62c0-3.8,3.1-6.9,6.9-6.9h53.9c3.8,0,6.9,3.1,6.9,6.9v9.5
							c0,6.9-5.6,12.5-12.5,12.5h-26.2v18h50.7c3.8,0,6.9,3.1,6.9,6.9v9.5C1225.8,121.9,1220.2,127.5,1213.3,127.5z M1153,113.8h59
							v-1.4h-50.7c-3.8,0-6.9-3.1-6.9-6.9V73.8c0-3.8,3.1-6.9,6.9-6.9h31.9v-1.4H1153V113.8z"/>
					</g>
					<g>
						<path class="st3" d="M1217.6,26.6h-70.2c-0.7,0-1.3-0.6-1.3-1.3V12.7c0-0.7,0.6-1.3,1.3-1.3h70.2c0.7,0,1.3,0.6,1.3,1.3v12.6
							C1218.9,26.1,1218.3,26.6,1217.6,26.6z"/>
						<path class="st3" d="M1211.3,33.5h-57.6c-8,0-14.5-6.5-14.5-14.5s6.5-14.5,14.5-14.5h57.6c8,0,14.5,6.5,14.5,14.5
							S1219.3,33.5,1211.3,33.5z M1153.7,18.3c-0.4,0-0.7,0.3-0.7,0.7s0.3,0.7,0.7,0.7h57.6c0.4,0,0.7-0.3,0.7-0.7s-0.3-0.7-0.7-0.7
							H1153.7z"/>
					</g>
				</g>
				<g>
					<circle class="st3" cx="1039.2" cy="25.7" r="14.2"/>
					<path class="st3" d="M1039.2,46.8c-11.6,0-21.1-9.5-21.1-21.1s9.5-21.1,21.1-21.1c11.6,0,21.1,9.5,21.1,21.1
						S1050.8,46.8,1039.2,46.8z M1039.2,18.3c-4.1,0-7.4,3.3-7.4,7.4s3.3,7.4,7.4,7.4c4.1,0,7.4-3.3,7.4-7.4
						S1043.2,18.3,1039.2,18.3z"/>
				</g>
				<g>
					<path class="st3" d="M1107.7,73.8C1107.7,73.8,1107.7,73.8,1107.7,73.8c16.5-1.1,29.3-14.7,29.4-31.2c0-17.2-14-31.1-31.2-31.2
						h-36.2c-3.1,0-5.6,2.5-5.6,5.6v9.6h15.3h5.5h20.5c8.6,0,16.1,6.6,16.5,15.2c0.4,9.1-6.9,16.7-16,16.7h-12.3h-4.2h-10.2h-15.2
						h-49.9v9.6c0,3.1,2.5,5.6,5.6,5.6h44.2v34v3.2v9.9h9.5c3.1,0,5.7-2.5,5.7-5.7V111v-3.2v-34h10.1h0.3l27.9,44.5
						c1,1.6,2.8,2.6,4.8,2.6h4.7c4.4,0,7.1-4.9,4.8-8.6L1107.7,73.8z"/>
					<path class="st3" d="M1127.1,127.8h-4.7c-4.3,0-8.3-2.2-10.6-5.9L1086.2,81v34.3c0,6.9-5.6,12.5-12.5,12.5h-9.5
						c-3.8,0-6.9-3.1-6.9-6.9V80.7h-37.4c-6.9,0-12.5-5.6-12.5-12.5v-9.6c0-3.8,3.1-6.9,6.9-6.9h91.7c2.5,0,4.8-1,6.6-2.8
						c1.7-1.8,2.6-4.2,2.5-6.7c-0.2-4.8-4.5-8.7-9.6-8.7h-41.3c-3.8,0-6.9-3.1-6.9-6.9v-9.6c0-6.9,5.6-12.5,12.5-12.5h36.2
						c20.9,0.1,38,17.1,38,38c-0.1,16.4-10.5,30.5-25.2,35.8l19,30.2c2.4,3.8,2.5,8.7,0.3,12.7
						C1135.8,125.4,1131.7,127.8,1127.1,127.8z M1123.1,114.1h1.7l-23-36.6c-1.3-2.1-1.4-4.7-0.3-6.8c1.1-2.2,3.3-3.6,5.8-3.7
						c12.7-0.8,22.8-11.5,22.8-24.3c0-13.3-11-24.2-24.3-24.3H1071v1.5h34.4c12.5,0,22.8,9.6,23.3,21.8c0.3,6.3-2,12.3-6.3,16.8
						c-4.3,4.5-10.2,7.1-16.5,7.1h-84.8v1.5h43c3.8,0,6.9,3.1,6.9,6.9v40.3h1.5V73.8c0-3.8,3.1-6.9,6.9-6.9h10.5
						c2.4,0,4.6,1.2,5.8,3.2L1123.1,114.1z"/>
				</g>
			</g>
			<g>
				<path class="st15" d="M1355.3,51.8v22.4h3.3v2.5h-9.2v-2.5h3.3V51.8h-3.3v-2.5h9.2v2.5H1355.3z"/>
				<path class="st15" d="M1379.2,67.6v9.2h-2.5v-9.2c0-3.7-3-6.6-6.6-6.6c-3.7,0-6.6,3-6.6,6.6v9.2h-2.5V58.4h2.5v2.8
					c1.7-1.8,4.1-2.8,6.6-2.8C1375.1,58.4,1379.2,62.5,1379.2,67.6z"/>
				<path class="st15" d="M1384,59.7v7.9c0,3.6,3,6.6,6.6,6.6v2.5c-5.1,0-9.1-4.1-9.2-9.2V49.3h2.5v7.9h6.6v2.5H1384z"/>
				<path class="st15" d="M1411.1,67.6c0,0.4,0,0.9-0.1,1.3h-15.6c0.5,2.4,2.2,4.3,4.6,5c2.3,0.7,4.9,0.1,6.6-1.6
					c0.3-0.3,0.6-0.7,0.9-1.1h2.9c-1.4,3.4-4.8,5.6-8.4,5.6c-5.1,0-9.1-4.1-9.2-9.2c0-5.1,4.1-9.1,9.2-9.2
					C1407,58.4,1411.1,62.5,1411.1,67.6z M1408.5,66.3c-0.6-3.1-3.3-5.3-6.5-5.3s-5.9,2.2-6.5,5.3H1408.5z"/>
				<path class="st15" d="M1413.3,76.8V49.3h2.5v27.5H1413.3z"/>
				<path class="st15" d="M1418.1,76.8V49.3h2.5v27.5H1418.1z"/>
				<path class="st15" d="M1425.4,53v3.4h-2.5V53H1425.4z M1422.9,77V58.7h2.5V77H1422.9z"/>
				<path class="st15" d="M1446,58.4v18.3c0,5.1-4.1,9.1-9.2,9.2c-4.2,0-7.8-2.8-8.9-6.9h2.7c0.3,0.9,0.9,1.7,1.5,2.4
					c1.9,1.9,4.7,2.5,7.2,1.4c2.5-1,4.1-3.4,4.1-6.1v-2.8c-2.6,2.7-6.6,3.6-10,2.2c-3.5-1.4-5.7-4.8-5.7-8.5c0-3.7,2.3-7.1,5.7-8.5
					s7.4-0.5,10,2.2v-2.8H1446z M1436.8,74.2c3.7,0,6.6-3,6.6-6.6c0-3.7-3-6.6-6.6-6.6c-3.7,0-6.6,3-6.6,6.6
					C1430.2,71.2,1433.2,74.2,1436.8,74.2L1436.8,74.2z"/>
				<path class="st15" d="M1466.5,67.6c0,0.4,0,0.9-0.1,1.3h-15.6c0.5,2.4,2.2,4.3,4.6,5c2.3,0.7,4.9,0.1,6.6-1.6
					c0.3-0.3,0.6-0.7,0.9-1.1h2.9c-1.4,3.4-4.8,5.6-8.4,5.6c-5.1,0-9.1-4.1-9.2-9.2c0-5.1,4.1-9.1,9.2-9.2
					C1462.4,58.4,1466.5,62.5,1466.5,67.6z M1463.9,66.3c-0.6-3.1-3.3-5.3-6.5-5.3s-5.9,2.2-6.5,5.3H1463.9z"/>
				<path class="st15" d="M1487.1,67.6v9.2h-2.5v-9.2c0-3.7-3-6.6-6.6-6.6c-3.7,0-6.6,3-6.6,6.6v9.2h-2.5V58.4h2.5v2.8
					c1.7-1.8,4.1-2.8,6.6-2.8C1483,58.4,1487.1,62.5,1487.1,67.6z"/>
				<path class="st15" d="M1491.8,59.7v7.9c0,3.6,3,6.6,6.6,6.6v2.5c-5.1,0-9.1-4.1-9.2-9.2V49.3h2.5v7.9h6.6v2.5H1491.8z"/>
				<path class="st16" d="M1538.3,76.8h-3.3l-10-12.5h0v-2.6h5.7c2.7,0,5-2.2,5-5c0-2.7-2.2-5-5-5h-8.3v25h-2.6V49.3h10.8
					c4.2,0,7.5,3.4,7.5,7.5c0,4.2-3.4,7.5-7.5,7.5h-2.5L1538.3,76.8z"/>
				<path class="st16" d="M1558.9,67.6c0,0.4,0,0.9-0.1,1.3h-15.6c0.5,2.4,2.2,4.3,4.6,5c2.3,0.7,4.9,0.1,6.6-1.6
					c0.3-0.3,0.6-0.7,0.9-1.1h2.9c-1.4,3.4-4.8,5.6-8.4,5.6c-5.1,0-9.1-4.1-9.2-9.2c0-5.1,4.1-9.1,9.2-9.2
					C1554.7,58.4,1558.8,62.5,1558.9,67.6z M1556.2,66.3c-0.6-3.1-3.3-5.3-6.5-5.3s-5.9,2.2-6.5,5.3H1556.2z"/>
				<path class="st16" d="M1575.6,71.5c0,2.9-2.3,5.2-5.2,5.2h-4.1c-2.6,0-4.8-2-5.2-4.6h2.6c0.3,1.2,1.4,2,2.6,2h4.1
					c1,0,1.9-0.5,2.4-1.3c0.5-0.8,0.5-1.9,0-2.7c-0.5-0.8-1.4-1.3-2.4-1.3h-4.1c-2.9,0-5.2-2.3-5.2-5.2c0-2.9,2.3-5.2,5.2-5.2h4.1
					c2.6,0,4.8,2,5.2,4.6h-2.6c-0.3-1.2-1.4-2-2.6-2h-4.1c-1.4,0-2.6,1.2-2.6,2.7c0,1.4,1.1,2.6,2.6,2.7h4.1
					C1573.2,66.3,1575.6,68.6,1575.6,71.5z"/>
				<path class="st16" d="M1596.1,67.6c0,5.1-4.1,9.2-9.2,9.2c-5.1,0-9.2-4.1-9.2-9.2c0-5.1,4.1-9.2,9.2-9.2
					C1592,58.4,1596.1,62.5,1596.1,67.6z M1593.6,67.6c0-3.7-3-6.6-6.6-6.6c-3.7,0-6.6,3-6.6,6.6c0,3.7,3,6.6,6.6,6.6
					C1590.6,74.2,1593.6,71.2,1593.6,67.6z"/>
				<path class="st16" d="M1616.7,58.4v18.3h-2.5v-2.8c-1.7,1.8-4.1,2.8-6.6,2.8c-5.1,0-9.1-4.1-9.2-9.2v-9.2h2.5v9.2
					c0,3.7,3,6.6,6.6,6.6c3.7,0,6.6-3,6.6-6.6v-9.2H1616.7z"/>
				<path class="st16" d="M1628,58.4V61c-3.7,0-6.6,3-6.6,6.6v9.2h-2.5V58.4h2.5v2.8C1623.1,59.4,1625.5,58.4,1628,58.4z"/>
				<path class="st16" d="M1645.6,69.9h2.7c-1.2,4.5-5.4,7.4-10,6.8c-4.6-0.6-8-4.5-8-9.1c0-4.6,3.4-8.5,8-9.1
					c4.6-0.6,8.9,2.3,10,6.8h-2.7c-1.2-3.1-4.5-4.9-7.8-4.1s-5.4,3.9-5,7.2c0.4,3.3,3.2,5.8,6.6,5.8
					C1642.2,74.2,1644.7,72.5,1645.6,69.9z"/>
				<path class="st16" d="M1668.8,67.6c0,0.4,0,0.9-0.1,1.3h-15.6c0.5,2.4,2.2,4.3,4.6,5c2.3,0.7,4.9,0.1,6.6-1.6
					c0.3-0.3,0.6-0.7,0.9-1.1h2.9c-1.4,3.4-4.8,5.6-8.4,5.6c-5.1,0-9.1-4.1-9.2-9.2c0-5.1,4.1-9.1,9.2-9.2
					C1664.7,58.4,1668.8,62.5,1668.8,67.6z M1666.2,66.3c-0.6-3.1-3.3-5.3-6.5-5.3s-5.9,2.2-6.5,5.3H1666.2z"/>
				<path class="st16" d="M1685.5,71.5c0,2.9-2.3,5.2-5.2,5.2h-4.1c-2.6,0-4.8-2-5.2-4.6h2.6c0.3,1.2,1.4,2,2.6,2h4.1
					c1,0,1.9-0.5,2.4-1.3c0.5-0.8,0.5-1.9,0-2.7c-0.5-0.8-1.4-1.3-2.4-1.3h-4.1c-2.9,0-5.2-2.3-5.2-5.2c0-2.9,2.3-5.2,5.2-5.2h4.1
					c2.6,0,4.8,2,5.2,4.6h-2.6c-0.3-1.2-1.4-2-2.6-2h-4.1c-1.4,0-2.6,1.2-2.6,2.7c0,1.4,1.1,2.6,2.6,2.7h4.1
					C1683.2,66.3,1685.5,68.6,1685.5,71.5z"/>
				<path class="st16" d="M1367.8,111.7c0,5.1-4.1,9.2-9.2,9.2c-5.1,0-9.2-4.1-9.2-9.2c0-5.1,4.1-9.2,9.2-9.2
					S1367.8,106.6,1367.8,111.7z M1365.3,111.7c0-3.7-3-6.6-6.6-6.6s-6.6,3-6.6,6.6c0,3.7,3,6.6,6.6,6.6
					C1362.3,118.3,1365.3,115.3,1365.3,111.7z"/>
				<path class="st16" d="M1372.6,102.5v7.9h6.6v2.5h-6.6v7.9h-2.5v-18.3c0-5.1,4.1-9.1,9.2-9.2v2.5c-1.8,0-3.4,0.7-4.7,1.9
					C1373.3,99.1,1372.6,100.8,1372.6,102.5z"/>
				<path class="st16" d="M1404.4,97.2v8h14.5v3.8h-14.5v8h14.5v3.8h-18.3V93.3h18.3v3.8H1404.4z"/>
				<path class="st16" d="M1430.3,120.8c-4,0-7.5-2.5-8.7-6.3c-1.2-3.8,0.1-7.9,3.3-10.2c3.2-2.3,7.5-2.4,10.8,0V93.3h3.8v27.5h-3.8
					v-1.7C1434.1,120.2,1432.2,120.8,1430.3,120.8L1430.3,120.8z M1425,111.7c0,3,2.4,5.3,5.3,5.3c3,0,5.3-2.4,5.3-5.3
					c0-3-2.4-5.3-5.3-5.3C1427.4,106.3,1425,108.7,1425,111.7z"/>
				<path class="st16" d="M1460,102.5v18.3h-3.8v-1.7c-1.6,1.1-3.4,1.7-5.3,1.7c-5.1,0-9.1-4.1-9.2-9.2v-9.2h3.8v9.2
					c0,3,2.4,5.3,5.3,5.3c3,0,5.3-2.4,5.3-5.3v-9.2H1460z"/>
				<path class="st16" d="M1480.3,114c-1.2,4.5-5.4,7.4-10,6.8c-4.6-0.6-8-4.5-8-9.1c0-4.6,3.4-8.5,8-9.1c4.6-0.6,8.9,2.3,10,6.8h-4
					c-1.1-2.3-3.6-3.5-6-2.9c-2.4,0.5-4.2,2.7-4.2,5.2c0,2.5,1.7,4.7,4.2,5.2c2.4,0.5,4.9-0.7,6-2.9H1480.3z"/>
				<path class="st16" d="M1500.8,102.5v18.3h-3.8v-1.7c-3.8,2.7-9,2.2-12.2-1.3c-3.1-3.5-3.1-8.8,0-12.2c3.1-3.5,8.4-4.1,12.2-1.3
					v-1.7H1500.8z M1491.7,117c2.9,0,5.3-2.4,5.3-5.3c0-3-2.4-5.3-5.3-5.3c-3,0-5.3,2.4-5.3,5.3C1486.3,114.6,1488.7,117,1491.7,117
					L1491.7,117z"/>
				<path class="st16" d="M1506.8,104.4v7.3c0,2.9,2.4,5.3,5.3,5.3v3.8c-5.1,0-9.1-4.1-9.2-9.2V93.3h3.8v7.3h5.3v3.8H1506.8z"/>
				<path class="st16" d="M1518.2,97.2v3.4h-3.8v-3.4H1518.2z M1514.4,121.2v-18.3h3.8v18.3H1514.4z"/>
				<path class="st16" d="M1538.8,111.7c0,5.1-4.1,9.2-9.2,9.2c-5.1,0-9.2-4.1-9.2-9.2c0-5.1,4.1-9.2,9.2-9.2
					C1534.7,102.5,1538.8,106.6,1538.8,111.7z M1524.3,111.7c0,3,2.4,5.3,5.3,5.3s5.3-2.4,5.3-5.3c0-3-2.4-5.3-5.3-5.3
					C1526.7,106.3,1524.3,108.7,1524.3,111.7z"/>
				<path class="st16" d="M1541,120.8v-18.3h3.8v1.7c1.6-1.1,3.4-1.7,5.3-1.7c5.1,0,9.1,4.1,9.2,9.2v9.2h-3.8v-9.2
					c0-3-2.4-5.3-5.3-5.3c-3,0-5.3,2.4-5.3,5.3v9.2H1541z"/>
				<rect x="1325.3" y="49.3" class="st16" width="2.5" height="71.1"/>
				<path class="st16" d="M1044.3,121h-12.8V58.7h15.4v59.8C1046.9,119.9,1045.7,121,1044.3,121z"/>
				<path class="st15" d="M1270.3,42.7c0,2.8-2.1,5-4.8,5c-2.7,0-5-2.2-5.1-4.9c0-2.6,2.3-5,4.9-5C1268,37.8,1270.3,40,1270.3,42.7z
					"/>
				<path class="st15" d="M1252.2,29.5c0-2.2,1.6-4,3.7-4c2.1,0,3.8,1.8,3.9,3.9c0,2.2-1.6,3.9-3.8,3.9
					C1253.8,33.4,1252.2,31.8,1252.2,29.5z"/>
				<path class="st15" d="M1264.6,13.1c1.8,0,2.9,1.1,3,2.9c0,1.9-1.1,3.1-3,3.1c-1.7,0-3-1.2-3-2.9
					C1261.5,14.3,1262.7,13.1,1264.6,13.1z"/>
				<path class="st15" d="M1279.7,84.3c0-0.5,0-1.1-0.1-1.6c-0.1-0.1-0.2-0.1-0.4-0.2c-5.2-2-10.2-1.7-14.9,1.4
					c-4,2.6-8.2,3.6-12.9,2.4c-1.1-0.3-2.1-0.7-3.2-1.2c0.4,8.3,7.3,14.9,15.7,14.9C1272.6,100.1,1279.7,93,1279.7,84.3z"/>
				<g>
					<path class="st16" d="M1282.6,115.6c0.2-0.1,0.3-0.2,0.5-0.3C1282.9,115.4,1282.8,115.5,1282.6,115.6z"/>
					<path class="st16" d="M1281.5,116.3c0.2-0.1,0.3-0.2,0.5-0.3C1281.8,116.1,1281.6,116.2,1281.5,116.3z"/>
					<path class="st16" d="M1283.8,114.9c0.1-0.1,0.2-0.2,0.4-0.2C1284.1,114.7,1284,114.8,1283.8,114.9z"/>
					<path class="st16" d="M1269,120.4c1.9-0.3,3.8-0.7,5.6-1.2c-1.6,0.5-3.3,0.9-5,1.1c0,0-0.1,0-0.1,0
						C1269.3,120.3,1269.1,120.4,1269,120.4z"/>
					<path class="st16" d="M1285.3,17.2v37.6c-4.2-3-8.9-5-13.7-6.1v15.4c8.8,3.3,14.9,12.1,13.9,22.3c-1,10-9,18.1-18.9,19.2
						c-13,1.4-23.9-8.7-23.9-21.4c0-9.2,5.7-17,13.8-20.1V48.8c-4.9,1.1-9.6,3.1-13.8,6.2c-12.7,9.3-18,25.7-13.1,40.7
						c4.9,15,18.8,25.1,34.6,25.1c0,0,0,0-0.1,0c0,0,0,0,0.1,0v0c1.2,0,2.5-0.1,3.7-0.2c0.6-0.1,1.1-0.1,1.6-0.2c0,0,0.1,0,0.1,0
						c17.5-2.7,30.9-17.8,30.9-36.1V11.5h-9.5C1287.8,11.5,1285.3,14.1,1285.3,17.2z"/>
					<path class="st16" d="M1278.4,117.7c0.4-0.2,0.8-0.4,1.2-0.5C1279.3,117.4,1278.9,117.6,1278.4,117.7z"/>
					<path class="st16" d="M1268.9,120.4c-0.4,0.1-0.8,0.1-1.2,0.1C1268.2,120.5,1268.6,120.4,1268.9,120.4z"/>
					<path class="st16" d="M1274.8,119.1c0.3-0.1,0.6-0.2,0.9-0.3C1275.4,118.9,1275.1,119,1274.8,119.1z"/>
					<path class="st16" d="M1276,118.7c0.3-0.1,0.5-0.2,0.8-0.3C1276.6,118.5,1276.3,118.6,1276,118.7z"/>
					<path class="st16" d="M1277.3,118.2c0.3-0.1,0.5-0.2,0.8-0.3C1277.8,118,1277.5,118.1,1277.3,118.2z"/>
					<path class="st16" d="M1280.3,116.9c0.2-0.1,0.4-0.2,0.5-0.3C1280.6,116.7,1280.5,116.8,1280.3,116.9z"/>
				</g>
				<g>
					<path class="st16" d="M1146.1,58.7v62h67.2c3.1,0,5.6-2.5,5.6-5.6v-9.5h-57.6c0,0,0,0,0,0V73.9c0,0,0,0,0,0h33.1
						c3.1,0,5.7-2.5,5.7-5.7v-9.5"/>
					<path class="st16" d="M1217.6,26.7h-70.2c-0.7,0-1.3-0.6-1.3-1.3V12.8c0-0.7,0.6-1.3,1.3-1.3h70.2c0.7,0,1.3,0.6,1.3,1.3v12.6
						C1218.9,26.1,1218.3,26.7,1217.6,26.7z"/>
				</g>
				<circle class="st17" cx="1039.2" cy="25.8" r="14.2"/>
				<path class="st16" d="M1107.7,73.9C1107.7,73.9,1107.7,73.8,1107.7,73.9c16.5-1.1,29.3-14.7,29.4-31.2c0-17.2-14-31.1-31.2-31.2
					h-36.2c-3.1,0-5.6,2.5-5.6,5.6v9.6h15.3h5.5h20.5c8.6,0,16.1,6.6,16.5,15.2c0.4,9.1-6.9,16.7-16,16.7h-12.3h-4.2h-10.2h-15.2
					h-49.9v9.6c0,3.1,2.5,5.6,5.6,5.6h44.2v34v3.2v9.9h9.5c3.1,0,5.7-2.5,5.7-5.7v-4.3v-3.2v-34h10.1h0.3l27.9,44.5
					c1,1.6,2.8,2.6,4.8,2.6h4.7c4.4,0,7.1-4.9,4.8-8.6L1107.7,73.9z"/>
			</g>
		</g>
	</g>
</g>
</svg>
