<?xml version="1.0" encoding="utf-8"?>
<!-- Generator: Adobe Illustrator 27.6.1, SVG Export Plug-In . SVG Version: 6.00 Build 0)  -->
<svg version="1.1" id="Layer_1" xmlns="http://www.w3.org/2000/svg" xmlns:xlink="http://www.w3.org/1999/xlink" x="0px" y="0px"
	 viewBox="0 0 759 58.5" style="enable-background:new 0 0 759 58.5;" xml:space="preserve">
<style type="text/css">
	.st0{fill:none;stroke:#FFAC5E;stroke-miterlimit:10;}
	.st1{fill:#FF9900;}
	.st2{fill:#FFAC5E;}
	.st3{display:none;}
	.st4{display:inline;}
	.st5{fill:#231916;}
	.st6{display:inline;fill:#231916;}
</style>
<g id="Layer_3">
	<g>
		<line class="st0" x1="208.1" y1="53.4" x2="235.9" y2="12"/>
		<line class="st0" x1="155.3" y1="7.6" x2="206.9" y2="7.6"/>
		<path class="st0" d="M4.4,52.4h172.3c10.1-14.9,20.1-29.9,30.2-44.8"/>
		<path class="st1" d="M235.8,16.8L235.8,16.8c-2.8,0-5.1-2.3-5.1-5.1l0,0c0-2.8,2.3-5.1,5.1-5.1l0,0c2.8,0,5.1,2.3,5.1,5.1l0,0
			C240.8,14.6,238.6,16.8,235.8,16.8z"/>
		<path class="st1" d="M156.3,13L156.3,13c-2.8,0-5.1-2.3-5.1-5.1l0,0c0-2.8,2.3-5.1,5.1-5.1l0,0c2.8,0,5.1,2.3,5.1,5.1l0,0
			C161.4,10.7,159.1,13,156.3,13z"/>
		<path class="st2" d="M5.1,57.3L5.1,57.3C2.3,57.3,0,55,0,52.2l0,0c0-2.8,2.3-5.1,5.1-5.1l0,0c2.8,0,5.1,2.3,5.1,5.1l0,0
			C10.2,55.1,7.9,57.3,5.1,57.3z"/>
	</g>
	<g>
		<line class="st0" x1="578.3" y1="8.2" x2="550.5" y2="49.6"/>
		<path class="st1" d="M549.5,44.8L549.5,44.8c2.8,0,5.1,2.3,5.1,5.1l0,0c0,2.8-2.3,5.1-5.1,5.1l0,0c-2.8,0-5.1-2.3-5.1-5.1l0,0
			C544.5,47.1,546.7,44.8,549.5,44.8z"/>
		<g>
			<g>
				<line class="st0" x1="659.4" y1="6.6" x2="607.8" y2="6.6"/>
				<path class="st1" d="M658.5,1.2L658.5,1.2c2.8,0,5.1,2.3,5.1,5.1l0,0c0,2.8-2.3,5.1-5.1,5.1l0,0c-2.8,0-5.1-2.3-5.1-5.1l0,0
					C653.4,3.5,655.7,1.2,658.5,1.2z"/>
			</g>
			<path class="st2" d="M753.9,42.7L753.9,42.7c2.8,0,5.1,2.3,5.1,5.1l0,0c0,2.8-2.3,5.1-5.1,5.1l0,0c-2.8,0-5.1-2.3-5.1-5.1l0,0
				C748.8,45,751.1,42.7,753.9,42.7z"/>
			<polyline class="st0" points="608.7,6.3 580.8,48.1 753.2,48.1 			"/>
		</g>
	</g>
</g>
<g id="Layer_1_00000004503775372677362310000010035040228231587213_" class="st3">
	<g class="st4">
		<g>
			<path class="st5" d="M500.9,25.2l-8.3,4.7c1.6,3.4,3,7.6,4.4,12.5l9-4.9C504.3,32.7,502.6,28.6,500.9,25.2z"/>
			<path class="st5" d="M532.1,10.4c-2.1,0-4.3,0-6.4,0.1H511c0.7-1,1.4-1.9,2.1-2.9c1.6-0.7,3.3-1.5,5.2-2.1
				c1.2-0.4,2.3-0.8,3.5-1.2c-1.9-0.5-3.8-1-5.7-1.4l-7.1-2c-5.7,8.6-11,15.6-15.9,20.9l3.8-11.4h-10l2.1-3.1
				c1.8-0.9,3.6-1.8,5.5-2.7c1-0.5,1.9-0.9,2.9-1.3c-1.9-0.3-3.7-0.6-5.6-0.8l-8-1.3c-1.2,2.4-3,5.5-5.4,9.3h-6.2l-15.7,47.6h8.1
				l1.5-4.6h8.3l-1.4,4.2h8.1l11.5-34.9c2.4,1.2,4.3,2.4,5.7,3.6c2.3-2.6,4.5-5.2,6.7-8h10.2c-0.8,2.3-1.8,5.4-3.1,9.1l-4.2,12
				c-1.5,4.3-2.4,6.7-2.8,7.2c-0.3,0.5-0.8,1-1.4,1.5s-1.3,0.8-2,1c-0.8,0.2-1.6,0.3-2.5,0.3c-3.3,0-6.3-0.1-9.1-0.4
				c0.1,2.5-0.1,5.4-0.7,8.8c6.5,0,10.7-0.2,12.7-0.5s3.7-1,5.1-1.9s2.6-2.1,3.5-3.6c1-1.5,2.1-4,3.4-7.6l10-28.5
				c1.5-1.1,3-2.1,4.7-3.2C530,11.7,531,11,532.1,10.4z M476.9,45.6h-8.3l3.3-10h8.3L476.9,45.6z M482.7,27.9h-8.3l3.3-10h8.3
				L482.7,27.9z"/>
		</g>
		<path class="st5" d="M466.4,2.2c-2.6,0-5.3,0-7.9,0.1l0,0H414l-17.8,54.1h8.3l1.3-4h29.5l-1.3,4h8.3l16.1-48.9
			c1.7-1.3,3.5-2.5,5.5-3.8C464.7,3.2,465.6,2.7,466.4,2.2z M437.8,44.6h-29.5l2.2-6.8H440L437.8,44.6z M442.5,30.4H413l2.1-6.4
			h29.5L442.5,30.4z M447.1,16.4h-29.5l2.1-6.4h29.5L447.1,16.4z"/>
		<g>
			<path class="st5" d="M360,50.3c6.2,0.7,13.3,1.5,21.3,2.6l-4.2,5.4c-6.3-1.1-13.4-2.2-21.4-3.2L360,50.3z"/>
			<g>
				<path class="st5" d="M375.7,22.9l0.7-2h10.3l1.3-4h-10.3l0.6-1.9h6l1.3-4h-6l0.7-2H373l-0.7,2h-11.4l0.7-2h-7.4l-0.7,2h-6.1
					l-1.3,4h6.1l-0.6,1.9h-10.4l-1.3,4h10.4l-0.7,2H334l-1.5,4.6h11c-3.8,1.6-8.1,2.9-12.7,4c0.8,2.2,1.4,4.3,1.9,6.4
					c1.8-0.7,3.5-1.4,5.2-2.2L333,50.5h13c-7.1,1-14.5,1.9-22.1,2.8c0.6,2,1.1,3.8,1.5,5.2c8.8-1.2,16.4-2.3,22.8-3.3l-1.5-4.6h27.4
					l4.9-14.8c1.2,0.7,2.6,1.4,4,2c1.9-2,4-4.3,6.2-6.7c-3.7-0.7-7.1-1.9-10-3.5h10.6l0,0c0-0.1,6.8-4.4,7.8-4.7
					C395.1,22.9,375.7,22.9,375.7,22.9z M359.6,15H371l-0.6,1.9H359L359.6,15z M357.6,20.9H369l-0.7,2H357L357.6,20.9z M352.9,27.5
					h16.5c0.6,0.8,1.2,1.5,1.9,2.2h-21.9C350.6,29,351.8,28.3,352.9,27.5z M367.7,46.5H342l0.7-2h25.7L367.7,46.5z M369.5,41.1
					h-25.7l0.6-1.9h25.7L369.5,41.1z M371.2,35.7h-25.7l0.7-2h25.7L371.2,35.7z"/>
				<path class="st5" d="M395.4,3.5h-21.3c-0.1-1.4-0.2-2.5-0.4-3.3l-9.5,0.5c0.2,0.9,0.4,1.9,0.5,2.9h-23l-3.4,10.3h6.3l1.8-5.6
					h41.8l-1.8,5.6h6.3l1.6-5c1.8-1.3,3.6-2.6,5.6-3.9c0.8-0.5,1.5-1,2.3-1.5C400.1,3.4,397.8,3.4,395.4,3.5z"/>
			</g>
		</g>
		<g>
			<path class="st5" d="M277,25.6h13.4l2.7-8.1h-13.4l3.9-11.7c1.6-1.1,3.3-2.3,5.1-3.4c0.9-0.6,1.7-1.1,2.6-1.6c-2,0-4,0-6,0l0,0
				h-8.7l-15.1,45.7c-0.8,2.4-2,4.1-3.7,5.2l1.9,6.9c5.7-2.6,13.3-5.3,22.9-7.9c0.7-2.8,1.6-5.8,2.7-8.8l-15.1,4.6L277,25.6z"/>
			<path class="st5" d="M305.4,46.8c-0.8,1.1-2,1.6-3.5,1.6h-4.1c-2,0-2.6-1.2-1.8-3.7l4.2-12.6c8.8-5.6,17.6-11.6,26.3-17.9l-5.6-6
				c-5.9,4.9-11.6,9.4-17.2,13.4L309.1,5c1.6-1.1,3.2-2.2,4.9-3.3c0.9-0.6,1.7-1.1,2.6-1.7c-2.3,0-4.6,0-6.8,0.1H302l-15.7,47.5
				c-2,6-0.1,9,5.5,9h7.4c2.3,0,4.4-0.3,6.2-0.9s3.3-1.4,4.4-2.4c1.2-1,2.5-2.9,4-5.7c1.5-2.7,3.1-6,4.7-9.7c-2.5-0.8-5-1.8-7.7-3
				C308,41.8,306.2,45.8,305.4,46.8z"/>
		</g>
	</g>
</g>
<g id="Layer_2_00000034091391790257132830000002146793784430322573_" class="st3">
	<g class="st4">
		<path class="st5" d="M361.7,50.4c6.2,0.7,13.4,1.5,21.5,2.6l-3.8,5.4c-6.4-1.1-13.6-2.2-21.7-3.2L361.7,50.4z"/>
		<path class="st5" d="M375.1,22.7l0.5-2h10.3l1-4h-10.3l0.5-1.9h6l1-4h-6l0.5-2h-7.4l-0.5,2h-11.4l0.5-2h-7.4l-0.5,2h-6.1l-1,4h6.1
			l-0.5,1.9H340l-1,4h10.4l-0.5,2h-15.6l-1.1,4.6h11c-3.7,1.6-7.8,2.9-12.4,4c1,2.2,1.8,4.3,2.4,6.4c1.7-0.7,3.4-1.4,5.1-2.2
			l-3.6,14.8h13c-7,1-14.3,1.9-21.8,2.8c0.8,2,1.4,3.8,2,5.2c8.7-1.2,16.2-2.3,22.5-3.3l-1.9-4.6h27.4l3.6-14.8
			c1.3,0.7,2.7,1.4,4.1,2c1.7-2,3.6-4.3,5.6-6.7c-3.8-0.7-7.3-1.9-10.3-3.5h10.6l0,0c0.7-0.9,6.4-4.4,7.4-4.7
			C394.4,22.6,375.1,22.7,375.1,22.7z M358.2,14.7h11.4l-0.5,1.9h-11.4L358.2,14.7z M356.8,20.7h11.4l-0.5,2h-11.4L356.8,20.7z
			 M352.6,27.3h16.5c0.7,0.8,1.4,1.5,2.1,2.2h-21.9C350.5,28.7,351.6,28,352.6,27.3z M369.1,46.2h-25.7l0.5-2h25.7L369.1,46.2z
			 M370.4,40.8h-25.7l0.5-1.9h25.7L370.4,40.8z M371.7,35.5H346l0.5-2h25.7L371.7,35.5z"/>
		<path class="st5" d="M400.1,3.1c-2.4,0-4.7,0.1-7.1,0.1h-21.3c-0.2-1.4-0.5-2.5-0.7-3.3l-9.4,0.5c0.3,0.9,0.5,1.9,0.8,2.9h-23
			L337,13.5h6.3l1.3-5.6h41.8l-1.3,5.6h6.3l1.2-5c1.6-1.3,3.4-2.6,5.2-3.9"/>
	</g>
	<path class="st6" d="M259.5,51.5l2.5,6.9c5.5-2.6,12.9-5.3,22.2-7.9c0.5-2.8,1.1-5.8,2-8.8l-14.7,4.6l5-20.8h13.4l2-8.1h-13.4
		l2.8-11.7c1.5-1.1,3.1-2.3,4.8-3.4c0.8-0.6,1.6-1.1,2.4-1.6c-2,0-4,0-6,0l0,0h-8.7l-11.1,45.7C262.2,48.7,261.1,50.4,259.5,51.5"/>
	<path class="st6" d="M306.8,46.7c-0.7,1.1-1.9,1.6-3.4,1.6h-4.1c-2,0-2.7-1.2-2.1-3.7l3.1-12.6c8.3-5.6,16.6-11.6,24.7-17.9l-6.2-6
		c-5.5,4.9-10.8,9.4-16,13.4l4-16.7c1.5-1.1,3-2.2,4.6-3.3c0.8-0.6,1.6-1.1,2.5-1.7c-2.3,0-4.5,0-6.8,0.1h-7.7l-11.5,47.5
		c-1.4,6,0.6,9,6.3,9h7.4c2.3,0,4.4-0.3,6.1-0.9s3.2-1.4,4.2-2.4c1.1-1,2.3-2.9,3.5-5.7c1.3-2.7,2.6-6,3.9-9.7c-2.5-0.8-5.2-1.8-8-3
		C309,41.7,307.5,45.6,306.8,46.7z"/>
	<path class="st6" d="M464.2,2.2c-1.8,0-3.7,0-5.5,0l0,0h-46.3l-13,53.9h9l1-4.1h28.2l-1,4.1h9l11.9-49.3c1.3-1,2.7-2.1,4.2-3.1
		C462.6,3.2,463.4,2.7,464.2,2.2z M439.6,43.7h-28.2l3.1-12.8h28.2L439.6,43.7z M444.7,22.8h-28.2l3-12.3h28.2L444.7,22.8z"/>
	<g class="st4">
		<path class="st5" d="M523.5,25.6h-33.8l-1.6,6.8h12.5l-1.2,4.9H488l-1.6,6.6h11.5l-1.2,5h-15.5l-1.6,6.8h38.1l0.5-2.2
			c1.3-1,2.7-2.1,4.3-3.1c0.8-0.5,1.6-1.1,2.4-1.6c-1.9,0-3.7,0-5.6,0l0,0h-14.6l1.2-5h11.6l0.4-1.8c1.4-1.1,2.9-2.2,4.5-3.3
			c0.8-0.5,1.6-1.1,2.4-1.6c-2.5,0-5,0-7.4,0.1h-9.9l1.2-4.9h13.2l0.4-1.5c1.6-1.3,3.3-2.5,5.2-3.8c0.8-0.5,1.6-1.1,2.4-1.6
			C527.7,25.5,525.6,25.5,523.5,25.6L523.5,25.6z"/>
		<path class="st5" d="M482.7,40.4l6.4-5c-2.4-3-4.4-5.3-5.9-6.9l-2,1.6l1.6-6.4h6.7l1.7-7h-6.7l1.8-7.4c2.5-0.3,4.9-0.7,7.4-1.1
			V0.9c-8.1,1.3-15.2,2.1-21.5,2.5c-0.1,2-0.3,4.5-0.8,7.5c2.4-0.2,4.7-0.4,7.1-0.6l-1.6,6.4h-7.8l-1.7,7h6.7
			c-3.5,5.7-7,10.4-10.4,13.9c0.4,3.2,0.5,6.5,0.4,9.8c3.1-4,5.9-8.2,8.4-12.6L467,57.4h7.5l5.3-21.9
			C480.8,37.1,481.8,38.7,482.7,40.4z"/>
		<path class="st5" d="M527.3,1.9L527.3,1.9l-30.5-0.1L492,21.5h30.5L526,7.1l0,0c1.6-1.3,3.3-2.5,5.2-3.8c0.8-0.5,1.6-1.1,2.4-1.6
			C531.5,1.9,529.4,1.9,527.3,1.9z M516.4,14.7h-14.9l1.5-6.1h14.9L516.4,14.7z"/>
	</g>
</g>
<g id="Layer_4">
	<g>
		<g>
			<path class="st5" d="M539.6,0.7"/>
		</g>
	</g>
</g>
<g>
	<path class="st5" d="M295.8,35.5l0.8-3.3H311l3.5-14.4h-36.7l-3.5,14.4h14.4l-0.8,3.3h-20.4l-4.5,18.7h7.7l3-12.5h12.7l-3.9,15.9h8
		l3.9-15.9h13.2l-0.8,3.1c-0.5,2.1-1.6,3.1-3.4,3.1c-1.8,0-3.7-0.1-5.7-0.2c0.2,2.5,0.3,4.7,0.2,6.6c4.7,0,7.5-0.1,8.6-0.2
		c1.1-0.1,2.2-0.5,3.2-1.1c1.1-0.6,1.9-1.4,2.7-2.4c0.7-1,1.2-2.2,1.6-3.7l1.6-6.7c1.4-1.1,2.9-2.1,4.5-3.2c0.8-0.6,1.6-1.1,2.4-1.6
		C320.6,35.5,295.8,35.5,295.8,35.5z M282.7,26.9l0.9-3.6H306l-0.9,3.6H282.7z"/>
	<path class="st5" d="M387.4,6.4c1.3-1,2.7-2,4.2-3c0.8-0.6,1.6-1.1,2.4-1.6c-1.8,0-3.7,0-5.5,0l0,0h-45.2l-9.1,37.7h10.3
		c-0.4,1.1-0.9,2.1-1.6,3c-1.8,3.2-7.8,5.9-18.1,8c1.6,4.5,2.5,7,2.7,7.5c12.7-2.8,20.6-7.7,23.6-14.8c0.5-1.2,1-2.5,1.4-3.8h6.4
		l-1.9,7.7c-1.5,6.3,0.7,9.4,6.6,9.4h7.9c4.5,0,7.8-1.8,9.7-5.5c1-1.6,2.4-4.7,4.3-9.1c-1.5-0.5-3.7-1.3-6.5-2.5h0.3L387.4,6.4z
		 M347.4,18.4h29.1l-1.1,4.7h-29.1L347.4,18.4z M343.8,33.2l1.1-4.7H374l-1.1,4.7H343.8z M375.9,45.8c-1,2.4-2.3,3.6-4,3.6h-3.2
		c-2.7,0-3.6-1.4-2.9-4.3l1.3-5.6h11.1C377.3,42.3,376.5,44.4,375.9,45.8z M377.8,12.9h-29.1l1.1-4.7h29.1L377.8,12.9z"/>
	<path class="st5" d="M437.5,30.9c0.6-0.4,1.2-0.8,1.8-1.3c0.8-0.6,1.6-1.1,2.4-1.6c-2.6,0-5.3,0-7.9,0c0,0,0,0,0,0h-20.7l-5.5,22.9
		h7.3l0.8-3.3h17.7L437.5,30.9z M427.7,41.3h-10.4l1.7-6.9h10.4L427.7,41.3z"/>
	<path class="st5" d="M424.1,24.6l4.7-19.4c0.8-0.6,1.7-1.2,2.6-1.8c0.8-0.6,1.6-1.1,2.4-1.6c-2.6,0-5.3,0-7.9,0c0,0,0,0,0,0h-20.5
		L392,57.2h7.8l7.9-32.6H424.1z M411.7,8.1h8.9l-0.7,3h-8.9L411.7,8.1z M409.8,15.7h8.9l-0.7,3h-8.9L409.8,15.7z"/>
	<path class="st5" d="M524.3,7.7l0.2-0.9c1.5-1.1,3.1-2.2,4.7-3.4c0.8-0.6,1.6-1.1,2.4-1.6c-2.6,0-5.3,0-7.9,0c0,0,0,0,0,0H497
		l-1.4,5.9h9.6c-0.4,1.2-0.9,2.5-1.4,3.8H496l-6.8,28.1h26l5.6-23.3c1.4-1.1,2.9-2.1,4.5-3.2c0.8-0.6,1.6-1.1,2.4-1.6
		c-2.6,0-5.3,0-7.9,0c0,0,0,0,0,0H511c0.5-1.2,1.1-2.5,1.6-3.8H524.3z M509.6,34.5h-12.4l0.8-3.1h12.4L509.6,34.5z M511.4,26.9
		h-12.4l0.8-3.2h12.4L511.4,26.9z M514,16.2l-0.8,3.1h-12.4l0.8-3.1H514z"/>
	<path class="st5" d="M494.7,2h-23l-5.5,22.7h23L494.7,2z M483.7,19.2h-9.4l0.8-3.4h9.4L483.7,19.2z M485.7,10.9h-9.4l0.8-3.4h9.4
		L485.7,10.9z"/>
	<path class="st5" d="M512,49.4c-0.3,0-0.5,0-0.8,0l4.6-3.9c-4.4-3-7.3-5-8.6-5.9l-5.4,4.2c3,2.5,5.2,4.4,6.6,5.7
		c-7.9,0-14.3,0.1-19.1,0.1c3.2-1.5,6.5-3.4,10-5.6l-3.1-4.3c-3.9,2.1-7.9,4-11.7,5.6c0.9,1.6,1.7,3,2.4,4.3c-4.5,0-7.8-0.4-9.9-1.2
		l1.4-5.6h7l1.4-5.7h-7l0.9-3.8h8.1l1.4-5.9H463l-1.4,5.9h11.8l-2.8,11.5c-0.8-0.7-1.6-1.6-2.3-2.5c0.6-2,1.2-4.2,1.8-6.6h-6.4
		c-1.8,7.6-4.2,13-7.3,16.4c1.9,2.3,3.3,4.3,4.3,6c1.8-2.1,3.4-4.9,5-8.4c3.5,4.1,9.4,6.2,17.7,6.2c6.7,0,16.3,0.1,28.6,0.2
		c0.3-0.6,0.5-1.2,0.8-1.7l0,0c1.5-1.2,3.1-2.3,4.7-3.5c0.8-0.6,1.6-1.1,2.4-1.6C517.3,49.3,514.7,49.4,512,49.4
		C512,49.4,512,49.4,512,49.4z"/>
	<path class="st5" d="M460.6,3.4c0.8-0.6,1.6-1.1,2.4-1.6c-2.6,0-5.3,0-7.9,0c0,0,0,0,0,0h-20.7L429,24.6h16.4l-5.1,21
		c-0.7,3.1-2.4,4.6-4.8,4.6c-1.8,0-4.5-0.1-8.1-0.3c-0.2,4.8-0.3,7.3-0.3,7.5c4.3,0,7.8-0.1,10.7-0.3c5.1-0.3,8.4-3.4,9.8-9.4
		l10.3-42.4C458.7,4.7,459.6,4,460.6,3.4z M446.8,18.7h-8.9l0.7-3h8.9L446.8,18.7z M448.6,11.2h-8.9l0.7-3h8.9L448.6,11.2z"/>
	<path class="st5" d="M328.8,10c0.8-0.6,1.6-1.1,2.4-1.6c-2.5,0-16.2,0-16.2,0c2.2-1.6,4.2-3.1,6.1-4.6l-4.6-4c-2.9,2.4-5.9,4.7-9,7
		l1.4,1.5h-6.8l2-8.4h-7.7l-2,8.4h-7.9l2.8-1.9c-1.7-2.4-3.5-4.6-5.4-6.7l-5.9,4c1.1,1.4,2.2,3,3.3,4.6h-10.5l-3.1,12.9h7.1l1.6-6.7
		h40.8l-1.6,6.7h7.1l2.1-8.5C326.1,11.9,327.4,10.9,328.8,10z"/>
</g>
</svg>
