<?xml version="1.0" encoding="utf-8"?>
<!-- Generator: Adobe Illustrator 27.6.1, SVG Export Plug-In . SVG Version: 6.00 Build 0)  -->
<svg version="1.1" xmlns="http://www.w3.org/2000/svg" xmlns:xlink="http://www.w3.org/1999/xlink" x="0px" y="0px"
	 viewBox="0 0 759 58.5" style="enable-background:new 0 0 759 58.5;" xml:space="preserve">
<style type="text/css">
	.st0{fill:none;stroke:#FFAC5E;stroke-miterlimit:10;}
	.st1{fill:#FF9900;}
	.st2{fill:#FFAC5E;}
	.st3{display:none;}
	.st4{display:inline;}
	.st5{fill:#231916;}
	.st6{display:inline;fill:#231916;}
</style>
<g id="Layer_3">
	<g>
		<line class="st0" x1="208.1" y1="53.4" x2="235.9" y2="12"/>
		<line class="st0" x1="155.3" y1="7.6" x2="206.9" y2="7.6"/>
		<path class="st0" d="M4.4,52.4h172.3c10.1-14.9,20.1-29.9,30.2-44.8"/>
		<path class="st1" d="M235.8,16.8L235.8,16.8c-2.8,0-5.1-2.3-5.1-5.1v0c0-2.8,2.3-5.1,5.1-5.1h0c2.8,0,5.1,2.3,5.1,5.1v0
			C240.8,14.6,238.6,16.8,235.8,16.8z"/>
		<path class="st1" d="M156.3,13L156.3,13c-2.8,0-5.1-2.3-5.1-5.1v0c0-2.8,2.3-5.1,5.1-5.1h0c2.8,0,5.1,2.3,5.1,5.1v0
			C161.4,10.7,159.1,13,156.3,13z"/>
		<path class="st2" d="M5.1,57.3L5.1,57.3c-2.8,0-5.1-2.3-5.1-5.1v0c0-2.8,2.3-5.1,5.1-5.1h0c2.8,0,5.1,2.3,5.1,5.1v0
			C10.2,55.1,7.9,57.3,5.1,57.3z"/>
	</g>
	<g>
		<line class="st0" x1="578.3" y1="8.2" x2="550.5" y2="49.6"/>
		<path class="st1" d="M549.5,44.8L549.5,44.8c2.8,0,5.1,2.3,5.1,5.1v0c0,2.8-2.3,5.1-5.1,5.1h0c-2.8,0-5.1-2.3-5.1-5.1v0
			C544.5,47.1,546.7,44.8,549.5,44.8z"/>
		<g>
			<g>
				<line class="st0" x1="659.4" y1="6.6" x2="607.8" y2="6.6"/>
				<path class="st1" d="M658.5,1.2L658.5,1.2c2.8,0,5.1,2.3,5.1,5.1v0c0,2.8-2.3,5.1-5.1,5.1l0,0c-2.8,0-5.1-2.3-5.1-5.1v0
					C653.4,3.5,655.7,1.2,658.5,1.2z"/>
			</g>
			<path class="st2" d="M753.9,42.7L753.9,42.7c2.8,0,5.1,2.3,5.1,5.1v0c0,2.8-2.3,5.1-5.1,5.1l0,0c-2.8,0-5.1-2.3-5.1-5.1v0
				C748.8,45,751.1,42.7,753.9,42.7z"/>
			<polyline class="st0" points="608.7,6.3 580.8,48.1 753.2,48.1 			"/>
		</g>
	</g>
</g>
<g id="Layer_1" class="st3">
	<g class="st4">
		<g>
			<path class="st5" d="M500.9,25.2l-8.3,4.7c1.6,3.4,3,7.6,4.4,12.5l9-4.9C504.3,32.7,502.6,28.6,500.9,25.2z"/>
			<path class="st5" d="M532.1,10.4c-2.1,0-4.3,0-6.4,0.1h-14.7c0.7-1,1.4-1.9,2.1-2.9c1.6-0.7,3.3-1.5,5.2-2.1
				c1.2-0.4,2.3-0.8,3.5-1.2c-1.9-0.5-3.8-1-5.7-1.4l-7.1-2c-5.7,8.6-11,15.6-15.9,20.9l3.8-11.4h-10l2.1-3.1
				c1.8-0.9,3.6-1.8,5.5-2.7c1-0.5,1.9-0.9,2.9-1.3c-1.9-0.3-3.7-0.6-5.6-0.8l-8-1.3c-1.2,2.4-3,5.5-5.4,9.3h-6.2l-15.7,47.6h8.1
				l1.5-4.6h8.3l-1.4,4.2h8.1l11.5-34.9c2.4,1.2,4.3,2.4,5.7,3.6c2.3-2.6,4.5-5.2,6.7-8h10.2c-0.8,2.3-1.8,5.4-3.1,9.1l-4.2,12
				c-1.5,4.3-2.4,6.7-2.8,7.2c-0.3,0.5-0.8,1-1.4,1.5s-1.3,0.8-2,1c-0.8,0.2-1.6,0.3-2.5,0.3c-3.3,0-6.3-0.1-9.1-0.4
				c0.1,2.5-0.1,5.4-0.7,8.8c6.5,0,10.7-0.2,12.7-0.5c2-0.3,3.7-1,5.1-1.9c1.4-0.9,2.6-2.1,3.5-3.6c1-1.5,2.1-4,3.4-7.6l10-28.5
				c1.5-1.1,3-2.1,4.7-3.2C530,11.7,531,11,532.1,10.4z M476.9,45.6h-8.3l3.3-10h8.3L476.9,45.6z M482.7,27.9h-8.3l3.3-10h8.3
				L482.7,27.9z"/>
		</g>
		<path class="st5" d="M466.4,2.2c-2.6,0-5.3,0-7.9,0.1c0,0,0,0,0,0h-44.5l-17.8,54.1h8.3l1.3-4h29.5l-1.3,4h8.3l16.1-48.9
			c1.7-1.3,3.5-2.5,5.5-3.8C464.7,3.2,465.6,2.7,466.4,2.2z M437.8,44.6h-29.5l2.2-6.8h29.5L437.8,44.6z M442.5,30.4H413l2.1-6.4
			h29.5L442.5,30.4z M447.1,16.4h-29.5l2.1-6.4h29.5L447.1,16.4z"/>
		<g>
			<path class="st5" d="M360,50.3c6.2,0.7,13.3,1.5,21.3,2.6l-4.2,5.4c-6.3-1.1-13.4-2.2-21.4-3.2L360,50.3z"/>
			<g>
				<path class="st5" d="M375.7,22.9l0.7-2h10.3l1.3-4h-10.3l0.6-1.9h6l1.3-4h-6l0.7-2H373l-0.7,2h-11.4l0.7-2h-7.4l-0.7,2h-6.1
					l-1.3,4h6.1l-0.6,1.9h-10.4l-1.3,4h10.4l-0.7,2H334l-1.5,4.6h11c-3.8,1.6-8.1,2.9-12.7,4c0.8,2.2,1.4,4.3,1.9,6.4
					c1.8-0.7,3.5-1.4,5.2-2.2L333,50.5h13c-7.1,1-14.5,1.9-22.1,2.8c0.6,2,1.1,3.8,1.5,5.2c8.8-1.2,16.4-2.3,22.8-3.3l-1.5-4.6h27.4
					l4.9-14.8c1.2,0.7,2.6,1.4,4,2c1.9-2,4-4.3,6.2-6.7c-3.7-0.7-7.1-1.9-10-3.5h10.6l0,0c0-0.1,6.8-4.4,7.8-4.7
					C395.1,22.9,375.7,22.9,375.7,22.9z M359.6,15H371l-0.6,1.9H359L359.6,15z M357.6,20.9H369l-0.7,2H357L357.6,20.9z M352.9,27.5
					h16.5c0.6,0.8,1.2,1.5,1.9,2.2h-21.9C350.6,29,351.8,28.3,352.9,27.5z M367.7,46.5H342l0.7-2h25.7L367.7,46.5z M369.5,41.1
					h-25.7l0.6-1.9h25.7L369.5,41.1z M371.2,35.7h-25.7l0.7-2h25.7L371.2,35.7z"/>
				<path class="st5" d="M395.4,3.5h-21.3c-0.1-1.4-0.2-2.5-0.4-3.3l-9.5,0.5c0.2,0.9,0.4,1.9,0.5,2.9h-23l-3.4,10.3h6.3l1.8-5.6
					h41.8l-1.8,5.6h6.3l1.6-5c1.8-1.3,3.6-2.6,5.6-3.9c0.8-0.5,1.5-1,2.3-1.5C400.1,3.4,397.8,3.4,395.4,3.5z"/>
			</g>
		</g>
		<g>
			<path class="st5" d="M277,25.6h13.4l2.7-8.1h-13.4l3.9-11.7c1.6-1.1,3.3-2.3,5.1-3.4c0.9-0.6,1.7-1.1,2.6-1.6c-2,0-4,0-6,0l0,0
				h-8.7l-15.1,45.7c-0.8,2.4-2,4.1-3.7,5.2l1.9,6.9c5.7-2.6,13.3-5.3,22.9-7.9c0.7-2.8,1.6-5.8,2.7-8.8l-15.1,4.6L277,25.6z"/>
			<path class="st5" d="M305.4,46.8c-0.8,1.1-2,1.6-3.5,1.6h-4.1c-2,0-2.6-1.2-1.8-3.7l4.2-12.6c8.8-5.6,17.6-11.6,26.3-17.9l-5.6-6
				c-5.9,4.9-11.6,9.4-17.2,13.4L309.1,5c1.6-1.1,3.2-2.2,4.9-3.3c0.9-0.6,1.7-1.1,2.6-1.7c-2.3,0-4.6,0-6.8,0.1H302l-15.7,47.5
				c-2,6-0.1,9,5.5,9h7.4c2.3,0,4.4-0.3,6.2-0.9s3.3-1.4,4.4-2.4c1.2-1,2.5-2.9,4-5.7c1.5-2.7,3.1-6,4.7-9.7c-2.5-0.8-5-1.8-7.7-3
				C308,41.8,306.2,45.8,305.4,46.8z"/>
		</g>
	</g>
</g>
<g id="Layer_2" class="st3">
	<g class="st4">
		<path class="st5" d="M361.7,50.4c6.2,0.7,13.4,1.5,21.5,2.6l-3.8,5.4c-6.4-1.1-13.6-2.2-21.7-3.2L361.7,50.4z"/>
		<path class="st5" d="M375.1,22.7l0.5-2h10.3l1-4h-10.3l0.5-1.9h6l1-4h-6l0.5-2h-7.4l-0.5,2h-11.4l0.5-2h-7.4l-0.5,2h-6.1l-1,4h6.1
			l-0.5,1.9h-10.4l-1,4h10.4l-0.5,2h-15.6l-1.1,4.6h11c-3.7,1.6-7.8,2.9-12.4,4c1,2.2,1.8,4.3,2.4,6.4c1.7-0.7,3.4-1.4,5.1-2.2
			l-3.6,14.8h13c-7,1-14.3,1.9-21.8,2.8c0.8,2,1.4,3.8,2,5.2c8.7-1.2,16.2-2.3,22.5-3.3l-1.9-4.6h27.4l3.6-14.8
			c1.3,0.7,2.7,1.4,4.1,2c1.7-2,3.6-4.3,5.6-6.7c-3.8-0.7-7.3-1.9-10.3-3.5h10.6l0,0c0.7-0.9,6.4-4.4,7.4-4.7
			C394.4,22.6,375.1,22.7,375.1,22.7z M358.2,14.7h11.4l-0.5,1.9h-11.4L358.2,14.7z M356.8,20.7h11.4l-0.5,2h-11.4L356.8,20.7z
			 M352.6,27.3h16.5c0.7,0.8,1.4,1.5,2.1,2.2h-21.9C350.5,28.7,351.6,28,352.6,27.3z M369.1,46.2h-25.7l0.5-2h25.7L369.1,46.2z
			 M370.4,40.8h-25.7l0.5-1.9h25.7L370.4,40.8z M371.7,35.5H346l0.5-2h25.7L371.7,35.5z"/>
		<path class="st5" d="M400.1,3.1c-2.4,0-4.7,0.1-7.1,0.1h-21.3c-0.2-1.4-0.5-2.5-0.7-3.3l-9.4,0.5c0.3,0.9,0.5,1.9,0.8,2.9h-23
			L337,13.5h6.3l1.3-5.6h41.8l-1.3,5.6h6.3l1.2-5c1.6-1.3,3.4-2.6,5.2-3.9"/>
	</g>
	<path class="st6" d="M259.5,51.5l2.5,6.9c5.5-2.6,12.9-5.3,22.2-7.9c0.5-2.8,1.1-5.8,2-8.8l-14.7,4.6l5-20.8h13.4l2-8.1h-13.4
		l2.8-11.7c1.5-1.1,3.1-2.3,4.8-3.4c0.8-0.6,1.6-1.1,2.4-1.6c-2,0-4,0-6,0l0,0h-8.7l-11.1,45.7C262.2,48.7,261.1,50.4,259.5,51.5"/>
	<path class="st6" d="M306.8,46.7c-0.7,1.1-1.9,1.6-3.4,1.6h-4.1c-2,0-2.7-1.2-2.1-3.7l3.1-12.6c8.3-5.6,16.6-11.6,24.7-17.9l-6.2-6
		c-5.5,4.9-10.8,9.4-16,13.4l4-16.7c1.5-1.1,3-2.2,4.6-3.3c0.8-0.6,1.6-1.1,2.5-1.7c-2.3,0-4.5,0-6.8,0.1h-7.7l-11.5,47.5
		c-1.4,6,0.6,9,6.3,9h7.4c2.3,0,4.4-0.3,6.1-0.9s3.2-1.4,4.2-2.4c1.1-1,2.3-2.9,3.5-5.7c1.3-2.7,2.6-6,3.9-9.7c-2.5-0.8-5.2-1.8-8-3
		C309,41.7,307.5,45.6,306.8,46.7z"/>
	<path class="st6" d="M464.2,2.2c-1.8,0-3.7,0-5.5,0l0,0h-46.3l-13,53.9h9l1-4.1h28.2l-1,4.1h9l11.9-49.3c1.3-1,2.7-2.1,4.2-3.1
		C462.6,3.2,463.4,2.7,464.2,2.2z M439.6,43.7h-28.2l3.1-12.8h28.2L439.6,43.7z M444.7,22.8h-28.2l3-12.3h28.2L444.7,22.8z"/>
	<g class="st4">
		<path class="st5" d="M523.5,25.6h-33.8l-1.6,6.8h12.5l-1.2,4.9H488l-1.6,6.6h11.5l-1.2,5h-15.5l-1.6,6.8h38.1l0.5-2.2
			c1.3-1,2.7-2.1,4.3-3.1c0.8-0.5,1.6-1.1,2.4-1.6c-1.9,0-3.7,0-5.6,0l0,0h-14.6l1.2-5h11.6l0.4-1.8c1.4-1.1,2.9-2.2,4.5-3.3
			c0.8-0.5,1.6-1.1,2.4-1.6c-2.5,0-5,0-7.4,0.1h-9.9l1.2-4.9h13.2l0.4-1.5c1.6-1.3,3.3-2.5,5.2-3.8c0.8-0.5,1.6-1.1,2.4-1.6
			C527.7,25.5,525.6,25.5,523.5,25.6L523.5,25.6z"/>
		<path class="st5" d="M482.7,40.4l6.4-5c-2.4-3-4.4-5.3-5.9-6.9l-2,1.6l1.6-6.4h6.7l1.7-7h-6.7l1.8-7.4c2.5-0.3,4.9-0.7,7.4-1.1
			l0-7.3c-8.1,1.3-15.2,2.1-21.5,2.5c-0.1,2-0.3,4.5-0.8,7.5c2.4-0.2,4.7-0.4,7.1-0.6l-1.6,6.4h-7.8l-1.7,7h6.7
			c-3.5,5.7-7,10.4-10.4,13.9c0.4,3.2,0.5,6.5,0.4,9.8c3.1-4,5.9-8.2,8.4-12.6l-5.5,22.6h7.5l5.3-21.9
			C480.8,37.1,481.8,38.7,482.7,40.4z"/>
		<path class="st5" d="M527.3,1.9L527.3,1.9l-30.5-0.1L492,21.5h30.5L526,7.1c0,0,0,0,0,0c1.6-1.3,3.3-2.5,5.2-3.8
			c0.8-0.5,1.6-1.1,2.4-1.6C531.5,1.9,529.4,1.9,527.3,1.9z M516.4,14.7h-14.9l1.5-6.1h14.9L516.4,14.7z"/>
	</g>
</g>
<g id="Layer_4">
	<g>
		<path class="st5" d="M363,50.4c6.2,0.7,13.4,1.5,21.5,2.6l-3.8,5.4c-6.4-1.1-13.6-2.2-21.7-3.2L363,50.4z"/>
		<g>
			<path class="st5" d="M376.4,22.7l0.5-2h10.3l1-4h-10.3l0.5-1.9h6l1-4h-6l0.5-2h-7.4l-0.5,2h-11.4l0.5-2h-7.4l-0.5,2h-6.1l-1,4
				h6.1l-0.5,1.9h-10.4l-1,4h10.4l-0.5,2h-15.6l-1.1,4.6h11c-3.7,1.6-7.8,2.9-12.4,4c1,2.2,1.8,4.3,2.4,6.4c1.7-0.7,3.4-1.4,5.1-2.2
				L336,50.3h13c-7,1-14.3,1.9-21.8,2.8c0.8,2,1.4,3.8,2,5.2c8.7-1.2,16.2-2.3,22.5-3.3l-1.9-4.6h27.4l3.6-14.8
				c1.3,0.7,2.7,1.4,4.1,2c1.7-2,3.6-4.3,5.6-6.7c-3.8-0.7-7.3-1.9-10.3-3.5h10.6l0,0c0.7-0.9,6.4-4.4,7.4-4.7
				C395.7,22.6,376.4,22.7,376.4,22.7z M359.6,14.7h11.4l-0.5,1.9h-11.4L359.6,14.7z M358.1,20.7h11.4l-0.5,2h-11.4L358.1,20.7z
				 M354,27.3h16.5c0.7,0.8,1.4,1.5,2.1,2.2h-21.9C351.8,28.7,352.9,28,354,27.3z M370.4,46.2h-25.7l0.5-2h25.7L370.4,46.2z
				 M371.7,40.8h-25.7l0.5-1.9h25.7L371.7,40.8z M373,35.5h-25.7l0.5-2h25.7L373,35.5z"/>
			<path class="st5" d="M394.4,3.2h-21.3c-0.2-1.4-0.5-2.5-0.7-3.3L363,0.3c0.3,0.9,0.5,1.9,0.8,2.9h-23l-2.5,10.3h6.3l1.3-5.6h41.8
				l-1.3,5.6h6.3l1.2-5c1.6-1.3,3.4-2.6,5.2-3.9c0.7-0.5,1.5-1,2.2-1.5C399.1,3.1,396.7,3.2,394.4,3.2z"/>
		</g>
	</g>
	<g>
		<path class="st5" d="M276.4,25.5h13.4l2-8.1h-13.4l2.8-11.7c1.5-1.1,3.1-2.3,4.8-3.4c0.8-0.6,1.6-1.1,2.4-1.6c-2,0-4,0-6,0l0,0
			h-8.7l-11.1,45.7c-0.6,2.4-1.7,4.1-3.3,5.2l2.5,6.9c5.5-2.6,12.9-5.3,22.2-7.9c0.5-2.8,1.1-5.8,2-8.8l-14.7,4.6L276.4,25.5z"/>
		<path class="st5" d="M306.7,46.7c-0.7,1.1-1.9,1.6-3.4,1.6h-4.1c-2,0-2.7-1.2-2.1-3.7l3.1-12.6c8.3-5.6,16.6-11.6,24.7-17.9
			l-6.2-6c-5.5,4.9-10.8,9.4-16,13.4l4-16.7c1.5-1.1,3-2.2,4.6-3.3c0.8-0.6,1.6-1.1,2.5-1.7c-2.3,0-4.5,0-6.8,0.1h-7.7l-11.5,47.5
			c-1.4,6,0.6,9,6.3,9h7.4c2.3,0,4.4-0.3,6.1-0.9s3.2-1.4,4.2-2.4c1.1-1,2.3-2.9,3.5-5.7c1.3-2.7,2.6-6,3.9-9.7
			c-2.5-0.8-5.2-1.8-8-3C308.9,41.7,307.4,45.6,306.7,46.7z"/>
	</g>
	<g>
		<path class="st5" d="M460.7,14.7l4.5-6.2c1.5-1.2,3-2.3,4.7-3.5c0.8-0.5,1.6-1.1,2.4-1.6c-2.6,0-5.3,0-7.9,0.1c0,0,0,0,0,0h-25.3
			c0.8-1,1.6-2,2.4-3l-7.8-0.6c-2.4,3.6-6,7.4-10.8,11.2c2.2,1.4,4,2.6,5.5,3.6c1.9-1.7,3.7-3.5,5.4-5.2h6.7
			c-1.9,4.5-8.2,7.4-18.8,8.6c0.5-0.2,1-0.5,1.5-0.7c-0.4-1.5-1-3.6-1.8-6.4c-4.7,2.4-9.7,4.7-15,6.7l1.8,7c3.8-1.9,8-4,12.7-6.2
			c0.7,2.2,1.2,4.2,1.7,6h-11l-5.9,24.2h13.9c-6.7,1.4-13.8,2.5-21.1,3.3c0.8,2.2,1.4,4.4,1.9,6.4c8-1.1,15.8-2.7,23.4-4.6l-3.4-5.1
			h14.2l-4.8,5.2c7.5,1.4,14.4,2.9,20.7,4.5l5.3-6.4c-5-1-11.6-2-19.7-3.2h14.2l5.9-24.2h-31.1c8.5-1.6,14.5-4.2,18-7.9
			c2.7,4.6,8.2,7.3,16.3,8.3c1.4-2,3-4.3,5.1-6.9c-8.5-0.6-14.2-3-17.1-7.3c0.2-0.4,0.4-0.8,0.6-1.2h8.7l-3,3.7L460.7,14.7z
			 M443.4,44.3h-28.5l0.7-2.8h28.5L443.4,44.3z M444.9,37.9h-28.5l0.7-2.8h28.5L444.9,37.9z M447.1,28.8l-0.7,2.7H418l0.7-2.7H447.1
			z"/>
		<path class="st5" d="M424.6,5.6c-2.2-1.8-4.9-3.7-8-5.6l-6.1,5.4c2.8,2,5.3,4,7.4,6L424.6,5.6z"/>
	</g>
	<g>
		<path class="st5" d="M485.8,16.7c-0.1-4.7-0.4-8.7-0.8-12l-5.7,1.6c0.2,2.9,0.5,7,0.7,12.1L485.8,16.7z"/>
		<path class="st5" d="M500,18.9c2.4-3.6,5-7.6,7.8-12.1c-3.1-1.2-4.9-1.9-5.4-2.1c-2.4,4.4-4.9,8.4-7.3,12.2L500,18.9z"/>
		<path class="st5" d="M509.3,32.6c1.7-1.4,4-3.2,6.8-5.4c-2.5-2.9-5-5.5-7.5-7.7l-6.1,5C505,27.1,507.3,29.8,509.3,32.6z"/>
		<path class="st5" d="M528.9,34l-4.6,0.4l7.1-29.2c1.5-1.1,3-2.3,4.7-3.4c0.8-0.5,1.6-1.1,2.4-1.6c-2.2,0-4.3,0-6.5,0.1h-7.7
			l-2.7,11.2c-2.4-2.7-4.8-5.1-7.1-7.3l-6.1,5c2.6,2.6,4.9,5.3,6.9,8.1c1.6-1.3,3.6-2.9,6.1-4.9l-5.5,22.7l-17.4,1.6l-0.1,1.1
			c-2.1-2.5-3.8-4.5-5.1-6l-2.9,2.2l1.3-5.6h9.1l1.7-7h-9.1l5.1-21h-7.6l-5.1,21h-9.5l-1.7,7h8.7c-3.5,4.9-7.6,9.6-12.1,13.9
			c0.3,3.4,0.5,6.3,0.6,8.8c3.6-3.4,6.7-6.9,9.4-10.4l-4.2,17.2h7.6l4.6-19.2c1.5,2,2.7,3.8,3.6,5.2c1.6-1.2,3.4-2.7,5.4-4.2
			l-0.5,4.5l16.4-1.5L510.3,58h8.3l3.9-16.1l7.3-0.7l0.4-2.2c1.4-1.3,2.8-2.7,4.5-4c0.8-0.6,1.5-1.2,2.2-1.8
			C534.1,33.4,531.5,33.7,528.9,34C528.9,34,528.9,34,528.9,34z"/>
	</g>
</g>
</svg>
