<?xml version="1.0" encoding="utf-8"?>
<!-- Generator: Adobe Illustrator 27.6.1, SVG Export Plug-In . SVG Version: 6.00 Build 0)  -->
<svg version="1.1" xmlns="http://www.w3.org/2000/svg" xmlns:xlink="http://www.w3.org/1999/xlink" x="0px" y="0px"
	 viewBox="0 0 645.5 58.5" style="enable-background:new 0 0 645.5 58.5;" xml:space="preserve">
<style type="text/css">
	.st0{fill:none;stroke:#FFAC5E;stroke-miterlimit:10;}
	.st1{fill:#FF9900;}
	.st2{fill:#FFAC5E;}
	.st3{fill:#231916;}
</style>
<g id="Layer_3">
	<g>
		<line class="st0" x1="213.8" y1="53.4" x2="241.5" y2="12"/>
		<line class="st0" x1="160.9" y1="7.6" x2="212.5" y2="7.6"/>
		<path class="st0" d="M10,52.4h172.3c10.1-14.9,20.1-29.9,30.2-44.8"/>
		<path class="st1" d="M241.4,16.8L241.4,16.8c-2.8,0-5.1-2.3-5.1-5.1v0c0-2.8,2.3-5.1,5.1-5.1h0c2.8,0,5.1,2.3,5.1,5.1v0
			C246.5,14.6,244.2,16.8,241.4,16.8z"/>
		<path class="st1" d="M161.9,13L161.9,13c-2.8,0-5.1-2.3-5.1-5.1v0c0-2.8,2.3-5.1,5.1-5.1h0c2.8,0,5.1,2.3,5.1,5.1v0
			C167,10.7,164.7,13,161.9,13z"/>
		<path class="st2" d="M10.7,57.3L10.7,57.3c-2.8,0-5.1-2.3-5.1-5.1v0c0-2.8,2.3-5.1,5.1-5.1h0c2.8,0,5.1,2.3,5.1,5.1v0
			C15.8,55.1,13.5,57.3,10.7,57.3z"/>
	</g>
	<g>
		<line class="st0" x1="460.1" y1="9" x2="432.4" y2="50.4"/>
		<path class="st1" d="M431.4,45.6L431.4,45.6c2.8,0,5.1,2.3,5.1,5.1v0c0,2.8-2.3,5.1-5.1,5.1l0,0c-2.8,0-5.1-2.3-5.1-5.1v0
			C426.3,47.9,428.6,45.6,431.4,45.6z"/>
		<g>
			<g>
				<line class="st0" x1="541.3" y1="7.4" x2="489.7" y2="7.4"/>
				<path class="st1" d="M540.3,2L540.3,2c2.8,0,5.1,2.3,5.1,5.1v0c0,2.8-2.3,5.1-5.1,5.1l0,0c-2.8,0-5.1-2.3-5.1-5.1v0
					C535.2,4.3,537.5,2,540.3,2z"/>
			</g>
			<path class="st2" d="M635.7,43.5L635.7,43.5c2.8,0,5.1,2.3,5.1,5.1v0c0,2.8-2.3,5.1-5.1,5.1l0,0c-2.8,0-5.1-2.3-5.1-5.1v0
				C630.6,45.8,632.9,43.5,635.7,43.5z"/>
			<polyline class="st0" points="490.6,7 462.7,48.9 635.1,48.9 			"/>
		</g>
	</g>
</g>
<g id="Layer_5">
	<g>
		<g>
			<path class="st3" d="M331,8c1.5-1.1,3.1-2.3,4.7-3.4c0.8-0.6,1.6-1.1,2.4-1.6c-2.5,0-22.7,0-22.7,0c1.2-1,2.5-2,3.7-3h-8.1
				c-3.7,3.1-8.1,6.3-13.1,9.6l2.3-9.6H293l-2.3,9.6h-5.4l1.8-7.6h-6.3l-3.2,13.2h11.7l-1,4h-15.2l-1.4,5.6h6.2
				c-0.8,2.9-3.6,5.2-8.3,7.1c1,1.7,1.8,3.4,2.6,5.1c6.3-2.8,10.2-6.8,11.7-12.2h3l-2.8,11.7h7.4L298,9.7c0.9,0.7,2.2,1.9,3.7,3.5
				c2.3-1.4,4.7-3.1,7.2-5h5.3l-3.8,2.1c0.8,1.2,1.5,2.3,2.2,3.3c-0.8,0.2-1.6,0.4-2.4,0.6c-0.6-1-1.2-2-1.9-3l-5.3,2.6
				c0.5,0.6,0.9,1.2,1.3,1.8c-2.1,0.4-4.3,0.8-6.7,1.1c0.4,1.3,0.8,3,1.3,5h-2.6l-1.3,5.4h3.5c0.3,2.3,0.5,4.5,0.5,6.7l6.9-2
				c-0.4-1.6-0.7-3.2-1.1-4.7h10.5c-0.4,1.3-1.2,1.9-2.5,1.9c-1.9,0-3.9-0.1-5.9-0.1c0.1,2.2,0.1,4.2-0.1,6c1.5,0,3.4,0,5.6,0
				c3-0.1,5.3-0.6,6.9-1.6c1.4-1.1,2.5-2.9,3.1-5.5l0.2-0.6h6l0.1-0.6c1.4-1.1,2.9-2.1,4.5-3.2c0.8-0.6,1.6-1.1,2.4-1.6
				c-2.6,0-11.8,0-11.8,0l1.1-4.6h-7.2c4.9-2.1,9.2-4.5,12.8-7.4L331,8z M316.6,21.7h-13.8c5.5-1.2,10.5-2.8,14.9-4.5L316.6,21.7z
				 M318,11.6c-0.6-1.1-1.3-2.2-2-3.4h8.2C322.4,9.4,320.4,10.5,318,11.6z"/>
			<path class="st3" d="M326.2,38.6H313c0.1-1.1,0.1-2,0.1-2.8l-7.9,0.4c0.1,0.8,0.1,1.6,0.2,2.4h-5.3c0.6-1.2,1.2-2.6,1.8-3.9h-7.7
				c-0.5,1.4-1.1,2.7-1.8,3.9h-24l-1.6,6.5h19.7c-4.9,3.4-12,5.3-21.1,5.6c0.8,2.7,1.4,5.1,1.8,7.3c12.8-1.1,22.1-5,27.9-11.8
				c3.2,7.2,10.6,11.2,22.3,12c1.6-2.1,3.5-4.6,5.9-7.3c-10.1,0-17.1-2-21-5.8h22.2l0.4-1.5c1.5-1.1,3.1-2.3,4.7-3.4
				c0.8-0.6,1.6-1.1,2.4-1.6C330.1,38.6,328.1,38.6,326.2,38.6L326.2,38.6z"/>
		</g>
		<g>
			<path class="st3" d="M360.5,37c-2.3,0.6-4.5,1.2-6.7,1.7l6.5-26.8h5.7l1.9-8h-19.7l-1.9,8h5.9l-7,28.8c-2.3,0.5-4.6,1-6.8,1.4
				l-0.5,8.7c8.1-2.1,14.9-3.8,20.2-5C358.7,43.5,359.5,40.5,360.5,37z"/>
			<path class="st3" d="M403.8,9l0.4-1.8c1.5-1.1,3-2.2,4.6-3.3c0.8-0.6,1.6-1.1,2.4-1.6c-2.6,0-5.3,0-7.9,0c0,0,0,0,0,0H370
				L368.4,9h11.5l-1.6,4.1h-10.1l-8,33.2h8.3c-5.1,2.7-9.9,4.9-14.5,6.7l3.8,5.7c4.9-2.5,10.2-5.4,16.1-8.7l-3.2-3.7h11.9l-5,3.9
				c4.2,3.1,7.8,5.9,10.7,8.4l6.4-5.7c-3.4-2.5-6.8-4.7-10.1-6.6h8.8l6.9-28.6c1.3-1,2.7-2,4.2-3c0.8-0.6,1.6-1.1,2.4-1.6
				c-2.6,0-5.3,0-7.9,0c0,0,0,0,0,0h-12l1.6-4.1H403.8z M387.2,40.4h-17.9l0.9-3.8h17.9L387.2,40.4z M389.4,31.5h-17.9l0.9-3.7h17.9
				L389.4,31.5z M392.4,19l-0.9,3.7h-17.9l0.9-3.7H392.4z"/>
		</g>
	</g>
</g>
</svg>
