<?xml version="1.0" encoding="utf-8"?>
<!-- Generator: Adobe Illustrator 28.0.0, SVG Export Plug-In . SVG Version: 6.00 Build 0)  -->
<svg version="1.1" id="Layer_1" xmlns="http://www.w3.org/2000/svg" xmlns:xlink="http://www.w3.org/1999/xlink" x="0px" y="0px"
	 viewBox="0 0 759 58.5" style="enable-background:new 0 0 759 58.5;" xml:space="preserve">
<style type="text/css">
	.st0{fill:#231916;}
	.st1{fill:none;stroke:#FFAC5E;stroke-miterlimit:10;}
	.st2{fill:#FF9900;}
	.st3{fill:#FFAC5E;}
</style>
<g>
	<g>
		<path class="st0" d="M360,50.3c6.2,0.7,13.3,1.5,21.3,2.6l-4.2,5.4c-6.3-1.1-13.4-2.2-21.4-3.2L360,50.3z"/>
		<g>
			<path class="st0" d="M375.7,22.9l0.7-2h10.3l1.3-4h-10.3l0.6-1.9h6l1.3-4h-6l0.7-2H373l-0.7,2h-11.4l0.7-2h-7.4l-0.7,2h-6.1
				l-1.3,4h6.1l-0.6,1.9h-10.4l-1.3,4h10.4l-0.7,2H334l-1.5,4.6h11c-3.8,1.6-8.1,2.9-12.7,4c0.8,2.2,1.4,4.3,1.9,6.4
				c1.8-0.7,3.5-1.4,5.2-2.2L333,50.5h13c-7.1,1-14.5,1.9-22.1,2.8c0.6,2,1.1,3.8,1.5,5.2c8.8-1.2,16.4-2.3,22.8-3.3l-1.5-4.6h27.4
				l4.9-14.8c1.2,0.7,2.6,1.4,4,2c1.9-2,4-4.3,6.2-6.7c-3.7-0.7-7.1-1.9-10-3.5h10.6l0,0c0-0.1,6.8-4.4,7.8-4.7
				C395.1,22.9,375.7,22.9,375.7,22.9z M359.6,15H371l-0.6,1.9H359L359.6,15z M357.6,20.9H369l-0.7,2H357L357.6,20.9z M352.9,27.5
				h16.5c0.6,0.8,1.2,1.5,1.9,2.2h-21.9C350.6,29,351.8,28.3,352.9,27.5z M367.7,46.5H342l0.7-2h25.7L367.7,46.5z M369.5,41.1h-25.7
				l0.6-1.9h25.7L369.5,41.1z M371.2,35.7h-25.7l0.7-2h25.7L371.2,35.7z"/>
			<path class="st0" d="M395.4,3.5h-21.3c-0.1-1.4-0.2-2.5-0.4-3.3l-9.5,0.5c0.2,0.9,0.4,1.9,0.5,2.9h-23l-3.4,10.3h6.3l1.8-5.6
				h41.8l-1.8,5.6h6.3l1.6-5c1.8-1.3,3.6-2.6,5.6-3.9c0.8-0.5,1.5-1,2.3-1.5C400.1,3.4,397.8,3.4,395.4,3.5z"/>
		</g>
	</g>
	<g>
		<path class="st0" d="M277,25.6h13.4l2.7-8.1h-13.4l3.9-11.7c1.6-1.1,3.3-2.3,5.1-3.4c0.9-0.6,1.7-1.1,2.6-1.6c-2,0-4,0-6,0l0,0
			h-8.7l-15.1,45.7c-0.8,2.4-2,4.1-3.7,5.2l1.9,6.9c5.7-2.6,13.3-5.3,22.9-7.9c0.7-2.8,1.6-5.8,2.7-8.8l-15.1,4.6L277,25.6z"/>
		<path class="st0" d="M305.4,46.8c-0.8,1.1-2,1.6-3.5,1.6h-4.1c-2,0-2.6-1.2-1.8-3.7l4.2-12.6c8.8-5.6,17.6-11.6,26.3-17.9l-5.6-6
			c-5.9,4.9-11.6,9.4-17.2,13.4L309.1,5c1.6-1.1,3.2-2.2,4.9-3.3c0.9-0.6,1.7-1.1,2.6-1.7c-2.3,0-4.6,0-6.8,0.1H302l-15.7,47.5
			c-2,6-0.1,9,5.5,9h7.4c2.3,0,4.4-0.3,6.2-0.9s3.3-1.4,4.4-2.4c1.2-1,2.5-2.9,4-5.7c1.5-2.7,3.1-6,4.7-9.7c-2.5-0.8-5-1.8-7.7-3
			C308,41.8,306.2,45.8,305.4,46.8z"/>
	</g>
	<g>
		<line class="st1" x1="208.1" y1="53.4" x2="235.9" y2="12"/>
		<line class="st1" x1="155.3" y1="7.6" x2="206.9" y2="7.6"/>
		<path class="st1" d="M4.4,52.4h172.3c10.1-14.9,20.1-29.9,30.2-44.8"/>
		<path class="st2" d="M235.8,16.8L235.8,16.8c-2.8,0-5.1-2.3-5.1-5.1v0c0-2.8,2.3-5.1,5.1-5.1h0c2.8,0,5.1,2.3,5.1,5.1v0
			C240.8,14.6,238.6,16.8,235.8,16.8z"/>
		<path class="st2" d="M156.3,13L156.3,13c-2.8,0-5.1-2.3-5.1-5.1v0c0-2.8,2.3-5.1,5.1-5.1h0c2.8,0,5.1,2.3,5.1,5.1v0
			C161.4,10.7,159.1,13,156.3,13z"/>
		<path class="st3" d="M5.1,57.3L5.1,57.3c-2.8,0-5.1-2.3-5.1-5.1v0c0-2.8,2.3-5.1,5.1-5.1h0c2.8,0,5.1,2.3,5.1,5.1v0
			C10.2,55.1,7.9,57.3,5.1,57.3z"/>
	</g>
	<g>
		<line class="st1" x1="578.3" y1="8.2" x2="550.5" y2="49.6"/>
		<path class="st2" d="M549.5,44.8L549.5,44.8c2.8,0,5.1,2.3,5.1,5.1v0c0,2.8-2.3,5.1-5.1,5.1h0c-2.8,0-5.1-2.3-5.1-5.1v0
			C544.5,47.1,546.7,44.8,549.5,44.8z"/>
		<g>
			<g>
				<line class="st1" x1="659.4" y1="6.6" x2="607.8" y2="6.6"/>
				<path class="st2" d="M658.5,1.2L658.5,1.2c2.8,0,5.1,2.3,5.1,5.1v0c0,2.8-2.3,5.1-5.1,5.1l0,0c-2.8,0-5.1-2.3-5.1-5.1v0
					C653.4,3.5,655.7,1.2,658.5,1.2z"/>
			</g>
			<path class="st3" d="M753.9,42.7L753.9,42.7c2.8,0,5.1,2.3,5.1,5.1v0c0,2.8-2.3,5.1-5.1,5.1l0,0c-2.8,0-5.1-2.3-5.1-5.1v0
				C748.8,45,751.1,42.7,753.9,42.7z"/>
			<polyline class="st1" points="608.7,6.3 580.8,48.1 753.2,48.1 			"/>
		</g>
	</g>
</g>
<g>
	<g>
		<path class="st0" d="M459.2,13.5l0.4-0.1l-2.1-3.4h6l9.8-6.5h-20.6c0.2-0.2,0.3-0.4,0.5-0.5l2.7-2.9l-9.5,1.2c0,0-5.9,5.7-9.9,8.7
			l-2.8,2.1l1.4,0.8c0.3,0.2,0.7,0.4,1.2,0.7l0.8,0.4c0.3,0.2,0.5,0.3,0.7,0.5l-0.1,0.3l-0.3,0.8l-5.5,17.4h16.9L444,48.5
			c-0.2,0.8-0.7,2.7-4.6,2.2l5.4-16.9h-29.3l-6,18.9h23.2c0,0,0,0,0,0c-0.1,1.7-0.2,3-0.3,3.9l-0.2,1.3h8.4c5.5,0,9-2.7,10.5-7.9
			l11.6-36.5H459.2z M451.1,26l-0.4,1.1h-9.4l0.4-1.1H451.1z M453.1,19.8l-0.3,0.9h-9.4l0.3-0.9H453.1z M446.7,10h2
			c0.4,0.7,0.9,1.5,1.5,2.5c0.1,0.4,0.3,0.8,0.4,1.1H443C444.4,12.4,445.6,11.2,446.7,10z M435,39.4l-0.4,1.1h-13.2l0.4-1.1H435z
			 M432.5,47.2h-13.2l0.4-1.1h13.2L432.5,47.2z"/>
		<path class="st0" d="M428.5,33.2l6.2-19.6H432l0,0l-0.6-1.3c-0.1-0.3-0.2-0.5-0.3-0.7l0.1,0c-0.1-0.2-0.2-0.4-0.3-0.6
			c-0.2-0.3-0.4-0.6-0.5-0.9h4.9l7.4-6.5H427c0.6-0.6,1.1-1.3,1.7-2.1l1.2-1.4l-9.3,0.8l-0.3,0.4c-3.5,4.2-7.8,6.6-13.4,10.1l-1,0.6
			l0.6,1c0.9,1.3,1.6,2.7,2.1,4L409,18l-12.8,40.5h7.6l8-25.3H428.5z M420.1,10h1.6c0.2,0.4,0.5,1,0.8,1.7c0.3,0.7,0.5,1.3,0.7,1.8
			h-7.5C417.1,12.6,418.5,11.4,420.1,10z M425.2,19.8l-0.3,0.9h-9.1l0.3-0.9H425.2z M423.2,26l-0.4,1.1h-9.1l0.4-1.1H423.2z"/>
	</g>
	<path class="st0" d="M529,22.3c-8.9-4.8-15-11-18.2-18.4c1-0.6,4.3-3.9,4.3-3.9L503.7,0l-0.3,0.3c-9.1,9.6-20.6,16.9-33.9,22.8
		l-0.8,0.3l0.1,0.8c0.1,0.4,0.2,0.8,0.4,1.3c0.7,2.5,1.2,4.1,1.7,5l0.5,1l1-0.5c3.8-1.9,7.4-3.9,10.9-5.9c-1,3.1-1.8,5.3-2.3,6.6
		l-0.1,0.1c-2.5,9.5-8.1,16.2-16.5,20l-1.2,0.5l0.7,1.1c0.4,0.7,1.1,1.6,2.1,2.7l2.2,3.2l0.9-0.5c10.4-5.7,17.4-14.6,20.6-26.4
		c0.3-0.9,0.8-2.4,1.7-4.5l1.4-4.3h-7.1c6.9-4.2,12.9-8.6,18.1-13.3c2,4.7,5.2,9.1,9.4,13h-7.9l-11,34.7h9L514,24.4
		c2.3,2.1,4.9,4.1,7.9,6l0.8,0.5l0.6-0.7c2.6-2.8,4.6-4.9,6-6.2l1.1-1L529,22.3z"/>
</g>
</svg>
