<?xml version="1.0" encoding="utf-8"?>
<!-- Generator: Adobe Illustrator 27.6.1, SVG Export Plug-In . SVG Version: 6.00 Build 0)  -->
<svg version="1.1" xmlns="http://www.w3.org/2000/svg" xmlns:xlink="http://www.w3.org/1999/xlink" x="0px" y="0px"
	 viewBox="0 0 645.5 58.5" style="enable-background:new 0 0 645.5 58.5;" xml:space="preserve">
<style type="text/css">
	.st0{fill:none;stroke:#FFAC5E;stroke-miterlimit:10;}
	.st1{fill:#FF9900;}
	.st2{fill:#FFAC5E;}
	.st3{fill:#231916;}
</style>
<g id="Layer_3">
	<g>
		<line class="st0" x1="213.8" y1="53.4" x2="241.5" y2="12"/>
		<line class="st0" x1="160.9" y1="7.6" x2="212.5" y2="7.6"/>
		<path class="st0" d="M10,52.4h172.3c10.1-14.9,20.1-29.9,30.2-44.8"/>
		<path class="st1" d="M241.4,16.8L241.4,16.8c-2.8,0-5.1-2.3-5.1-5.1v0c0-2.8,2.3-5.1,5.1-5.1h0c2.8,0,5.1,2.3,5.1,5.1v0
			C246.5,14.6,244.2,16.8,241.4,16.8z"/>
		<path class="st1" d="M161.9,13L161.9,13c-2.8,0-5.1-2.3-5.1-5.1v0c0-2.8,2.3-5.1,5.1-5.1h0c2.8,0,5.1,2.3,5.1,5.1v0
			C167,10.7,164.7,13,161.9,13z"/>
		<path class="st2" d="M10.7,57.3L10.7,57.3c-2.8,0-5.1-2.3-5.1-5.1v0c0-2.8,2.3-5.1,5.1-5.1h0c2.8,0,5.1,2.3,5.1,5.1v0
			C15.8,55.1,13.5,57.3,10.7,57.3z"/>
	</g>
	<g>
		<line class="st0" x1="460.1" y1="9" x2="432.4" y2="50.4"/>
		<path class="st1" d="M431.4,45.6L431.4,45.6c2.8,0,5.1,2.3,5.1,5.1v0c0,2.8-2.3,5.1-5.1,5.1l0,0c-2.8,0-5.1-2.3-5.1-5.1v0
			C426.3,47.9,428.6,45.6,431.4,45.6z"/>
		<g>
			<g>
				<line class="st0" x1="541.3" y1="7.4" x2="489.7" y2="7.4"/>
				<path class="st1" d="M540.3,2L540.3,2c2.8,0,5.1,2.3,5.1,5.1v0c0,2.8-2.3,5.1-5.1,5.1l0,0c-2.8,0-5.1-2.3-5.1-5.1v0
					C535.2,4.3,537.5,2,540.3,2z"/>
			</g>
			<path class="st2" d="M635.7,43.5L635.7,43.5c2.8,0,5.1,2.3,5.1,5.1v0c0,2.8-2.3,5.1-5.1,5.1l0,0c-2.8,0-5.1-2.3-5.1-5.1v0
				C630.6,45.8,632.9,43.5,635.7,43.5z"/>
			<polyline class="st0" points="490.6,7 462.7,48.9 635.1,48.9 			"/>
		</g>
	</g>
</g>
<g id="Layer_5">
	<g>
		<g>
			<path class="st3" d="M294.1,29c-2-1.5-4.1-3-6.5-4.5l1.3-5.2h6.5l1.9-7.7h-6.5l1.5-6.2c1.3-1,2.7-2,4.2-3
				c0.8-0.6,1.6-1.1,2.4-1.6c-2.5,0-13.3,0-13.3,0L283,11.7h-7.5l-1.9,7.7h7.3c-2.8,5.2-6.8,10.6-11.8,16.3c0,3.2-0.1,6.6-0.3,10.3
				c3.2-3.6,6-7.3,8.6-11.1l-5.6,23.2h7.7l6.2-25.5c1.2,1,2.3,2.1,3.3,3.1L294.1,29z"/>
			<path class="st3" d="M300.7,3.7l-13.2,54.6h8.1l0.7-2.9h15.9l-0.7,2.9h8.1l12.3-50.6c1.1-0.8,2.2-1.6,3.3-2.4
				c0.8-0.6,1.6-1.1,2.4-1.6C335.1,3.7,300.7,3.7,300.7,3.7z M314.1,47.9h-15.9l1.8-7.4h15.9L314.1,47.9z M317.6,33.1h-15.9l1.8-7.3
				h15.9L317.6,33.1z M321.2,18.5h-15.9l1.8-7.3h15.9L321.2,18.5z"/>
		</g>
		<g>
			<path class="st3" d="M385.3,5.9c-0.5-2.1-1-4-1.6-5.9l-7.9,1.3c0.4,1.4,0.8,2.9,1.1,4.5h-10c1-1.2,2-2.5,3-3.8l-7.7-1.8
				c-4.4,5.6-9.4,10.3-15,13.9c0.6,2.5,1,5.4,1.2,8.6c1.4-1,2.7-1.9,4-3l-4.1,17h7.7l0.5-2.1h41.6l1.2-5.2H379l0.8-3.1h17.5l0.2-0.7
				c1.2-0.8,2.5-1.7,3.9-2.5c0.8-0.5,1.6-1,2.4-1.5c-1.8,0-22.8,0-22.8,0l0.8-3.1h17.5l1.1-4.7h-17.5l0.8-3.1h19.6l0.2-0.7
				c1.2-0.9,2.5-1.8,3.9-2.7c0.8-0.6,1.6-1.1,2.4-1.6C407.8,5.9,385.3,5.9,385.3,5.9z M371.3,29.6h-13.5l0.8-3.1h13.5L371.3,29.6z
				 M373.2,21.8h-13.5l0.8-3.1h13.5L373.2,21.8z M375.1,14h-13.5l0.7-3l0.1-0.1h13.4L375.1,14z"/>
			<path class="st3" d="M374.3,38.7L375,36h-7.7l-0.7,2.7h-24l-1.4,5.6H358c-5.1,2.6-11.7,4.8-19.6,6.7c1.1,2.5,1.9,4.8,2.4,6.8
				c9.7-3,17.7-6.7,23.9-11.3l-2.8,11.5h7.7l2.9-12c3.7,4.9,9.9,8.6,18.6,11.2c1.5-2,3.5-4.3,5.8-7c-6.9-1.2-12.4-3.2-16.6-5.9h17.2
				l0.2-0.7c1.5-1.1,3-2.2,4.7-3.3c0.8-0.6,1.6-1.1,2.4-1.6C402.2,38.7,374.3,38.7,374.3,38.7z"/>
		</g>
	</g>
</g>
</svg>
