<?xml version="1.0" encoding="utf-8"?>
<!-- Generator: Adobe Illustrator 26.3.1, SVG Export Plug-In . SVG Version: 6.00 Build 0)  -->
<svg version="1.1" id="Layer_1" xmlns="http://www.w3.org/2000/svg" xmlns:xlink="http://www.w3.org/1999/xlink" x="0px" y="0px"
	 viewBox="0 0 120 120" style="enable-background:new 0 0 120 120;" xml:space="preserve">
<style type="text/css">
	.st0{fill:url(#SVGID_1_);}
	.st1{fill:url(#SVGID_00000062181268572325883530000001211928238734559877_);}
	.st2{fill:url(#SVGID_00000090295527096829527510000007632456185784615061_);}
</style>
<g>
	
		<linearGradient id="SVGID_1_" gradientUnits="userSpaceOnUse" x1="-42.7979" y1="157.6588" x2="16.5135" y2="96.2401" gradientTransform="matrix(0.9955 -9.522516e-02 -9.522516e-02 -0.9955 86.4234 148.5893)">
		<stop  offset="0" style="stop-color:#00E1C8"/>
		<stop  offset="0.2403" style="stop-color:#21AFD4"/>
		<stop  offset="0.7857" style="stop-color:#7333F3"/>
		<stop  offset="1" style="stop-color:#9500FF"/>
	</linearGradient>
	<path class="st0" d="M110.3,29.8l-80.8,7.5c-1.2,0.1-2.4-0.3-3.2-1L9.6,22.9c-2.3-2-0.8-5.5,2.5-5.8L93,9.6c1.2-0.1,2.4,0.3,3.2,1
		L112.9,24C115.1,26,113.7,29.6,110.3,29.8z"/>
	
		<linearGradient id="SVGID_00000180367667784088629010000002198612464706000296_" gradientUnits="userSpaceOnUse" x1="-32.887" y1="63.8869" x2="-6.3724" y2="109.8116" gradientTransform="matrix(0.9997 -2.511228e-02 -2.511228e-02 -0.9997 80.3255 185.0846)">
		<stop  offset="0" style="stop-color:#00E1C8"/>
		<stop  offset="0.2403" style="stop-color:#21AFD4"/>
		<stop  offset="0.7857" style="stop-color:#7333F3"/>
		<stop  offset="1" style="stop-color:#9500FF"/>
	</linearGradient>
	<path style="fill:url(#SVGID_00000180367667784088629010000002198612464706000296_);" d="M107.1,108.4l-81.2,2.1
		c-1.2,0-2.4-0.5-3.1-1.2L7.1,94.8C5,92.6,6.7,89.3,10,89.2l81.2-2.1c1.2,0,2.4,0.5,3.1,1.2l15.7,14.5
		C112,104.9,110.3,108.3,107.1,108.4z"/>
	
		<linearGradient id="SVGID_00000148642714180564811980000014774892517152794257_" gradientUnits="userSpaceOnUse" x1="32.1002" y1="55.4565" x2="84.257" y2="107.6133" gradientTransform="matrix(0.9995 -3.088631e-02 -3.088631e-02 -0.9995 6.6766 144.2605)">
		<stop  offset="0" style="stop-color:#00E1C8"/>
		<stop  offset="0.2403" style="stop-color:#21AFD4"/>
		<stop  offset="0.7857" style="stop-color:#7333F3"/>
		<stop  offset="1" style="stop-color:#9500FF"/>
	</linearGradient>
	<path style="fill:url(#SVGID_00000148642714180564811980000014774892517152794257_);" d="M23.1,73l63.8-1.9c1.2,0,2.3-0.5,3-1.4
		l14.9-15.3c2-2.3,0.1-5.5-3.3-5.4l-63.8,1.8c-1.2,0-2.3,0.5-3,1.4L19.9,67.5C17.9,69.8,19.9,73.1,23.1,73z"/>
</g>
</svg>
